<svg xmlns="http://www.w3.org/2000/svg" xmlns:xlink="http://www.w3.org/1999/xlink" width="108" height="108" viewBox="0 0 108 108">
  <defs>
    <filter id="Trazado_904820" x="0" y="0" width="108" height="108" filterUnits="userSpaceOnUse">
      <feOffset dy="3" input="SourceAlpha"/>
      <feGaussianBlur stdDeviation="3" result="blur"/>
      <feFlood flood-opacity="0.161"/>
      <feComposite operator="in" in2="blur"/>
      <feComposite in="SourceGraphic"/>
    </filter>
  </defs>
  <g id="Grupo_1209309" data-name="Grupo 1209309" transform="translate(-200 -5352.814)">
    <g id="Grupo_1209029" data-name="Grupo 1209029" transform="translate(209 5358.814)">
      <g id="Grupo_1174741" data-name="Grupo 1174741" transform="translate(0 0)">
        <g id="Grupo_1173585" data-name="Grupo 1173585">
          <g id="Grupo_1173428" data-name="Grupo 1173428">
            <g id="Grupo_1171958" data-name="Grupo 1171958">
              <g id="Grupo_1167341" data-name="Grupo 1167341">
                <g id="Grupo_1166792" data-name="Grupo 1166792">
                  <g transform="matrix(1, 0, 0, 1, -9, -6)" filter="url(#Trazado_904820)">
                    <g id="Trazado_904820-2" data-name="Trazado 904820" transform="translate(9 6)" fill="#e5fdfa">
                      <path d="M 44.99999618530273 88.50002288818359 C 39.12687301635742 88.50002288818359 33.43022155761719 87.35009765625 28.06829643249512 85.08218383789062 C 22.88852119445801 82.89133453369141 18.23629570007324 79.75460815429688 14.24084663391113 75.7591552734375 C 10.24540901184082 71.76371002197266 7.108683586120605 67.11148071289062 4.917821407318115 61.93170928955078 C 2.649921178817749 56.56978225708008 1.499996185302734 50.87313079833984 1.499996185302734 45.00000762939453 C 1.499996185302734 39.12688446044922 2.649921178817749 33.43023300170898 4.917821407318115 28.06830787658691 C 7.108683586120605 22.8885326385498 10.24540901184082 18.23630714416504 14.24084663391113 14.24085807800293 C 18.23629570007324 10.24542045593262 22.88852119445801 7.108695030212402 28.06829643249512 4.917832851409912 C 33.43022155761719 2.649932622909546 39.12687301635742 1.500007629394531 44.99999618530273 1.500007629394531 C 50.87311935424805 1.500007629394531 56.56977081298828 2.649932622909546 61.93169784545898 4.917832851409912 C 67.11147308349609 7.108695030212402 71.76369476318359 10.24542045593262 75.75914764404297 14.24085807800293 C 79.75458526611328 18.23630714416504 82.89131164550781 22.8885326385498 85.08216857910156 28.06830787658691 C 87.35007476806641 33.43023300170898 88.5 39.12688446044922 88.5 45.00000762939453 C 88.5 50.87313079833984 87.35007476806641 56.56978225708008 85.08216857910156 61.93170928955078 C 82.89131164550781 67.11148071289062 79.75458526611328 71.76371002197266 75.75914764404297 75.7591552734375 C 71.76369476318359 79.75460815429688 67.11147308349609 82.89133453369141 61.93169784545898 85.08218383789062 C 56.56977081298828 87.35009765625 50.87311935424805 88.50002288818359 44.99999618530273 88.50002288818359 Z" stroke="none"/>
                      <path d="M 44.99999618530273 2.999992370605469 C 39.32870864868164 2.999992370605469 33.82865142822266 4.110054016113281 28.65262603759766 6.299339294433594 C 23.65165710449219 8.414566040039062 19.15968322753906 11.44333648681641 15.301513671875 15.30152130126953 C 11.44333648681641 19.15969085693359 8.414566040039062 23.65164947509766 6.299339294433594 28.65263748168945 C 4.110054016113281 33.82866287231445 2.999992370605469 39.32872009277344 2.999992370605469 45.00000762939453 C 2.999992370605469 50.67129516601562 4.110054016113281 56.17133712768555 6.299339294433594 61.34738159179688 C 8.414566040039062 66.34835052490234 11.44333648681641 70.84030914306641 15.301513671875 74.69849395751953 C 19.15968322753906 78.55666351318359 23.65165710449219 81.58543395996094 28.65262603759766 83.70066833496094 C 33.82865142822266 85.88995361328125 39.32870864868164 87.00000762939453 44.99999618530273 87.00000762939453 C 50.67128372192383 87.00000762939453 56.17134094238281 85.88995361328125 61.34736633300781 83.70066833496094 C 66.34834289550781 81.58543395996094 70.84030914306641 78.55666351318359 74.69847869873047 74.69849395751953 C 78.55665588378906 70.84030914306641 81.58542633056641 66.34835052490234 83.70065307617188 61.34738159179688 C 85.88993835449219 56.17133712768555 87 50.67129516601562 87 45.00000762939453 C 87 39.32872009277344 85.88993835449219 33.82866287231445 83.70065307617188 28.65263748168945 C 81.58542633056641 23.65164947509766 78.55665588378906 19.15969085693359 74.69847869873047 15.30152130126953 C 70.84030914306641 11.44333648681641 66.34834289550781 8.414566040039062 61.34736633300781 6.299339294433594 C 56.17134094238281 4.110054016113281 50.67128372192383 2.999992370605469 44.99999618530273 2.999992370605469 M 44.99999618530273 -7.62939453125e-06 C 69.85281372070312 -7.62939453125e-06 90 20.14719390869141 90 45.00000762939453 C 90 69.85280609130859 69.85281372070312 90.00000762939453 44.99999618530273 90.00000762939453 C 20.14717864990234 90.00000762939453 -7.62939453125e-06 69.85280609130859 -7.62939453125e-06 45.00000762939453 C -7.62939453125e-06 20.14719390869141 20.14717864990234 -7.62939453125e-06 44.99999618530273 -7.62939453125e-06 Z" stroke="none" fill="#098576"/>
                    </g>
                  </g>
                </g>
              </g>
            </g>
          </g>
        </g>
      </g>
    </g>
    <g id="compare_9409792" transform="translate(216.017 5333.191)">
      <g id="Grupo_1209307" data-name="Grupo 1209307" transform="translate(7.5 39.101)">
        <path id="Trazado_1055717" data-name="Trazado 1055717" d="M198.657,174.028a2.9,2.9,0,0,0-1.991.2,8.887,8.887,0,0,1-7.706,0,2.9,2.9,0,0,0-1.991-.2c-1.9.5-3.114,1.246-3.114,2.078v3.1l1.08,1.254h15.857l.978-4.356C201.771,175.275,200.562,174.531,198.657,174.028Z" transform="translate(-161.958 -157.195)" fill="#ffefac"/>
        <path id="Trazado_1055718" data-name="Trazado 1055718" d="M371.328,288.528H361.2a1,1,0,0,0-1,1v20.9a1,1,0,0,0,1,1H377.13a1,1,0,0,0,1-1v-15.1a1.991,1.991,0,0,0-.583-1.408l-4.806-4.806A1.99,1.99,0,0,0,371.328,288.528Z" transform="translate(-316.415 -257.558)" fill="#b8eb7c"/>
        <path id="Trazado_1055719" data-name="Trazado 1055719" d="M361.205,312.726h15.925a1,1,0,0,0,1-1v-15.1a1.99,1.99,0,0,0-.583-1.408l-4.806-4.806a1.987,1.987,0,0,0-.583-.4v4.792a1,1,0,0,0,1,1h1.991v11.944a1.991,1.991,0,0,1-1.991,1.991H360.21v1.991A1,1,0,0,0,361.205,312.726Z" transform="translate(-316.415 -258.863)" fill="#98db7c"/>
        <path id="Trazado_1055720" data-name="Trazado 1055720" d="M194.974,288.528H184.85a1,1,0,0,0-1,1v20.9a1,1,0,0,0,1,1h15.925a1,1,0,0,0,1-1v-15.1a1.991,1.991,0,0,0-.583-1.408l-4.806-4.806A1.99,1.99,0,0,0,194.974,288.528Z" transform="translate(-161.958 -257.558)" fill="#ffefac"/>
        <path id="Trazado_1055721" data-name="Trazado 1055721" d="M184.849,312.726h15.925a1,1,0,0,0,1-1v-15.1a1.99,1.99,0,0,0-.583-1.408l-4.806-4.806a1.987,1.987,0,0,0-.583-.4v4.792a1,1,0,0,0,1,1h1.991v11.944a1.991,1.991,0,0,1-1.991,1.991H183.854v1.991A1,1,0,0,0,184.849,312.726Z" transform="translate(-161.957 -258.863)" fill="#ffe077"/>
        <path id="Trazado_1055722" data-name="Trazado 1055722" d="M18.619,288.528H8.5a1,1,0,0,0-1,1v20.9a1,1,0,0,0,1,1H24.421a1,1,0,0,0,1-1v-15.1a1.991,1.991,0,0,0-.583-1.408l-4.806-4.806A1.99,1.99,0,0,0,18.619,288.528Z" transform="translate(-7.5 -257.558)" fill="#eceaec"/>
        <path id="Trazado_1055723" data-name="Trazado 1055723" d="M8.5,312.726H24.421a1,1,0,0,0,1-1v-15.1a1.99,1.99,0,0,0-.583-1.408l-4.806-4.806a1.988,1.988,0,0,0-.583-.4v4.792a1,1,0,0,0,1,1H22.43v11.944a1.991,1.991,0,0,1-1.991,1.991H7.5v1.991A1,1,0,0,0,8.5,312.726Z" transform="translate(-7.5 -258.863)" fill="#dbd8db"/>
        <circle id="Elipse_13568" data-name="Elipse 13568" cx="4.977" cy="4.977" r="4.977" transform="translate(3.981 39.928)" fill="#ffd05b"/>
        <path id="Trazado_1055724" data-name="Trazado 1055724" d="M54.823,400.754,51.3,404.273a4.977,4.977,0,0,0,7.038,0Z" transform="translate(-45.865 -355.849)" fill="#ffaa5a"/>
        <path id="Trazado_1055725" data-name="Trazado 1055725" d="M198.785,174.976v2.155a2.986,2.986,0,0,1-2.986,2.986H183.855V183.1h17.916v-6.087C201.771,176.2,200.613,175.478,198.785,174.976Z" transform="translate(-161.958 -158.105)" fill="#ffe077"/>
        <path id="Trazado_1055726" data-name="Trazado 1055726" d="M199.962,39.1a5.972,5.972,0,0,0-5.83,4.676l-.717,3.229a1.974,1.974,0,0,0,.684,1.977,13.062,13.062,0,0,0,14.089,0,1.974,1.974,0,0,0,.684-1.977l-.717-3.229a5.972,5.972,0,0,0-5.83-4.676Z" transform="translate(-170.288 -39.101)" fill="#a46a5a"/>
        <g id="Grupo_1209306" data-name="Grupo 1209306" transform="translate(28.872 0)">
          <path id="Trazado_1055727" data-name="Trazado 1055727" d="M249.737,47.006l-.717-3.229a5.972,5.972,0,0,0-5.83-4.676h-2.363a5.928,5.928,0,0,0-.8.069A2.985,2.985,0,0,0,243,42.087h.186a2.971,2.971,0,0,1,2.917,2.344l1.213,5.6a8.156,8.156,0,0,0,1.733-1.043A1.974,1.974,0,0,0,249.737,47.006Z" transform="translate(-240.025 -39.101)" fill="#845252"/>
        </g>
        <path id="Trazado_1055728" data-name="Trazado 1055728" d="M219.02,86.678l-3.1,3.05a4.977,4.977,0,1,0,9.953,0A21.7,21.7,0,0,1,219.02,86.678Z" transform="translate(-190.041 -80.771)" fill="#fbbd80"/>
        <path id="Trazado_1055729" data-name="Trazado 1055729" d="M242.343,104.292a22.759,22.759,0,0,1-2.986-.983v.99a3.976,3.976,0,0,1-3.169,3.893l-1.464.3a4.956,4.956,0,0,0,7.618-4.2Z" transform="translate(-206.511 -95.337)" fill="#f4aa73"/>
      </g>
      <g id="Grupo_1209308" data-name="Grupo 1209308" transform="translate(7.5 39.101)">
        <path id="Trazado_1055730" data-name="Trazado 1055730" d="M217.76,79.183a21.128,21.128,0,0,0,8.111,3.981h0a4.977,4.977,0,0,1-4.977,4.977h0a4.977,4.977,0,0,1-4.977-4.977l2.952-2.871" transform="translate(-190.04 -74.206)" fill="none" stroke="#000" stroke-linecap="round" stroke-linejoin="round" stroke-miterlimit="10" stroke-width="1"/>
        <path id="Trazado_1055731" data-name="Trazado 1055731" d="M201.769,178.094V176.1c0-.832-1.21-1.576-3.117-2.079a2.891,2.891,0,0,0-1.985.2,8.887,8.887,0,0,1-7.712,0,2.89,2.89,0,0,0-1.985-.2c-1.907.5-3.117,1.247-3.117,2.079v1.991" transform="translate(-161.956 -157.192)" fill="none" stroke="#000" stroke-linecap="round" stroke-linejoin="round" stroke-miterlimit="10" stroke-width="1"/>
        <path id="Trazado_1055732" data-name="Trazado 1055732" d="M204.146,50.923a4.759,4.759,0,0,0,3.651-2.864l-.951-4.281a5.972,5.972,0,0,0-5.83-4.676h-2.363a5.972,5.972,0,0,0-5.83,4.676l-.951,4.281a4.781,4.781,0,0,0,3.818,2.894" transform="translate(-168.978 -39.101)" fill="none" stroke="#000" stroke-linecap="round" stroke-linejoin="round" stroke-miterlimit="10" stroke-width="1"/>
        <path id="Trazado_1055733" data-name="Trazado 1055733" d="M194.974,288.528H184.85a1,1,0,0,0-1,1v20.9a1,1,0,0,0,1,1h15.925a1,1,0,0,0,1-1v-15.1a1.991,1.991,0,0,0-.583-1.408l-4.806-4.806A1.99,1.99,0,0,0,194.974,288.528Z" transform="translate(-161.958 -257.558)" fill="none" stroke="#000" stroke-linecap="round" stroke-linejoin="round" stroke-miterlimit="10" stroke-width="1"/>
        <path id="Trazado_1055734" data-name="Trazado 1055734" d="M285.5,298.851h-4.458a1,1,0,0,1-1-1V293.5" transform="translate(-246.208 -261.909)" fill="none" stroke="#000" stroke-linecap="round" stroke-linejoin="round" stroke-miterlimit="10" stroke-width="1"/>
        <path id="Trazado_1055735" data-name="Trazado 1055735" d="M360.209,294.5v15.925a1,1,0,0,0,1,1H377.13a1,1,0,0,0,1-1v-15.1a1.991,1.991,0,0,0-.583-1.408l-4.806-4.806a1.991,1.991,0,0,0-1.408-.583H361.2a1,1,0,0,0-1,1v1" transform="translate(-316.415 -257.558)" fill="none" stroke="#000" stroke-linecap="round" stroke-linejoin="round" stroke-miterlimit="10" stroke-width="1"/>
        <path id="Trazado_1055736" data-name="Trazado 1055736" d="M461.858,298.851H457.4a1,1,0,0,1-1-1V293.5" transform="translate(-400.665 -261.909)" fill="none" stroke="#000" stroke-linecap="round" stroke-linejoin="round" stroke-miterlimit="10" stroke-width="1"/>
        <path id="Trazado_1055737" data-name="Trazado 1055737" d="M18.619,288.528H8.5a1,1,0,0,0-1,1v20.9a1,1,0,0,0,1,1H24.421a1,1,0,0,0,1-1v-15.1a1.991,1.991,0,0,0-.583-1.408l-4.806-4.806A1.99,1.99,0,0,0,18.619,288.528Z" transform="translate(-7.5 -257.558)" fill="none" stroke="#000" stroke-linecap="round" stroke-linejoin="round" stroke-miterlimit="10" stroke-width="1"/>
        <path id="Trazado_1055738" data-name="Trazado 1055738" d="M109.147,298.851h-4.458a1,1,0,0,1-1-1V293.5" transform="translate(-91.75 -261.909)" fill="none" stroke="#000" stroke-linecap="round" stroke-linejoin="round" stroke-miterlimit="10" stroke-width="1"/>
        <circle id="Elipse_13569" data-name="Elipse 13569" cx="4.977" cy="4.977" r="4.977" transform="translate(3.981 39.928)" fill="none" stroke="#000" stroke-linecap="round" stroke-linejoin="round" stroke-miterlimit="10" stroke-width="1"/>
        <path id="Trazado_1055739" data-name="Trazado 1055739" d="M55.6,403.74l2.986-2.986,2.986,2.986" transform="translate(-49.625 -355.849)" fill="none" stroke="#000" stroke-linecap="round" stroke-linejoin="round" stroke-miterlimit="10" stroke-width="1"/>
        <line id="Línea_2078" data-name="Línea 2078" x2="9.953" transform="translate(25.879 48.886)" fill="none" stroke="#000" stroke-linecap="round" stroke-linejoin="round" stroke-miterlimit="10" stroke-width="1"/>
        <line id="Línea_2079" data-name="Línea 2079" y2="2.986" transform="translate(26.874 45.9)" fill="none" stroke="#000" stroke-linecap="round" stroke-linejoin="round" stroke-miterlimit="10" stroke-width="1"/>
        <line id="Línea_2080" data-name="Línea 2080" y2="4.977" transform="translate(30.855 43.91)" fill="none" stroke="#000" stroke-linecap="round" stroke-linejoin="round" stroke-miterlimit="10" stroke-width="1"/>
        <line id="Línea_2081" data-name="Línea 2081" y2="7.963" transform="translate(34.837 40.924)" fill="none" stroke="#000" stroke-linecap="round" stroke-linejoin="round" stroke-miterlimit="10" stroke-width="1"/>
        <path id="Trazado_1055740" data-name="Trazado 1055740" d="M400.29,386.713l2.986,2.986,4.977-4.977" transform="translate(-351.519 -341.808)" fill="none" stroke="#000" stroke-linecap="round" stroke-linejoin="round" stroke-miterlimit="10" stroke-width="1"/>
        <path id="Trazado_1055741" data-name="Trazado 1055741" d="M123.44,246.4v-1.991a3.981,3.981,0,0,0-3.981-3.981H83.626a3.981,3.981,0,0,0-3.981,3.981V246.4" transform="translate(-70.687 -215.433)" fill="none" stroke="#000" stroke-linecap="round" stroke-linejoin="round" stroke-miterlimit="10" stroke-width="1"/>
        <line id="Línea_2082" data-name="Línea 2082" y1="9.073" transform="translate(30.855 21.897)" fill="none" stroke="#000" stroke-linecap="round" stroke-linejoin="round" stroke-miterlimit="10" stroke-width="1"/>
      </g>
    </g>
  </g>
</svg>
