<svg xmlns="http://www.w3.org/2000/svg" xmlns:xlink="http://www.w3.org/1999/xlink" width="113" height="113" viewBox="0 0 113 113">
  <defs>
    <filter id="Trazado_982547" x="0" y="0" width="113" height="113" filterUnits="userSpaceOnUse">
      <feOffset dy="3" input="SourceAlpha"/>
      <feGaussianBlur stdDeviation="3" result="blur"/>
      <feFlood flood-opacity="0.161"/>
      <feComposite operator="in" in2="blur"/>
      <feComposite in="SourceGraphic"/>
    </filter>
  </defs>
  <g id="Grupo_1209330" data-name="Grupo 1209330" transform="translate(-272.127 -6757.771)">
    <g id="Grupo_1209093" data-name="Grupo 1209093" transform="translate(0.127 4780.142)">
      <g id="Grupo_1208147" data-name="Grupo 1208147" transform="translate(0 -3923.371)">
        <g id="Grupo_1202432" data-name="Grupo 1202432" transform="translate(0 1255.486)">
          <g id="Grupo_1202055" data-name="Grupo 1202055" transform="translate(0 3240.511)">
            <g id="Grupo_1177900" data-name="Grupo 1177900" transform="translate(281 1411.003)">
              <g id="Grupo_1172010" data-name="Grupo 1172010" transform="translate(0)">
                <g id="Grupo_1171046" data-name="Grupo 1171046">
                  <g id="Grupo_1148525" data-name="Grupo 1148525">
                    <g transform="matrix(1, 0, 0, 1, -9, -6)" filter="url(#Trazado_982547)">
                      <g id="Trazado_982547-2" data-name="Trazado 982547" transform="translate(9 6)" fill="#fdf4ce">
                        <path d="M 47.5 93.5 C 41.28937149047852 93.5 35.26533508300781 92.28397369384766 29.59518623352051 89.88570404052734 C 24.11771965026855 87.56893157958984 19.19813346862793 84.25196075439453 14.97309303283691 80.02691650390625 C 10.74804019927979 75.80186462402344 7.431066513061523 70.88229370117188 5.114293098449707 65.40481567382812 C 2.716026782989502 59.73468017578125 1.5 53.71062850952148 1.5 47.5 C 1.5 41.28937149047852 2.716026782989502 35.26533508300781 5.114293098449707 29.59518623352051 C 7.431066513061523 24.11771965026855 10.74804019927979 19.19813346862793 14.97309303283691 14.97309303283691 C 19.19813346862793 10.74804019927979 24.11771965026855 7.431066513061523 29.59518623352051 5.114293098449707 C 35.26533508300781 2.716026782989502 41.28937149047852 1.5 47.5 1.5 C 53.71062850952148 1.5 59.73468017578125 2.716026782989502 65.40481567382812 5.114293098449707 C 70.88229370117188 7.431066513061523 75.80186462402344 10.74804019927979 80.02691650390625 14.97309303283691 C 84.25196075439453 19.19813346862793 87.56893157958984 24.11771965026855 89.88570404052734 29.59518623352051 C 92.28397369384766 35.26533508300781 93.5 41.28937149047852 93.5 47.5 C 93.5 53.71062850952148 92.28397369384766 59.73468017578125 89.88570404052734 65.40481567382812 C 87.56893157958984 70.88229370117188 84.25196075439453 75.80186462402344 80.02691650390625 80.02691650390625 C 75.80186462402344 84.25196075439453 70.88229370117188 87.56893157958984 65.40481567382812 89.88570404052734 C 59.73468017578125 92.28397369384766 53.71062850952148 93.5 47.5 93.5 Z" stroke="none"/>
                        <path d="M 47.5 3 C 41.49121475219727 3 35.66376876831055 4.176155090332031 30.17950439453125 6.495796203613281 C 24.88084411621094 8.736953735351562 20.12152099609375 11.94598388671875 16.03375244140625 16.03375244140625 C 11.94598388671875 20.12152099609375 8.736953735351562 24.88084411621094 6.495796203613281 30.17950439453125 C 4.176155090332031 35.66376876831055 3 41.49121475219727 3 47.5 C 3 53.50878524780273 4.176155090332031 59.33623123168945 6.495796203613281 64.82049560546875 C 8.736953735351562 70.11915588378906 11.94598388671875 74.87847900390625 16.03375244140625 78.96624755859375 C 20.12152099609375 83.05401611328125 24.88084411621094 86.26304626464844 30.17950439453125 88.50419616699219 C 35.66376876831055 90.82384490966797 41.49121475219727 92 47.5 92 C 53.50878524780273 92 59.33623123168945 90.82384490966797 64.82049560546875 88.50419616699219 C 70.11915588378906 86.26304626464844 74.87847900390625 83.05401611328125 78.96624755859375 78.96624755859375 C 83.05401611328125 74.87847900390625 86.26304626464844 70.11915588378906 88.50419616699219 64.82049560546875 C 90.82384490966797 59.33623123168945 92 53.50878524780273 92 47.5 C 92 41.49121475219727 90.82384490966797 35.66376876831055 88.50419616699219 30.17950439453125 C 86.26304626464844 24.88084411621094 83.05401611328125 20.12152099609375 78.96624755859375 16.03375244140625 C 74.87847900390625 11.94598388671875 70.11915588378906 8.736953735351562 64.82049560546875 6.495796203613281 C 59.33623123168945 4.176155090332031 53.50878524780273 3 47.5 3 M 47.5 0 C 73.7335205078125 0 95 21.2664794921875 95 47.5 C 95 73.7335205078125 73.7335205078125 95 47.5 95 C 21.2664794921875 95 0 73.7335205078125 0 47.5 C 0 21.2664794921875 21.2664794921875 0 47.5 0 Z" stroke="none" fill="#866d08"/>
                      </g>
                    </g>
                  </g>
                </g>
              </g>
            </g>
          </g>
        </g>
      </g>
    </g>
    <g id="data-sharing_6151769" transform="translate(291.987 6777.104)">
      <g id="Grupo_1209328" data-name="Grupo 1209328" transform="translate(1.362 1.362)">
        <g id="Grupo_1209310" data-name="Grupo 1209310" transform="translate(0 19.203)">
          <ellipse id="Elipse_13570" data-name="Elipse 13570" cx="13.202" cy="13.602" rx="13.202" ry="13.602" transform="translate(0 0)" fill="#ffeaa7"/>
        </g>
        <g id="Grupo_1209311" data-name="Grupo 1209311" transform="translate(39.206)">
          <circle id="Elipse_13571" data-name="Elipse 13571" cx="13.202" cy="13.202" r="13.202" fill="#ffeaa7"/>
        </g>
        <g id="Grupo_1209312" data-name="Grupo 1209312" transform="translate(39.206 39.206)">
          <circle id="Elipse_13572" data-name="Elipse 13572" cx="13.202" cy="13.202" r="13.202" transform="translate(0 0)" fill="#ffeaa7"/>
        </g>
        <g id="Grupo_1209313" data-name="Grupo 1209313" transform="translate(10.762 1.945)">
          <path id="Trazado_1055742" data-name="Trazado 1055742" d="M132.086,61.657h0a13.063,13.063,0,0,0-2.2-.185,13.227,13.227,0,0,0-7.313,24.248H88V67.9h0a13.24,13.24,0,0,0,8.817-1.586A13.227,13.227,0,0,0,90.2,41.635a13.065,13.065,0,0,0-2.2.185h0v-6.8H99.022V24h23.548a13.226,13.226,0,0,0,7.313,24.248,13.064,13.064,0,0,0,2.2-.185h0Z" transform="translate(-88 -24)" fill="#e6e9ed"/>
        </g>
        <g id="Grupo_1209314" data-name="Grupo 1209314" transform="translate(10.762 1.945)">
          <path id="Trazado_1055743" data-name="Trazado 1055743" d="M99.022,24V35.022H88Z" transform="translate(-88 -24)" fill="#ccd1d9"/>
        </g>
        <g id="Grupo_1209315" data-name="Grupo 1209315" transform="translate(46.031 16.216)">
          <path id="Trazado_1055744" data-name="Trazado 1055744" d="M357.226,133.157V135.8a13.236,13.236,0,0,1-13.226,0v-2.638a6.61,6.61,0,0,1,3.042-5.567v0l3.57,4.462,3.57-4.462v0a6.626,6.626,0,0,1,3.042,5.567Z" transform="translate(-344 -127.59)" fill="#ef7385"/>
        </g>
        <g id="Grupo_1209316" data-name="Grupo 1209316" transform="translate(46.031 55.894)">
          <path id="Trazado_1055745" data-name="Trazado 1055745" d="M357.226,421.157V423.8a13.236,13.236,0,0,1-13.226,0v-2.638a6.61,6.61,0,0,1,3.042-5.567v0l3.57,4.462,3.57-4.462v0a6.626,6.626,0,0,1,3.042,5.567Z" transform="translate(-344 -415.59)" fill="#b4dd7f"/>
        </g>
        <g id="Grupo_1209317" data-name="Grupo 1209317" transform="translate(49.073 54.849)">
          <path id="Trazado_1055746" data-name="Trazado 1055746" d="M369.651,408c.295,0,.584.019,3.571,1.046v0l-3.57,4.462-3.57-4.462v0A6.585,6.585,0,0,1,369.651,408Z" transform="translate(-366.08 -408)" fill="#f0d0b4"/>
        </g>
        <g id="Grupo_1209318" data-name="Grupo 1209318" transform="translate(49.073 15.171)">
          <path id="Trazado_1055747" data-name="Trazado 1055747" d="M369.651,120c.295,0,.584.019,3.571,1.046v0l-3.57,4.462-3.57-4.462v0A6.585,6.585,0,0,1,369.651,120Z" transform="translate(-366.08 -120)" fill="#f0d0b4"/>
        </g>
        <g id="Grupo_1209319" data-name="Grupo 1209319" transform="translate(6.353 36.055)">
          <path id="Trazado_1055748" data-name="Trazado 1055748" d="M69.226,277.157V279.8A13.235,13.235,0,0,1,56,279.8v-2.638a6.61,6.61,0,0,1,3.042-5.567v0l3.57,4.462,3.57-4.462v0a6.626,6.626,0,0,1,3.042,5.567Z" transform="translate(-56 -271.59)" fill="#69d6f4"/>
        </g>
        <g id="Grupo_1209320" data-name="Grupo 1209320" transform="translate(9.395 35.01)">
          <path id="Trazado_1055749" data-name="Trazado 1055749" d="M81.651,264c.295,0,.584.019,3.571,1.046v0l-3.57,4.462-3.57-4.462v0A6.585,6.585,0,0,1,81.651,264Z" transform="translate(-78.08 -264)" fill="#f0d0b4"/>
        </g>
        <g id="Grupo_1209321" data-name="Grupo 1209321" transform="translate(30.405 20.804)">
          <ellipse id="Elipse_13573" data-name="Elipse 13573" cx="2.4" cy="2" rx="2.4" ry="2" transform="translate(0 0)" fill="#ef7385"/>
        </g>
        <g id="Grupo_1209322" data-name="Grupo 1209322" transform="translate(47.133 43.827)">
          <path id="Trazado_1055750" data-name="Trazado 1055750" d="M363.022,333.511h-.189a7.527,7.527,0,0,1-5.322-2.2,3.987,3.987,0,0,1-3.567,2.2H352a5.511,5.511,0,0,1,11.022,0Z" transform="translate(-352 -328)" fill="#656d78"/>
        </g>
        <g id="Grupo_1209323" data-name="Grupo 1209323" transform="translate(47.133 4.149)">
          <path id="Trazado_1055751" data-name="Trazado 1055751" d="M363.022,45.511h-.189a7.527,7.527,0,0,1-5.322-2.2,3.987,3.987,0,0,1-3.567,2.2H352a5.511,5.511,0,0,1,11.022,0Z" transform="translate(-352 -40)" fill="#656d78"/>
        </g>
        <g id="Grupo_1209324" data-name="Grupo 1209324" transform="translate(7.455 23.988)">
          <path id="Trazado_1055752" data-name="Trazado 1055752" d="M75.022,189.511h-.189a7.527,7.527,0,0,1-5.322-2.2,3.987,3.987,0,0,1-3.567,2.2H64a5.511,5.511,0,0,1,11.022,0Z" transform="translate(-64 -184)" fill="#b27946"/>
        </g>
        <g id="Grupo_1209325" data-name="Grupo 1209325" transform="translate(47.133 47.133)">
          <path id="Trazado_1055753" data-name="Trazado 1055753" d="M363.022,354.2a5.511,5.511,0,0,1-11.022,0h1.944a3.987,3.987,0,0,0,3.567-2.2,7.527,7.527,0,0,0,5.322,2.2Z" transform="translate(-352 -352)" fill="#f0d0b4"/>
        </g>
        <g id="Grupo_1209326" data-name="Grupo 1209326" transform="translate(47.133 7.456)">
          <path id="Trazado_1055754" data-name="Trazado 1055754" d="M363.022,66.2A5.511,5.511,0,1,1,352,66.2h1.944a3.987,3.987,0,0,0,3.567-2.2,7.527,7.527,0,0,0,5.322,2.2Z" transform="translate(-352 -64)" fill="#f0d0b4"/>
        </g>
        <g id="Grupo_1209327" data-name="Grupo 1209327" transform="translate(7.455 27.295)">
          <path id="Trazado_1055755" data-name="Trazado 1055755" d="M74.833,210.2h.189A5.511,5.511,0,1,1,64,210.2h1.944a3.987,3.987,0,0,0,3.567-2.2,7.527,7.527,0,0,0,5.322,2.2Z" transform="translate(-64 -208)" fill="#f0d0b4"/>
        </g>
      </g>
      <g id="Grupo_1209329" data-name="Grupo 1209329" transform="translate(0 0)">
        <path id="Trazado_1055756" data-name="Trazado 1055756" d="M57.312,40.064V28.27A14.328,14.328,0,1,0,46.379,2.2H22.689L11.022,13.872v6.353a14.329,14.329,0,0,0,0,27.885V66.13H46.379A14.326,14.326,0,1,0,57.312,40.064Zm-7.576-27.94h.7a5.059,5.059,0,0,0,3.777-1.674,8.538,8.538,0,0,0,4.073,1.613,4.409,4.409,0,0,1-8.552.061Zm0-2.2a4.408,4.408,0,0,1,8.512-.091,6.375,6.375,0,0,1-3.464-1.79L53.7,6.957,53.02,8.324a2.87,2.87,0,0,1-2.581,1.6Zm4.269,7.715a5.485,5.485,0,0,1,1.857.323l-1.857,2.321-1.857-2.321A5.485,5.485,0,0,1,54.006,17.635Zm-3.754,1.481,3.754,4.692,3.754-4.692a5.5,5.5,0,0,1,1.757,4.03v1.98a12.111,12.111,0,0,1-11.022,0v-1.98a5.5,5.5,0,0,1,1.757-4.03ZM66.13,14.328a12.1,12.1,0,0,1-4.409,9.345v-.528a7.719,7.719,0,0,0-3.92-6.713,6.613,6.613,0,1,0-7.59,0,7.719,7.719,0,0,0-3.92,6.713v.528A12.122,12.122,0,1,1,66.13,14.328ZM22.043,5.967v7.259H14.785ZM2.2,34.167a12.124,12.124,0,1,1,19.839,9.345v-.528a7.719,7.719,0,0,0-3.92-6.713,6.613,6.613,0,1,0-7.59,0,7.719,7.719,0,0,0-3.92,6.713v.528A12.1,12.1,0,0,1,2.2,34.167Zm7.855-2.2h.7a5.059,5.059,0,0,0,3.777-1.674A8.538,8.538,0,0,0,18.612,31.9a4.409,4.409,0,0,1-8.552.061Zm0-2.2a4.408,4.408,0,0,1,8.512-.091,6.375,6.375,0,0,1-3.464-1.79L14.026,26.8l-.684,1.368a2.87,2.87,0,0,1-2.581,1.6Zm4.269,7.715a5.485,5.485,0,0,1,1.857.323l-1.857,2.321L12.471,37.8A5.485,5.485,0,0,1,14.328,37.473Zm-3.754,1.481,3.754,4.692,3.754-4.692a5.5,5.5,0,0,1,1.757,4.03v1.98a12.111,12.111,0,0,1-11.022,0v-1.98A5.5,5.5,0,0,1,10.575,38.955Zm2.651,9.5q.546.042,1.1.042a14.328,14.328,0,0,0,0-28.656q-.556,0-1.1.042V15.43H24.248V4.409H43.677A14.321,14.321,0,0,0,54.006,28.656q.556,0,1.1-.042V39.72q-.546-.042-1.1-.042A14.321,14.321,0,0,0,43.677,63.925H13.226ZM48.5,64.8v-1.98a5.5,5.5,0,0,1,1.757-4.03l3.754,4.692,3.754-4.692a5.5,5.5,0,0,1,1.757,4.03V64.8a12.111,12.111,0,0,1-11.022,0Zm1.242-13h.7a5.059,5.059,0,0,0,3.777-1.674,8.538,8.538,0,0,0,4.073,1.613,4.409,4.409,0,0,1-8.552.061Zm0-2.2a4.408,4.408,0,0,1,8.512-.091,6.375,6.375,0,0,1-3.464-1.79L53.7,46.634,53.02,48a2.87,2.87,0,0,1-2.581,1.6Zm4.269,7.715a5.485,5.485,0,0,1,1.857.323l-1.857,2.321-1.857-2.321A5.485,5.485,0,0,1,54.006,57.312Zm7.715,6.039v-.528A7.719,7.719,0,0,0,57.8,56.11a6.613,6.613,0,1,0-7.59,0,7.719,7.719,0,0,0-3.92,6.713v.528a12.124,12.124,0,1,1,15.43,0Z" transform="translate(0 0)"/>
        <path id="Trazado_1055757" data-name="Trazado 1055757" d="M227.306,152a3.306,3.306,0,1,0,3.306,3.306A3.31,3.31,0,0,0,227.306,152Zm0,4.409a1.1,1.1,0,1,1,1.1-1.1A1.1,1.1,0,0,1,227.306,156.409Z" transform="translate(-193.139 -131.059)"/>
        <path id="Trazado_1055758" data-name="Trazado 1055758" d="M224,218.2h2.2v17.635H224v2.2h6.613v-2.2h-2.2V218.2h2.2V216H224Z" transform="translate(-193.139 -186.242)"/>
        <path id="Trazado_1055759" data-name="Trazado 1055759" d="M112,432h13.226v2.2H112Z" transform="translate(-96.57 -372.483)"/>
        <path id="Trazado_1055760" data-name="Trazado 1055760" d="M112,400h13.226v2.2H112Z" transform="translate(-96.57 -344.892)"/>
        <path id="Trazado_1055761" data-name="Trazado 1055761" d="M192,48h11.022v2.2H192Z" transform="translate(-165.548 -41.387)"/>
        <path id="Trazado_1055762" data-name="Trazado 1055762" d="M192,80h11.022v2.2H192Z" transform="translate(-165.548 -68.978)"/>
      </g>
    </g>
  </g>
</svg>
