<svg xmlns="http://www.w3.org/2000/svg" xmlns:xlink="http://www.w3.org/1999/xlink" width="108" height="108" viewBox="0 0 108 108">
  <defs>
    <filter id="Trazado_904820" x="0" y="0" width="108" height="108" filterUnits="userSpaceOnUse">
      <feOffset dy="3" input="SourceAlpha"/>
      <feGaussianBlur stdDeviation="3" result="blur"/>
      <feFlood flood-opacity="0.161"/>
      <feComposite operator="in" in2="blur"/>
      <feComposite in="SourceGraphic"/>
    </filter>
  </defs>
  <g id="Grupo_1209156" data-name="Grupo 1209156" transform="translate(9 6)">
    <g id="Grupo_1174741" data-name="Grupo 1174741" transform="translate(0 0)">
      <g id="Grupo_1173585" data-name="Grupo 1173585">
        <g id="Grupo_1173428" data-name="Grupo 1173428">
          <g id="Grupo_1171958" data-name="Grupo 1171958">
            <g id="Grupo_1167341" data-name="Grupo 1167341">
              <g id="Grupo_1166792" data-name="Grupo 1166792">
                <g transform="matrix(1, 0, 0, 1, -9, -6)" filter="url(#Trazado_904820)">
                  <g id="Trazado_904820-2" data-name="Trazado 904820" transform="translate(9 6)" fill="#fef9e5">
                    <path d="M 44.99999618530273 88.50002288818359 C 39.12687301635742 88.50002288818359 33.43022155761719 87.35009765625 28.06829643249512 85.08218383789062 C 22.88852119445801 82.89133453369141 18.23629570007324 79.75460815429688 14.24084663391113 75.75916290283203 C 10.24540901184082 71.76371002197266 7.108683586120605 67.11148834228516 4.917821407318115 61.93171310424805 C 2.649921178817749 56.56978607177734 1.499996185302734 50.87313461303711 1.499996185302734 45.0000114440918 C 1.499996185302734 39.12688827514648 2.649921178817749 33.43023681640625 4.917821407318115 28.06831169128418 C 7.108683586120605 22.88853645324707 10.24540901184082 18.2363109588623 14.24084663391113 14.2408618927002 C 18.23629570007324 10.24541187286377 22.88852119445801 7.108686447143555 28.06829643249512 4.917836666107178 C 33.43022155761719 2.649924039840698 39.12687301635742 1.499998927116394 44.99999618530273 1.499998927116394 C 50.87311935424805 1.499998927116394 56.56977081298828 2.649924039840698 61.93169784545898 4.917836666107178 C 67.11147308349609 7.108686447143555 71.76369476318359 10.24541187286377 75.75914764404297 14.2408618927002 C 79.75458526611328 18.2363109588623 82.89131164550781 22.88853645324707 85.08216857910156 28.06831169128418 C 87.35007476806641 33.43023681640625 88.5 39.12688827514648 88.5 45.0000114440918 C 88.5 50.87313461303711 87.35007476806641 56.56978607177734 85.08216857910156 61.93171310424805 C 82.89131164550781 67.11148834228516 79.75458526611328 71.76371002197266 75.75914764404297 75.75916290283203 C 71.76369476318359 79.75460815429688 67.11147308349609 82.89133453369141 61.93169784545898 85.08218383789062 C 56.56977081298828 87.35009765625 50.87311935424805 88.50002288818359 44.99999618530273 88.50002288818359 Z" stroke="none"/>
                    <path d="M 44.99999618530273 3 C 39.32870864868164 3 33.82865142822266 4.110054016113281 28.65262603759766 6.299339294433594 C 23.65165710449219 8.414566040039062 19.15968322753906 11.44333648681641 15.301513671875 15.30152893066406 C 11.44333648681641 19.15969848632812 8.414566040039062 23.65165710449219 6.299339294433594 28.65264129638672 C 4.110054016113281 33.82866668701172 2.999992370605469 39.3287239074707 2.999992370605469 45.0000114440918 C 2.999992370605469 50.67129898071289 4.110054016113281 56.17135620117188 6.299339294433594 61.34738159179688 C 8.414566040039062 66.34836578369141 11.44333648681641 70.84032440185547 15.301513671875 74.69849395751953 C 19.15968322753906 78.55668640136719 23.65165710449219 81.58545684814453 28.65262603759766 83.70068359375 C 33.82865142822266 85.88996887207031 39.32870864868164 87.00002288818359 44.99999618530273 87.00002288818359 C 50.67128372192383 87.00002288818359 56.17134094238281 85.88996887207031 61.34736633300781 83.70068359375 C 66.34834289550781 81.58545684814453 70.84030914306641 78.55668640136719 74.69847869873047 74.69849395751953 C 78.55665588378906 70.84032440185547 81.58542633056641 66.34836578369141 83.70065307617188 61.34738159179688 C 85.88993835449219 56.17135620117188 87 50.67129898071289 87 45.0000114440918 C 87 39.3287239074707 85.88993835449219 33.82866668701172 83.70065307617188 28.65264129638672 C 81.58542633056641 23.65165710449219 78.55665588378906 19.15969848632812 74.69847869873047 15.30152893066406 C 70.84030914306641 11.44333648681641 66.34834289550781 8.414566040039062 61.34736633300781 6.299339294433594 C 56.17134094238281 4.110054016113281 50.67128372192383 3 44.99999618530273 3 M 44.99999618530273 0 C 69.85281372070312 0 90 20.14719390869141 90 45.0000114440918 C 90 69.85282897949219 69.85281372070312 90.00002288818359 44.99999618530273 90.00002288818359 C 20.14717864990234 90.00002288818359 -7.62939453125e-06 69.85282897949219 -7.62939453125e-06 45.0000114440918 C -7.62939453125e-06 20.14719390869141 20.14717864990234 0 44.99999618530273 0 Z" stroke="none" fill="#866d08"/>
                  </g>
                </g>
              </g>
            </g>
          </g>
        </g>
      </g>
    </g>
    <g id="_FILLED_OUTLINE" data-name="/ FILLED_OUTLINE" transform="translate(2.121 2.122)">
      <path id="Trazado_1055889" data-name="Trazado 1055889" d="M77.376,224H75.584A3.584,3.584,0,0,0,72,227.584v1.792h8.96v-1.792A3.584,3.584,0,0,0,77.376,224Z" transform="translate(-49.728 -184.705)" fill="#d178a1"/>
      <path id="Trazado_1055890" data-name="Trazado 1055890" d="M40.223,369.379,36.543,368H31.168l-3.679,1.38A5.376,5.376,0,0,0,24,374.413v5.234a1.792,1.792,0,0,0,1.792,1.792H41.919a1.792,1.792,0,0,0,1.792-1.792v-5.234a5.376,5.376,0,0,0-3.488-5.033Z" transform="translate(-7.104 -312.578)" fill="#338dbf"/>
      <path id="Trazado_1055891" data-name="Trazado 1055891" d="M56,440h1.792v5.376H56Z" transform="translate(-35.52 -376.515)" fill="#0071af"/>
      <path id="Trazado_1055892" data-name="Trazado 1055892" d="M66.093,369.379,62.413,368H57.038l-3.679,1.38c-.076.029-.151.059-.225.091l3.009,3.009,3.584-3.584,3.584,3.584,3.009-3.009C66.244,369.439,66.169,369.408,66.093,369.379Z" transform="translate(-32.974 -312.578)" fill="#00659d"/>
      <path id="Trazado_1055893" data-name="Trazado 1055893" d="M88,336v3.584l2.688,1.2,2.688-1.2V336Z" transform="translate(-63.936 -284.162)" fill="#edabcf"/>
      <path id="Trazado_1055894" data-name="Trazado 1055894" d="M104,400h1.792v7.168H104Z" transform="translate(-78.145 -340.995)" fill="#00b378"/>
      <path id="Trazado_1055895" data-name="Trazado 1055895" d="M152,440h1.792v5.376H152Z" transform="translate(-120.769 -376.515)" fill="#0071af"/>
      <circle id="Elipse_13583" data-name="Elipse 13583" cx="1.789" cy="1.789" r="1.789" transform="translate(24.985 56.299)" fill="#00a16c"/>
      <path id="Trazado_1055896" data-name="Trazado 1055896" d="M328.223,369.379,324.543,368h-5.376l-3.68,1.38A5.376,5.376,0,0,0,312,374.413v5.234a1.792,1.792,0,0,0,1.792,1.792h16.127a1.792,1.792,0,0,0,1.792-1.792v-5.234a5.376,5.376,0,0,0-3.488-5.033Z" transform="translate(-262.85 -312.578)" fill="#338dbf"/>
      <path id="Trazado_1055897" data-name="Trazado 1055897" d="M344,440h1.792v5.376H344Z" transform="translate(-291.266 -376.515)" fill="#0071af"/>
      <path id="Trazado_1055898" data-name="Trazado 1055898" d="M354.093,369.379,350.413,368h-5.376l-3.679,1.38c-.076.029-.151.059-.225.091l3.009,3.009,3.584-3.584,3.584,3.584,3.009-3.009C354.244,369.439,354.169,369.408,354.093,369.379Z" transform="translate(-288.72 -312.578)" fill="#00659d"/>
      <path id="Trazado_1055899" data-name="Trazado 1055899" d="M376,336v3.584l2.688,1.2,2.688-1.2V336Z" transform="translate(-319.682 -284.162)" fill="#edabcf"/>
      <path id="Trazado_1055900" data-name="Trazado 1055900" d="M363.584,229.318A3.584,3.584,0,0,0,360,232.9v1.792h8.96v-5.376Z" transform="translate(-305.474 -189.428)" fill="#d178a1"/>
      <path id="Trazado_1055901" data-name="Trazado 1055901" d="M171.916,354.232,166.336,352H160.96l-5.58,2.232A5.376,5.376,0,0,0,152,359.224v6.216a1.792,1.792,0,0,0,1.792,1.792H173.5a1.792,1.792,0,0,0,1.792-1.792v-6.216a5.376,5.376,0,0,0-3.379-4.991Z" transform="translate(-120.769 -298.37)" fill="#0071af"/>
      <path id="Trazado_1055902" data-name="Trazado 1055902" d="M232,320v3.584a9.177,9.177,0,0,1,2.688,6.489,9.177,9.177,0,0,1,2.688-6.489V320Z" transform="translate(-191.809 -269.954)" fill="#edabcf"/>
      <path id="Trazado_1055903" data-name="Trazado 1055903" d="M192.866,192h-1.6a7.261,7.261,0,0,0-4.536,12.932l2.09,1.669h6.5l2.086-1.669A7.261,7.261,0,0,0,192.866,192Z" transform="translate(-149.185 -156.289)" fill="#d178a1"/>
      <path id="Trazado_1055904" data-name="Trazado 1055904" d="M216,242.526v2.942a5.376,5.376,0,0,0,2.61,4.61l.026.016a3.584,3.584,0,0,0,3.688,0l.026-.016a5.376,5.376,0,0,0,2.61-4.61v-3.382a1.792,1.792,0,0,0-.525-1.267,4.518,4.518,0,0,0-4.975-.958l-2.374,1.017A1.792,1.792,0,0,0,216,242.526Z" transform="translate(-177.601 -198.466)" fill="#fcc8e7"/>
      <path id="Trazado_1055905" data-name="Trazado 1055905" d="M186.637,409.856h-1.792v-2.417l-.236-.354a4,4,0,0,1,.236-4.741V400h1.792v3.059l-.262.263a2.2,2.2,0,0,0-.274,2.77l.537.805Z" transform="translate(-149.135 -340.995)" fill="#00659d"/>
      <path id="Trazado_1055906" data-name="Trazado 1055906" d="M305.792,409.855H304V406.9l.537-.805a2.2,2.2,0,0,0-.274-2.77l-.262-.262V400h1.792v2.344a4,4,0,0,1,.236,4.741l-.236.354Z" transform="translate(-255.746 -340.995)" fill="#00659d"/>
      <path id="Trazado_1055907" data-name="Trazado 1055907" d="M360,266.3v3.228a5.376,5.376,0,0,0,2.61,4.61l.026.016a3.584,3.584,0,0,0,3.688,0l.026-.016a5.376,5.376,0,0,0,2.61-4.61V265.4l-.8-.2a9.855,9.855,0,0,0-5.507.211Z" transform="translate(-305.474 -221.03)" fill="#fcc8e7"/>
      <path id="Trazado_1055908" data-name="Trazado 1055908" d="M392,400h1.792v7.168H392Z" transform="translate(-333.89 -340.995)" fill="#00b378"/>
      <path id="Trazado_1055909" data-name="Trazado 1055909" d="M72,265.773V269a5.376,5.376,0,0,0,2.61,4.61l.026.016a3.584,3.584,0,0,0,3.688,0l.026-.016A5.376,5.376,0,0,0,80.96,269v-3.228l-2.5-.625a5.376,5.376,0,0,0-2.188-.087Z" transform="translate(-49.728 -221.103)" fill="#fcc8e7"/>
      <path id="Trazado_1055910" data-name="Trazado 1055910" d="M440,440h1.792v5.376H440Z" transform="translate(-376.515 -376.515)" fill="#0071af"/>
      <path id="Trazado_1055911" data-name="Trazado 1055911" d="M206.335,32.11V30.225l-1.8-.432-.6-1.448.971-1.584-1.332-1.332-1.584.971-1.448-.6L200.11,24h-1.884l-.432,1.8-1.448.6-1.584-.971-1.332,1.332.971,1.584-.6,1.448-1.8.432v1.884l1.8.432.6,1.448-.971,1.584,1.332,1.332,1.584-.971,1.448.6.432,1.8h1.884l.432-1.8,1.448-.6,1.584.971,1.332-1.332-.971-1.584.6-1.448Zm-7.168.85a1.792,1.792,0,1,1,1.792-1.792,1.792,1.792,0,0,1-1.792,1.792Z" transform="translate(-156.289 -7.104)" fill="#0071af"/>
      <path id="Trazado_1055912" data-name="Trazado 1055912" d="M136,136h5.376v1.792H136Z" transform="translate(-106.561 -106.561)" fill="#bdecdc"/>
      <path id="Trazado_1055913" data-name="Trazado 1055913" d="M328,136h5.376v1.792H328Z" transform="translate(-277.058 -106.561)" fill="#bdecdc"/>
      <rect id="Rect치ngulo_419756" data-name="Rect치ngulo 419756" width="12.526" height="17.894" rx="1" transform="translate(56.299 16.932)" fill="#00b378"/>
      <path id="Trazado_1055914" data-name="Trazado 1055914" d="M424,64h1.792v8.96H424Z" transform="translate(-362.307 -42.624)" fill="#59cea7"/>
      <circle id="Elipse_13584" data-name="Elipse 13584" cx="1.789" cy="1.789" r="1.789" transform="translate(57.194 56.299)" fill="#00a16c"/>
      <g id="Grupo_1209358" data-name="Grupo 1209358" transform="translate(59.006 20.48)">
        <path id="Trazado_1055915" data-name="Trazado 1055915" d="M400,56h7.168v1.792H400Z" transform="translate(-400 -56)" fill="#bdecdc"/>
        <path id="Trazado_1055916" data-name="Trazado 1055916" d="M400,96h7.168v1.792H400Z" transform="translate(-400 -91.52)" fill="#bdecdc"/>
        <path id="Trazado_1055917" data-name="Trazado 1055917" d="M400,136h7.168v1.792H400Z" transform="translate(-400 -127.04)" fill="#bdecdc"/>
      </g>
      <rect id="Rect치ngulo_419757" data-name="Rect치ngulo 419757" width="12.526" height="17.894" rx="4" transform="translate(16.932 16.932)" fill="#00b378"/>
      <path id="Trazado_1055918" data-name="Trazado 1055918" d="M72,64h1.792v8.96H72Z" transform="translate(-49.728 -42.624)" fill="#59cea7"/>
      <path id="Trazado_1055919" data-name="Trazado 1055919" d="M48,56h7.168v1.792H48Z" transform="translate(-28.416 -35.52)" fill="#bdecdc"/>
      <path id="Trazado_1055920" data-name="Trazado 1055920" d="M48,96h7.168v1.792H48Z" transform="translate(-28.416 -71.041)" fill="#bdecdc"/>
      <path id="Trazado_1055921" data-name="Trazado 1055921" d="M48,136h7.168v1.792H48Z" transform="translate(-28.416 -106.561)" fill="#bdecdc"/>
      <path id="Trazado_1055922" data-name="Trazado 1055922" d="M65.687,198.044l-3.1-1.162v-2.517a6.306,6.306,0,0,0,1.792-4.385v-9.5H58.11a4.485,4.485,0,0,0-4.48,4.48v5.02a6.307,6.307,0,0,0,1.792,4.386v2.517l-2.591.972a6.333,6.333,0,0,0-1.351-.743L46.462,195.1v-2.532a6.3,6.3,0,0,0,.553-.65l.007.008,1.754-1.4A8.157,8.157,0,0,0,43.681,176h-1.6a8.157,8.157,0,0,0-5.1,14.527l1.754,1.4.007-.008a6.306,6.306,0,0,0,.553.651V195.1l-5.017,2.007a6.333,6.333,0,0,0-1.351.743l-2.591-.972v-2.517a6.306,6.306,0,0,0,1.792-4.385v-5.02a4.485,4.485,0,0,0-4.48-4.48H25.855a4.485,4.485,0,0,0-4.48,4.48v5.02a6.307,6.307,0,0,0,1.792,4.386v2.517l-3.1,1.162A6.3,6.3,0,0,0,16,203.916v5.234a2.691,2.691,0,0,0,2.688,2.688H67.069a2.691,2.691,0,0,0,2.688-2.688v-5.234a6.3,6.3,0,0,0-4.07-5.872Zm-1.7,1.275-1.4,1.4-1.82-1.821.954-.424Zm-4.98-1.6-1.792-.8v-1.284a4.455,4.455,0,0,0,3.584,0v1.285Zm.838,2.786a.894.894,0,0,1-1.677,0l.829-.829.01,0,.01,0Zm-4.422-15.545a2.691,2.691,0,0,1,2.688-2.688h4.48v2.442a10.731,10.731,0,0,0-5.694.3l-1.474.491Zm0,2.438,2.04-.68a8.944,8.944,0,0,1,5.006-.192l.121.03v3.424a4.5,4.5,0,0,1-2.177,3.842l-.024.014a2.682,2.682,0,0,1-2.764,0l-.028-.017a4.5,4.5,0,0,1-2.175-3.841Zm-8.96.79a4.5,4.5,0,0,1-2.177,3.842l-.024.014a2.681,2.681,0,0,1-2.764,0l-.028-.017a4.5,4.5,0,0,1-2.175-3.841v-2.942a.9.9,0,0,1,.543-.824l2.374-1.017a3.606,3.606,0,0,1,3.988.768.89.89,0,0,1,.262.633Zm-1.792,5.657v1.505a10.052,10.052,0,0,0-1.792,2.684,10.052,10.052,0,0,0-1.792-2.684v-1.505A4.455,4.455,0,0,0,44.67,193.844Zm-5.539-11.07a2.685,2.685,0,0,0-1.629,2.471v2.942q0,.206.014.41a6.365,6.365,0,0,1,4.56-10.806h1.6a6.365,6.365,0,0,1,4.56,10.806q.014-.2.014-.41v-3.382a2.67,2.67,0,0,0-.787-1.9,5.389,5.389,0,0,0-5.961-1.148Zm-15.964,2.185a2.691,2.691,0,0,1,2.688-2.688h1.792a2.691,2.691,0,0,1,2.688,2.688v.644l-1.386-.347a6.244,6.244,0,0,0-2.552-.1l-3.23.538Zm0,2.551,3.524-.587a4.452,4.452,0,0,1,1.823.073l1.82.455v2.529a4.5,4.5,0,0,1-2.177,3.842l-.024.014a2.682,2.682,0,0,1-2.764,0l-.028-.017a4.5,4.5,0,0,1-2.175-3.841Zm3.584,10.208-1.792-.8v-1.284a4.455,4.455,0,0,0,3.584,0v1.285Zm.838,2.786a.894.894,0,0,1-1.676,0l.829-.829.01,0,.01,0Zm-3.555-2.034.954.424-1.82,1.821-1.4-1.4Zm-1.763,11.576v-4.48H20.48v4.48H18.688a.9.9,0,0,1-.9-.9v-5.234a4.5,4.5,0,0,1,2.192-3.85l3.183,3.183,1.44-1.44a2.7,2.7,0,0,0,1.248.915v5.53h1.792v-5.53a2.7,2.7,0,0,0,1.248-.915l1.44,1.44v5.9a2.675,2.675,0,0,0,.154.9Zm8.362-9.033-2.119-2.119.954-.424,2.061.773a6.222,6.222,0,0,0-.9,1.77Zm23,8.137a.9.9,0,0,1-.9.9H50.046v-1.521l.236-.354a4,4,0,0,0-.236-4.741v-2.344H48.254v3.059l.262.262a2.2,2.2,0,0,1,.274,2.77l-.537.805v2.063H37.5v-2.063l-.537-.805a2.2,2.2,0,0,1,.274-2.77l.262-.262v-3.059H35.711v2.344a4,4,0,0,0-.236,4.741l.236.354v1.521H33.023a.9.9,0,0,1-.9-.9v-6.216a4.458,4.458,0,0,1,2.816-4.159l5.009-2a8.218,8.218,0,0,1,2.03,5.429v.679h1.792V202.2a8.218,8.218,0,0,1,2.03-5.429l5.009,2a4.458,4.458,0,0,1,2.816,4.159Zm.6-9.907,2.061-.773.954.424-2.119,2.119A6.223,6.223,0,0,0,54.228,199.243Zm13.737,9.907a.9.9,0,0,1-.9.9H65.277v-4.48H63.485v4.48H55.268a2.676,2.676,0,0,0,.154-.9v-5.9l1.44-1.44a2.7,2.7,0,0,0,1.248.915v5.53H59.9v-5.53a2.7,2.7,0,0,0,1.248-.915l1.44,1.44,3.183-3.183a4.5,4.5,0,0,1,2.192,3.85Z" transform="translate(0 -142.081)"/>
      <path id="Trazado_1055923" data-name="Trazado 1055923" d="M186.293,26.806l-1.1,1.8,2.331,2.331,1.8-1.1.6.251.49,2.043h3.3l.49-2.043.6-.251,1.8,1.1,2.331-2.331-1.1-1.8.251-.6,2.043-.49v-3.3l-2.043-.49-.251-.6,1.1-1.8L196.6,17.192l-1.8,1.1-.6-.251L193.712,16h-3.3l-.49,2.043-.6.251-1.8-1.1-2.331,2.331,1.1,1.8-.251.6-2.043.49v3.3l2.043.49Zm-.5-2.979,1.557-.373.95-2.292-.84-1.371.333-.333,1.371.84,2.292-.95.373-1.557h.471l.373,1.557,2.292.95,1.371-.84.333.333-.84,1.371.95,2.292,1.557.373V24.3l-1.557.373-.95,2.292.84,1.371-.333.333-1.371-.84-2.292.95-.373,1.557h-.471l-.373-1.557-2.292-.95-1.371.84-.333-.333.84-1.371-.95-2.292-1.557-.373Z" transform="translate(-149.185)"/>
      <path id="Trazado_1055924" data-name="Trazado 1055924" d="M234.688,69.376A2.688,2.688,0,1,0,232,66.688,2.688,2.688,0,0,0,234.688,69.376Zm0-3.584a.9.9,0,1,1-.9.9.9.9,0,0,1,.9-.9Z" transform="translate(-191.809 -42.624)"/>
      <path id="Trazado_1055925" data-name="Trazado 1055925" d="M18.688,35.711h8.96a2.691,2.691,0,0,0,2.688-2.688V31.231h4.48V29.439h-4.48V18.688A2.691,2.691,0,0,0,27.647,16h-8.96A2.691,2.691,0,0,0,16,18.688V33.023A2.691,2.691,0,0,0,18.688,35.711Zm-.9-17.023a.9.9,0,0,1,.9-.9h8.96a.9.9,0,0,1,.9.9V33.023a.9.9,0,0,1-.9.9h-8.96a.9.9,0,0,1-.9-.9Z" transform="translate(0 0)"/>
      <path id="Trazado_1055926" data-name="Trazado 1055926" d="M55.168,64.96H52.48V62.272h2.688V60.48H52.48V57.792h2.688V56H48v1.792h2.688V60.48H48v1.792h2.688V64.96H48v1.792h7.168Z" transform="translate(-28.416 -35.52)"/>
      <path id="Trazado_1055927" data-name="Trazado 1055927" d="M344.127,16h-8.96a2.691,2.691,0,0,0-2.688,2.688V29.439H328v1.792h4.48v1.792a2.691,2.691,0,0,0,2.688,2.688h8.96a2.691,2.691,0,0,0,2.688-2.688V18.688A2.691,2.691,0,0,0,344.127,16Zm.9,17.023a.9.9,0,0,1-.9.9h-8.96a.9.9,0,0,1-.9-.9V18.688a.9.9,0,0,1,.9-.9h8.96a.9.9,0,0,1,.9.9Z" transform="translate(-277.058 0)"/>
      <path id="Trazado_1055928" data-name="Trazado 1055928" d="M400,57.792h2.688V60.48H400v1.792h2.688V64.96H400v1.792h7.168V64.96H404.48V62.272h2.688V60.48H404.48V57.792h2.688V56H400Z" transform="translate(-340.994 -35.52)"/>
    </g>
  </g>
</svg>
