<svg xmlns="http://www.w3.org/2000/svg" xmlns:xlink="http://www.w3.org/1999/xlink" width="108" height="108" viewBox="0 0 108 108">
  <defs>
    <filter id="Trazado_904820" x="0" y="0" width="108" height="108" filterUnits="userSpaceOnUse">
      <feOffset dy="3" input="SourceAlpha"/>
      <feGaussianBlur stdDeviation="3" result="blur"/>
      <feFlood flood-opacity="0.161"/>
      <feComposite operator="in" in2="blur"/>
      <feComposite in="SourceGraphic"/>
    </filter>
  </defs>
  <g id="Grupo_1209366" data-name="Grupo 1209366" transform="translate(-200 -2457.965)">
    <g id="Grupo_1209177" data-name="Grupo 1209177" transform="translate(209 2463.965)">
      <g id="Grupo_1174741" data-name="Grupo 1174741" transform="translate(0 0)">
        <g id="Grupo_1173585" data-name="Grupo 1173585">
          <g id="Grupo_1173428" data-name="Grupo 1173428">
            <g id="Grupo_1171958" data-name="Grupo 1171958">
              <g id="Grupo_1167341" data-name="Grupo 1167341">
                <g id="Grupo_1166792" data-name="Grupo 1166792">
                  <g transform="matrix(1, 0, 0, 1, -9, -6)" filter="url(#Trazado_904820)">
                    <g id="Trazado_904820-2" data-name="Trazado 904820" transform="translate(9 6)" fill="#e5fdfa">
                      <path d="M 44.99999618530273 88.50002288818359 C 39.12687301635742 88.50002288818359 33.43022155761719 87.35009765625 28.06829643249512 85.08218383789062 C 22.88852119445801 82.89133453369141 18.23629570007324 79.75460815429688 14.24084663391113 75.75916290283203 C 10.24540901184082 71.76371002197266 7.108683586120605 67.11148834228516 4.917821407318115 61.93171310424805 C 2.649921178817749 56.56978607177734 1.499996185302734 50.87313461303711 1.499996185302734 45.0000114440918 C 1.499996185302734 39.12688827514648 2.649921178817749 33.43023681640625 4.917821407318115 28.06831169128418 C 7.108683586120605 22.88853645324707 10.24540901184082 18.2363109588623 14.24084663391113 14.2408618927002 C 18.23629570007324 10.24541187286377 22.88852119445801 7.108686447143555 28.06829643249512 4.917836666107178 C 33.43022155761719 2.649924039840698 39.12687301635742 1.499998927116394 44.99999618530273 1.499998927116394 C 50.87311935424805 1.499998927116394 56.56977081298828 2.649924039840698 61.93169784545898 4.917836666107178 C 67.11147308349609 7.108686447143555 71.76369476318359 10.24541187286377 75.75914764404297 14.2408618927002 C 79.75458526611328 18.2363109588623 82.89131164550781 22.88853645324707 85.08216857910156 28.06831169128418 C 87.35007476806641 33.43023681640625 88.5 39.12688827514648 88.5 45.0000114440918 C 88.5 50.87313461303711 87.35007476806641 56.56978607177734 85.08216857910156 61.93171310424805 C 82.89131164550781 67.11148834228516 79.75458526611328 71.76371002197266 75.75914764404297 75.75916290283203 C 71.76369476318359 79.75460815429688 67.11147308349609 82.89133453369141 61.93169784545898 85.08218383789062 C 56.56977081298828 87.35009765625 50.87311935424805 88.50002288818359 44.99999618530273 88.50002288818359 Z" stroke="none"/>
                      <path d="M 44.99999618530273 3 C 39.32870864868164 3 33.82865142822266 4.110054016113281 28.65262603759766 6.299339294433594 C 23.65165710449219 8.414566040039062 19.15968322753906 11.44333648681641 15.301513671875 15.30152893066406 C 11.44333648681641 19.15969848632812 8.414566040039062 23.65165710449219 6.299339294433594 28.65264129638672 C 4.110054016113281 33.82866668701172 2.999992370605469 39.3287239074707 2.999992370605469 45.0000114440918 C 2.999992370605469 50.67129898071289 4.110054016113281 56.17135620117188 6.299339294433594 61.34738159179688 C 8.414566040039062 66.34836578369141 11.44333648681641 70.84032440185547 15.301513671875 74.69849395751953 C 19.15968322753906 78.55668640136719 23.65165710449219 81.58545684814453 28.65262603759766 83.70068359375 C 33.82865142822266 85.88996887207031 39.32870864868164 87.00002288818359 44.99999618530273 87.00002288818359 C 50.67128372192383 87.00002288818359 56.17134094238281 85.88996887207031 61.34736633300781 83.70068359375 C 66.34834289550781 81.58545684814453 70.84030914306641 78.55668640136719 74.69847869873047 74.69849395751953 C 78.55665588378906 70.84032440185547 81.58542633056641 66.34836578369141 83.70065307617188 61.34738159179688 C 85.88993835449219 56.17135620117188 87 50.67129898071289 87 45.0000114440918 C 87 39.3287239074707 85.88993835449219 33.82866668701172 83.70065307617188 28.65264129638672 C 81.58542633056641 23.65165710449219 78.55665588378906 19.15969848632812 74.69847869873047 15.30152893066406 C 70.84030914306641 11.44333648681641 66.34834289550781 8.414566040039062 61.34736633300781 6.299339294433594 C 56.17134094238281 4.110054016113281 50.67128372192383 3 44.99999618530273 3 M 44.99999618530273 0 C 69.85281372070312 0 90 20.14719390869141 90 45.0000114440918 C 90 69.85282897949219 69.85281372070312 90.00002288818359 44.99999618530273 90.00002288818359 C 20.14717864990234 90.00002288818359 -7.62939453125e-06 69.85282897949219 -7.62939453125e-06 45.0000114440918 C -7.62939453125e-06 20.14719390869141 20.14717864990234 0 44.99999618530273 0 Z" stroke="none" fill="#098576"/>
                    </g>
                  </g>
                </g>
              </g>
            </g>
          </g>
        </g>
      </g>
    </g>
    <g id="rating_6384295" transform="translate(224.628 2482.128)">
      <rect id="Rect치ngulo_419758" data-name="Rect치ngulo 419758" width="56" height="47" rx="2" transform="translate(1.872 1.872)" fill="#e2e7f6"/>
      <path id="Trazado_1055942" data-name="Trazado 1055942" d="M3.863,2A1.863,1.863,0,0,0,2,3.863v32.6H46.7A1.863,1.863,0,0,0,48.567,34.6V2Z" transform="translate(-0.069 -0.069)" fill="#f7fafd"/>
      <rect id="Rect치ngulo_419759" data-name="Rect치ngulo 419759" width="28" height="3" rx="1.5" transform="translate(15.872 54.872)" fill="#3b5892"/>
      <path id="Trazado_1055943" data-name="Trazado 1055943" d="M56.018,2H3.863A1.863,1.863,0,0,0,2,3.863V5.725H57.881V3.863A1.863,1.863,0,0,0,56.018,2Z" transform="translate(-0.069 -0.069)" fill="#3b5892"/>
      <path id="Trazado_1055944" data-name="Trazado 1055944" d="M38.9,57.588,37.97,52H24.931L24,57.588Z" transform="translate(-1.579 -3.501)" fill="#c8cded"/>
      <path id="Trazado_1055945" data-name="Trazado 1055945" d="M48.567,2H3.863A1.863,1.863,0,0,0,2,3.863V5.725H48.567Z" transform="translate(-0.069 -0.069)" fill="#4c6cb5"/>
      <path id="Trazado_1055946" data-name="Trazado 1055946" d="M56.018,51.451H3.863A1.863,1.863,0,0,1,2,49.588V44H57.881v5.588A1.863,1.863,0,0,1,56.018,51.451Z" transform="translate(-0.069 -2.952)" fill="#3b5892"/>
      <path id="Trazado_1055947" data-name="Trazado 1055947" d="M2,44v4.657H46.7a1.863,1.863,0,0,0,1.863-1.863V44Z" transform="translate(-0.069 -2.952)" fill="#4c6cb5"/>
      <path id="Trazado_1055948" data-name="Trazado 1055948" d="M40,47h3.725v1.863H40Z" transform="translate(-2.677 -3.158)" fill="#f7fafd"/>
      <path id="Trazado_1055949" data-name="Trazado 1055949" d="M20,47h3.725v1.863H20Z" transform="translate(-1.304 -3.158)" fill="#f7fafd"/>
      <path id="Trazado_1055950" data-name="Trazado 1055950" d="M26,47H37.176v1.863H26Z" transform="translate(-1.716 -3.158)" fill="#f7fafd"/>
      <path id="Trazado_1055951" data-name="Trazado 1055951" d="M23,2H39.764V5.725H23Z" transform="translate(-1.51 -0.069)" fill="#5e87ca"/>
      <path id="Trazado_1055952" data-name="Trazado 1055952" d="M24.323,55.781h9.985a1.863,1.863,0,0,0,1.863-1.863V52H24.954Z" transform="translate(-1.601 -3.501)" fill="#e2e7f6"/>
      <ellipse id="Elipse_13588" data-name="Elipse 13588" cx="6.5" cy="6" rx="6.5" ry="6" transform="translate(10.872 9.872)" fill="#f0ae42"/>
      <ellipse id="Elipse_13589" data-name="Elipse 13589" cx="6.054" cy="6.496" rx="6.054" ry="6.496" transform="translate(11.245 9.405)" fill="#f9d266"/>
      <ellipse id="Elipse_13590" data-name="Elipse 13590" cx="6.5" cy="6" rx="6.5" ry="6" transform="translate(35.872 9.872)" fill="#f0ae42"/>
      <ellipse id="Elipse_13591" data-name="Elipse 13591" cx="6.054" cy="6.496" rx="6.054" ry="6.496" transform="translate(35.46 9.405)" fill="#f9d266"/>
      <g id="Grupo_1209365" data-name="Grupo 1209365" transform="translate(10.313 25.215)">
        <path id="Trazado_1055953" data-name="Trazado 1055953" d="M11,27h5.588v1.863H11Z" transform="translate(-11 -27)" fill="#78a0d4"/>
        <path id="Trazado_1055954" data-name="Trazado 1055954" d="M19,27h7.451v1.863H19Z" transform="translate(-11.549 -27)" fill="#78a0d4"/>
        <path id="Trazado_1055955" data-name="Trazado 1055955" d="M11,31h5.588v1.863H11Z" transform="translate(-11 -27.275)" fill="#78a0d4"/>
        <path id="Trazado_1055956" data-name="Trazado 1055956" d="M19,31h7.451v1.863H19Z" transform="translate(-11.549 -27.275)" fill="#78a0d4"/>
        <path id="Trazado_1055957" data-name="Trazado 1055957" d="M37,27h5.588v1.863H37Z" transform="translate(-12.785 -27)" fill="#78a0d4"/>
        <path id="Trazado_1055958" data-name="Trazado 1055958" d="M45,27h7.451v1.863H45Z" transform="translate(-13.334 -27)" fill="#78a0d4"/>
        <path id="Trazado_1055959" data-name="Trazado 1055959" d="M37,31h5.588v1.863H37Z" transform="translate(-12.785 -27.275)" fill="#78a0d4"/>
        <path id="Trazado_1055960" data-name="Trazado 1055960" d="M45,31h7.451v1.863H45Z" transform="translate(-13.334 -27.275)" fill="#78a0d4"/>
      </g>
      <path id="Trazado_1055961" data-name="Trazado 1055961" d="M16,14h1.863v1.863H16Z" transform="translate(-1.03 -0.892)" fill="#5e87ca"/>
      <path id="Trazado_1055962" data-name="Trazado 1055962" d="M20,14h1.863v1.863H20Z" transform="translate(-1.304 -0.892)" fill="#5e87ca"/>
      <path id="Trazado_1055963" data-name="Trazado 1055963" d="M42,14h1.863v1.863H42Z" transform="translate(-2.815 -0.892)" fill="#5e87ca"/>
      <path id="Trazado_1055964" data-name="Trazado 1055964" d="M46,14h1.863v1.863H46Z" transform="translate(-3.089 -0.892)" fill="#5e87ca"/>
      <path id="Trazado_1055965" data-name="Trazado 1055965" d="M18.733,20.763A3.923,3.923,0,0,1,15.2,18.582l-.1-.2,1.667-.833.1.2a2.082,2.082,0,0,0,3.725,0l.1-.2,1.667.833-.1.2a3.923,3.923,0,0,1-3.529,2.181Z" transform="translate(-0.968 -1.136)" fill="#5e87ca"/>
      <path id="Trazado_1055966" data-name="Trazado 1055966" d="M42,18h5.588v1.863H42Z" transform="translate(-2.815 -1.167)" fill="#5e87ca"/>
      <path id="Trazado_1055967" data-name="Trazado 1055967" d="M12,36H25.039v3.725H12Z" transform="translate(-0.755 -2.403)" fill="#3b5892"/>
      <path id="Trazado_1055968" data-name="Trazado 1055968" d="M12,36H25.039v2.794H12Z" transform="translate(-0.755 -2.403)" fill="#4c6cb5"/>
      <path id="Trazado_1055969" data-name="Trazado 1055969" d="M38,36H51.039v3.725H38Z" transform="translate(-2.54 -2.403)" fill="#3b5892"/>
      <path id="Trazado_1055970" data-name="Trazado 1055970" d="M38,36H51.039v2.794H38Z" transform="translate(-2.54 -2.403)" fill="#4c6cb5"/>
      <path id="Trazado_1055971" data-name="Trazado 1055971" d="M18.451,23.9A7.451,7.451,0,1,0,11,16.451,7.451,7.451,0,0,0,18.451,23.9Zm0-13.039a5.588,5.588,0,1,1-5.588,5.588A5.588,5.588,0,0,1,18.451,10.863Z" transform="translate(-0.687 -0.549)"/>
      <path id="Trazado_1055972" data-name="Trazado 1055972" d="M44.451,23.9A7.451,7.451,0,1,0,37,16.451,7.451,7.451,0,0,0,44.451,23.9Zm0-13.039a5.588,5.588,0,1,1-5.588,5.588A5.588,5.588,0,0,1,44.451,10.863Z" transform="translate(-2.471 -0.549)"/>
      <path id="Trazado_1055973" data-name="Trazado 1055973" d="M11,27h5.588v1.863H11Z" transform="translate(-0.687 -1.785)"/>
      <path id="Trazado_1055974" data-name="Trazado 1055974" d="M19,27h7.451v1.863H19Z" transform="translate(-1.236 -1.785)"/>
      <path id="Trazado_1055975" data-name="Trazado 1055975" d="M11,31h5.588v1.863H11Z" transform="translate(-0.687 -2.06)"/>
      <path id="Trazado_1055976" data-name="Trazado 1055976" d="M19,31h7.451v1.863H19Z" transform="translate(-1.236 -2.06)"/>
      <path id="Trazado_1055977" data-name="Trazado 1055977" d="M37,27h5.588v1.863H37Z" transform="translate(-2.471 -1.785)"/>
      <path id="Trazado_1055978" data-name="Trazado 1055978" d="M45,27h7.451v1.863H45Z" transform="translate(-3.021 -1.785)"/>
      <path id="Trazado_1055979" data-name="Trazado 1055979" d="M37,31h5.588v1.863H37Z" transform="translate(-2.471 -2.06)"/>
      <path id="Trazado_1055980" data-name="Trazado 1055980" d="M45,31h7.451v1.863H45Z" transform="translate(-3.021 -2.06)"/>
      <path id="Trazado_1055981" data-name="Trazado 1055981" d="M16,14h1.863v1.863H16Z" transform="translate(-1.03 -0.892)"/>
      <path id="Trazado_1055982" data-name="Trazado 1055982" d="M20,14h1.863v1.863H20Z" transform="translate(-1.304 -0.892)"/>
      <path id="Trazado_1055983" data-name="Trazado 1055983" d="M42,14h1.863v1.863H42Z" transform="translate(-2.815 -0.892)"/>
      <path id="Trazado_1055984" data-name="Trazado 1055984" d="M46,14h1.863v1.863H46Z" transform="translate(-3.089 -0.892)"/>
      <path id="Trazado_1055985" data-name="Trazado 1055985" d="M18.733,20.763a3.923,3.923,0,0,0,3.529-2.181l.1-.2-1.667-.833-.1.2a2.082,2.082,0,0,1-3.725,0l-.1-.2-1.667.833.1.2a3.923,3.923,0,0,0,3.529,2.181Z" transform="translate(-0.968 -1.136)"/>
      <path id="Trazado_1055986" data-name="Trazado 1055986" d="M42,18h5.588v1.863H42Z" transform="translate(-2.815 -1.167)"/>
      <path id="Trazado_1055987" data-name="Trazado 1055987" d="M55.95,1H3.794A2.794,2.794,0,0,0,1,3.794V46.636A2.794,2.794,0,0,0,3.794,49.43H22.253l-.621,3.725H17.764a2.794,2.794,0,1,0,0,5.588H41.979a2.794,2.794,0,1,0,0-5.588H38.111L37.49,49.43H55.95a2.794,2.794,0,0,0,2.794-2.794V3.794A2.794,2.794,0,0,0,55.95,1Zm.931,2.794v.931H40.117V2.863H55.95A.931.931,0,0,1,56.881,3.794ZM21.49,4.725V2.863H38.254V4.725ZM56.881,6.588V40.117H2.863V6.588ZM3.794,2.863H19.627V4.725H2.863V3.794A.931.931,0,0,1,3.794,2.863ZM42.911,55.95a.931.931,0,0,1-.931.931H17.764a.931.931,0,1,1,0-1.863H41.979A.931.931,0,0,1,42.911,55.95Zm-6.687-2.794H23.52l.621-3.725H35.6ZM55.95,47.567H3.794a.931.931,0,0,1-.931-.931V41.979H56.881v4.657A.931.931,0,0,1,55.95,47.567Z" transform="translate(0 0)"/>
      <path id="Trazado_1055988" data-name="Trazado 1055988" d="M40,47h3.725v1.863H40Z" transform="translate(-2.677 -3.158)"/>
      <path id="Trazado_1055989" data-name="Trazado 1055989" d="M20,47h3.725v1.863H20Z" transform="translate(-1.304 -3.158)"/>
      <path id="Trazado_1055990" data-name="Trazado 1055990" d="M26,47H37.176v1.863H26Z" transform="translate(-1.716 -3.158)"/>
      <path id="Trazado_1055991" data-name="Trazado 1055991" d="M11.931,40.588H24.97a.931.931,0,0,0,.931-.931V35.931A.931.931,0,0,0,24.97,35H11.931a.931.931,0,0,0-.931.931v3.725A.931.931,0,0,0,11.931,40.588Zm.931-3.725H24.039v1.863H12.863Z" transform="translate(-0.687 -2.334)"/>
      <path id="Trazado_1055992" data-name="Trazado 1055992" d="M37.931,40.588H50.97a.931.931,0,0,0,.931-.931V35.931A.931.931,0,0,0,50.97,35H37.931a.931.931,0,0,0-.931.931v3.725A.931.931,0,0,0,37.931,40.588Zm.931-3.725H50.039v1.863H38.863Z" transform="translate(-2.471 -2.334)"/>
    </g>
  </g>
</svg>
