<svg xmlns="http://www.w3.org/2000/svg" xmlns:xlink="http://www.w3.org/1999/xlink" width="101.234" height="101.234" viewBox="0 0 101.234 101.234">
  <defs>
    <filter id="Trazado_904820" x="0" y="0" width="101.234" height="101.234" filterUnits="userSpaceOnUse">
      <feOffset dy="3" input="SourceAlpha"/>
      <feGaussianBlur stdDeviation="3" result="blur"/>
      <feFlood flood-opacity="0.161"/>
      <feComposite operator="in" in2="blur"/>
      <feComposite in="SourceGraphic"/>
    </filter>
  </defs>
  <g id="Grupo_1209369" data-name="Grupo 1209369" transform="translate(-172.767 -3134.449)">
    <g id="Grupo_1209178" data-name="Grupo 1209178" transform="translate(181.767 3140.449)">
      <g id="Grupo_1174741" data-name="Grupo 1174741" transform="translate(0 0)">
        <g id="Grupo_1173585" data-name="Grupo 1173585">
          <g id="Grupo_1173428" data-name="Grupo 1173428">
            <g id="Grupo_1171958" data-name="Grupo 1171958">
              <g id="Grupo_1167341" data-name="Grupo 1167341">
                <g id="Grupo_1166792" data-name="Grupo 1166792">
                  <g transform="matrix(1, 0, 0, 1, -9, -6)" filter="url(#Trazado_904820)">
                    <g id="Trazado_904820-2" data-name="Trazado 904820" transform="translate(9 6)" fill="#fef9e5">
                      <path d="M 41.61681747436523 81.73366546630859 C 36.20041656494141 81.73366546630859 30.94684028625488 80.67319488525391 26.00200653076172 78.58170318603516 C 21.22509956359863 76.56124114990234 16.93468856811523 73.66845703125 13.24994659423828 69.98371887207031 C 9.565205574035645 66.29897308349609 6.672429084777832 62.00854873657227 4.651970386505127 57.23164367675781 C 2.560476303100586 52.28680801391602 1.500005722045898 47.03323364257812 1.500005722045898 41.6168327331543 C 1.500005722045898 36.20043182373047 2.560476303100586 30.94684410095215 4.651970386505127 26.00200843811035 C 6.672429084777832 21.2251033782959 9.565205574035645 16.9346923828125 13.24994659423828 13.24995040893555 C 16.93468856811523 9.565196990966797 21.22509956359863 6.672420978546143 26.00200653076172 4.651962280273438 C 30.94684028625488 2.560467958450317 36.20041656494141 1.499997496604919 41.61681747436523 1.499997496604919 C 47.03321838378906 1.499997496604919 52.28679275512695 2.560467958450317 57.23162841796875 4.651962280273438 C 62.0085334777832 6.672420978546143 66.2989501953125 9.565196990966797 69.98368835449219 13.24995040893555 C 73.66844177246094 16.9346923828125 76.56121826171875 21.2251033782959 78.58167266845703 26.00200843811035 C 80.67317199707031 30.94684410095215 81.733642578125 36.20043182373047 81.733642578125 41.6168327331543 C 81.733642578125 47.03323364257812 80.67317199707031 52.28680801391602 78.58167266845703 57.23164367675781 C 76.56121826171875 62.00854873657227 73.66844177246094 66.29897308349609 69.98368835449219 69.98371887207031 C 66.2989501953125 73.66845703125 62.0085334777832 76.56124114990234 57.23162841796875 78.58170318603516 C 52.28679275512695 80.67319488525391 47.03321838378906 81.73366546630859 41.61681747436523 81.73366546630859 Z" stroke="none"/>
                      <path d="M 41.61681747436523 2.999992370605469 C 36.40225601196289 2.999992370605469 31.34527206420898 4.020606994628906 26.58633804321289 6.033462524414062 C 21.98823165893555 7.978302001953125 17.85807037353516 10.76312255859375 14.31060791015625 14.31060791015625 C 10.76313781738281 17.85807037353516 7.978309631347656 21.98823165893555 6.033470153808594 26.58633804321289 C 4.020606994628906 31.34528732299805 3.000007629394531 36.40227127075195 3.000007629394531 41.6168327331543 C 3.000007629394531 46.83139419555664 4.020606994628906 51.88838195800781 6.033470153808594 56.64732360839844 C 7.978309631347656 61.24542999267578 10.76313781738281 65.37557983398438 14.31060791015625 68.92304992675781 C 17.85807037353516 72.47052764892578 21.98823165893555 75.25535583496094 26.58633804321289 77.2001953125 C 31.34527206420898 79.21304321289062 36.40225601196289 80.23365783691406 41.61681747436523 80.23365783691406 C 46.83137893676758 80.23365783691406 51.88836669921875 79.21304321289062 56.64729690551758 77.2001953125 C 61.24540328979492 75.25535583496094 65.37556457519531 72.47052764892578 68.92303466796875 68.92304992675781 C 72.47049713134766 65.37557983398438 75.25532531738281 61.24542999267578 77.20016479492188 56.64732360839844 C 79.21302795410156 51.88838195800781 80.23362731933594 46.83139419555664 80.23362731933594 41.6168327331543 C 80.23362731933594 36.40227127075195 79.21302795410156 31.34528732299805 77.20016479492188 26.58633804321289 C 75.25532531738281 21.98823165893555 72.47049713134766 17.85807037353516 68.92303466796875 14.31060791015625 C 65.37556457519531 10.76312255859375 61.24540328979492 7.978302001953125 56.64729690551758 6.033462524414062 C 51.88836669921875 4.020606994628906 46.83137893676758 2.999992370605469 41.61681747436523 2.999992370605469 M 41.61681747436523 -7.62939453125e-06 C 64.60115051269531 -7.62939453125e-06 83.23362731933594 18.63248443603516 83.23362731933594 41.6168327331543 C 83.23362731933594 64.60116577148438 64.60115051269531 83.23365783691406 41.61681747436523 83.23365783691406 C 18.63248443603516 83.23365783691406 7.62939453125e-06 64.60116577148438 7.62939453125e-06 41.6168327331543 C 7.62939453125e-06 18.63248443603516 18.63248443603516 -7.62939453125e-06 41.61681747436523 -7.62939453125e-06 Z" stroke="none" fill="#866d08"/>
                    </g>
                  </g>
                </g>
              </g>
            </g>
          </g>
        </g>
      </g>
    </g>
    <g id="analysis_4930486_1_" data-name="analysis_4930486 (1)" transform="translate(161.266 3152.929)">
      <g id="Grupo_1209367" data-name="Grupo 1209367" transform="translate(40.356 0.826)">
        <path id="Trazado_1055993" data-name="Trazado 1055993" d="M84.185,88.5H47.91a.881.881,0,0,1-.881-.881v-49.7a.881.881,0,0,1,.881-.881H84.185a.881.881,0,0,1,.881.881v49.7A.881.881,0,0,1,84.185,88.5Z" transform="translate(-47.029 -33.791)" fill="#918291"/>
        <path id="Trazado_1055994" data-name="Trazado 1055994" d="M77.03,111.678V67.263a.22.22,0,0,1,.22-.22h30.991a.22.22,0,0,1,.22.22v44.415a.22.22,0,0,1-.22.22H77.25A.22.22,0,0,1,77.03,111.678Z" transform="translate(-73.727 -60.488)" fill="#eaf6ff"/>
        <path id="Trazado_1055995" data-name="Trazado 1055995" d="M80,111.9H77.248a.22.22,0,0,1-.22-.22V67.267a.22.22,0,0,1,.22-.22H80a.22.22,0,0,0-.22.22v44.414A.22.22,0,0,0,80,111.9Z" transform="translate(-73.726 -60.492)" fill="#d8ecfe"/>
        <path id="Trazado_1055996" data-name="Trazado 1055996" d="M0,0H3.508V5.5H0Z" transform="translate(26.544 39.246) rotate(-69.156)" fill="#918291"/>
        <path id="Trazado_1055997" data-name="Trazado 1055997" d="M161.878,9.3l-.658-1.658a.22.22,0,0,0-.2-.139H153.9a.22.22,0,0,0-.2.139L153.036,9.3a.22.22,0,0,1-.2.139h-2.645a.44.44,0,0,0-.44.44V14.94a.44.44,0,0,0,.44.44h14.541a.44.44,0,0,0,.44-.44V9.876a.44.44,0,0,0-.44-.44h-2.645A.22.22,0,0,1,161.878,9.3Z" transform="translate(-138.438 -7.5)" fill="#fff0ad"/>
        <path id="Trazado_1055998" data-name="Trazado 1055998" d="M152.94,31.032h-2.752a.44.44,0,0,1-.44-.44V25.527a.44.44,0,0,1,.44-.44h2.436a.45.45,0,0,0-.124.313v5.182A.445.445,0,0,0,152.94,31.032Z" transform="translate(-138.44 -23.151)" fill="#ffe177"/>
        <circle id="Elipse_13592" data-name="Elipse 13592" cx="10.82" cy="10.82" r="10.82" transform="translate(7.589 23.459)" fill="#fff0ad"/>
        <path id="Trazado_1055999" data-name="Trazado 1055999" d="M127.979,242.151a10.821,10.821,0,1,1,0-21.507,10.823,10.823,0,0,0,0,21.507Z" transform="translate(-108.358 -197.119)" fill="#ffe177"/>
        <circle id="Elipse_13593" data-name="Elipse 13593" cx="6.84" cy="6.84" r="6.84" transform="translate(11.569 27.438)" fill="#99e6fc"/>
        <path id="Trazado_1056000" data-name="Trazado 1056000" d="M159.265,269.966a6.772,6.772,0,0,0,1.056.308,6.841,6.841,0,1,1,0-13.4,6.841,6.841,0,0,0-1.056,13.095Z" transform="translate(-140.535 -229.294)" fill="#62dbfb"/>
        <path id="Trazado_1056001" data-name="Trazado 1056001" d="M340.312,349.038l-1.2,3.159a.881.881,0,0,1-1.136.511l-12.735-4.844a.439.439,0,0,1-.254-.568l1.515-3.983a.44.44,0,0,1,.568-.255L339.8,347.9A.881.881,0,0,1,340.312,349.038Z" transform="translate(-294.36 -306.093)" fill="#fff0ad"/>
        <path id="Trazado_1056002" data-name="Trazado 1056002" d="M188.819,148.277l-3.158,8.368a.22.22,0,0,1-.376.062l-1.093-1.334a.22.22,0,0,0-.309-.031L162.076,173.2l-.05-.018a6.815,6.815,0,0,1-3.729-3.42l22.38-18.334a.22.22,0,0,0,.031-.31l-1.093-1.334a.221.221,0,0,1,.135-.357l8.826-1.449A.221.221,0,0,1,188.819,148.277Z" transform="translate(-146.049 -132.515)" fill="#91deb6"/>
        <path id="Trazado_1056003" data-name="Trazado 1056003" d="M163.166,334.024l-1.09.893-.05-.018a6.815,6.815,0,0,1-3.729-3.42l2.175-1.782a6.875,6.875,0,0,0,1.809,3.555,6.78,6.78,0,0,0,.884.773Z" transform="translate(-146.049 -294.228)" fill="#6ed5a1"/>
        <path id="Trazado_1056004" data-name="Trazado 1056004" d="M424.511,380.194l-1.2,3.159a.881.881,0,0,1-1.136.511l-2.6-.99,1.736-4.817.016-.018L424,379.058A.881.881,0,0,1,424.511,380.194Z" transform="translate(-378.559 -337.249)" fill="#fd8087"/>
      </g>
      <g id="Grupo_1209368" data-name="Grupo 1209368" transform="translate(39.53 0)">
        <path id="Trazado_1056005" data-name="Trazado 1056005" d="M72.172,130.088H41.236a.055.055,0,0,1-.055-.055V85.526a.826.826,0,0,0-1.651,0v44.508a1.708,1.708,0,0,0,1.706,1.706H72.172a.826.826,0,0,0,0-1.651Z" transform="translate(-39.53 -75.376)"/>
        <path id="Trazado_1056006" data-name="Trazado 1056006" d="M86.091,41.863l-6.873-2.614V25.769a1.042,1.042,0,0,0,1.522-.521L83.9,16.883a1.045,1.045,0,0,0-1.146-1.4l-3.532.58V4.958a1.708,1.708,0,0,0-1.706-1.706h-9.6V3.2a1.267,1.267,0,0,0-1.266-1.266H64.411L63.9.661A1.04,1.04,0,0,0,62.932,0H55.816a1.04,1.04,0,0,0-.972.66l-.507,1.276H52.1A1.267,1.267,0,0,0,50.838,3.2v.05h-9.6A1.708,1.708,0,0,0,39.53,4.958V6.3a.826.826,0,1,0,1.651,0V4.958a.056.056,0,0,1,.055-.055h9.6V6.555H43.878A1.047,1.047,0,0,0,42.833,7.6V52.015a1.047,1.047,0,0,0,1.046,1.046H74.87a1.047,1.047,0,0,0,1.046-1.046V45.261l1.651.628v8.768a.055.055,0,0,1-.055.055H76.025a.826.826,0,0,0,0,1.651h1.487a1.708,1.708,0,0,0,1.706-1.706v-8.14l4.457,1.7a1.706,1.706,0,0,0,2.2-.988l1.2-3.16a1.709,1.709,0,0,0-.988-2.2Zm-14.2.1L73.129,38.7l8.986,3.418L80.931,45.4Zm-1.253-1.35L69.285,40.1q.2-.417.365-.855c.111-.291.207-.585.293-.881l1.353.515ZM55.212,44.446A9.994,9.994,0,1,1,64.726,27.08l-1.878,1.538a7.665,7.665,0,1,0-4.1,14.153A7.791,7.791,0,0,0,59.8,42.7a7.662,7.662,0,0,0,6.592-8.319l2.066-1.692A9.991,9.991,0,0,1,55.212,44.446ZM53.976,31.465a6.025,6.025,0,0,1,7.505-1.727L52.972,36.71A6.008,6.008,0,0,1,53.976,31.465Zm10.773,4.264a6.021,6.021,0,0,1-5.17,5.335,6.056,6.056,0,0,1-1.378.029Zm8.608,1.291a1.263,1.263,0,0,0-1.4.343L70.3,36.73a11.606,11.606,0,0,0-.444-5.182l4.412-3.614v9.431Zm2.559.973V26.581l1.651-1.353V38.621Zm3.65-14.309-.43-.525a1.05,1.05,0,0,0-1.471-.145L56.24,40.564a6.06,6.06,0,0,1-1.114-.67,5.983,5.983,0,0,1-1.467-1.613L75.51,20.38a1.046,1.046,0,0,0,.145-1.47l-.428-.523,6.756-1.109ZM77.512,4.9a.056.056,0,0,1,.055.055V16.33l-1.651.271v-9A1.047,1.047,0,0,0,74.87,6.555H67.91V4.9ZM52.489,3.587h2.26a1.04,1.04,0,0,0,.972-.66l.507-1.276h6.294l.507,1.276a1.04,1.04,0,0,0,.972.66h2.259V7.881H52.489ZM74.264,51.41H44.484V8.206h6.354v.06A1.267,1.267,0,0,0,52.1,9.532H66.644A1.267,1.267,0,0,0,67.91,8.266v-.06h6.354v8.666l-.34.056a1.046,1.046,0,0,0-.64,1.695l.709.865-7.958,6.519a11.655,11.655,0,1,0-3.967,20.257l1.669,2.8a1.051,1.051,0,0,0,.783.5,1.038,1.038,0,0,0,.114.006,1.053,1.053,0,0,0,.761-.326l1.219-1.287.968,1.2a1.046,1.046,0,0,0,1.424.2l1.26-.9h1.453a.826.826,0,1,0,0-1.651H70.072a1.044,1.044,0,0,0-.607.194l-.953.679-1.049-1.3a1.045,1.045,0,0,0-1.572-.062l-1.145,1.208-1.108-1.86a11.639,11.639,0,0,0,4.823-4.12l1.666.634a1.267,1.267,0,0,0,.815,1.183l3.323,1.264Zm11.271-7.932-1.2,3.16a.055.055,0,0,1-.071.032l-1.788-.68L83.659,42.7l1.845.7A.055.055,0,0,1,85.535,43.478Z" transform="translate(-39.53 0)"/>
        <path id="Trazado_1056007" data-name="Trazado 1056007" d="M117.3,108.131a.826.826,0,1,0,0-1.651H107.184v-1.637h1.281a1.043,1.043,0,0,0,.809-.383l2.262-2.759,1.737,2.756a.826.826,0,0,0,.666.385h.033a.826.826,0,0,0,.661-.331l1.477-1.975.7,1.082a.826.826,0,1,0,1.386-.9l-1.032-1.595,1-1.338a.826.826,0,0,0-1.323-.989l-.635.849-1.482-2.289a1.046,1.046,0,0,0-1.687-.095l-1.326,1.617-1.177-1.868a.826.826,0,0,0-1.341-.079l-2.01,2.489V97.556a.826.826,0,1,0-1.651,0v9.53a1.047,1.047,0,0,0,1.046,1.046H117.3Zm-3.516-9.178,1.363,2.105-1.123,1.5-1.39-2.206Zm-4.036-.081.855,1.356-2.43,2.963h-.994v-1.138Z" transform="translate(-98.267 -85.992)"/>
        <path id="Trazado_1056008" data-name="Trazado 1056008" d="M232.834,99.194h9.582a.826.826,0,0,0,0-1.651h-9.582a.826.826,0,0,0,0,1.651Z" transform="translate(-210.819 -86.805)"/>
        <path id="Trazado_1056009" data-name="Trazado 1056009" d="M232.834,129.194h8.584a.826.826,0,0,0,0-1.651h-8.584a.826.826,0,0,0,0,1.651Z" transform="translate(-210.819 -113.502)"/>
        <path id="Trazado_1056010" data-name="Trazado 1056010" d="M232.834,158.194H240.2a.826.826,0,0,0,0-1.651h-7.369a.826.826,0,1,0,0,1.651Z" transform="translate(-210.819 -139.31)"/>
        <path id="Trazado_1056011" data-name="Trazado 1056011" d="M232.834,187.76h5.513a.826.826,0,0,0,0-1.651h-5.513a.826.826,0,0,0,0,1.651Z" transform="translate(-210.819 -165.621)"/>
      </g>
    </g>
  </g>
</svg>
