<svg xmlns="http://www.w3.org/2000/svg" xmlns:xlink="http://www.w3.org/1999/xlink" width="113" height="113" viewBox="0 0 113 113">
  <defs>
    <filter id="Trazado_982547" x="0" y="0" width="113" height="113" filterUnits="userSpaceOnUse">
      <feOffset dy="3" input="SourceAlpha"/>
      <feGaussianBlur stdDeviation="3" result="blur"/>
      <feFlood flood-opacity="0.161"/>
      <feComposite operator="in" in2="blur"/>
      <feComposite in="SourceGraphic"/>
    </filter>
  </defs>
  <g id="Grupo_1209372" data-name="Grupo 1209372" transform="translate(-272.127 -4978.953)">
    <g id="Grupo_1209183" data-name="Grupo 1209183" transform="translate(0.127 3001.324)">
      <g id="Grupo_1208147" data-name="Grupo 1208147" transform="translate(0 -3923.371)">
        <g id="Grupo_1202432" data-name="Grupo 1202432" transform="translate(0 1255.486)">
          <g id="Grupo_1202055" data-name="Grupo 1202055" transform="translate(0 3240.511)">
            <g id="Grupo_1177900" data-name="Grupo 1177900" transform="translate(281 1411.003)">
              <g id="Grupo_1172010" data-name="Grupo 1172010" transform="translate(0)">
                <g id="Grupo_1171046" data-name="Grupo 1171046">
                  <g id="Grupo_1148525" data-name="Grupo 1148525">
                    <g transform="matrix(1, 0, 0, 1, -9, -6)" filter="url(#Trazado_982547)">
                      <g id="Trazado_982547-2" data-name="Trazado 982547" transform="translate(9 6)" fill="#fdf4ce">
                        <path d="M 47.5 93.5 C 41.28937149047852 93.5 35.26533508300781 92.28397369384766 29.59518623352051 89.88570404052734 C 24.11771965026855 87.56893157958984 19.19813346862793 84.25196075439453 14.97309303283691 80.02691650390625 C 10.74804019927979 75.80186462402344 7.431066513061523 70.88229370117188 5.114293098449707 65.40481567382812 C 2.716026782989502 59.73468017578125 1.5 53.71062850952148 1.5 47.5 C 1.5 41.28937149047852 2.716026782989502 35.26533508300781 5.114293098449707 29.59518623352051 C 7.431066513061523 24.11771965026855 10.74804019927979 19.19813346862793 14.97309303283691 14.97309303283691 C 19.19813346862793 10.74804019927979 24.11771965026855 7.431066513061523 29.59518623352051 5.114293098449707 C 35.26533508300781 2.716026782989502 41.28937149047852 1.5 47.5 1.5 C 53.71062850952148 1.5 59.73468017578125 2.716026782989502 65.40481567382812 5.114293098449707 C 70.88229370117188 7.431066513061523 75.80186462402344 10.74804019927979 80.02691650390625 14.97309303283691 C 84.25196075439453 19.19813346862793 87.56893157958984 24.11771965026855 89.88570404052734 29.59518623352051 C 92.28397369384766 35.26533508300781 93.5 41.28937149047852 93.5 47.5 C 93.5 53.71062850952148 92.28397369384766 59.73468017578125 89.88570404052734 65.40481567382812 C 87.56893157958984 70.88229370117188 84.25196075439453 75.80186462402344 80.02691650390625 80.02691650390625 C 75.80186462402344 84.25196075439453 70.88229370117188 87.56893157958984 65.40481567382812 89.88570404052734 C 59.73468017578125 92.28397369384766 53.71062850952148 93.5 47.5 93.5 Z" stroke="none"/>
                        <path d="M 47.5 3 C 41.49121475219727 3 35.66376876831055 4.176155090332031 30.17950439453125 6.495796203613281 C 24.88084411621094 8.736953735351562 20.12152099609375 11.94598388671875 16.03375244140625 16.03375244140625 C 11.94598388671875 20.12152099609375 8.736953735351562 24.88084411621094 6.495796203613281 30.17950439453125 C 4.176155090332031 35.66376876831055 3 41.49121475219727 3 47.5 C 3 53.50878524780273 4.176155090332031 59.33623123168945 6.495796203613281 64.82049560546875 C 8.736953735351562 70.11915588378906 11.94598388671875 74.87847900390625 16.03375244140625 78.96624755859375 C 20.12152099609375 83.05401611328125 24.88084411621094 86.26304626464844 30.17950439453125 88.50419616699219 C 35.66376876831055 90.82384490966797 41.49121475219727 92 47.5 92 C 53.50878524780273 92 59.33623123168945 90.82384490966797 64.82049560546875 88.50419616699219 C 70.11915588378906 86.26304626464844 74.87847900390625 83.05401611328125 78.96624755859375 78.96624755859375 C 83.05401611328125 74.87847900390625 86.26304626464844 70.11915588378906 88.50419616699219 64.82049560546875 C 90.82384490966797 59.33623123168945 92 53.50878524780273 92 47.5 C 92 41.49121475219727 90.82384490966797 35.66376876831055 88.50419616699219 30.17950439453125 C 86.26304626464844 24.88084411621094 83.05401611328125 20.12152099609375 78.96624755859375 16.03375244140625 C 74.87847900390625 11.94598388671875 70.11915588378906 8.736953735351562 64.82049560546875 6.495796203613281 C 59.33623123168945 4.176155090332031 53.50878524780273 3 47.5 3 M 47.5 0 C 73.7335205078125 0 95 21.2664794921875 95 47.5 C 95 73.7335205078125 73.7335205078125 95 47.5 95 C 21.2664794921875 95 0 73.7335205078125 0 47.5 C 0 21.2664794921875 21.2664794921875 0 47.5 0 Z" stroke="none" fill="#866d08"/>
                      </g>
                    </g>
                  </g>
                </g>
              </g>
            </g>
          </g>
        </g>
      </g>
    </g>
    <g id="clipboard-mail-checklist" transform="translate(296.201 4996.769)">
      <path id="Trazado_1056040" data-name="Trazado 1056040" d="M6,12H49.594V65.4H6Z" transform="translate(0.09 0.901)" fill="#5bcbfa"/>
      <path id="Trazado_1056041" data-name="Trazado 1056041" d="M17.935,37.875A4.359,4.359,0,1,1,14.36,36a4.359,4.359,0,0,1,3.575,1.875Z" transform="translate(0.449 3.057)" fill="#f6cc4f"/>
      <path id="Trazado_1056042" data-name="Trazado 1056042" d="M17.935,23.875A4.359,4.359,0,1,1,14.36,22a4.359,4.359,0,0,1,3.575,1.875Z" transform="translate(0.449 1.799)" fill="#f6cc4f"/>
      <path id="Trazado_1056043" data-name="Trazado 1056043" d="M32.438,8.449a5.449,5.449,0,1,0-10.9,0H15v7.629H38.977V8.449Zm-5.449,2.18a2.18,2.18,0,1,1,2.18-2.18A2.18,2.18,0,0,1,26.988,10.629Z" transform="translate(0.898 0.092)" fill="#636263"/>
      <path id="Trazado_1056044" data-name="Trazado 1056044" d="M30,40H60.516V58.527H30Z" transform="translate(2.246 3.416)" fill="#f6cc4f"/>
      <path id="Trazado_1056045" data-name="Trazado 1056045" d="M58.449,40,53,44V40Z" transform="translate(4.313 3.416)" fill="#f3ac3c"/>
      <path id="Trazado_1056046" data-name="Trazado 1056046" d="M35.449,40v4L30,40Z" transform="translate(2.246 3.416)" fill="#f3ac3c"/>
      <path id="Trazado_1056047" data-name="Trazado 1056047" d="M53.359,35.359H49V31h1.09Z" transform="translate(3.953 2.608)" fill="#b4cdf8"/>
      <path id="Trazado_1056048" data-name="Trazado 1056048" d="M54.617,35.359v9.449L44.809,52.8,35,44.808V31H50.258v4.359Z" transform="translate(2.695 2.608)" fill="#e1ecfd"/>
      <path id="Trazado_1056049" data-name="Trazado 1056049" d="M62.762,42.326H58.4V37.967a1.072,1.072,0,0,0-.218-.654l-3.27-4.359a1.105,1.105,0,0,0-.872-.436h-3.27V12.9a1.079,1.079,0,0,0-1.09-1.09H40.965V8.541a1.09,1.09,0,0,0-1.09-1.09H34.339a6.539,6.539,0,0,0-12.9,0H15.9a1.09,1.09,0,0,0-1.09,1.09v3.27H6.09A1.09,1.09,0,0,0,5,12.9V66.3a1.09,1.09,0,0,0,1.09,1.09H49.684a1.09,1.09,0,0,0,1.09-1.09v-3.27H62.762a1.09,1.09,0,0,0,1.09-1.09V43.416A1.09,1.09,0,0,0,62.762,42.326ZM58.4,44.506h1.21l-1.21.948Zm-4.359-9.078,1.09,1.449h-1.09Zm-2.18-.73v3.27a1.09,1.09,0,0,0,1.09,1.09h3.27v8.108L47.5,54.02l-8.719-6.855V34.7ZM16.988,9.631h5.449a1.09,1.09,0,0,0,1.09-1.09,4.359,4.359,0,1,1,8.719,0,1.09,1.09,0,0,0,1.09,1.09h5.449V15.08h-21.8ZM48.594,65.213H7.18V13.99h7.629v2.18a1.09,1.09,0,0,0,1.09,1.09H39.875a1.09,1.09,0,0,0,1.09-1.09V13.99h7.629V32.518H37.7a1.09,1.09,0,0,0-1.09,1.09v8.719H32.246a1.09,1.09,0,0,0-1.09,1.09V61.944a1.09,1.09,0,0,0,1.09,1.09H48.594ZM36.605,44.506v.948l-1.21-.948ZM61.672,60.854H33.336V45.661l13.492,10.6a1.112,1.112,0,0,0,1.351,0l13.492-10.6Z"/>
      <path id="Trazado_1056050" data-name="Trazado 1056050" d="M40,37.09v6.539a1.09,1.09,0,0,0,1.09,1.09h8.719v-2.18h-2.18V37.09A1.09,1.09,0,0,0,46.539,36H41.09A1.09,1.09,0,0,0,40,37.09Zm2.18,1.09h3.27v4.359H42.18Z" transform="translate(3.145 3.057)"/>
      <path id="Trazado_1056051" data-name="Trazado 1056051" d="M26.27,11.539A3.27,3.27,0,1,0,23,8.27,3.27,3.27,0,0,0,26.27,11.539Zm0-4.359a1.09,1.09,0,1,1-1.09,1.09A1.09,1.09,0,0,1,26.27,7.18Z" transform="translate(1.617 0.272)"/>
      <path id="Trazado_1056052" data-name="Trazado 1056052" d="M18.058,22.457a5.478,5.478,0,1,0,1.321,1.767l2.385-2.385L20.223,20.3Zm-.335,4.055A3.309,3.309,0,1,1,16.518,24l-2.064,2.064-1.409-1.409L11.5,26.193l2.18,2.18a1.09,1.09,0,0,0,1.541,0l2.44-2.44a3.278,3.278,0,0,1,.059.58Z" transform="translate(0.354 1.646)"/>
      <path id="Trazado_1056053" data-name="Trazado 1056053" d="M20.223,34.293l-2.164,2.164a5.478,5.478,0,1,0,1.321,1.767l2.385-2.385Zm-2.5,6.22A3.309,3.309,0,1,1,16.518,38l-2.064,2.064-1.409-1.409L11.5,40.193l2.18,2.18a1.09,1.09,0,0,0,1.541,0l2.44-2.44a3.278,3.278,0,0,1,.059.58Z" transform="translate(0.354 2.903)"/>
      <path id="Trazado_1056054" data-name="Trazado 1056054" d="M23,23h4.359v2.18H23Z" transform="translate(1.617 1.889)"/>
      <path id="Trazado_1056055" data-name="Trazado 1056055" d="M29,23H39.9v2.18H29Z" transform="translate(2.156 1.889)"/>
      <path id="Trazado_1056056" data-name="Trazado 1056056" d="M23,27h7.629v2.18H23Z" transform="translate(1.617 2.248)"/>
    </g>
  </g>
</svg>
