<svg xmlns="http://www.w3.org/2000/svg" xmlns:xlink="http://www.w3.org/1999/xlink" width="113" height="113" viewBox="0 0 113 113">
  <defs>
    <filter id="Trazado_982547" x="0" y="0" width="113" height="113" filterUnits="userSpaceOnUse">
      <feOffset dy="3" input="SourceAlpha"/>
      <feGaussianBlur stdDeviation="3" result="blur"/>
      <feFlood flood-opacity="0.161"/>
      <feComposite operator="in" in2="blur"/>
      <feComposite in="SourceGraphic"/>
    </filter>
  </defs>
  <g id="Grupo_1209374" data-name="Grupo 1209374" transform="translate(-901.127 -4979.24)">
    <g id="Grupo_1209181" data-name="Grupo 1209181" transform="translate(0.127 3741.446)">
      <g id="Grupo_1208679" data-name="Grupo 1208679" transform="translate(0 -740.122)">
        <g id="Grupo_1208144" data-name="Grupo 1208144" transform="translate(0 -3923.371)">
          <g id="Grupo_1202434" data-name="Grupo 1202434" transform="translate(-0.56 1255.773)">
            <g id="Grupo_1202053" data-name="Grupo 1202053" transform="translate(0 3240.511)">
              <g id="Grupo_1177898" data-name="Grupo 1177898" transform="translate(910.561 1411.003)">
                <g id="Grupo_1172010" data-name="Grupo 1172010" transform="translate(0)">
                  <g id="Grupo_1171046" data-name="Grupo 1171046">
                    <g id="Grupo_1148525" data-name="Grupo 1148525">
                      <g transform="matrix(1, 0, 0, 1, -9, -6)" filter="url(#Trazado_982547)">
                        <g id="Trazado_982547-2" data-name="Trazado 982547" transform="translate(9 6)" fill="#fdf4ce">
                          <path d="M 47.5 93.5 C 41.28937149047852 93.5 35.26533508300781 92.28397369384766 29.59518623352051 89.88570404052734 C 24.11771965026855 87.56893157958984 19.19813346862793 84.25196075439453 14.97309303283691 80.02691650390625 C 10.74804019927979 75.80186462402344 7.431066513061523 70.88229370117188 5.114293098449707 65.40481567382812 C 2.716026782989502 59.73468017578125 1.5 53.71062850952148 1.5 47.5 C 1.5 41.28937149047852 2.716026782989502 35.26533508300781 5.114293098449707 29.59518623352051 C 7.431066513061523 24.11771965026855 10.74804019927979 19.19813346862793 14.97309303283691 14.97309303283691 C 19.19813346862793 10.74804019927979 24.11771965026855 7.431066513061523 29.59518623352051 5.114293098449707 C 35.26533508300781 2.716026782989502 41.28937149047852 1.5 47.5 1.5 C 53.71062850952148 1.5 59.73468017578125 2.716026782989502 65.40481567382812 5.114293098449707 C 70.88229370117188 7.431066513061523 75.80186462402344 10.74804019927979 80.02691650390625 14.97309303283691 C 84.25196075439453 19.19813346862793 87.56893157958984 24.11771965026855 89.88570404052734 29.59518623352051 C 92.28397369384766 35.26533508300781 93.5 41.28937149047852 93.5 47.5 C 93.5 53.71062850952148 92.28397369384766 59.73468017578125 89.88570404052734 65.40481567382812 C 87.56893157958984 70.88229370117188 84.25196075439453 75.80186462402344 80.02691650390625 80.02691650390625 C 75.80186462402344 84.25196075439453 70.88229370117188 87.56893157958984 65.40481567382812 89.88570404052734 C 59.73468017578125 92.28397369384766 53.71062850952148 93.5 47.5 93.5 Z" stroke="none"/>
                          <path d="M 47.5 3 C 41.49121475219727 3 35.66376876831055 4.176155090332031 30.17950439453125 6.495796203613281 C 24.88084411621094 8.736953735351562 20.12152099609375 11.94598388671875 16.03375244140625 16.03375244140625 C 11.94598388671875 20.12152099609375 8.736953735351562 24.88084411621094 6.495796203613281 30.17950439453125 C 4.176155090332031 35.66376876831055 3 41.49121475219727 3 47.5 C 3 53.50878524780273 4.176155090332031 59.33623123168945 6.495796203613281 64.82049560546875 C 8.736953735351562 70.11915588378906 11.94598388671875 74.87847900390625 16.03375244140625 78.96624755859375 C 20.12152099609375 83.05401611328125 24.88084411621094 86.26304626464844 30.17950439453125 88.50419616699219 C 35.66376876831055 90.82384490966797 41.49121475219727 92 47.5 92 C 53.50878524780273 92 59.33623123168945 90.82384490966797 64.82049560546875 88.50419616699219 C 70.11915588378906 86.26304626464844 74.87847900390625 83.05401611328125 78.96624755859375 78.96624755859375 C 83.05401611328125 74.87847900390625 86.26304626464844 70.11915588378906 88.50419616699219 64.82049560546875 C 90.82384490966797 59.33623123168945 92 53.50878524780273 92 47.5 C 92 41.49121475219727 90.82384490966797 35.66376876831055 88.50419616699219 30.17950439453125 C 86.26304626464844 24.88084411621094 83.05401611328125 20.12152099609375 78.96624755859375 16.03375244140625 C 74.87847900390625 11.94598388671875 70.11915588378906 8.736953735351562 64.82049560546875 6.495796203613281 C 59.33623123168945 4.176155090332031 53.50878524780273 3 47.5 3 M 47.5 0 C 73.7335205078125 0 95 21.2664794921875 95 47.5 C 95 73.7335205078125 73.7335205078125 95 47.5 95 C 21.2664794921875 95 0 73.7335205078125 0 47.5 C 0 21.2664794921875 21.2664794921875 0 47.5 0 Z" stroke="none" fill="#866d08"/>
                        </g>
                      </g>
                    </g>
                  </g>
                </g>
              </g>
            </g>
          </g>
        </g>
      </g>
    </g>
    <g id="incident_14105657" transform="translate(898.562 4985.819)">
      <path id="Trazado_1056085" data-name="Trazado 1056085" d="M79.6,25.266a.816.816,0,0,1,.246.6V44.989a11.1,11.1,0,0,1,3.725,18.134l1.9,3.092a2.421,2.421,0,0,1,1.428,1.063l3.8,6.153a2.516,2.516,0,0,1,.218,2.136c-.76,2.293-4.159,3.188-5.454,1.1l-3.8-6.152a2.465,2.465,0,0,1-.32-1.732l-1.495-2.43v6.673a3.112,3.112,0,0,1-3.108,3.106H36.906A3.11,3.11,0,0,1,33.8,73.022V19.108A3.111,3.111,0,0,1,36.906,16H69.99a.817.817,0,0,1,.588.247L79.6,25.266Zm.247,25.711v8.61a5.978,5.978,0,0,0,0-8.61Z" fill-rule="evenodd"/>
      <path id="Trazado_1056086" data-name="Trazado 1056086" d="M193.99,291.29h-1.259a.823.823,0,0,1-.823-.823V285.81h-2.259v4.663a.819.819,0,0,1-.819.819h-1.26l3.211,3.407Q192.385,292.992,193.99,291.29Z" transform="translate(-133.958 -235.048)" fill="#ef6262" fill-rule="evenodd"/>
      <path id="Trazado_1056087" data-name="Trazado 1056087" d="M234.046,294.1h5.63a11.106,11.106,0,0,1,.3-8.29H234v3.833h2.341a.821.821,0,0,1,.6,1.382Z" transform="translate(-174.406 -235.048)" fill="#f2f2f2" fill-rule="evenodd"/>
      <path id="Trazado_1056088" data-name="Trazado 1056088" d="M286.652,261.153c.112.186.245.5.411.749,1.568,2.125,2.667,3.27,5.244,4.1a9.463,9.463,0,0,0,5.825-.048l.725-.277a.822.822,0,0,1,1.077.3l1.741,2.835A3.628,3.628,0,0,1,303.02,268l-1.77-2.882a.822.822,0,0,1,.2-1.087,9.458,9.458,0,0,0-10.071-15.719,9.944,9.944,0,0,0-1.16.6.808.808,0,0,1-.115.071,9.462,9.462,0,0,0-3.458,12.174ZM298.8,250.312a7.8,7.8,0,0,1,2.855,2.739,7.608,7.608,0,1,1-2.855-2.739Z" transform="translate(-219.431 -201.703)" fill="#0c9198" fill-rule="evenodd"/>
      <path id="Trazado_1056089" data-name="Trazado 1056089" d="M77.149,71.831H69.214l-.7.746a.821.821,0,0,1-1.16-.036l-5.074-5.384a.823.823,0,0,1,.558-1.428h2.345V61.9H53.712a2.491,2.491,0,0,1-2.132-3.783l5.7-9.879-3.314-1.918-1.144,1.974a.822.822,0,0,1-1.529-.121L49.157,41.04a.822.822,0,0,1,.6-1.05l7.256-1.712a.821.821,0,0,1,.9,1.206l-1.172,2.032,3.323,1.918,5.731-9.921a2.492,2.492,0,0,1,4.316,0l5.731,9.921,3.322-1.917-1.14-1.975a.822.822,0,0,1,.865-1.265l7.258,1.715a.822.822,0,0,1,.6,1.031l-2.15,7.145a.821.821,0,0,1-1.5.174l-1.171-2.027-3.322,1.917,4.469,7.741a11.069,11.069,0,0,1,6.247-.366V37.81H83.029a2.742,2.742,0,0,1-2.737-2.737V28.78H48.031a1.466,1.466,0,0,0-1.461,1.461V84.156a1.466,1.466,0,0,0,1.461,1.461H87.862a1.466,1.466,0,0,0,1.461-1.461V77.233a11.1,11.1,0,0,1-5.812-.228H63.154a.823.823,0,1,1,0-1.645h17.1a11.1,11.1,0,0,1-3.109-3.528ZM50.972,82.177a.823.823,0,1,1,0-1.645H85.5a.823.823,0,1,1,0,1.645ZM56.3,65.248a5.581,5.581,0,0,1,4.7,4.7h.227a.823.823,0,0,1,.823.822A6.571,6.571,0,1,1,55.478,64.2a.823.823,0,0,1,.822.823Z" transform="translate(-11.125 -11.133)" fill="#f2f2f2" fill-rule="evenodd"/>
      <path id="Trazado_1056090" data-name="Trazado 1056090" d="M108.537,94.889h11.607a11.089,11.089,0,0,1,3.968-3.608L111.229,68.964a.85.85,0,0,0-1.477,0l-8.086,14.013L95.522,93.612a.848.848,0,0,0,.737,1.277ZM110.49,88.2a2.617,2.617,0,1,1-1.855.766A2.622,2.622,0,0,1,110.49,88.2Zm2.1-3.079c.059,1.994-2.248,3.35-3.638,1.641a2.521,2.521,0,0,1-.555-1.64l-.317-9.307a2.42,2.42,0,0,1,4.131-1.732,2.319,2.319,0,0,1,.7,1.732Z" transform="translate(-53.668 -45.767)" fill="#f7ba2d" fill-rule="evenodd"/>
      <path id="Trazado_1056091" data-name="Trazado 1056091" d="M89.05,122.839l-4.031-2.327a.819.819,0,0,1-.3-1.118l.633-1.094-4.558,1.077,1.345,4.486.63-1.093a.821.821,0,0,1,1.122-.3l4.033,2.319Z" transform="translate(-40.936 -89.12)" fill="#07718b" fill-rule="evenodd"/>
      <path id="Trazado_1056092" data-name="Trazado 1056092" d="M281.211,124.8l4.03-2.328a.821.821,0,0,1,1.147.345l.606,1.049,1.345-4.486L283.78,118.3l.633,1.094a.819.819,0,0,1-.3,1.118l-4.03,2.327Z" transform="translate(-214.549 -89.12)" fill="#0c9198" fill-rule="evenodd"/>
      <path id="Trazado_1056093" data-name="Trazado 1056093" d="M206.6,234.2a.978.978,0,1,0,.29.692A.978.978,0,0,0,206.6,234.2Z" transform="translate(-149.081 -189.838)" fill="#ef6262" fill-rule="evenodd"/>
      <path id="Trazado_1056094" data-name="Trazado 1056094" d="M207.68,128.862l.318-9.329a.78.78,0,0,0-1.335-.515.724.724,0,0,0-.214.515l.321,9.329C206.807,129.994,207.688,129.858,207.68,128.862Z" transform="translate(-150.406 -89.542)" fill="#ef6262" fill-rule="evenodd"/>
      <path id="Trazado_1056095" data-name="Trazado 1056095" d="M321.08,37.81v5.13a1.1,1.1,0,0,0,1.091,1.091h5.13Z" transform="translate(-250.267 -19)" fill="#919091" fill-rule="evenodd"/>
      <path id="Trazado_1056096" data-name="Trazado 1056096" d="M321.25,285.978V275.13a5.967,5.967,0,1,0,0,10.848Z" transform="translate(-243.051 -225.27)" fill="#f2f2f2" fill-rule="evenodd"/>
      <path id="Trazado_1056097" data-name="Trazado 1056097" d="M124,361.05l.979,3.654a4.927,4.927,0,0,0,2.8-3.654Z" transform="translate(-78.579 -300.594)" fill="#ffab3c" fill-rule="evenodd"/>
      <path id="Trazado_1056098" data-name="Trazado 1056098" d="M82.9,326.753l-1.243-4.645a.8.8,0,0,1-.041-.258V317a4.922,4.922,0,0,0,1.285,9.753Z" transform="translate(-38.083 -262.219)" fill="#07718b" fill-rule="evenodd"/>
      <path id="Trazado_1056099" data-name="Trazado 1056099" d="M417.113,417.61a1.822,1.822,0,0,0-1.849,1.16.874.874,0,0,0,.1.805l3.763,6.089c.495.8,2.144.314,2.5-.749a.881.881,0,0,0-.09-.826L417.765,418a.861.861,0,0,0-.652-.392Z" transform="translate(-332.267 -349.857)" fill="#07718b" fill-rule="evenodd"/>
      <path id="Trazado_1056100" data-name="Trazado 1056100" d="M125.134,327.834a3.936,3.936,0,0,0-3.024-3.024v3.024Z" transform="translate(-76.932 -269.023)" fill="#ef6262" fill-rule="evenodd"/>
    </g>
  </g>
</svg>
