<svg xmlns="http://www.w3.org/2000/svg" xmlns:xlink="http://www.w3.org/1999/xlink" width="101.234" height="101.234" viewBox="0 0 101.234 101.234">
  <defs>
    <filter id="Trazado_904820" x="0" y="0" width="101.234" height="101.234" filterUnits="userSpaceOnUse">
      <feOffset dy="3" input="SourceAlpha"/>
      <feGaussianBlur stdDeviation="3" result="blur"/>
      <feFlood flood-opacity="0.161"/>
      <feComposite operator="in" in2="blur"/>
      <feComposite in="SourceGraphic"/>
    </filter>
  </defs>
  <g id="Grupo_1209382" data-name="Grupo 1209382" transform="translate(-172.5 -5346)">
    <g id="Grupo_1209184" data-name="Grupo 1209184" transform="translate(181.5 5352)">
      <g id="Grupo_1174741" data-name="Grupo 1174741" transform="translate(0 0)">
        <g id="Grupo_1173585" data-name="Grupo 1173585">
          <g id="Grupo_1173428" data-name="Grupo 1173428">
            <g id="Grupo_1171958" data-name="Grupo 1171958">
              <g id="Grupo_1167341" data-name="Grupo 1167341">
                <g id="Grupo_1166792" data-name="Grupo 1166792">
                  <g transform="matrix(1, 0, 0, 1, -9, -6)" filter="url(#Trazado_904820)">
                    <g id="Trazado_904820-2" data-name="Trazado 904820" transform="translate(9 6)" fill="#fef9e5">
                      <path d="M 41.61681747436523 81.73366546630859 C 36.20041656494141 81.73366546630859 30.94684028625488 80.67319488525391 26.00200653076172 78.58170318603516 C 21.22509956359863 76.56124114990234 16.93468856811523 73.66845703125 13.24994659423828 69.98371887207031 C 9.565205574035645 66.29897308349609 6.672429084777832 62.00854873657227 4.651970386505127 57.23164367675781 C 2.560476303100586 52.28680801391602 1.500005722045898 47.03323364257812 1.500005722045898 41.6168327331543 C 1.500005722045898 36.20043182373047 2.560476303100586 30.94684410095215 4.651970386505127 26.00200843811035 C 6.672429084777832 21.2251033782959 9.565205574035645 16.9346923828125 13.24994659423828 13.24995040893555 C 16.93468856811523 9.565196990966797 21.22509956359863 6.672420978546143 26.00200653076172 4.651962280273438 C 30.94684028625488 2.560467958450317 36.20041656494141 1.499997496604919 41.61681747436523 1.499997496604919 C 47.03321838378906 1.499997496604919 52.28679275512695 2.560467958450317 57.23162841796875 4.651962280273438 C 62.0085334777832 6.672420978546143 66.2989501953125 9.565196990966797 69.98368835449219 13.24995040893555 C 73.66844177246094 16.9346923828125 76.56121826171875 21.2251033782959 78.58167266845703 26.00200843811035 C 80.67317199707031 30.94684410095215 81.733642578125 36.20043182373047 81.733642578125 41.6168327331543 C 81.733642578125 47.03323364257812 80.67317199707031 52.28680801391602 78.58167266845703 57.23164367675781 C 76.56121826171875 62.00854873657227 73.66844177246094 66.29897308349609 69.98368835449219 69.98371887207031 C 66.2989501953125 73.66845703125 62.0085334777832 76.56124114990234 57.23162841796875 78.58170318603516 C 52.28679275512695 80.67319488525391 47.03321838378906 81.73366546630859 41.61681747436523 81.73366546630859 Z" stroke="none"/>
                      <path d="M 41.61681747436523 2.999992370605469 C 36.40225601196289 2.999992370605469 31.34527206420898 4.020606994628906 26.58633804321289 6.033462524414062 C 21.98823165893555 7.978302001953125 17.85807037353516 10.76312255859375 14.31060791015625 14.31060791015625 C 10.76313781738281 17.85807037353516 7.978309631347656 21.98823165893555 6.033470153808594 26.58633804321289 C 4.020606994628906 31.34528732299805 3.000007629394531 36.40227127075195 3.000007629394531 41.6168327331543 C 3.000007629394531 46.83139419555664 4.020606994628906 51.88838195800781 6.033470153808594 56.64732360839844 C 7.978309631347656 61.24542999267578 10.76313781738281 65.37557983398438 14.31060791015625 68.92304992675781 C 17.85807037353516 72.47052764892578 21.98823165893555 75.25535583496094 26.58633804321289 77.2001953125 C 31.34527206420898 79.21304321289062 36.40225601196289 80.23365783691406 41.61681747436523 80.23365783691406 C 46.83137893676758 80.23365783691406 51.88836669921875 79.21304321289062 56.64729690551758 77.2001953125 C 61.24540328979492 75.25535583496094 65.37556457519531 72.47052764892578 68.92303466796875 68.92304992675781 C 72.47049713134766 65.37557983398438 75.25532531738281 61.24542999267578 77.20016479492188 56.64732360839844 C 79.21302795410156 51.88838195800781 80.23362731933594 46.83139419555664 80.23362731933594 41.6168327331543 C 80.23362731933594 36.40227127075195 79.21302795410156 31.34528732299805 77.20016479492188 26.58633804321289 C 75.25532531738281 21.98823165893555 72.47049713134766 17.85807037353516 68.92303466796875 14.31060791015625 C 65.37556457519531 10.76312255859375 61.24540328979492 7.978302001953125 56.64729690551758 6.033462524414062 C 51.88836669921875 4.020606994628906 46.83137893676758 2.999992370605469 41.61681747436523 2.999992370605469 M 41.61681747436523 -7.62939453125e-06 C 64.60115051269531 -7.62939453125e-06 83.23362731933594 18.63248443603516 83.23362731933594 41.6168327331543 C 83.23362731933594 64.60116577148438 64.60115051269531 83.23365783691406 41.61681747436523 83.23365783691406 C 18.63248443603516 83.23365783691406 7.62939453125e-06 64.60116577148438 7.62939453125e-06 41.6168327331543 C 7.62939453125e-06 18.63248443603516 18.63248443603516 -7.62939453125e-06 41.61681747436523 -7.62939453125e-06 Z" stroke="none" fill="#866d08"/>
                    </g>
                  </g>
                </g>
              </g>
            </g>
          </g>
        </g>
      </g>
    </g>
    <g id="overview_9504586_1_" data-name="overview_9504586 (1)" transform="translate(170.314 5366.5)">
      <g id="Grupo_1209381" data-name="Grupo 1209381" transform="translate(30.03 1.344)">
        <g id="Grupo_1209378" data-name="Grupo 1209378" transform="translate(6.351 0)">
          <path id="Trazado_1056108" data-name="Trazado 1056108" d="M135.076,51.927a2.123,2.123,0,0,1,2.119,2.119v42.54a2.123,2.123,0,0,1-2.119,2.119h-35.6a2.123,2.123,0,0,1-2.119-2.119V54.046a2.123,2.123,0,0,1,2.119-2.119Z" transform="translate(-97.354 -47.343)" fill="#b06328" fill-rule="evenodd"/>
          <path id="Trazado_1056109" data-name="Trazado 1056109" d="M130.064,85.882v37.382a1.248,1.248,0,0,0,1.245,1.245h26.1a1.2,1.2,0,0,0,.88-.365l4.342-4.342a1.2,1.2,0,0,0,.365-.88V85.882a1.247,1.247,0,0,0-1.245-1.245H131.309A1.248,1.248,0,0,0,130.064,85.882Z" transform="translate(-126.611 -76.6)" fill="#eff4f7" fill-rule="evenodd"/>
          <path id="Trazado_1056110" data-name="Trazado 1056110" d="M394.061,419.311a1.245,1.245,0,0,0,.365-.257l4.342-4.342a1.247,1.247,0,0,0,.257-.365h-4.963v4.963Z" transform="translate(-362.743 -371.51)" fill="#e2e3e3" fill-rule="evenodd"/>
          <path id="Trazado_1056111" data-name="Trazado 1056111" d="M212.35,13.081h5.2l-2.113-2.988a1.011,1.011,0,0,1,.826-1.6h6.618a1.011,1.011,0,0,1,.826,1.6L221.6,13.081h5.2a.624.624,0,0,1,.623.623V17.27a.624.624,0,0,1-.623.623H212.35a.624.624,0,0,1-.623-.623V13.7a.623.623,0,0,1,.622-.623Z" transform="translate(-199.656 -8.497)" fill="#232c36" fill-rule="evenodd"/>
        </g>
        <g id="Grupo_1209379" data-name="Grupo 1209379" transform="translate(14.558 17.532)">
          <path id="Trazado_1056112" data-name="Trazado 1056112" d="M176.057,272.3h1.855a.952.952,0,0,1,.95.95v4.514a.952.952,0,0,1-.95.95h-1.855a.952.952,0,0,1-.95-.95v-4.514A.952.952,0,0,1,176.057,272.3Z" transform="translate(-175.107 -261.983)" fill="#eb3b48" fill-rule="evenodd"/>
          <path id="Trazado_1056113" data-name="Trazado 1056113" d="M238.183,239.729h1.855a.952.952,0,0,1,.95.95v7.952a.952.952,0,0,1-.95.95h-1.855a.952.952,0,0,1-.95-.95v-7.952A.952.952,0,0,1,238.183,239.729Z" transform="translate(-230.676 -232.854)" fill="#ffe600" fill-rule="evenodd"/>
          <path id="Trazado_1056114" data-name="Trazado 1056114" d="M300.309,207.161h1.855a.952.952,0,0,1,.95.95V219.5a.952.952,0,0,1-.95.95h-1.855a.952.952,0,0,1-.95-.95v-11.39A.952.952,0,0,1,300.309,207.161Z" transform="translate(-286.244 -203.724)" fill="#22c269" fill-rule="evenodd"/>
          <path id="Trazado_1056115" data-name="Trazado 1056115" d="M362.435,174.6h1.855a.952.952,0,0,1,.95.95v14.827a.952.952,0,0,1-.95.95h-1.855a.952.952,0,0,1-.95-.95V175.545A.952.952,0,0,1,362.435,174.6Z" transform="translate(-341.813 -174.595)" fill="#4294ff" fill-rule="evenodd"/>
        </g>
        <g id="Grupo_1209380" data-name="Grupo 1209380" transform="translate(0 29.707)">
          <circle id="Elipse_13606" data-name="Elipse 13606" cx="11.271" cy="11.271" r="11.271" fill="#4294ff"/>
          <path id="Trazado_1056116" data-name="Trazado 1056116" d="M66.908,358.049c3.393-5.834,12.791-5.834,16.184,0a.327.327,0,0,1,0,.336c-3.393,5.834-12.79,5.834-16.184,0a.327.327,0,0,1,0-.337Z" transform="translate(-63.729 -346.946)" fill="#e6f8ff" fill-rule="evenodd"/>
          <circle id="Elipse_13607" data-name="Elipse 13607" cx="4.544" cy="4.544" r="4.544" transform="translate(6.727 6.727)" fill="#4294ff"/>
          <circle id="Elipse_13608" data-name="Elipse 13608" cx="1.624" cy="1.624" r="1.624" transform="translate(9.647 9.647)" fill="#e6f8ff"/>
        </g>
      </g>
      <path id="Trazado_1056117" data-name="Trazado 1056117" d="M41.3,43.1a.78.78,0,1,1,.782-.78A.784.784,0,0,1,41.3,43.1Zm0-3.249a2.469,2.469,0,1,0,2.469,2.469A2.473,2.473,0,0,0,41.3,39.853ZM39.342,49.1l-.423,1.574a.845.845,0,0,1-1.633-.437l.423-1.574a.845.845,0,0,1,1.633.437Zm-2.758-.727-.732,1.27a.845.845,0,1,1-1.464-.845l.737-1.269a.843.843,0,1,1,1.459.844Zm8.737,1.864a.847.847,0,0,1-.6,1.035.841.841,0,0,1-1.035-.6L43.265,49.1a.845.845,0,0,1,1.633-.437Zm2.9-1.439a.845.845,0,0,1-1.464.845l-.732-1.27a.845.845,0,1,1,1.464-.844Zm-6.068.39v1.69a.844.844,0,1,1-1.688,0v-1.69a.844.844,0,1,1,1.688,0ZM37.286,34.407a.845.845,0,0,1,1.633-.437l.423,1.575a.848.848,0,0,1-.6,1.035.9.9,0,0,1-.219.028.849.849,0,0,1-.816-.626Zm8.737,1.865L46.754,35a.845.845,0,1,1,1.464.844l-.732,1.27a.854.854,0,0,1-.737.422.835.835,0,0,1-.418-.113.844.844,0,0,1-.309-1.154Zm-2.758-.727.423-1.575a.845.845,0,0,1,1.633.437L44.9,35.982a.845.845,0,0,1-.816.626.9.9,0,0,1-.219-.028.848.848,0,0,1-.6-1.035Zm-8.876.3A.845.845,0,1,1,35.852,35l.732,1.27a.843.843,0,0,1-.309,1.153.827.827,0,0,1-.418.114.84.84,0,0,1-.732-.422Zm6.073-.389v-1.69a.844.844,0,1,1,1.688,0v1.69a.844.844,0,1,1-1.688,0Zm5.7,9.2a5.351,5.351,0,0,0,0-4.675,7.657,7.657,0,0,1,2.355,2.338A7.669,7.669,0,0,1,46.157,44.659ZM37.6,42.322a3.7,3.7,0,1,0,3.7-3.7A3.7,3.7,0,0,0,37.6,42.322Zm-3.5,0a7.586,7.586,0,0,1,2.35-2.338,5.4,5.4,0,0,0,0,4.675A7.6,7.6,0,0,1,34.1,42.322Zm16.025-.593a9.984,9.984,0,0,0-8.677-4.793h0c-.05,0-.095,0-.144,0s-.095,0-.144,0h0a9.983,9.983,0,0,0-8.677,4.793,1.174,1.174,0,0,0,0,1.185,9.983,9.983,0,0,0,8.682,4.795v0c.045,0,.095,0,.139,0s.095,0,.139,0v0a9.984,9.984,0,0,0,8.682-4.794A1.153,1.153,0,0,0,50.125,41.728ZM65.109,19.72h2.066V34.758H65.109Zm-1.693-.844V35.6a.845.845,0,0,0,.846.845h3.754a.845.845,0,0,0,.846-.845V18.876a.845.845,0,0,0-.846-.844H64.263a.845.845,0,0,0-.846.844Zm-2.8,15.882H58.548v-11.6h2.071Zm.841-13.289H57.706a.845.845,0,0,0-.846.845V35.6a.845.845,0,0,0,.846.845H61.46a.845.845,0,0,0,.846-.845V22.314A.845.845,0,0,0,61.46,21.469Zm-1.235-8.318a.84.84,0,0,0,.662.992l1.07.211L46.107,23.5a.845.845,0,0,0,.846,1.462L62.8,15.817l-.349,1.03a.844.844,0,0,0,.528,1.071.807.807,0,0,0,.269.045.845.845,0,0,0,.8-.572l1.075-3.157a.83.83,0,0,0-.07-.695.839.839,0,0,0-.568-.406l-3.271-.648A.843.843,0,0,0,60.225,13.151ZM75.379,50.588A1.276,1.276,0,0,1,74.1,51.861H48.761A12.2,12.2,0,0,0,50.588,50.1H67.7a.847.847,0,0,0,.6-.247l5.068-5.072a.841.841,0,0,0,.249-.6V9.381a.845.845,0,0,0-.846-.844H64.995V6.773H74.1a1.276,1.276,0,0,1,1.274,1.274V50.588Zm-44.5-8.266A10.424,10.424,0,1,0,41.3,31.9,10.436,10.436,0,0,0,30.879,42.322ZM37.226,8.047A1.276,1.276,0,0,1,38.5,6.773h9.11V8.537H39.834a.844.844,0,0,0-.841.844V30.428a11.962,11.962,0,0,0-1.767.484ZM47.5,31.915a12.205,12.205,0,0,0-2.066-.984v-.9H47.5Zm4.49,2.843h2.066V26.6H51.991ZM70.734,45.027h-2.19v2.188ZM64.153,11.585h-15.7a.846.846,0,0,1-.846-.844v-.515h-6.93v20c.2-.011.413-.016.622-.016a12.111,12.111,0,0,1,2.444.247V29.188a.844.844,0,0,1,.841-.845h3.759a.844.844,0,0,1,.841.845v3.944A12.565,12.565,0,0,1,50.3,34.22V25.751a.844.844,0,0,1,.841-.844H54.9a.841.841,0,0,1,.841.844V35.6a.841.841,0,0,1-.841.845H51.9a12.239,12.239,0,0,1,.886,1.994H68.5a.844.844,0,1,1,0,1.689H53.221a12.24,12.24,0,0,1,.2,2.192c0,.371-.02.74-.05,1.1H63.431a.844.844,0,0,1,0,1.689H53.092a11.877,11.877,0,0,1-1.314,3.3H66.856V44.182a.845.845,0,0,1,.846-.844h4.226V10.225H64.995v.515a.841.841,0,0,1-.841.844ZM49.3,6.773V9.9H63.307V6.773H58.324a.845.845,0,0,1-.687-1.332l2.111-2.988a.159.159,0,0,0,.015-.174.155.155,0,0,0-.149-.09H53a.155.155,0,0,0-.149.09.15.15,0,0,0,.01.174l2.116,2.988a.853.853,0,0,1,.06.876.844.844,0,0,1-.752.456ZM74.1,5.084H59.957l1.17-1.656A1.855,1.855,0,0,0,59.613.5H53a1.855,1.855,0,0,0-1.518,2.928l1.175,1.656H38.5a2.966,2.966,0,0,0-2.962,2.963v23.62A12.115,12.115,0,0,0,45.853,53.55H74.1a2.966,2.966,0,0,0,2.962-2.963V8.047A2.966,2.966,0,0,0,74.1,5.084Z" fill-rule="evenodd"/>
    </g>
  </g>
</svg>
