<svg xmlns="http://www.w3.org/2000/svg" xmlns:xlink="http://www.w3.org/1999/xlink" width="101.234" height="101.234" viewBox="0 0 101.234 101.234">
  <defs>
    <filter id="Trazado_904820" x="0" y="0" width="101.234" height="101.234" filterUnits="userSpaceOnUse">
      <feOffset dy="3" input="SourceAlpha"/>
      <feGaussianBlur stdDeviation="3" result="blur"/>
      <feFlood flood-opacity="0.161"/>
      <feComposite operator="in" in2="blur"/>
      <feComposite in="SourceGraphic"/>
    </filter>
  </defs>
  <g id="Grupo_1209269" data-name="Grupo 1209269" transform="translate(-172.766 -2658.723)">
    <g id="Grupo_1208962" data-name="Grupo 1208962" transform="translate(181.766 2664.723)">
      <g id="Grupo_1174741" data-name="Grupo 1174741" transform="translate(0 0)">
        <g id="Grupo_1173585" data-name="Grupo 1173585">
          <g id="Grupo_1173428" data-name="Grupo 1173428">
            <g id="Grupo_1171958" data-name="Grupo 1171958">
              <g id="Grupo_1167341" data-name="Grupo 1167341">
                <g id="Grupo_1166792" data-name="Grupo 1166792">
                  <g transform="matrix(1, 0, 0, 1, -9, -6)" filter="url(#Trazado_904820)">
                    <g id="Trazado_904820-2" data-name="Trazado 904820" transform="translate(9 6)" fill="#fef9e5">
                      <path d="M 41.61681747436523 81.73366546630859 C 36.20041656494141 81.73366546630859 30.94684028625488 80.67319488525391 26.00200653076172 78.58170318603516 C 21.22509956359863 76.56124114990234 16.93468856811523 73.66845703125 13.24994659423828 69.98371887207031 C 9.565205574035645 66.29897308349609 6.672429084777832 62.00854873657227 4.651970386505127 57.23164367675781 C 2.560476303100586 52.28680801391602 1.500005722045898 47.03323364257812 1.500005722045898 41.6168327331543 C 1.500005722045898 36.20043182373047 2.560476303100586 30.94684410095215 4.651970386505127 26.00200843811035 C 6.672429084777832 21.2251033782959 9.565205574035645 16.9346923828125 13.24994659423828 13.24995040893555 C 16.93468856811523 9.565196990966797 21.22509956359863 6.672420978546143 26.00200653076172 4.651962280273438 C 30.94684028625488 2.560467958450317 36.20041656494141 1.499997496604919 41.61681747436523 1.499997496604919 C 47.03321838378906 1.499997496604919 52.28679275512695 2.560467958450317 57.23162841796875 4.651962280273438 C 62.0085334777832 6.672420978546143 66.2989501953125 9.565196990966797 69.98368835449219 13.24995040893555 C 73.66844177246094 16.9346923828125 76.56121826171875 21.2251033782959 78.58167266845703 26.00200843811035 C 80.67317199707031 30.94684410095215 81.733642578125 36.20043182373047 81.733642578125 41.6168327331543 C 81.733642578125 47.03323364257812 80.67317199707031 52.28680801391602 78.58167266845703 57.23164367675781 C 76.56121826171875 62.00854873657227 73.66844177246094 66.29897308349609 69.98368835449219 69.98371887207031 C 66.2989501953125 73.66845703125 62.0085334777832 76.56124114990234 57.23162841796875 78.58170318603516 C 52.28679275512695 80.67319488525391 47.03321838378906 81.73366546630859 41.61681747436523 81.73366546630859 Z" stroke="none"/>
                      <path d="M 41.61681747436523 2.999992370605469 C 36.40225601196289 2.999992370605469 31.34527206420898 4.020606994628906 26.58633804321289 6.033462524414062 C 21.98823165893555 7.978302001953125 17.85807037353516 10.76312255859375 14.31060791015625 14.31060791015625 C 10.76313781738281 17.85807037353516 7.978309631347656 21.98823165893555 6.033470153808594 26.58633804321289 C 4.020606994628906 31.34528732299805 3.000007629394531 36.40227127075195 3.000007629394531 41.6168327331543 C 3.000007629394531 46.83139419555664 4.020606994628906 51.88838195800781 6.033470153808594 56.64732360839844 C 7.978309631347656 61.24542999267578 10.76313781738281 65.37557983398438 14.31060791015625 68.92304992675781 C 17.85807037353516 72.47052764892578 21.98823165893555 75.25535583496094 26.58633804321289 77.2001953125 C 31.34527206420898 79.21304321289062 36.40225601196289 80.23365783691406 41.61681747436523 80.23365783691406 C 46.83137893676758 80.23365783691406 51.88836669921875 79.21304321289062 56.64729690551758 77.2001953125 C 61.24540328979492 75.25535583496094 65.37556457519531 72.47052764892578 68.92303466796875 68.92304992675781 C 72.47049713134766 65.37557983398438 75.25532531738281 61.24542999267578 77.20016479492188 56.64732360839844 C 79.21302795410156 51.88838195800781 80.23362731933594 46.83139419555664 80.23362731933594 41.6168327331543 C 80.23362731933594 36.40227127075195 79.21302795410156 31.34528732299805 77.20016479492188 26.58633804321289 C 75.25532531738281 21.98823165893555 72.47049713134766 17.85807037353516 68.92303466796875 14.31060791015625 C 65.37556457519531 10.76312255859375 61.24540328979492 7.978302001953125 56.64729690551758 6.033462524414062 C 51.88836669921875 4.020606994628906 46.83137893676758 2.999992370605469 41.61681747436523 2.999992370605469 M 41.61681747436523 -7.62939453125e-06 C 64.60115051269531 -7.62939453125e-06 83.23362731933594 18.63248443603516 83.23362731933594 41.6168327331543 C 83.23362731933594 64.60116577148438 64.60115051269531 83.23365783691406 41.61681747436523 83.23365783691406 C 18.63248443603516 83.23365783691406 7.62939453125e-06 64.60116577148438 7.62939453125e-06 41.6168327331543 C 7.62939453125e-06 18.63248443603516 18.63248443603516 -7.62939453125e-06 41.61681747436523 -7.62939453125e-06 Z" stroke="none" fill="#866d08"/>
                    </g>
                  </g>
                </g>
              </g>
            </g>
          </g>
        </g>
      </g>
    </g>
    <g id="analyse_5661186" transform="translate(198.213 2678.839)">
      <g id="Grupo_1209267" data-name="Grupo 1209267" transform="translate(0)">
        <g id="Grupo_1209265" data-name="Grupo 1209265">
          <path id="Trazado_1055612" data-name="Trazado 1055612" d="M143.949,54.648H112.374V8.682A1.183,1.183,0,0,1,113.557,7.5h30.392a1.183,1.183,0,0,1,1.183,1.183V53.465A1.183,1.183,0,0,1,143.949,54.648Z" transform="translate(-100.396 -6.7)" fill="#ffea76"/>
          <path id="Trazado_1055613" data-name="Trazado 1055613" d="M388.351,7.5h-2.417a1.183,1.183,0,0,1,1.183,1.183V53.466a1.183,1.183,0,0,1-1.183,1.183h2.417a1.183,1.183,0,0,0,1.183-1.183V8.683A1.183,1.183,0,0,0,388.351,7.5Z" transform="translate(-344.798 -6.701)" fill="#ffe54c"/>
          <path id="Trazado_1055614" data-name="Trazado 1055614" d="M91.382,63.8l-2.174-1.649H63.476a1.183,1.183,0,0,0-1.183,1.183V108.12a1.183,1.183,0,0,0,1.183,1.183H93.868a1.183,1.183,0,0,0,1.183-1.183V68.174L92.2,67.446Z" transform="translate(-55.653 -55.529)" fill="#faf7f8"/>
          <g id="Grupo_1209264" data-name="Grupo 1209264">
            <path id="Trazado_1055615" data-name="Trazado 1055615" fill="#dedbee"/>
            <path id="Trazado_1055616" data-name="Trazado 1055616" d="M336.929,153.385a1.183,1.183,0,0,1-1.183,1.183h2.428a1.183,1.183,0,0,0,1.183-1.183V113.438l-2.428-.619Z" transform="translate(-299.959 -100.794)" fill="#dedbee"/>
          </g>
          <path id="Trazado_1055617" data-name="Trazado 1055617" d="M310.808,62.154c.941,1.837.593,3.723-.384,5.633a.826.826,0,0,0,.561,1.189c2.325.481,4.272.313,5.667-.8V67.065a4.911,4.911,0,0,0-4.911-4.911Z" transform="translate(-277.254 -55.529)" fill="#d2cfe9"/>
        </g>
        <circle id="Elipse_13558" data-name="Elipse 13558" cx="8.555" cy="8.555" r="8.555" transform="translate(17.306 23.275)" fill="#64caff"/>
        <path id="Trazado_1055618" data-name="Trazado 1055618" d="M232.191,218.361a8.624,8.624,0,0,0-1.244.091,8.554,8.554,0,0,1,0,16.927,8.554,8.554,0,1,0,1.244-17.018Z" transform="translate(-206.331 -195.086)" fill="#00b8ff"/>
        <circle id="Elipse_13559" data-name="Elipse 13559" cx="5.521" cy="5.521" r="5.521" transform="translate(20.339 26.308)" fill="#b8e3ff"/>
        <path id="Trazado_1055619" data-name="Trazado 1055619" d="M233.469,246.821a5.552,5.552,0,0,0-1.091.108,5.522,5.522,0,0,1,0,10.825,5.521,5.521,0,1,0,1.091-10.934Z" transform="translate(-207.609 -220.513)" fill="#a2dbff"/>
        <g id="Grupo_1209266" data-name="Grupo 1209266" transform="translate(47.838 19.997)">
          <path id="Trazado_1055620" data-name="Trazado 1055620" d="M454.193,192.339h-4.83a.553.553,0,0,1-.553-.553v-3.623a.553.553,0,0,1,.553-.553h4.83a.553.553,0,0,1,.553.553v3.623A.553.553,0,0,1,454.193,192.339Z" transform="translate(-448.81 -187.61)" fill="#ff7383"/>
          <path id="Trazado_1055621" data-name="Trazado 1055621" d="M483.577,187.608H481.7a.553.553,0,0,1,.553.553v3.623a.553.553,0,0,1-.553.553h1.878a.553.553,0,0,0,.553-.553v-3.623A.553.553,0,0,0,483.577,187.608Z" transform="translate(-478.193 -187.608)" fill="#ff546a"/>
        </g>
        <path id="Trazado_1055622" data-name="Trazado 1055622" d="M16.081,376.06H8.053a.553.553,0,0,1-.553-.553v-3.623a.553.553,0,0,1,.553-.553h8.028a.553.553,0,0,1,.553.553v3.623A.553.553,0,0,1,16.081,376.06Z" transform="translate(-6.701 -331.751)" fill="#ff7383"/>
        <path id="Trazado_1055623" data-name="Trazado 1055623" d="M72.267,371.33H70.39a.553.553,0,0,1,.553.553v3.623a.553.553,0,0,1-.553.553h1.878a.553.553,0,0,0,.553-.553v-3.623A.553.553,0,0,0,72.267,371.33Z" transform="translate(-62.887 -331.75)" fill="#ff546a"/>
        <path id="Trazado_1055624" data-name="Trazado 1055624" d="M406.672,371.329h-10.5a.553.553,0,0,0-.553.553V375.5a.553.553,0,0,0,.553.553h10.5a.553.553,0,0,0,.553-.553v-3.623A.553.553,0,0,0,406.672,371.329Z" transform="translate(-353.45 -331.749)" fill="#ff7383"/>
        <path id="Trazado_1055625" data-name="Trazado 1055625" d="M483.577,376.059H481.7a.553.553,0,0,0,.553-.553v-3.623a.553.553,0,0,0-.553-.553h1.878a.553.553,0,0,1,.553.553v3.623A.553.553,0,0,1,483.577,376.059Z" transform="translate(-430.355 -331.75)" fill="#ff546a"/>
      </g>
      <g id="Grupo_1209268" data-name="Grupo 1209268" transform="translate(0 0)">
        <path id="Trazado_1055626" data-name="Trazado 1055626" d="M48.391,25.525h4.83a1.354,1.354,0,0,0,1.352-1.352V20.55A1.354,1.354,0,0,0,53.221,19.2h-4.83a1.354,1.354,0,0,0-1.352,1.352v1.012h-1.5V7.314a.8.8,0,0,0-1.6,0V21.562H40.2V11.536a5.717,5.717,0,0,0-5.71-5.71H12.777V1.983a.384.384,0,0,1,.384-.384H43.553a.384.384,0,0,1,.384.384V4.223a.8.8,0,1,0,1.6,0V1.983A1.985,1.985,0,0,0,43.553,0H13.161a1.985,1.985,0,0,0-1.983,1.983V5.826H7.823A1.985,1.985,0,0,0,5.84,7.808V38.78H1.352A1.354,1.354,0,0,0,0,40.133v3.623a1.354,1.354,0,0,0,1.352,1.352H5.84v7.483a1.985,1.985,0,0,0,1.983,1.983h4.2a.8.8,0,1,0,0-1.6h-4.2a.384.384,0,0,1-.384-.384V45.108H9.38a1.354,1.354,0,0,0,1.352-1.352V42.744h6.58a1.849,1.849,0,0,0,1.469-.732l1.839-2.438A9.336,9.336,0,0,0,31.349,39.4l1.971,2.613a1.849,1.849,0,0,0,1.468.732H38.6v9.847a.384.384,0,0,1-.384.384h-23.1a.8.8,0,1,0,0,1.6h23.1A1.985,1.985,0,0,0,40.2,52.591V48.748h3.355a1.985,1.985,0,0,0,1.983-1.983V45.108h7.686a1.354,1.354,0,0,0,1.352-1.352V40.132a1.354,1.354,0,0,0-1.352-1.352H45.536V23.161h1.5v1.012a1.354,1.354,0,0,0,1.352,1.352ZM38.6,11.536v.7c-1.108.713-2.652.853-4.705.428-.006,0-.009,0-.013-.01a.033.033,0,0,1,0-.032,7.173,7.173,0,0,0,.836-5.191A4.117,4.117,0,0,1,38.6,11.536ZM9.134,43.509H1.6v-3.13H9.134Zm8.371-2.46a.243.243,0,0,1-.192.1h-6.58V40.132A1.354,1.354,0,0,0,9.38,38.78H7.439V7.808a.384.384,0,0,1,.384-.384H33.037a5.338,5.338,0,0,1-.579,4.469,1.622,1.622,0,0,0-.02,1.451,1.605,1.605,0,0,0,1.13.885A12.065,12.065,0,0,0,36,14.5a6.756,6.756,0,0,0,2.6-.469v7.528H34.064a1.849,1.849,0,0,0-1.468.732l-1.4,1.856a9.342,9.342,0,0,0-11.2.392.8.8,0,0,0,1,1.245,7.745,7.745,0,0,1,9.23-.361l-.865,1.146a6.318,6.318,0,0,0-8.143,9.547l-.875,1.159a7.745,7.745,0,0,1-1.183-9.364.8.8,0,0,0-1.379-.808,9.343,9.343,0,0,0,1.591,11.459Zm13.2-5.162a6.309,6.309,0,0,0-.127-8.262l.877-1.163a7.742,7.742,0,0,1,.132,10.594ZM29,33.624a.8.8,0,0,0-1.276.963l.841,1.114a4.713,4.713,0,0,1-5.143.167l.966-1.281a.8.8,0,1,0-1.276-.963l-.9,1.193A4.72,4.72,0,0,1,28.4,27.851l-1.408,1.867a.8.8,0,1,0,1.276.963l1.318-1.747a4.713,4.713,0,0,1,.118,5.632Zm-3.135,5.96A7.711,7.711,0,0,1,21.584,38.3l.866-1.147a6.309,6.309,0,0,0,7.073-.171l.864,1.145a7.713,7.713,0,0,1-4.526,1.461Zm8.929,1.56a.242.242,0,0,1-.192-.1l-2.036-2.7a9.339,9.339,0,0,0-.135-13.177l1.446-1.916a.242.242,0,0,1,.192-.1H38.6V41.145H34.79Zm9.147,5.621a.384.384,0,0,1-.384.384H40.2V42.744h1.172v1.012a1.354,1.354,0,0,0,1.352,1.352h1.215Zm9.038-3.256H42.968v-3.13H52.975ZM43.937,38.78H42.721a1.354,1.354,0,0,0-1.352,1.352v1.012H40.2V23.161h3.739Zm4.7-17.984h4.337v3.13H48.638Z" transform="translate(0 0)"/>
        <path id="Trazado_1055627" data-name="Trazado 1055627" d="M100.552,95.2h15.214a.8.8,0,1,0,0-1.6H100.552a.8.8,0,0,0,0,1.6Z" transform="translate(-89.12 -83.624)"/>
        <path id="Trazado_1055628" data-name="Trazado 1055628" d="M100.552,127.83h15.214a.8.8,0,1,0,0-1.6H100.552a.8.8,0,0,0,0,1.6Z" transform="translate(-89.12 -112.776)"/>
        <path id="Trazado_1055629" data-name="Trazado 1055629" d="M100.552,160.461h15.214a.8.8,0,1,0,0-1.6H100.552a.8.8,0,0,0,0,1.6Z" transform="translate(-89.12 -141.929)"/>
        <path id="Trazado_1055630" data-name="Trazado 1055630" d="M109.947,192.291a.8.8,0,0,0-.8-.8h-8.6a.8.8,0,0,0,0,1.6h8.6A.8.8,0,0,0,109.947,192.291Z" transform="translate(-89.12 -171.081)"/>
        <path id="Trazado_1055631" data-name="Trazado 1055631" d="M100.552,431.117h8.6a.8.8,0,0,0,0-1.6h-8.6a.8.8,0,0,0,0,1.6Z" transform="translate(-89.12 -383.736)"/>
        <path id="Trazado_1055632" data-name="Trazado 1055632" d="M100.552,460.6h8.6a.8.8,0,0,0,0-1.6h-8.6a.8.8,0,0,0,0,1.6Z" transform="translate(-89.12 -410.079)"/>
      </g>
    </g>
  </g>
</svg>
