<svg xmlns="http://www.w3.org/2000/svg" xmlns:xlink="http://www.w3.org/1999/xlink" width="113" height="113" viewBox="0 0 113 113">
  <defs>
    <filter id="Trazado_982547" x="0" y="0" width="113" height="113" filterUnits="userSpaceOnUse">
      <feOffset dy="3" input="SourceAlpha"/>
      <feGaussianBlur stdDeviation="3" result="blur"/>
      <feFlood flood-opacity="0.161"/>
      <feComposite operator="in" in2="blur"/>
      <feComposite in="SourceGraphic"/>
    </filter>
  </defs>
  <g id="Grupo_1209274" data-name="Grupo 1209274" transform="translate(-272.127 -4008.507)">
    <g id="Grupo_1209024" data-name="Grupo 1209024" transform="translate(0.127 2030.878)">
      <g id="Grupo_1208147" data-name="Grupo 1208147" transform="translate(0 -3923.371)">
        <g id="Grupo_1202432" data-name="Grupo 1202432" transform="translate(0 1255.486)">
          <g id="Grupo_1202055" data-name="Grupo 1202055" transform="translate(0 3240.511)">
            <g id="Grupo_1177900" data-name="Grupo 1177900" transform="translate(281 1411.003)">
              <g id="Grupo_1172010" data-name="Grupo 1172010" transform="translate(0)">
                <g id="Grupo_1171046" data-name="Grupo 1171046">
                  <g id="Grupo_1148525" data-name="Grupo 1148525">
                    <g transform="matrix(1, 0, 0, 1, -9, -6)" filter="url(#Trazado_982547)">
                      <g id="Trazado_982547-2" data-name="Trazado 982547" transform="translate(9 6)" fill="#fdf4ce">
                        <path d="M 47.5 93.5 C 41.28937149047852 93.5 35.26533508300781 92.28397369384766 29.59518623352051 89.88570404052734 C 24.11771965026855 87.56893157958984 19.19813346862793 84.25196075439453 14.97309303283691 80.02691650390625 C 10.74804019927979 75.80186462402344 7.431066513061523 70.88229370117188 5.114293098449707 65.40481567382812 C 2.716026782989502 59.73468017578125 1.5 53.71062850952148 1.5 47.5 C 1.5 41.28937149047852 2.716026782989502 35.26533508300781 5.114293098449707 29.59518623352051 C 7.431066513061523 24.11771965026855 10.74804019927979 19.19813346862793 14.97309303283691 14.97309303283691 C 19.19813346862793 10.74804019927979 24.11771965026855 7.431066513061523 29.59518623352051 5.114293098449707 C 35.26533508300781 2.716026782989502 41.28937149047852 1.5 47.5 1.5 C 53.71062850952148 1.5 59.73468017578125 2.716026782989502 65.40481567382812 5.114293098449707 C 70.88229370117188 7.431066513061523 75.80186462402344 10.74804019927979 80.02691650390625 14.97309303283691 C 84.25196075439453 19.19813346862793 87.56893157958984 24.11771965026855 89.88570404052734 29.59518623352051 C 92.28397369384766 35.26533508300781 93.5 41.28937149047852 93.5 47.5 C 93.5 53.71062850952148 92.28397369384766 59.73468017578125 89.88570404052734 65.40481567382812 C 87.56893157958984 70.88229370117188 84.25196075439453 75.80186462402344 80.02691650390625 80.02691650390625 C 75.80186462402344 84.25196075439453 70.88229370117188 87.56893157958984 65.40481567382812 89.88570404052734 C 59.73468017578125 92.28397369384766 53.71062850952148 93.5 47.5 93.5 Z" stroke="none"/>
                        <path d="M 47.5 3 C 41.49121475219727 3 35.66376876831055 4.176155090332031 30.17950439453125 6.495796203613281 C 24.88084411621094 8.736953735351562 20.12152099609375 11.94598388671875 16.03375244140625 16.03375244140625 C 11.94598388671875 20.12152099609375 8.736953735351562 24.88084411621094 6.495796203613281 30.17950439453125 C 4.176155090332031 35.66376876831055 3 41.49121475219727 3 47.5 C 3 53.50878524780273 4.176155090332031 59.33623123168945 6.495796203613281 64.82049560546875 C 8.736953735351562 70.11915588378906 11.94598388671875 74.87847900390625 16.03375244140625 78.96624755859375 C 20.12152099609375 83.05401611328125 24.88084411621094 86.26304626464844 30.17950439453125 88.50419616699219 C 35.66376876831055 90.82384490966797 41.49121475219727 92 47.5 92 C 53.50878524780273 92 59.33623123168945 90.82384490966797 64.82049560546875 88.50419616699219 C 70.11915588378906 86.26304626464844 74.87847900390625 83.05401611328125 78.96624755859375 78.96624755859375 C 83.05401611328125 74.87847900390625 86.26304626464844 70.11915588378906 88.50419616699219 64.82049560546875 C 90.82384490966797 59.33623123168945 92 53.50878524780273 92 47.5 C 92 41.49121475219727 90.82384490966797 35.66376876831055 88.50419616699219 30.17950439453125 C 86.26304626464844 24.88084411621094 83.05401611328125 20.12152099609375 78.96624755859375 16.03375244140625 C 74.87847900390625 11.94598388671875 70.11915588378906 8.736953735351562 64.82049560546875 6.495796203613281 C 59.33623123168945 4.176155090332031 53.50878524780273 3 47.5 3 M 47.5 0 C 73.7335205078125 0 95 21.2664794921875 95 47.5 C 95 73.7335205078125 73.7335205078125 95 47.5 95 C 21.2664794921875 95 0 73.7335205078125 0 47.5 C 0 21.2664794921875 21.2664794921875 0 47.5 0 Z" stroke="none" fill="#866d08"/>
                      </g>
                    </g>
                  </g>
                </g>
              </g>
            </g>
          </g>
        </g>
      </g>
    </g>
    <g id="overview_9504586" transform="translate(268.819 4027.491)">
      <g id="Grupo_1209273" data-name="Grupo 1209273" transform="translate(30.251 1.565)">
        <g id="Grupo_1209270" data-name="Grupo 1209270" transform="translate(8.011)">
          <path id="Trazado_1055633" data-name="Trazado 1055633" d="M144.935,51.927a2.678,2.678,0,0,1,2.673,2.673v53.657a2.678,2.678,0,0,1-2.673,2.673H100.027a2.678,2.678,0,0,1-2.673-2.673V54.6a2.678,2.678,0,0,1,2.673-2.673Z" transform="translate(-97.354 -46.145)" fill="#b06328" fill-rule="evenodd"/>
          <path id="Trazado_1055634" data-name="Trazado 1055634" d="M130.064,86.207v47.152a1.574,1.574,0,0,0,1.571,1.571h32.926a1.517,1.517,0,0,0,1.11-.46l5.476-5.476a1.517,1.517,0,0,0,.46-1.111V86.207a1.574,1.574,0,0,0-1.57-1.57h-38.4A1.574,1.574,0,0,0,130.064,86.207Z" transform="translate(-125.709 -74.5)" fill="#eff4f7" fill-rule="evenodd"/>
          <path id="Trazado_1055635" data-name="Trazado 1055635" d="M394.061,420.608a1.572,1.572,0,0,0,.46-.324L400,414.808a1.574,1.574,0,0,0,.324-.46h-6.26v6.26Z" transform="translate(-354.559 -360.315)" fill="#e2e3e3" fill-rule="evenodd"/>
          <path id="Trazado_1055636" data-name="Trazado 1055636" d="M212.513,14.279h6.565l-2.666-3.769A1.275,1.275,0,0,1,217.454,8.5H225.8a1.275,1.275,0,0,1,1.042,2.013l-2.666,3.769h6.565a.787.787,0,0,1,.785.785v4.5a.787.787,0,0,1-.785.785H212.513a.787.787,0,0,1-.785-.785v-4.5A.786.786,0,0,1,212.513,14.279Z" transform="translate(-196.501 -8.497)" fill="#232c36" fill-rule="evenodd"/>
        </g>
        <g id="Grupo_1209271" data-name="Grupo 1209271" transform="translate(18.362 22.114)">
          <path id="Trazado_1055637" data-name="Trazado 1055637" d="M176.305,272.3h2.34a1.2,1.2,0,0,1,1.2,1.2v5.694a1.2,1.2,0,0,1-1.2,1.2h-2.34a1.2,1.2,0,0,1-1.2-1.2v-5.694A1.2,1.2,0,0,1,176.305,272.3Z" transform="translate(-175.107 -259.288)" fill="#eb3b48" fill-rule="evenodd"/>
          <path id="Trazado_1055638" data-name="Trazado 1055638" d="M238.431,239.729h2.34a1.2,1.2,0,0,1,1.2,1.2v10.03a1.2,1.2,0,0,1-1.2,1.2h-2.34a1.2,1.2,0,0,1-1.2-1.2v-10.03A1.2,1.2,0,0,1,238.431,239.729Z" transform="translate(-228.962 -231.057)" fill="#ffe600" fill-rule="evenodd"/>
          <path id="Trazado_1055639" data-name="Trazado 1055639" d="M300.557,207.161h2.34a1.2,1.2,0,0,1,1.2,1.2v14.366a1.2,1.2,0,0,1-1.2,1.2h-2.34a1.2,1.2,0,0,1-1.2-1.2V208.359A1.2,1.2,0,0,1,300.557,207.161Z" transform="translate(-282.817 -202.825)" fill="#22c269" fill-rule="evenodd"/>
          <path id="Trazado_1055640" data-name="Trazado 1055640" d="M362.683,174.6h2.34a1.2,1.2,0,0,1,1.2,1.2v18.7a1.2,1.2,0,0,1-1.2,1.2h-2.34a1.2,1.2,0,0,1-1.2-1.2v-18.7A1.2,1.2,0,0,1,362.683,174.6Z" transform="translate(-336.671 -174.595)" fill="#4294ff" fill-rule="evenodd"/>
        </g>
        <g id="Grupo_1209272" data-name="Grupo 1209272" transform="translate(0 37.47)">
          <circle id="Elipse_13560" data-name="Elipse 13560" cx="14.217" cy="14.217" r="14.217" fill="#4294ff"/>
          <path id="Trazado_1055641" data-name="Trazado 1055641" d="M66.92,359.193c4.28-7.359,16.133-7.359,20.413,0a.412.412,0,0,1,0,.424c-4.28,7.359-16.133,7.359-20.413,0A.412.412,0,0,1,66.92,359.193Z" transform="translate(-62.91 -345.188)" fill="#e6f8ff" fill-rule="evenodd"/>
          <circle id="Elipse_13561" data-name="Elipse 13561" cx="5.731" cy="5.731" r="5.731" transform="translate(8.485 8.485)" fill="#4294ff"/>
          <circle id="Elipse_13562" data-name="Elipse 13562" cx="2.049" cy="2.049" r="2.049" transform="translate(12.168 12.168)" fill="#e6f8ff"/>
        </g>
      </g>
      <path id="Trazado_1055642" data-name="Trazado 1055642" d="M44.47,54.235a.984.984,0,1,1,.986-.984A.989.989,0,0,1,44.47,54.235Zm0-4.1a3.114,3.114,0,1,0,3.115,3.114A3.119,3.119,0,0,0,44.47,50.137ZM42,61.8l-.534,1.985a1.066,1.066,0,0,1-2.06-.551l.534-1.985A1.066,1.066,0,0,1,42,61.8Zm-3.479-.917-.923,1.6a1.066,1.066,0,1,1-1.846-1.066l.929-1.6a1.063,1.063,0,1,1,1.84,1.065Zm11.02,2.351a1.069,1.069,0,0,1-.754,1.3,1.061,1.061,0,0,1-1.306-.754L46.944,61.8A1.066,1.066,0,0,1,49,61.247Zm3.654-1.815a1.066,1.066,0,0,1-1.846,1.066l-.923-1.6a1.066,1.066,0,1,1,1.846-1.065Zm-7.654.492V64.04a1.064,1.064,0,1,1-2.129,0V61.909a1.064,1.064,0,1,1,2.129,0ZM39.4,43.269a1.066,1.066,0,0,1,2.06-.551L42,44.7a1.07,1.07,0,0,1-.754,1.3,1.138,1.138,0,0,1-.276.036,1.071,1.071,0,0,1-1.03-.789Zm11.02,2.353.923-1.6a1.066,1.066,0,1,1,1.846,1.065l-.923,1.6a1.077,1.077,0,0,1-.929.533,1.053,1.053,0,0,1-.527-.143,1.065,1.065,0,0,1-.389-1.455ZM46.944,44.7l.534-1.986a1.066,1.066,0,0,1,2.06.551L49,45.255a1.065,1.065,0,0,1-1.03.789,1.137,1.137,0,0,1-.276-.036,1.07,1.07,0,0,1-.754-1.3Zm-11.2.381a1.066,1.066,0,1,1,1.846-1.065l.923,1.6a1.063,1.063,0,0,1-.389,1.454,1.043,1.043,0,0,1-.527.144,1.059,1.059,0,0,1-.923-.533Zm7.661-.491V42.462a1.064,1.064,0,1,1,2.129,0v2.131a1.064,1.064,0,1,1-2.129,0ZM50.592,56.2a6.749,6.749,0,0,0,0-5.9,9.658,9.658,0,0,1,2.97,2.949A9.673,9.673,0,0,1,50.592,56.2ZM39.8,53.251a4.665,4.665,0,1,0,4.665-4.667A4.671,4.671,0,0,0,39.8,53.251Zm-4.421,0A9.569,9.569,0,0,1,38.348,50.3a6.806,6.806,0,0,0,0,5.9A9.583,9.583,0,0,1,35.384,53.251ZM55.6,52.5a12.593,12.593,0,0,0-10.945-6.046h0c-.063,0-.119,0-.182,0s-.119,0-.182,0h0A12.592,12.592,0,0,0,33.343,52.5a1.481,1.481,0,0,0,0,1.5,12.591,12.591,0,0,0,10.951,6.048v0c.056,0,.119.006.176.006s.119,0,.176-.006v0A12.593,12.593,0,0,0,55.6,54,1.454,1.454,0,0,0,55.6,52.5Zm18.9-27.76H77.1V43.711H74.5Zm-2.135-1.065v21.1a1.066,1.066,0,0,0,1.067,1.066h4.735a1.066,1.066,0,0,0,1.067-1.066v-21.1a1.066,1.066,0,0,0-1.067-1.065H73.43A1.066,1.066,0,0,0,72.362,23.678ZM68.833,43.711H66.221V29.079h2.612Zm1.061-16.762H65.16a1.066,1.066,0,0,0-1.067,1.066V44.776a1.066,1.066,0,0,0,1.067,1.066h4.735a1.066,1.066,0,0,0,1.067-1.066V28.014A1.066,1.066,0,0,0,69.895,26.949ZM68.337,16.457a1.059,1.059,0,0,0,.835,1.251l1.35.266L50.529,29.517A1.065,1.065,0,0,0,51.6,31.361L71.584,19.82l-.44,1.3a1.064,1.064,0,0,0,.666,1.351,1.018,1.018,0,0,0,.339.057,1.066,1.066,0,0,0,1.011-.721l1.356-3.982a1.047,1.047,0,0,0-.088-.876,1.059,1.059,0,0,0-.716-.512l-4.125-.818A1.063,1.063,0,0,0,68.337,16.457ZM87.451,63.677a1.61,1.61,0,0,1-1.607,1.607H53.876a15.391,15.391,0,0,0,2.3-2.225H77.769a1.068,1.068,0,0,0,.754-.311l6.392-6.4a1.061,1.061,0,0,0,.314-.752V11.7a1.066,1.066,0,0,0-1.067-1.065H74.353V8.412H85.844a1.61,1.61,0,0,1,1.607,1.607V63.677ZM31.321,53.251A13.149,13.149,0,1,0,44.47,40.1,13.163,13.163,0,0,0,31.321,53.251Zm8.006-43.232a1.61,1.61,0,0,1,1.607-1.607H52.426v2.225H42.617A1.064,1.064,0,0,0,41.556,11.7V38.249a15.089,15.089,0,0,0-2.229.611Zm12.96,30.106a15.4,15.4,0,0,0-2.606-1.241V37.75h2.606Zm5.664,3.585h2.606V33.416H57.951ZM81.593,56.664H78.83v2.76Zm-8.3-42.182h-19.8a1.066,1.066,0,0,1-1.067-1.065v-.65H43.685V37.99c.257-.014.521-.02.785-.02a15.276,15.276,0,0,1,3.083.312v-1.6a1.064,1.064,0,0,1,1.061-1.066h4.741a1.065,1.065,0,0,1,1.061,1.066V41.66a15.847,15.847,0,0,1,1.407,1.371V32.35a1.064,1.064,0,0,1,1.061-1.065h4.741a1.06,1.06,0,0,1,1.061,1.065V44.776a1.061,1.061,0,0,1-1.061,1.066H57.832a15.438,15.438,0,0,1,1.118,2.515H78.773a1.065,1.065,0,1,1,0,2.13H59.5a15.438,15.438,0,0,1,.251,2.765c0,.468-.025.933-.063,1.392h12.69a1.065,1.065,0,0,1,0,2.13H59.339a14.981,14.981,0,0,1-1.658,4.156H76.7V55.6a1.066,1.066,0,0,1,1.067-1.065H83.1V12.767H74.353v.65a1.061,1.061,0,0,1-1.061,1.065ZM54.554,8.412v3.94h17.67V8.412H65.939a1.066,1.066,0,0,1-.867-1.68l2.662-3.769a.2.2,0,0,0,.019-.22.2.2,0,0,0-.188-.113H59.22a.2.2,0,0,0-.188.113.189.189,0,0,0,.013.22l2.669,3.769a1.076,1.076,0,0,1,.075,1.105,1.064,1.064,0,0,1-.948.575Zm31.289-2.13H68l1.476-2.089A2.34,2.34,0,0,0,67.565.5H59.22A2.34,2.34,0,0,0,57.3,4.193l1.482,2.089H40.935A3.741,3.741,0,0,0,37.2,10.019V39.812a15.281,15.281,0,0,0,13.011,27.6H85.844a3.741,3.741,0,0,0,3.736-3.737V10.019a3.741,3.741,0,0,0-3.736-3.737Z" transform="translate(0)" fill-rule="evenodd"/>
    </g>
  </g>
</svg>
