<svg xmlns="http://www.w3.org/2000/svg" xmlns:xlink="http://www.w3.org/1999/xlink" width="113" height="113" viewBox="0 0 113 113">
  <defs>
    <filter id="Trazado_982547" x="0" y="0" width="113" height="113" filterUnits="userSpaceOnUse">
      <feOffset dy="3" input="SourceAlpha"/>
      <feGaussianBlur stdDeviation="3" result="blur"/>
      <feFlood flood-opacity="0.161"/>
      <feComposite operator="in" in2="blur"/>
      <feComposite in="SourceGraphic"/>
    </filter>
  </defs>
  <g id="Grupo_1209288" data-name="Grupo 1209288" transform="translate(-586.127 -4008.794)">
    <g id="Grupo_1209025" data-name="Grupo 1209025" transform="translate(0.127 2030.878)">
      <g id="Grupo_1208146" data-name="Grupo 1208146" transform="translate(0 -3923.371)">
        <g id="Grupo_1202433" data-name="Grupo 1202433" transform="translate(-0.56 1255.773)">
          <g id="Grupo_1202054" data-name="Grupo 1202054" transform="translate(0 3240.511)">
            <g id="Grupo_1177897" data-name="Grupo 1177897" transform="translate(595.561 1411.003)">
              <g id="Grupo_1172010" data-name="Grupo 1172010" transform="translate(0)">
                <g id="Grupo_1171046" data-name="Grupo 1171046">
                  <g id="Grupo_1148525" data-name="Grupo 1148525">
                    <g transform="matrix(1, 0, 0, 1, -9, -6)" filter="url(#Trazado_982547)">
                      <g id="Trazado_982547-2" data-name="Trazado 982547" transform="translate(9 6)" fill="#fdf4ce">
                        <path d="M 47.5 93.5 C 41.28937149047852 93.5 35.26533508300781 92.28397369384766 29.59518623352051 89.88570404052734 C 24.11771965026855 87.56893157958984 19.19813346862793 84.25196075439453 14.97309303283691 80.02691650390625 C 10.74804019927979 75.80186462402344 7.431066513061523 70.88229370117188 5.114293098449707 65.40481567382812 C 2.716026782989502 59.73468017578125 1.5 53.71062850952148 1.5 47.5 C 1.5 41.28937149047852 2.716026782989502 35.26533508300781 5.114293098449707 29.59518623352051 C 7.431066513061523 24.11771965026855 10.74804019927979 19.19813346862793 14.97309303283691 14.97309303283691 C 19.19813346862793 10.74804019927979 24.11771965026855 7.431066513061523 29.59518623352051 5.114293098449707 C 35.26533508300781 2.716026782989502 41.28937149047852 1.5 47.5 1.5 C 53.71062850952148 1.5 59.73468017578125 2.716026782989502 65.40481567382812 5.114293098449707 C 70.88229370117188 7.431066513061523 75.80186462402344 10.74804019927979 80.02691650390625 14.97309303283691 C 84.25196075439453 19.19813346862793 87.56893157958984 24.11771965026855 89.88570404052734 29.59518623352051 C 92.28397369384766 35.26533508300781 93.5 41.28937149047852 93.5 47.5 C 93.5 53.71062850952148 92.28397369384766 59.73468017578125 89.88570404052734 65.40481567382812 C 87.56893157958984 70.88229370117188 84.25196075439453 75.80186462402344 80.02691650390625 80.02691650390625 C 75.80186462402344 84.25196075439453 70.88229370117188 87.56893157958984 65.40481567382812 89.88570404052734 C 59.73468017578125 92.28397369384766 53.71062850952148 93.5 47.5 93.5 Z" stroke="none"/>
                        <path d="M 47.5 3 C 41.49121475219727 3 35.66376876831055 4.176155090332031 30.17950439453125 6.495796203613281 C 24.88084411621094 8.736953735351562 20.12152099609375 11.94598388671875 16.03375244140625 16.03375244140625 C 11.94598388671875 20.12152099609375 8.736953735351562 24.88084411621094 6.495796203613281 30.17950439453125 C 4.176155090332031 35.66376876831055 3 41.49121475219727 3 47.5 C 3 53.50878524780273 4.176155090332031 59.33623123168945 6.495796203613281 64.82049560546875 C 8.736953735351562 70.11915588378906 11.94598388671875 74.87847900390625 16.03375244140625 78.96624755859375 C 20.12152099609375 83.05401611328125 24.88084411621094 86.26304626464844 30.17950439453125 88.50419616699219 C 35.66376876831055 90.82384490966797 41.49121475219727 92 47.5 92 C 53.50878524780273 92 59.33623123168945 90.82384490966797 64.82049560546875 88.50419616699219 C 70.11915588378906 86.26304626464844 74.87847900390625 83.05401611328125 78.96624755859375 78.96624755859375 C 83.05401611328125 74.87847900390625 86.26304626464844 70.11915588378906 88.50419616699219 64.82049560546875 C 90.82384490966797 59.33623123168945 92 53.50878524780273 92 47.5 C 92 41.49121475219727 90.82384490966797 35.66376876831055 88.50419616699219 30.17950439453125 C 86.26304626464844 24.88084411621094 83.05401611328125 20.12152099609375 78.96624755859375 16.03375244140625 C 74.87847900390625 11.94598388671875 70.11915588378906 8.736953735351562 64.82049560546875 6.495796203613281 C 59.33623123168945 4.176155090332031 53.50878524780273 3 47.5 3 M 47.5 0 C 73.7335205078125 0 95 21.2664794921875 95 47.5 C 95 73.7335205078125 73.7335205078125 95 47.5 95 C 21.2664794921875 95 0 73.7335205078125 0 47.5 C 0 21.2664794921875 21.2664794921875 0 47.5 0 Z" stroke="none" fill="#866d08"/>
                      </g>
                    </g>
                  </g>
                </g>
              </g>
            </g>
          </g>
        </g>
      </g>
    </g>
    <g id="data_3051972" transform="translate(611.5 4031.19)">
      <g id="Grupo_1209286" data-name="Grupo 1209286" transform="translate(2.029 2.029)">
        <g id="Grupo_1209275" data-name="Grupo 1209275" transform="translate(10.292 55.988)">
          <path id="Trazado_1055643" data-name="Trazado 1055643" d="M30.525,56.4c.422.062,2.388.257,3.983.412A2.416,2.416,0,0,1,36.7,59.22v2.943H12V59.21A2.423,2.423,0,0,1,14.182,56.8l3.993-.4h.041a2.073,2.073,0,0,0,2.017,1.647h8.234A2.073,2.073,0,0,0,30.484,56.4Z" transform="translate(-12 -56.4)" fill="#969faa"/>
        </g>
        <g id="Grupo_1209276" data-name="Grupo 1209276" transform="translate(16.467 51.46)">
          <path id="Trazado_1055644" data-name="Trazado 1055644" d="M30.35,52v4.117a1.8,1.8,0,0,1-.041.412,2.073,2.073,0,0,1-2.017,1.647H20.058a2.073,2.073,0,0,1-2.017-1.647A1.8,1.8,0,0,1,18,56.117V52Z" transform="translate(-18 -52)" fill="#aab2bd"/>
        </g>
        <g id="Grupo_1209277" data-name="Grupo 1209277" transform="translate(0 20.584)">
          <path id="Trazado_1055645" data-name="Trazado 1055645" d="M43.168,22H6.117A4.116,4.116,0,0,0,2,26.117V48.759a4.116,4.116,0,0,0,4.117,4.117H43.168a4.116,4.116,0,0,0,4.117-4.117V26.117A4.116,4.116,0,0,0,43.168,22Z" transform="translate(-2 -22)" fill="#ccd1d9"/>
        </g>
        <g id="Grupo_1209278" data-name="Grupo 1209278" transform="translate(4.117 24.701)">
          <path id="Trazado_1055646" data-name="Trazado 1055646" d="M43.051,27.029V43.5a1.032,1.032,0,0,1-1.029,1.029H7.029A1.032,1.032,0,0,1,6,43.5V27.029A1.032,1.032,0,0,1,7.029,26H42.022A1.032,1.032,0,0,1,43.051,27.029Z" transform="translate(-6 -26)" fill="#69d6f4"/>
        </g>
        <g id="Grupo_1209279" data-name="Grupo 1209279" transform="translate(8.234 28.817)">
          <path id="Trazado_1055647" data-name="Trazado 1055647" d="M10,30H20.292V40.292H10Z" transform="translate(-10 -30)" fill="#b4dd7f"/>
        </g>
        <g id="Grupo_1209280" data-name="Grupo 1209280" transform="translate(37.051 47.343)">
          <path id="Trazado_1055648" data-name="Trazado 1055648" d="M38,48h4.117v4.117H38Z" transform="translate(-38 -48)" fill="#fcd770"/>
        </g>
        <g id="Grupo_1209281" data-name="Grupo 1209281" transform="translate(20.584 45.284)">
          <circle id="Elipse_13563" data-name="Elipse 13563" cx="2" cy="2" r="2" transform="translate(0.387 0.496)" fill="#ff826e"/>
        </g>
        <g id="Grupo_1209282" data-name="Grupo 1209282" transform="translate(57.635 16.467)">
          <path id="Trazado_1055649" data-name="Trazado 1055649" d="M62.117,18V28.292H58V18Z" transform="translate(-58 -18)" fill="#ffeaa7"/>
        </g>
        <g id="Grupo_1209283" data-name="Grupo 1209283" transform="translate(53.518 18.525)">
          <path id="Trazado_1055650" data-name="Trazado 1055650" d="M58.117,20v8.234H54V20Z" transform="translate(-54 -20)" fill="#ffeaa7"/>
        </g>
        <g id="Grupo_1209284" data-name="Grupo 1209284" transform="translate(49.401 20.584)">
          <path id="Trazado_1055651" data-name="Trazado 1055651" d="M50,22h4.117v6.175H50Z" transform="translate(-50 -22)" fill="#ffeaa7"/>
        </g>
        <g id="Grupo_1209285" data-name="Grupo 1209285" transform="translate(4.117)">
          <path id="Trazado_1055652" data-name="Trazado 1055652" d="M22.467,8.175v4.117l-1.523.556c-.041.093-.072.2-.113.288L21.51,14.6,18.6,17.51l-1.461-.679c-.093.041-.2.072-.288.113l-.556,1.523H12.175l-.556-1.523c-.093-.041-.2-.072-.288-.113L9.87,17.51,6.957,14.6l.679-1.461c-.041-.093-.072-.2-.113-.288L6,12.292V8.175l1.523-.556c.041-.093.072-.2.113-.288L6.957,5.87,9.87,2.957l1.461.679c.093-.041.2-.072.288-.113L12.175,2h4.117l.556,1.523c.093.041.2.072.288.113L18.6,2.957,21.51,5.87l-.679,1.461c.041.093.072.2.113.288ZM18.35,10.234a4.117,4.117,0,1,0-4.117,4.117A4.116,4.116,0,0,0,18.35,10.234Z" transform="translate(-6 -2)" fill="#fcd770"/>
        </g>
      </g>
      <g id="Grupo_1209287" data-name="Grupo 1209287" transform="translate(1 1)">
        <path id="Trazado_1055653" data-name="Trazado 1055653" d="M43.2,21H6.146A5.152,5.152,0,0,0,1,26.146V48.788a5.152,5.152,0,0,0,5.146,5.146H17.467V56.5L14.4,56.81a3.437,3.437,0,0,0-3.108,3.432v3.984H38.051V60.253a3.436,3.436,0,0,0-3.117-3.434c-1.531-.147-2.473-.242-3.058-.3V53.934H43.2a5.152,5.152,0,0,0,5.146-5.146V26.146A5.152,5.152,0,0,0,43.2,21Zm-7.2,39.253v1.914H13.35V60.242A1.386,1.386,0,0,1,14.6,58.858l3.274-.327a3.077,3.077,0,0,0,2.677,1.579h8.234a3.076,3.076,0,0,0,2.671-1.567q1.028.11,3.277.325a1.386,1.386,0,0,1,1.257,1.386Zm-6.175-3.232a1.03,1.03,0,0,1-1.029,1.029H20.555a1.03,1.03,0,0,1-1.029-1.029V53.934H29.817Zm12.35-5.146H40.109V49.817h2.058Zm4.117-3.088a3.083,3.083,0,0,1-2.058,2.9V47.759H38.051v4.117H6.146a3.091,3.091,0,0,1-3.088-3.088V26.146a3.091,3.091,0,0,1,3.088-3.088H43.2a3.091,3.091,0,0,1,3.088,3.088Z" transform="translate(-1 -0.416)"/>
        <path id="Trazado_1055654" data-name="Trazado 1055654" d="M44.109,43.525V27.058A2.06,2.06,0,0,0,42.051,25H7.058A2.06,2.06,0,0,0,5,27.058V43.525a2.06,2.06,0,0,0,2.058,2.058H42.051A2.06,2.06,0,0,0,44.109,43.525Zm-37.051,0V27.058H42.051V43.525Z" transform="translate(-0.883 -0.299)"/>
        <path id="Trazado_1055655" data-name="Trazado 1055655" d="M27.175,48.088a3.088,3.088,0,1,0-3.088,3.088A3.091,3.091,0,0,0,27.175,48.088Zm-3.088,1.029a1.029,1.029,0,1,1,1.029-1.029A1.03,1.03,0,0,1,24.088,49.117Z" transform="translate(-0.416 0.284)"/>
        <path id="Trazado_1055656" data-name="Trazado 1055656" d="M5.747,14.847l3.932,3.932,1.31-.613.494,1.361h5.559l.494-1.36,1.31.613,3.932-3.932-.612-1.31,1.361-.5V7.483l-1.36-.493.612-1.31L18.847,1.748l-1.31.613L17.043,1H11.484L10.99,2.36,9.679,1.747,5.747,5.679l.612,1.31L5,7.483v5.56l1.36.493ZM7.058,8.926l.847-.309.46-.218L8.8,7.35,8.222,6.115l1.891-1.892,1.235.576,1.112-.458.466-1.283H15.6l.308.847.209.455,1.061.438,1.235-.576L20.3,6.114,19.726,7.35l.46,1.108,1.281.467V11.6l-.847.309-.46.218-.435,1.049.578,1.236L18.412,16.3l-1.233-.576-1.113.458L15.6,17.467H12.925l-.308-.847-.21-.456-1.061-.437-1.233.576L8.222,14.41,8.8,13.174l-.46-1.108L7.058,11.6Z" transform="translate(-0.883 -1)"/>
        <path id="Trazado_1055657" data-name="Trazado 1055657" d="M14.146,15.292A5.146,5.146,0,1,0,9,10.146,5.152,5.152,0,0,0,14.146,15.292Zm0-8.234a3.088,3.088,0,1,1-3.088,3.088A3.091,3.091,0,0,1,14.146,7.058Z" transform="translate(-0.766 -0.883)"/>
        <path id="Trazado_1055658" data-name="Trazado 1055658" d="M30.886,13.527l-2.36-2.36H55.888v4.117h2.058V9.108H28.526l2.36-2.36L29.43,5.293l-4.844,4.844,4.844,4.844Z" transform="translate(-0.312 -0.875)"/>
        <path id="Trazado_1055659" data-name="Trazado 1055659" d="M51.36,35.43l1.455,1.455,2.36-2.36v8.837H49v2.058h8.234v-10.9l2.36,2.36,1.455-1.455L56.2,30.586Z" transform="translate(0.401 -0.136)"/>
        <path id="Trazado_1055660" data-name="Trazado 1055660" d="M57.234,17v2.058H53.117v2.058H49V29.35H63.409V17Zm-6.175,6.175h2.058v4.117H51.058Zm4.117-2.058h2.058v6.175H55.175Zm6.175,6.175H59.292V19.058H61.35Z" transform="translate(0.401 -0.533)"/>
        <path id="Trazado_1055661" data-name="Trazado 1055661" d="M9,41.35H21.35V29H9Zm2.058-10.292h8.234v8.234H11.058Z" transform="translate(-0.766 -0.183)"/>
        <path id="Trazado_1055662" data-name="Trazado 1055662" d="M23,29H39.467v2.058H23Z" transform="translate(-0.358 -0.183)"/>
        <path id="Trazado_1055663" data-name="Trazado 1055663" d="M23,37H39.467v2.058H23Z" transform="translate(-0.358 0.051)"/>
        <path id="Trazado_1055664" data-name="Trazado 1055664" d="M23,33h2.058v2.058H23Z" transform="translate(-0.358 -0.066)"/>
        <path id="Trazado_1055665" data-name="Trazado 1055665" d="M27,33H39.35v2.058H27Z" transform="translate(-0.241 -0.066)"/>
      </g>
    </g>
  </g>
</svg>
