<svg xmlns="http://www.w3.org/2000/svg" xmlns:xlink="http://www.w3.org/1999/xlink" width="113" height="113" viewBox="0 0 113 113">
  <defs>
    <filter id="Trazado_982547" x="0" y="0" width="113" height="113" filterUnits="userSpaceOnUse">
      <feOffset dy="3" input="SourceAlpha"/>
      <feGaussianBlur stdDeviation="3" result="blur"/>
      <feFlood flood-opacity="0.161"/>
      <feComposite operator="in" in2="blur"/>
      <feComposite in="SourceGraphic"/>
    </filter>
  </defs>
  <g id="Grupo_1209290" data-name="Grupo 1209290" transform="translate(-901.127 -4008.794)">
    <g id="Grupo_1209026" data-name="Grupo 1209026" transform="translate(0.127 2771)">
      <g id="Grupo_1208679" data-name="Grupo 1208679" transform="translate(0 -740.122)">
        <g id="Grupo_1208144" data-name="Grupo 1208144" transform="translate(0 -3923.371)">
          <g id="Grupo_1202434" data-name="Grupo 1202434" transform="translate(-0.56 1255.773)">
            <g id="Grupo_1202053" data-name="Grupo 1202053" transform="translate(0 3240.511)">
              <g id="Grupo_1177898" data-name="Grupo 1177898" transform="translate(910.561 1411.003)">
                <g id="Grupo_1172010" data-name="Grupo 1172010" transform="translate(0)">
                  <g id="Grupo_1171046" data-name="Grupo 1171046">
                    <g id="Grupo_1148525" data-name="Grupo 1148525">
                      <g transform="matrix(1, 0, 0, 1, -9, -6)" filter="url(#Trazado_982547)">
                        <g id="Trazado_982547-2" data-name="Trazado 982547" transform="translate(9 6)" fill="#fdf4ce">
                          <path d="M 47.5 93.5 C 41.28937149047852 93.5 35.26533508300781 92.28397369384766 29.59518623352051 89.88570404052734 C 24.11771965026855 87.56893157958984 19.19813346862793 84.25196075439453 14.97309303283691 80.02691650390625 C 10.74804019927979 75.80186462402344 7.431066513061523 70.88229370117188 5.114293098449707 65.40481567382812 C 2.716026782989502 59.73468017578125 1.5 53.71062850952148 1.5 47.5 C 1.5 41.28937149047852 2.716026782989502 35.26533508300781 5.114293098449707 29.59518623352051 C 7.431066513061523 24.11771965026855 10.74804019927979 19.19813346862793 14.97309303283691 14.97309303283691 C 19.19813346862793 10.74804019927979 24.11771965026855 7.431066513061523 29.59518623352051 5.114293098449707 C 35.26533508300781 2.716026782989502 41.28937149047852 1.5 47.5 1.5 C 53.71062850952148 1.5 59.73468017578125 2.716026782989502 65.40481567382812 5.114293098449707 C 70.88229370117188 7.431066513061523 75.80186462402344 10.74804019927979 80.02691650390625 14.97309303283691 C 84.25196075439453 19.19813346862793 87.56893157958984 24.11771965026855 89.88570404052734 29.59518623352051 C 92.28397369384766 35.26533508300781 93.5 41.28937149047852 93.5 47.5 C 93.5 53.71062850952148 92.28397369384766 59.73468017578125 89.88570404052734 65.40481567382812 C 87.56893157958984 70.88229370117188 84.25196075439453 75.80186462402344 80.02691650390625 80.02691650390625 C 75.80186462402344 84.25196075439453 70.88229370117188 87.56893157958984 65.40481567382812 89.88570404052734 C 59.73468017578125 92.28397369384766 53.71062850952148 93.5 47.5 93.5 Z" stroke="none"/>
                          <path d="M 47.5 3 C 41.49121475219727 3 35.66376876831055 4.176155090332031 30.17950439453125 6.495796203613281 C 24.88084411621094 8.736953735351562 20.12152099609375 11.94598388671875 16.03375244140625 16.03375244140625 C 11.94598388671875 20.12152099609375 8.736953735351562 24.88084411621094 6.495796203613281 30.17950439453125 C 4.176155090332031 35.66376876831055 3 41.49121475219727 3 47.5 C 3 53.50878524780273 4.176155090332031 59.33623123168945 6.495796203613281 64.82049560546875 C 8.736953735351562 70.11915588378906 11.94598388671875 74.87847900390625 16.03375244140625 78.96624755859375 C 20.12152099609375 83.05401611328125 24.88084411621094 86.26304626464844 30.17950439453125 88.50419616699219 C 35.66376876831055 90.82384490966797 41.49121475219727 92 47.5 92 C 53.50878524780273 92 59.33623123168945 90.82384490966797 64.82049560546875 88.50419616699219 C 70.11915588378906 86.26304626464844 74.87847900390625 83.05401611328125 78.96624755859375 78.96624755859375 C 83.05401611328125 74.87847900390625 86.26304626464844 70.11915588378906 88.50419616699219 64.82049560546875 C 90.82384490966797 59.33623123168945 92 53.50878524780273 92 47.5 C 92 41.49121475219727 90.82384490966797 35.66376876831055 88.50419616699219 30.17950439453125 C 86.26304626464844 24.88084411621094 83.05401611328125 20.12152099609375 78.96624755859375 16.03375244140625 C 74.87847900390625 11.94598388671875 70.11915588378906 8.736953735351562 64.82049560546875 6.495796203613281 C 59.33623123168945 4.176155090332031 53.50878524780273 3 47.5 3 M 47.5 0 C 73.7335205078125 0 95 21.2664794921875 95 47.5 C 95 73.7335205078125 73.7335205078125 95 47.5 95 C 21.2664794921875 95 0 73.7335205078125 0 47.5 C 0 21.2664794921875 21.2664794921875 0 47.5 0 Z" stroke="none" fill="#866d08"/>
                        </g>
                      </g>
                    </g>
                  </g>
                </g>
              </g>
            </g>
          </g>
        </g>
      </g>
    </g>
    <g id="sale-report_18495455" transform="translate(896.839 4006.202)">
      <g id="Grupo_1209289" data-name="Grupo 1209289" transform="translate(35.902 24.513)">
        <path id="Trazado_1055666" data-name="Trazado 1055666" d="M44.48,64.1H84.22a1.687,1.687,0,0,1,1.68,1.68v54.1a1.687,1.687,0,0,1-1.68,1.68H44.48a1.687,1.687,0,0,1-1.68-1.68V65.78A1.687,1.687,0,0,1,44.48,64.1Z" transform="translate(-42.8 -59.597)" fill="#00b2ca" fill-rule="evenodd"/>
        <path id="Trazado_1055667" data-name="Trazado 1055667" d="M100.8,370.1h4.448v3.277H100.8Z" transform="translate(-92.813 -323.461)" fill="#fcb13b" fill-rule="evenodd"/>
        <path id="Trazado_1055668" data-name="Trazado 1055668" d="M160.3,370.1h18.947v3.277H160.3Z" transform="translate(-144.12 -323.461)" fill="#fcb13b" fill-rule="evenodd"/>
        <path id="Trazado_1055669" data-name="Trazado 1055669" d="M100.8,422.5h4.448v3.277H100.8Z" transform="translate(-92.813 -368.646)" fill="#fcb13b" fill-rule="evenodd"/>
        <path id="Trazado_1055670" data-name="Trazado 1055670" d="M160.3,422.5h18.947v3.277H160.3Z" transform="translate(-144.12 -368.646)" fill="#fcb13b" fill-rule="evenodd"/>
        <path id="Trazado_1055671" data-name="Trazado 1055671" d="M237.847,31.4a13.247,13.247,0,1,0,7.863,23.9l6.458,6.458,2.8-2.8L248.5,52.509A13.244,13.244,0,0,0,237.847,31.4Z" transform="translate(-199.566 -31.4)" fill="#dd6e42" fill-rule="evenodd"/>
        <path id="Trazado_1055672" data-name="Trazado 1055672" d="M264.971,63.9a8.771,8.771,0,1,0,8.771,8.771A8.768,8.768,0,0,0,264.971,63.9Z" transform="translate(-226.815 -59.425)" fill="#fff" fill-rule="evenodd"/>
        <path id="Trazado_1055673" data-name="Trazado 1055673" d="M401.12,205.166l-2.754,2.754a1.172,1.172,0,0,0,0,1.652l5.6,5.6a1.172,1.172,0,0,0,1.652,0l2.754-2.754a1.172,1.172,0,0,0,0-1.652l-5.6-5.6A1.172,1.172,0,0,0,401.12,205.166Z" transform="translate(-349.111 -180.945)" fill="#d71b5a" fill-rule="evenodd"/>
        <path id="Trazado_1055674" data-name="Trazado 1055674" d="M302.868,107.7a2.368,2.368,0,1,1-2.368,2.368A2.368,2.368,0,0,1,302.868,107.7Z" transform="translate(-265.015 -97.194)" fill="#f9a13f" fill-rule="evenodd"/>
      </g>
      <path id="Trazado_1055675" data-name="Trazado 1055675" d="M73.755,33.918a3.468,3.468,0,1,1-.73,6.857l-2.892,3.58a7.692,7.692,0,1,0-1.707-1.391l2.7-3.332A3.462,3.462,0,0,1,73.755,33.918Zm.9,2.575a1.266,1.266,0,1,0,0,1.79A1.266,1.266,0,0,0,74.65,36.493ZM45,56.418l5.962-8.937a1.119,1.119,0,0,1,1.584-.275l7.739,5.838,3.98-4.93a14.354,14.354,0,0,1-2.217-18H37.582A.582.582,0,0,0,37,30.7V84.8a.582.582,0,0,0,.578.578h39.74A.582.582,0,0,0,77.9,84.8V51.613a14.337,14.337,0,0,1-11.952-2.107l-4.613,5.687a1.1,1.1,0,0,1-1.556.234l-7.656-5.77L44.99,60.37v1.239H69.514l-1.349-.73A1.094,1.094,0,1,1,69.2,58.952l5.177,2.8a1.1,1.1,0,0,1-.014,1.942l-5.164,2.8a1.1,1.1,0,0,1-1.033-1.942l1.349-.73H63.9v.661a1.1,1.1,0,0,1-2.2,0v-.661h-3V65.8a1.1,1.1,0,1,1-2.2,0V63.813h-3v.7a1.1,1.1,0,1,1-2.2,0v-.7h-3V65.8a1.1,1.1,0,1,1-2.2,0V63.813H43.9a1.1,1.1,0,0,1-1.1-1.1v-1.57h-.771a1.1,1.1,0,1,1,0-2.2H42.8V56.267H40.6a1.1,1.1,0,0,1,0-2.2h2.189V51.392H41.96a1.1,1.1,0,0,1,0-2.2h.826V46.518H40.6a1.1,1.1,0,0,1,0-2.2h2.189V39.55l-.95,1.556a1.1,1.1,0,1,1-1.873-1.157L42.952,35.1a1.1,1.1,0,0,1,1.873.014l2.988,4.833a1.1,1.1,0,0,1-1.873,1.157l-.95-1.556V56.418Zm43.678-6.912L85.928,52.26v.1l5.6,5.6h.1l2.754-2.754v-.1l-5.6-5.6Zm-3.553.441,1.239-1.239-2.313-2.313a1.1,1.1,0,0,1-.055-1.5,11.82,11.82,0,0,0,1.707-3.346,12.207,12.207,0,1,0-4.338,5.976,1.091,1.091,0,0,1,1.432.11Zm3.016-2.575a2.242,2.242,0,0,1,2.189.592l5.6,5.6a2.277,2.277,0,0,1,0,3.208L93.185,59.53a2.277,2.277,0,0,1-3.208,0l-5.6-5.6a2.275,2.275,0,0,1-.592-2.2l-1.859-1.886a12.814,12.814,0,0,1-1.818.978v33.97a2.783,2.783,0,0,1-2.782,2.782H37.582A2.791,2.791,0,0,1,34.8,84.784V30.7a2.791,2.791,0,0,1,2.782-2.782H63.744a14.347,14.347,0,0,1,22.528,17.57ZM67.077,30.779a9.873,9.873,0,1,1,0,13.963A9.873,9.873,0,0,1,67.077,30.779Zm3.952,51.968H52.081a1.1,1.1,0,0,1-1.1-1.1V78.367a1.1,1.1,0,0,1,1.1-1.1H71.029a1.1,1.1,0,0,1,1.1,1.1v3.277A1.1,1.1,0,0,1,71.029,82.746Zm-17.846-2.2H69.927V79.469H53.183Zm-8.193,0h2.244V79.469H44.99Zm3.346,2.2H43.888a1.1,1.1,0,0,1-1.1-1.1V78.367a1.1,1.1,0,0,1,1.1-1.1h4.448a1.1,1.1,0,0,1,1.1,1.1v3.277A1.1,1.1,0,0,1,48.336,82.746ZM69.927,72.254H53.183v1.074H69.927Zm-17.846-2.2H71.029a1.1,1.1,0,0,1,1.1,1.1v3.277a1.1,1.1,0,0,1-1.1,1.1H52.081a1.1,1.1,0,0,1-1.1-1.1V71.152A1.1,1.1,0,0,1,52.081,70.05Zm-8.193,0h4.448a1.1,1.1,0,0,1,1.1,1.1v3.277a1.1,1.1,0,0,1-1.1,1.1H43.888a1.1,1.1,0,0,1-1.1-1.1V71.152A1.1,1.1,0,0,1,43.888,70.05Zm3.346,2.2H44.99v1.074h2.244Z"/>
    </g>
  </g>
</svg>
