<svg xmlns="http://www.w3.org/2000/svg" xmlns:xlink="http://www.w3.org/1999/xlink" width="108" height="108" viewBox="0 0 108 108">
  <defs>
    <filter id="Trazado_904820" x="0" y="0" width="108" height="108" filterUnits="userSpaceOnUse">
      <feOffset dy="3" input="SourceAlpha"/>
      <feGaussianBlur stdDeviation="3" result="blur"/>
      <feFlood flood-opacity="0.161"/>
      <feComposite operator="in" in2="blur"/>
      <feComposite in="SourceGraphic"/>
    </filter>
  </defs>
  <g id="Grupo_1209258" data-name="Grupo 1209258" transform="translate(-200 -900)">
    <g id="Grupo_1208897" data-name="Grupo 1208897" transform="translate(209 906)">
      <g id="Grupo_1181677" data-name="Grupo 1181677" transform="translate(0 0)">
        <g id="Grupo_1173585" data-name="Grupo 1173585">
          <g id="Grupo_1173428" data-name="Grupo 1173428">
            <g id="Grupo_1171958" data-name="Grupo 1171958">
              <g id="Grupo_1167341" data-name="Grupo 1167341">
                <g id="Grupo_1166792" data-name="Grupo 1166792">
                  <g transform="matrix(1, 0, 0, 1, -9, -6)" filter="url(#Trazado_904820)">
                    <g id="Trazado_904820-2" data-name="Trazado 904820" transform="translate(9 6)" fill="#e5ebfb">
                      <path d="M 44.99999618530273 88.50003051757812 C 39.12687301635742 88.50003051757812 33.43022155761719 87.35010528564453 28.06829643249512 85.08219146728516 C 22.88852119445801 82.89134216308594 18.23629570007324 79.75461578369141 14.24084663391113 75.75916290283203 C 10.24540901184082 71.76371765136719 7.108683586120605 67.11148834228516 4.917821407318115 61.93171691894531 C 2.649921178817749 56.56978988647461 1.499996185302734 50.87313842773438 1.499996185302734 45.00001525878906 C 1.499996185302734 39.12689208984375 2.649921178817749 33.43024063110352 4.917821407318115 28.06830215454102 C 7.108683586120605 22.88852691650391 10.24540901184082 18.23631477355957 14.24084663391113 14.24086570739746 C 18.23629570007324 10.24541568756104 22.88852119445801 7.10869026184082 28.06829643249512 4.917827606201172 C 33.43022155761719 2.649927854537964 39.12687301635742 1.50000274181366 44.99999618530273 1.50000274181366 C 50.87311935424805 1.50000274181366 56.56977081298828 2.649927854537964 61.93169784545898 4.917827606201172 C 67.11147308349609 7.10869026184082 71.76369476318359 10.24541568756104 75.75914764404297 14.24086570739746 C 79.75458526611328 18.23631477355957 82.89131164550781 22.88852691650391 85.08216857910156 28.06830215454102 C 87.35007476806641 33.43024063110352 88.5 39.12689208984375 88.5 45.00001525878906 C 88.5 50.87313842773438 87.35007476806641 56.56978988647461 85.08216857910156 61.93171691894531 C 82.89131164550781 67.11148834228516 79.75458526611328 71.76371765136719 75.75914764404297 75.75916290283203 C 71.76369476318359 79.75461578369141 67.11147308349609 82.89134216308594 61.93169784545898 85.08219146728516 C 56.56977081298828 87.35010528564453 50.87311935424805 88.50003051757812 44.99999618530273 88.50003051757812 Z" stroke="none"/>
                      <path d="M 44.99999618530273 3 C 39.32870864868164 3 33.82865142822266 4.110061645507812 28.65262603759766 6.299346923828125 C 23.65165710449219 8.414573669433594 19.15968322753906 11.44334411621094 15.301513671875 15.301513671875 C 11.44333648681641 19.15968322753906 8.414566040039062 23.65165710449219 6.299339294433594 28.65262985229492 C 4.110054016113281 33.82867050170898 2.999992370605469 39.32872772216797 2.999992370605469 45.00001525878906 C 2.999992370605469 50.67130279541016 4.110054016113281 56.17136001586914 6.299339294433594 61.34738922119141 C 8.414566040039062 66.34837341308594 11.44333648681641 70.84033203125 15.301513671875 74.69850158691406 C 19.15968322753906 78.55668640136719 23.65165710449219 81.58545684814453 28.65262603759766 83.70068359375 C 33.82865142822266 85.88996887207031 39.32870864868164 87.00003051757812 44.99999618530273 87.00003051757812 C 50.67128372192383 87.00003051757812 56.17134094238281 85.88996887207031 61.34736633300781 83.70068359375 C 66.34834289550781 81.58545684814453 70.84030914306641 78.55668640136719 74.69847869873047 74.69850158691406 C 78.55665588378906 70.84033203125 81.58542633056641 66.34837341308594 83.70065307617188 61.34738922119141 C 85.88993835449219 56.17136001586914 87 50.67130279541016 87 45.00001525878906 C 87 39.32872772216797 85.88993835449219 33.82867050170898 83.70065307617188 28.65262985229492 C 81.58542633056641 23.65165710449219 78.55665588378906 19.15968322753906 74.69847869873047 15.301513671875 C 70.84030914306641 11.44334411621094 66.34834289550781 8.414573669433594 61.34736633300781 6.299346923828125 C 56.17134094238281 4.110061645507812 50.67128372192383 3 44.99999618530273 3 M 44.99999618530273 0 C 69.85281372070312 0 90 20.14718627929688 90 45.00001525878906 C 90 69.85282897949219 69.85281372070312 90.00003051757812 44.99999618530273 90.00003051757812 C 20.14717864990234 90.00003051757812 -7.62939453125e-06 69.85282897949219 -7.62939453125e-06 45.00001525878906 C -7.62939453125e-06 20.14718627929688 20.14717864990234 0 44.99999618530273 0 Z" stroke="none" fill="#0b47db"/>
                    </g>
                  </g>
                </g>
              </g>
            </g>
          </g>
        </g>
      </g>
    </g>
    <g id="laptop_4566051" transform="translate(222 919.015)">
      <path id="Trazado_1055564" data-name="Trazado 1055564" d="M56,31H8L6,3H58Z" fill="#016ca9"/>
      <path id="Trazado_1055565" data-name="Trazado 1055565" d="M52,27H12L11,7H53Z" fill="#bce8fe"/>
      <path id="Trazado_1055566" data-name="Trazado 1055566" d="M61,58H3L8,31H56Z" fill="#016ca9"/>
      <path id="Trazado_1055567" data-name="Trazado 1055567" d="M54,45H10l1-10H53Z" fill="#e9e9ea"/>
      <path id="Trazado_1055568" data-name="Trazado 1055568" d="M25,48H39v6H25Z" fill="#e9e9ea"/>
      <path id="Trazado_1055569" data-name="Trazado 1055569" d="M15,61V54l-2-3V43.5a1.5,1.5,0,0,1,3,0v-2a1.5,1.5,0,0,1,3,0v-2a1.5,1.5,0,0,1,3,0v1a1.5,1.5,0,0,1,3,0v5a1.5,1.5,0,0,1,3,0V52l-3,2v7Z" fill="#ffcbbe"/>
      <path id="Trazado_1055570" data-name="Trazado 1055570" d="M49,61V54l2-3V43.5a1.5,1.5,0,0,0-3,0v-2a1.5,1.5,0,0,0-3,0v-2a1.5,1.5,0,0,0-3,0v1a1.5,1.5,0,0,0-3,0v5a1.5,1.5,0,0,0-3,0V52l3,2v7Z" fill="#ffcbbe"/>
      <path id="Trazado_1055571" data-name="Trazado 1055571" d="M57.03,30.94,59.02,3.07a1.044,1.044,0,0,0-.27-.77A1.022,1.022,0,0,0,58,1.97H6a1.022,1.022,0,0,0-.75.33,1.044,1.044,0,0,0-.27.77L6.97,30.94,1.99,57.81a1.085,1.085,0,0,0,.22.85,1.059,1.059,0,0,0,.79.37H14V61a1,1,0,0,0,1,1H25a1,1,0,0,0,1-1V59.03H38V61a1,1,0,0,0,1,1H49a1,1,0,0,0,1-1V59.03H61a1.059,1.059,0,0,0,.79-.37,1.085,1.085,0,0,0,.22-.85ZM56.9,4.03,55.04,29.97H8.96L7.1,4.03ZM24.45,53.17A1,1,0,0,0,24,54v6H16V54a.967.967,0,0,0-.17-.55L14,50.7V43.5a.5.5,0,0,1,1,0V46a1,1,0,0,0,2,0V41.5a.5.5,0,0,1,1,0V45a1,1,0,0,0,2,0V39.5a.5.5,0,0,1,1,0V45a1,1,0,0,0,2,0V40.5a.5.5,0,0,1,1,0V48a1,1,0,0,0,2,0V45.5a.5.5,0,0,1,1,0v5.96ZM49.5,41a2.416,2.416,0,0,0-.54.06A2.5,2.5,0,0,0,46.5,39a2.416,2.416,0,0,0-.54.06,2.5,2.5,0,0,0-4.57-.9A2.647,2.647,0,0,0,40.5,38,2.5,2.5,0,0,0,38,40.5v2.55a2.734,2.734,0,0,0-.5-.05,2.522,2.522,0,0,0-1.97.97H28.47A2.522,2.522,0,0,0,26.5,43a2.734,2.734,0,0,0-.5.05V40.5A2.5,2.5,0,0,0,23.5,38a2.647,2.647,0,0,0-.89.16,2.5,2.5,0,0,0-4.57.9A2.416,2.416,0,0,0,17.5,39a2.5,2.5,0,0,0-2.46,2.06A2.416,2.416,0,0,0,14.5,41,2.5,2.5,0,0,0,12,43.5v.47h-.87l.8-7.94H52.07l.8,7.94H52V43.5A2.5,2.5,0,0,0,49.5,41ZM35,49.03V52a1,1,0,0,0,.45.83l.21.14H28.34l.21-.14A1,1,0,0,0,29,52V49.03Zm-6-2.06v-.94h6v.94Zm9,10H26V55.03H38Zm10.17-3.52A.967.967,0,0,0,48,54v6H40V54a1,1,0,0,0-.45-.83L37,51.46V45.5a.5.5,0,0,1,1,0V48a1,1,0,1,0,2,0V40.5a.5.5,0,0,1,1,0V45a1,1,0,1,0,2,0V39.5a.5.5,0,0,1,1,0V45a1,1,0,1,0,2,0V41.5a.5.5,0,0,1,1,0V46a1,1,0,1,0,2,0V43.5a.5.5,0,0,1,1,0v7.2ZM50,56.97V54.3l1.83-2.75A.967.967,0,0,0,52,51V46.03h2a1.037,1.037,0,0,0,.76-.34,1,1,0,0,0,.26-.79l-1-10A1.022,1.022,0,0,0,53,33.97H11a1.022,1.022,0,0,0-1.02.93l-1,10a1,1,0,0,0,.26.79,1.037,1.037,0,0,0,.76.34h2V51a.967.967,0,0,0,.17.55L14,54.3v2.67H4.23L8.85,32.03h46.3l4.62,24.94Z"/>
      <path id="Trazado_1055572" data-name="Trazado 1055572" d="M53.72,6.31A.975.975,0,0,0,53,6H11a.975.975,0,0,0-.72.31,1.025,1.025,0,0,0-.28.74l1,20A1.007,1.007,0,0,0,12,28H52a1.007,1.007,0,0,0,1-.95l1-20a1.025,1.025,0,0,0-.28-.74ZM51.05,26H12.95l-.9-18h39.9Z"/>
      <path id="Trazado_1055573" data-name="Trazado 1055573" d="M15,11h3v2H15Z"/>
      <path id="Trazado_1055574" data-name="Trazado 1055574" d="M21,11H49v2H21Z"/>
      <path id="Trazado_1055575" data-name="Trazado 1055575" d="M16,15h5v2H16Z"/>
      <path id="Trazado_1055576" data-name="Trazado 1055576" d="M24,15H48v2H24Z"/>
      <path id="Trazado_1055577" data-name="Trazado 1055577" d="M17,19h7v2H17Z"/>
      <path id="Trazado_1055578" data-name="Trazado 1055578" d="M26,19H47v2H26Z"/>
    </g>
  </g>
</svg>
