<svg xmlns="http://www.w3.org/2000/svg" xmlns:xlink="http://www.w3.org/1999/xlink" width="113" height="113" viewBox="0 0 113 113">
  <defs>
    <filter id="Trazado_982547" x="0" y="0" width="113" height="113" filterUnits="userSpaceOnUse">
      <feOffset dy="3" input="SourceAlpha"/>
      <feGaussianBlur stdDeviation="3" result="blur"/>
      <feFlood flood-opacity="0.161"/>
      <feComposite operator="in" in2="blur"/>
      <feComposite in="SourceGraphic"/>
    </filter>
  </defs>
  <g id="Grupo_1209336" data-name="Grupo 1209336" transform="translate(-586.127 -6758.058)">
    <g id="Grupo_1209090" data-name="Grupo 1209090" transform="translate(0.127 4780.142)">
      <g id="Grupo_1208146" data-name="Grupo 1208146" transform="translate(0 -3923.371)">
        <g id="Grupo_1202433" data-name="Grupo 1202433" transform="translate(-0.56 1255.773)">
          <g id="Grupo_1202054" data-name="Grupo 1202054" transform="translate(0 3240.511)">
            <g id="Grupo_1177897" data-name="Grupo 1177897" transform="translate(595.561 1411.003)">
              <g id="Grupo_1172010" data-name="Grupo 1172010" transform="translate(0)">
                <g id="Grupo_1171046" data-name="Grupo 1171046">
                  <g id="Grupo_1148525" data-name="Grupo 1148525">
                    <g transform="matrix(1, 0, 0, 1, -9, -6)" filter="url(#Trazado_982547)">
                      <g id="Trazado_982547-2" data-name="Trazado 982547" transform="translate(9 6)" fill="#fdf4ce">
                        <path d="M 47.5 93.5 C 41.28937149047852 93.5 35.26533508300781 92.28397369384766 29.59518623352051 89.88570404052734 C 24.11771965026855 87.56893157958984 19.19813346862793 84.25196075439453 14.97309303283691 80.02691650390625 C 10.74804019927979 75.80186462402344 7.431066513061523 70.88229370117188 5.114293098449707 65.40481567382812 C 2.716026782989502 59.73468017578125 1.5 53.71062850952148 1.5 47.5 C 1.5 41.28937149047852 2.716026782989502 35.26533508300781 5.114293098449707 29.59518623352051 C 7.431066513061523 24.11771965026855 10.74804019927979 19.19813346862793 14.97309303283691 14.97309303283691 C 19.19813346862793 10.74804019927979 24.11771965026855 7.431066513061523 29.59518623352051 5.114293098449707 C 35.26533508300781 2.716026782989502 41.28937149047852 1.5 47.5 1.5 C 53.71062850952148 1.5 59.73468017578125 2.716026782989502 65.40481567382812 5.114293098449707 C 70.88229370117188 7.431066513061523 75.80186462402344 10.74804019927979 80.02691650390625 14.97309303283691 C 84.25196075439453 19.19813346862793 87.56893157958984 24.11771965026855 89.88570404052734 29.59518623352051 C 92.28397369384766 35.26533508300781 93.5 41.28937149047852 93.5 47.5 C 93.5 53.71062850952148 92.28397369384766 59.73468017578125 89.88570404052734 65.40481567382812 C 87.56893157958984 70.88229370117188 84.25196075439453 75.80186462402344 80.02691650390625 80.02691650390625 C 75.80186462402344 84.25196075439453 70.88229370117188 87.56893157958984 65.40481567382812 89.88570404052734 C 59.73468017578125 92.28397369384766 53.71062850952148 93.5 47.5 93.5 Z" stroke="none"/>
                        <path d="M 47.5 3 C 41.49121475219727 3 35.66376876831055 4.176155090332031 30.17950439453125 6.495796203613281 C 24.88084411621094 8.736953735351562 20.12152099609375 11.94598388671875 16.03375244140625 16.03375244140625 C 11.94598388671875 20.12152099609375 8.736953735351562 24.88084411621094 6.495796203613281 30.17950439453125 C 4.176155090332031 35.66376876831055 3 41.49121475219727 3 47.5 C 3 53.50878524780273 4.176155090332031 59.33623123168945 6.495796203613281 64.82049560546875 C 8.736953735351562 70.11915588378906 11.94598388671875 74.87847900390625 16.03375244140625 78.96624755859375 C 20.12152099609375 83.05401611328125 24.88084411621094 86.26304626464844 30.17950439453125 88.50419616699219 C 35.66376876831055 90.82384490966797 41.49121475219727 92 47.5 92 C 53.50878524780273 92 59.33623123168945 90.82384490966797 64.82049560546875 88.50419616699219 C 70.11915588378906 86.26304626464844 74.87847900390625 83.05401611328125 78.96624755859375 78.96624755859375 C 83.05401611328125 74.87847900390625 86.26304626464844 70.11915588378906 88.50419616699219 64.82049560546875 C 90.82384490966797 59.33623123168945 92 53.50878524780273 92 47.5 C 92 41.49121475219727 90.82384490966797 35.66376876831055 88.50419616699219 30.17950439453125 C 86.26304626464844 24.88084411621094 83.05401611328125 20.12152099609375 78.96624755859375 16.03375244140625 C 74.87847900390625 11.94598388671875 70.11915588378906 8.736953735351562 64.82049560546875 6.495796203613281 C 59.33623123168945 4.176155090332031 53.50878524780273 3 47.5 3 M 47.5 0 C 73.7335205078125 0 95 21.2664794921875 95 47.5 C 95 73.7335205078125 73.7335205078125 95 47.5 95 C 21.2664794921875 95 0 73.7335205078125 0 47.5 C 0 21.2664794921875 21.2664794921875 0 47.5 0 Z" stroke="none" fill="#866d08"/>
                      </g>
                    </g>
                  </g>
                </g>
              </g>
            </g>
          </g>
        </g>
      </g>
    </g>
    <g id="Artboard161" transform="translate(599.69 6768.621)">
      <g id="Grupo_1209335" data-name="Grupo 1209335" transform="translate(7 7)">
        <g id="Grupo_1209334" data-name="Grupo 1209334" transform="translate(16.002 6.418)">
          <g id="Grupo_1209332" data-name="Grupo 1209332" transform="translate(10.063)">
            <path id="Trazado_1055763" data-name="Trazado 1055763" d="M187.5,51.3h16.081a.606.606,0,0,1,.442.184L210.668,57a.606.606,0,0,1,.184.442V81.746a.627.627,0,0,1-.626.626H187.5a.628.628,0,0,1-.628-.626V51.926A.629.629,0,0,1,187.5,51.3Z" transform="translate(-186.876 -51.297)" fill="#eceff1" fill-rule="evenodd"/>
            <g id="Grupo_1209331" data-name="Grupo 1209331" transform="translate(0)">
              <path id="Trazado_1055764" data-name="Trazado 1055764" d="M188.953,82.372H187.5a.628.628,0,0,1-.628-.626V51.926a.629.629,0,0,1,.628-.628h1.449a.629.629,0,0,0-.628.628v29.82A.628.628,0,0,0,188.953,82.372Z" transform="translate(-186.876 -51.297)" fill="#d1d1d6" fill-rule="evenodd"/>
              <path id="Trazado_1055765" data-name="Trazado 1055765" d="M302.184,51.295a.6.6,0,0,1,.388.135l6.62,5.5a.538.538,0,0,1,.258.5h-6.675a.554.554,0,0,1-.591-.5Z" transform="translate(-285.475 -51.294)" fill="#d1d1d6" fill-rule="evenodd"/>
            </g>
          </g>
          <path id="Trazado_1055766" data-name="Trazado 1055766" d="M124.509,372.91a.526.526,0,0,0-.526-.526h-6.024a.526.526,0,0,0-.526.526v6.024a.526.526,0,0,0,.526.526h6.024a.526.526,0,0,0,.526-.526Z" transform="translate(-117.433 -325.856)" fill="#8ac9fe" fill-rule="evenodd"/>
          <path id="Trazado_1055767" data-name="Trazado 1055767" d="M152.635,379.46a.526.526,0,0,0,.526-.526V372.91a.526.526,0,0,0-.526-.526h1.449a.526.526,0,0,1,.526.526v6.024a.526.526,0,0,1-.526.526Z" transform="translate(-147.534 -325.856)" fill="#60b7ff" fill-rule="evenodd"/>
          <path id="Trazado_1055768" data-name="Trazado 1055768" d="M252.265,372.91a.526.526,0,0,0-.526-.526h-6.024a.526.526,0,0,0-.526.526v6.024a.526.526,0,0,0,.526.526h6.024a.526.526,0,0,0,.526-.526Z" transform="translate(-226.676 -325.856)" fill="#6cf5c2" fill-rule="evenodd"/>
          <path id="Trazado_1055769" data-name="Trazado 1055769" d="M280.391,379.46a.526.526,0,0,0,.526-.526V372.91a.526.526,0,0,0-.526-.526h1.449a.526.526,0,0,1,.526.526v6.024a.526.526,0,0,1-.526.526Z" transform="translate(-256.777 -325.856)" fill="#00e499" fill-rule="evenodd"/>
          <path id="Trazado_1055770" data-name="Trazado 1055770" d="M380.021,372.91a.526.526,0,0,0-.526-.526h-6.024a.526.526,0,0,0-.526.526v6.024a.526.526,0,0,0,.526.526H379.5a.526.526,0,0,0,.526-.526Z" transform="translate(-335.92 -325.856)" fill="#ffe177" fill-rule="evenodd"/>
          <path id="Trazado_1055771" data-name="Trazado 1055771" d="M408.147,379.46a.526.526,0,0,0,.526-.526V372.91a.526.526,0,0,0-.526-.526H409.6a.526.526,0,0,1,.526.526v6.024a.526.526,0,0,1-.526.526Z" transform="translate(-366.021 -325.856)" fill="#ffd064" fill-rule="evenodd"/>
          <g id="Grupo_1209333" data-name="Grupo 1209333" transform="translate(14.501 10.09)">
            <path id="Trazado_1055772" data-name="Trazado 1055772" d="M226.557,122.177a6.437,6.437,0,0,1,1.887.782l1.226-.544,1.445,1.444-.544,1.226a6.437,6.437,0,0,1,.782,1.887l1.251.482V129.5l-1.251.482a6.442,6.442,0,0,1-.782,1.886l.544,1.226-1.445,1.445-1.226-.545a6.439,6.439,0,0,1-1.887.783l-.482,1.25h-2.044l-.482-1.251a6.442,6.442,0,0,1-1.886-.782l-1.226.545-1.445-1.445.545-1.225a6.459,6.459,0,0,1-.783-1.887l-1.25-.482v-2.044l1.25-.482a6.439,6.439,0,0,1,.783-1.887l-.545-1.226,1.445-1.444,1.225.544a6.457,6.457,0,0,1,1.887-.782l.482-1.251h2.044Z" transform="translate(-217.504 -120.926)" fill="#ffe177" fill-rule="evenodd"/>
            <path id="Trazado_1055773" data-name="Trazado 1055773" d="M245.491,122.6l.412-.183,1.445,1.444-.544,1.226a6.438,6.438,0,0,1,.782,1.887l1.251.482V129.5l-1.251.482a6.443,6.443,0,0,1-.782,1.886l.544,1.226-1.445,1.445-.412-.183,1.263-1.263-.545-1.226a6.439,6.439,0,0,0,.782-1.886l1.251-.482v-2.044l-1.251-.482a6.434,6.434,0,0,0-.782-1.887l.545-1.226Zm-9,0,.183-.183,1.225.544c-.087.048-.172.1-.256.151Zm6.3-.421a6.437,6.437,0,0,1,1.887.782l-.338.151a8.421,8.421,0,0,0-2.144-.933l-.482-1.251h.595ZM237.9,133.992l-1.226.545-.183-.183,1.152-.512Q237.766,133.92,237.9,133.992Zm6.78,0a6.439,6.439,0,0,1-1.887.783l-.482,1.25h-.595l.482-1.25a8.435,8.435,0,0,0,2.144-.933Z" transform="translate(-233.737 -120.926)" fill="#ffd064" fill-rule="evenodd"/>
            <path id="Trazado_1055774" data-name="Trazado 1055774" d="M248.572,148.429a3.564,3.564,0,1,1-3.564,3.565A3.564,3.564,0,0,1,248.572,148.429Z" transform="translate(-241.023 -144.444)" fill="#eceff1" fill-rule="evenodd"/>
            <path id="Trazado_1055775" data-name="Trazado 1055775" d="M248.572,148.429c.081,0,.161,0,.242.009a3.564,3.564,0,0,0,0,7.112c-.08.005-.161.008-.242.008a3.564,3.564,0,0,1,0-7.128Z" transform="translate(-241.023 -144.444)" fill="#d1d1d6" fill-rule="evenodd"/>
          </g>
        </g>
        <path id="Trazado_1055776" data-name="Trazado 1055776" d="M27.7,58.787h2.379a1.159,1.159,0,0,1,1.159,1.159v7.076a1.159,1.159,0,0,1-1.159,1.159H23a1.159,1.159,0,0,1-1.159-1.159V59.946A1.159,1.159,0,0,1,23,58.787h2.379V53.348a1.159,1.159,0,0,1,1.159-1.159H43.893V45.652h-10.2a1.789,1.789,0,0,1-1.787-1.785V14.047a1.788,1.788,0,0,1,1.787-1.787H49.774a1.723,1.723,0,0,1,1.215.478L57.6,18.225q.041.034.079.072a1.73,1.73,0,0,1,.523,1.262V43.867a1.79,1.79,0,0,1-1.785,1.785h-10.2v6.537H63.565a1.159,1.159,0,0,1,1.159,1.159v5.439H67.1a1.159,1.159,0,0,1,1.159,1.159v7.076A1.159,1.159,0,0,1,67.1,68.181H60.027a1.159,1.159,0,0,1-1.159-1.159V59.946a1.159,1.159,0,0,1,1.159-1.159h2.379v-4.28H46.212v4.28h2.379a1.159,1.159,0,0,1,1.159,1.159v7.076a1.159,1.159,0,0,1-1.159,1.159H41.515a1.159,1.159,0,0,1-1.159-1.159V59.946a1.159,1.159,0,0,1,1.159-1.159h2.379v-4.28H27.7Zm1.219,2.318H24.162v4.757h4.757Zm37.025,0H61.187v4.757h4.757Zm-18.513,0H42.674v4.757h4.757Zm1.183-46.527H34.224V43.334H55.881V20.718H50.365a1.719,1.719,0,0,1-1.751-1.658Zm2.318,1.3V18.4h2.985Zm-3.5,7.926a7.584,7.584,0,0,1,1.07.444l.7-.309a1.159,1.159,0,0,1,1.291.24l1.443,1.444a1.159,1.159,0,0,1,.24,1.289l-.308.7a7.57,7.57,0,0,1,.445,1.074l.709.273a1.159,1.159,0,0,1,.743,1.082V32.08a1.159,1.159,0,0,1-.743,1.082l-.71.273a7.625,7.625,0,0,1-.444,1.07l.309.7a1.159,1.159,0,0,1-.24,1.289l-1.443,1.443a1.159,1.159,0,0,1-1.289.24l-.7-.308a7.575,7.575,0,0,1-1.072.444l-.273.709a1.159,1.159,0,0,1-1.082.743H44.033a1.159,1.159,0,0,1-1.082-.743l-.273-.709a7.625,7.625,0,0,1-1.073-.445l-.7.309a1.159,1.159,0,0,1-1.289-.24l-1.443-1.443a1.159,1.159,0,0,1-.24-1.291l.309-.7a7.606,7.606,0,0,1-.444-1.071l-.711-.274a1.159,1.159,0,0,1-.743-1.082V30.038a1.159,1.159,0,0,1,.743-1.082l.71-.273a7.6,7.6,0,0,1,.445-1.072l-.309-.7a1.159,1.159,0,0,1,.24-1.291l1.443-1.444a1.159,1.159,0,0,1,1.291-.24l.7.309a7.589,7.589,0,0,1,1.071-.444l.275-.712a1.159,1.159,0,0,1,1.082-.742h2.042a1.159,1.159,0,0,1,1.082.744ZM45.474,25.18l-.2-.509h-.45l-.2.51a1.159,1.159,0,0,1-.813.71,5.262,5.262,0,0,0-1.545.64,1.16,1.16,0,0,1-1.079.072l-.5-.221-.317.317.221.5a1.16,1.16,0,0,1-.072,1.079,5.31,5.31,0,0,0-.643,1.55,1.16,1.16,0,0,1-.711.811l-.507.2v.45l.507.2a1.159,1.159,0,0,1,.711.811,5.3,5.3,0,0,0,.642,1.547,1.16,1.16,0,0,1,.073,1.081l-.221.5.318.318.5-.221a1.159,1.159,0,0,1,1.075.071,5.307,5.307,0,0,0,1.549.642,1.159,1.159,0,0,1,.815.712l.2.507h.45l.2-.507a1.159,1.159,0,0,1,.814-.711,5.237,5.237,0,0,0,1.544-.639,1.159,1.159,0,0,1,1.079-.074l.5.221.319-.319-.221-.5a1.159,1.159,0,0,1,.071-1.075,5.322,5.322,0,0,0,.642-1.548,1.159,1.159,0,0,1,.711-.814l.507-.2v-.45l-.507-.2a1.16,1.16,0,0,1-.712-.815,5.25,5.25,0,0,0-.64-1.547,1.159,1.159,0,0,1-.073-1.078l.221-.5-.318-.318-.5.221a1.16,1.16,0,0,1-1.079-.072,5.262,5.262,0,0,0-1.545-.64,1.159,1.159,0,0,1-.814-.712Zm-.421,1.158a4.722,4.722,0,1,1-4.72,4.721A4.721,4.721,0,0,1,45.053,26.337Zm0,2.318a2.4,2.4,0,1,0,2.4,2.4A2.4,2.4,0,0,0,45.053,28.656ZM76.567,55.619l.066-.047a1.159,1.159,0,1,1,1.352,1.884l-3.561,2.555a1.16,1.16,0,0,1-1.154.114l-.079-.04a1.16,1.16,0,0,1-.6-.9l-.433-4.361a1.159,1.159,0,0,1,2.307-.229v.013A33.625,33.625,0,0,0,27.343,13.151,1.159,1.159,0,1,1,26.265,11.1a35.948,35.948,0,0,1,50.3,44.521ZM9.354,30.126l-.177.122A1.159,1.159,0,1,1,7.86,28.341l3.606-2.49a1.16,1.16,0,0,1,1.155-.093l.058.029a1.159,1.159,0,0,1,.6.924l.353,4.369a1.159,1.159,0,0,1-2.288.341,33.625,33.625,0,0,0,47.184,41.3,1.159,1.159,0,1,1,1.078,2.053A35.947,35.947,0,0,1,9.354,30.126Z" transform="translate(-7 -7)" fill-rule="evenodd"/>
      </g>
    </g>
  </g>
</svg>
