<svg xmlns="http://www.w3.org/2000/svg" xmlns:xlink="http://www.w3.org/1999/xlink" width="113" height="113" viewBox="0 0 113 113">
  <defs>
    <filter id="Trazado_982547" x="0" y="0" width="113" height="113" filterUnits="userSpaceOnUse">
      <feOffset dy="3" input="SourceAlpha"/>
      <feGaussianBlur stdDeviation="3" result="blur"/>
      <feFlood flood-opacity="0.161"/>
      <feComposite operator="in" in2="blur"/>
      <feComposite in="SourceGraphic"/>
    </filter>
  </defs>
  <g id="Grupo_1209339" data-name="Grupo 1209339" transform="translate(-1216.127 -6757.771)">
    <g id="Grupo_1209092" data-name="Grupo 1209092" transform="translate(0.127 5520.264)">
      <g id="Grupo_1208680" data-name="Grupo 1208680" transform="translate(0 -740.122)">
        <g id="Grupo_1208145" data-name="Grupo 1208145" transform="translate(0 -3923.371)">
          <g id="Grupo_1202435" data-name="Grupo 1202435" transform="translate(-0.56 1255.486)">
            <g id="Grupo_1202052" data-name="Grupo 1202052" transform="translate(1225.561 4651.514)">
              <g id="Grupo_1172010" data-name="Grupo 1172010" transform="translate(0)">
                <g id="Grupo_1171046" data-name="Grupo 1171046">
                  <g id="Grupo_1148525" data-name="Grupo 1148525">
                    <g transform="matrix(1, 0, 0, 1, -9, -6)" filter="url(#Trazado_982547)">
                      <g id="Trazado_982547-2" data-name="Trazado 982547" transform="translate(9 6)" fill="#fdf4ce">
                        <path d="M 47.5 93.5 C 41.28937149047852 93.5 35.26533508300781 92.28397369384766 29.59518623352051 89.88570404052734 C 24.11771965026855 87.56893157958984 19.19813346862793 84.25196075439453 14.97309303283691 80.02691650390625 C 10.74804019927979 75.80186462402344 7.431066513061523 70.88229370117188 5.114293098449707 65.40481567382812 C 2.716026782989502 59.73468017578125 1.5 53.71062850952148 1.5 47.5 C 1.5 41.28937149047852 2.716026782989502 35.26533508300781 5.114293098449707 29.59518623352051 C 7.431066513061523 24.11771965026855 10.74804019927979 19.19813346862793 14.97309303283691 14.97309303283691 C 19.19813346862793 10.74804019927979 24.11771965026855 7.431066513061523 29.59518623352051 5.114293098449707 C 35.26533508300781 2.716026782989502 41.28937149047852 1.5 47.5 1.5 C 53.71062850952148 1.5 59.73468017578125 2.716026782989502 65.40481567382812 5.114293098449707 C 70.88229370117188 7.431066513061523 75.80186462402344 10.74804019927979 80.02691650390625 14.97309303283691 C 84.25196075439453 19.19813346862793 87.56893157958984 24.11771965026855 89.88570404052734 29.59518623352051 C 92.28397369384766 35.26533508300781 93.5 41.28937149047852 93.5 47.5 C 93.5 53.71062850952148 92.28397369384766 59.73468017578125 89.88570404052734 65.40481567382812 C 87.56893157958984 70.88229370117188 84.25196075439453 75.80186462402344 80.02691650390625 80.02691650390625 C 75.80186462402344 84.25196075439453 70.88229370117188 87.56893157958984 65.40481567382812 89.88570404052734 C 59.73468017578125 92.28397369384766 53.71062850952148 93.5 47.5 93.5 Z" stroke="none"/>
                        <path d="M 47.5 3 C 41.49121475219727 3 35.66376876831055 4.176155090332031 30.17950439453125 6.495796203613281 C 24.88084411621094 8.736953735351562 20.12152099609375 11.94598388671875 16.03375244140625 16.03375244140625 C 11.94598388671875 20.12152099609375 8.736953735351562 24.88084411621094 6.495796203613281 30.17950439453125 C 4.176155090332031 35.66376876831055 3 41.49121475219727 3 47.5 C 3 53.50878524780273 4.176155090332031 59.33623123168945 6.495796203613281 64.82049560546875 C 8.736953735351562 70.11915588378906 11.94598388671875 74.87847900390625 16.03375244140625 78.96624755859375 C 20.12152099609375 83.05401611328125 24.88084411621094 86.26304626464844 30.17950439453125 88.50419616699219 C 35.66376876831055 90.82384490966797 41.49121475219727 92 47.5 92 C 53.50878524780273 92 59.33623123168945 90.82384490966797 64.82049560546875 88.50419616699219 C 70.11915588378906 86.26304626464844 74.87847900390625 83.05401611328125 78.96624755859375 78.96624755859375 C 83.05401611328125 74.87847900390625 86.26304626464844 70.11915588378906 88.50419616699219 64.82049560546875 C 90.82384490966797 59.33623123168945 92 53.50878524780273 92 47.5 C 92 41.49121475219727 90.82384490966797 35.66376876831055 88.50419616699219 30.17950439453125 C 86.26304626464844 24.88084411621094 83.05401611328125 20.12152099609375 78.96624755859375 16.03375244140625 C 74.87847900390625 11.94598388671875 70.11915588378906 8.736953735351562 64.82049560546875 6.495796203613281 C 59.33623123168945 4.176155090332031 53.50878524780273 3 47.5 3 M 47.5 0 C 73.7335205078125 0 95 21.2664794921875 95 47.5 C 95 73.7335205078125 73.7335205078125 95 47.5 95 C 21.2664794921875 95 0 73.7335205078125 0 47.5 C 0 21.2664794921875 21.2664794921875 0 47.5 0 Z" stroke="none" fill="#866d08"/>
                      </g>
                    </g>
                  </g>
                </g>
              </g>
            </g>
          </g>
        </g>
      </g>
    </g>
    <g id="evaluation_9640769_1_" data-name="evaluation_9640769 (1)" transform="translate(1185.486 6765.829)">
      <g id="Grupo_1209338" data-name="Grupo 1209338" transform="translate(61.862 14.961)">
        <path id="Trazado_1055804" data-name="Trazado 1055804" d="M67.9,76.282h39.764V21H76.614L67.9,29.714Z" transform="translate(-67.9 -21)" fill="#e6e6e6" fill-rule="evenodd"/>
        <path id="Trazado_1055805" data-name="Trazado 1055805" d="M149.588,105.4h2.983v1.952a7.855,7.855,0,0,1,2.983,1.237l1.374-1.374,2.117,2.117-1.374,1.374a7.855,7.855,0,0,1,1.237,2.983h1.952v2.983h-1.952a7.855,7.855,0,0,1-1.237,2.983l1.374,1.374-2.117,2.117-1.374-1.374a7.855,7.855,0,0,1-2.983,1.237v1.938h-2.983v-1.938a7.856,7.856,0,0,1-2.983-1.237l-1.374,1.374-2.117-2.117,1.374-1.374a7.856,7.856,0,0,1-1.237-2.983H141.3v-2.983h1.952a7.855,7.855,0,0,1,1.237-2.983l-1.374-1.374,2.117-2.117,1.374,1.374a7.855,7.855,0,0,1,2.983-1.237Z" transform="translate(-131.211 -93.799)" fill="#ffcd05" fill-rule="evenodd"/>
        <path id="Trazado_1055806" data-name="Trazado 1055806" d="M185.933,145.7a4.233,4.233,0,1,1-4.233,4.233A4.235,4.235,0,0,1,185.933,145.7Z" transform="translate(-166.058 -128.56)" fill="#cc3737" fill-rule="evenodd"/>
        <path id="Trazado_1055807" data-name="Trazado 1055807" d="M290.611,209.1a11.954,11.954,0,1,0-10.391,20.246v6.185H284.1v-6.185a11.834,11.834,0,0,0,6.515-3.34A11.971,11.971,0,0,0,290.611,209.1Z" transform="translate(-242.394 -180.227)" fill="#cc3737" fill-rule="evenodd"/>
        <path id="Trazado_1055808" data-name="Trazado 1055808" d="M309.713,233.045a8.533,8.533,0,1,0,0,12.068A8.545,8.545,0,0,0,309.713,233.045Z" transform="translate(-263.915 -201.748)" fill="#e6e6e6" fill-rule="evenodd"/>
        <path id="Trazado_1055809" data-name="Trazado 1055809" d="M339.213,408.2h-3.931a1.191,1.191,0,0,0-1.182,1.182v9.03a1.191,1.191,0,0,0,1.182,1.182h3.931a1.191,1.191,0,0,0,1.182-1.182v-9.03A1.191,1.191,0,0,0,339.213,408.2Z" transform="translate(-297.511 -354.98)" fill="#cc3737" fill-rule="evenodd"/>
        <path id="Trazado_1055810" data-name="Trazado 1055810" d="M108.1,356.2h4.288v4.288H108.1Z" transform="translate(-102.575 -310.127)" fill="#fcb13b" fill-rule="evenodd"/>
        <path id="Trazado_1055811" data-name="Trazado 1055811" d="M108.1,295.3h4.288v4.288H108.1Z" transform="translate(-102.575 -257.598)" fill="#fcb13b" fill-rule="evenodd"/>
      </g>
      <path id="Trazado_1055812" data-name="Trazado 1055812" d="M67.388,51.7h4.288a.956.956,0,0,1,.962.962v4.288a.956.956,0,0,1-.962.962H67.388a.956.956,0,0,1-.962-.962V52.664A.965.965,0,0,1,67.388,51.7Zm3.326,1.924H68.35V55.99h2.364Zm-3.326,6.446h4.288a.956.956,0,0,1,.962.962v4.288a.956.956,0,0,1-.962.962H67.388a.956.956,0,0,1-.962-.962V61.034A.956.956,0,0,1,67.388,60.072ZM70.714,62H68.35v2.364h2.364Zm32.85,7.147H99.647a.217.217,0,0,0-.22.22v9.03a.217.217,0,0,0,.22.22h3.917a.217.217,0,0,0,.22-.22v-9.03A.226.226,0,0,0,103.564,69.144Zm-2.914-1.924H102.6V64.086a.97.97,0,0,1,.88-.962,10.543,10.543,0,0,0,3.175-1.058,11.013,11.013,0,1,0-6.817,1.058.959.959,0,0,1,.8.948v3.148Zm3.862.234a2.131,2.131,0,0,1,1.182,1.911v9.03a2.147,2.147,0,0,1-2.144,2.144H99.633a2.147,2.147,0,0,1-2.144-2.144V71.219H61.862a.956.956,0,0,1-.962-.962V23.566A.954.954,0,0,1,61.175,23l8.742-8.728a.963.963,0,0,1,.66-.275h31.036a.956.956,0,0,1,.962.962V39.414a12.917,12.917,0,0,1,1.938,25.469ZM97.5,69.281a2.121,2.121,0,0,1,1.223-1.856V64.869a12.913,12.913,0,0,1-9.676-15.545,14.915,14.915,0,0,1-12.563.948l.082.151a.963.963,0,0,1-1.691.921L73.3,48.5a.956.956,0,0,1,.921-1.416l3.2.069a.956.956,0,0,1,.646,1.649,13.134,13.134,0,0,0,5.058.454,12.832,12.832,0,0,0,7.134-3.12,12.975,12.975,0,0,1,2.213-2.955c.206-.206.426-.412.646-.6a12.988,12.988,0,0,0-.962-13.924.966.966,0,0,1,.206-1.347.976.976,0,0,1,1.347.192,14.953,14.953,0,0,1,2.282,13.168,12.981,12.981,0,0,1,4.66-1.251V15.924H71.538v7.766a.956.956,0,0,1-.962.962H62.824V69.295H97.5Zm9.47-22.335a7.571,7.571,0,1,0,0,10.707A7.574,7.574,0,0,0,106.973,46.946Zm1.361-1.361a9.5,9.5,0,1,1-13.429,0,9.49,9.49,0,0,1,13.429,0ZM75.8,66.285a.962.962,0,1,1,0-1.924H87.675a.962.962,0,1,1,0,1.924Zm0-8.357A.962.962,0,1,1,75.8,56h6.79a.962.962,0,0,1,0,1.924Zm11.12-35.682a.966.966,0,0,1,1.691-.935l1.581,2.859a.956.956,0,0,1-.921,1.416l-3.2-.069a.958.958,0,0,1-.646-1.649A12.988,12.988,0,0,0,71.3,44.032a.962.962,0,1,1-1.539,1.155A14.9,14.9,0,0,1,87.015,22.4Zm-5.182,8.893a5.2,5.2,0,1,1-5.2,5.2A5.191,5.191,0,0,1,81.737,31.139Zm2.323,2.886a3.274,3.274,0,1,0,0,4.618A3.28,3.28,0,0,0,84.06,34.026ZM80.239,25.6h2.983a.956.956,0,0,1,.962.962v1.182a9.074,9.074,0,0,1,1.883.783l.838-.838a.971.971,0,0,1,1.361,0l2.117,2.117a.971.971,0,0,1,0,1.361l-.838.838a9.074,9.074,0,0,1,.783,1.883H91.51a.956.956,0,0,1,.962.962v3a.97.97,0,0,1-1.045.962h-1.1a9.073,9.073,0,0,1-.783,1.883l.838.838a.971.971,0,0,1,0,1.361l-2.117,2.117a.971.971,0,0,1-1.361,0l-.838-.838a9.073,9.073,0,0,1-1.883.783v1.2a.956.956,0,0,1-.962.962H80.239a.956.956,0,0,1-.962-.962V44.925l-.962-.33a8.056,8.056,0,0,1-.921-.44l-.838.838a.971.971,0,0,1-1.361,0l-2.117-2.117a.971.971,0,0,1,0-1.361l.838-.838a9.073,9.073,0,0,1-.783-1.883H71.951a.956.956,0,0,1-.962-.962v-3a.956.956,0,0,1,.962-.962h1.182a9.394,9.394,0,0,1,.783-1.883l-.838-.838a.971.971,0,0,1,0-1.361l2.117-2.117a.971.971,0,0,1,1.361,0l.838.838a9.073,9.073,0,0,1,1.883-.783V26.548A.962.962,0,0,1,80.239,25.6Zm2.034,1.924H81.215v.99a.968.968,0,0,1-.783.948,7.07,7.07,0,0,0-2.57,1.058.964.964,0,0,1-1.265-.082l-.7-.687-.756.756.7.7a.976.976,0,0,1,.124,1.223,6.858,6.858,0,0,0-1.072,2.557.967.967,0,0,1-.962.852h-.976v1.072h.976a.982.982,0,0,1,.948.783,6.623,6.623,0,0,0,1.058,2.57.949.949,0,0,1-.082,1.265l-.7.687.756.756.7-.7a.974.974,0,0,1,1.223-.11,6.955,6.955,0,0,0,1.265.673,8,8,0,0,0,1.306.4.964.964,0,0,1,.852.948v.99h1.058v-.99a.968.968,0,0,1,.783-.948,7.071,7.071,0,0,0,2.57-1.058.964.964,0,0,1,1.265.082l.7.7.756-.756-.7-.687a.957.957,0,0,1-.124-1.223,7.006,7.006,0,0,0,1.086-2.625.973.973,0,0,1,.948-.783h.99V35.812H89.6a.982.982,0,0,1-.948-.783,7.071,7.071,0,0,0-1.058-2.57.965.965,0,0,1,.082-1.265l.7-.7-.756-.756-.7.7a.976.976,0,0,1-1.223.11,6.765,6.765,0,0,0-2.557-1.072.954.954,0,0,1-.852-.948v-1Zm-18.088-4.8h5.443V17.284Z" transform="translate(0)"/>
    </g>
  </g>
</svg>
