<svg xmlns="http://www.w3.org/2000/svg" xmlns:xlink="http://www.w3.org/1999/xlink" width="101.234" height="101.234" viewBox="0 0 101.234 101.234">
  <defs>
    <filter id="Trazado_904820" x="0" y="0" width="101.234" height="101.234" filterUnits="userSpaceOnUse">
      <feOffset dy="3" input="SourceAlpha"/>
      <feGaussianBlur stdDeviation="3" result="blur"/>
      <feFlood flood-opacity="0.161"/>
      <feComposite operator="in" in2="blur"/>
      <feComposite in="SourceGraphic"/>
    </filter>
  </defs>
  <g id="Grupo_1209468" data-name="Grupo 1209468" transform="translate(-172.766 -7119.995)">
    <g id="Grupo_1209094" data-name="Grupo 1209094" transform="translate(181.766 7125.995)">
      <g id="Grupo_1174741" data-name="Grupo 1174741" transform="translate(0 0)">
        <g id="Grupo_1173585" data-name="Grupo 1173585">
          <g id="Grupo_1173428" data-name="Grupo 1173428">
            <g id="Grupo_1171958" data-name="Grupo 1171958">
              <g id="Grupo_1167341" data-name="Grupo 1167341">
                <g id="Grupo_1166792" data-name="Grupo 1166792">
                  <g transform="matrix(1, 0, 0, 1, -9, -6)" filter="url(#Trazado_904820)">
                    <g id="Trazado_904820-2" data-name="Trazado 904820" transform="translate(9 6)" fill="#fef9e5">
                      <path d="M 41.61681747436523 81.73366546630859 C 36.20041656494141 81.73366546630859 30.94684028625488 80.67319488525391 26.00200653076172 78.58170318603516 C 21.22509956359863 76.56124114990234 16.93468856811523 73.66845703125 13.24994659423828 69.98371887207031 C 9.565205574035645 66.29897308349609 6.672429084777832 62.00854873657227 4.651970386505127 57.23164367675781 C 2.560476303100586 52.28680801391602 1.500005722045898 47.03323364257812 1.500005722045898 41.6168327331543 C 1.500005722045898 36.20043182373047 2.560476303100586 30.94684410095215 4.651970386505127 26.00200843811035 C 6.672429084777832 21.2251033782959 9.565205574035645 16.9346923828125 13.24994659423828 13.24995040893555 C 16.93468856811523 9.565196990966797 21.22509956359863 6.672420978546143 26.00200653076172 4.651962280273438 C 30.94684028625488 2.560467958450317 36.20041656494141 1.499997496604919 41.61681747436523 1.499997496604919 C 47.03321838378906 1.499997496604919 52.28679275512695 2.560467958450317 57.23162841796875 4.651962280273438 C 62.0085334777832 6.672420978546143 66.2989501953125 9.565196990966797 69.98368835449219 13.24995040893555 C 73.66844177246094 16.9346923828125 76.56121826171875 21.2251033782959 78.58167266845703 26.00200843811035 C 80.67317199707031 30.94684410095215 81.733642578125 36.20043182373047 81.733642578125 41.6168327331543 C 81.733642578125 47.03323364257812 80.67317199707031 52.28680801391602 78.58167266845703 57.23164367675781 C 76.56121826171875 62.00854873657227 73.66844177246094 66.29897308349609 69.98368835449219 69.98371887207031 C 66.2989501953125 73.66845703125 62.0085334777832 76.56124114990234 57.23162841796875 78.58170318603516 C 52.28679275512695 80.67319488525391 47.03321838378906 81.73366546630859 41.61681747436523 81.73366546630859 Z" stroke="none"/>
                      <path d="M 41.61681747436523 2.999992370605469 C 36.40225601196289 2.999992370605469 31.34527206420898 4.020606994628906 26.58633804321289 6.033462524414062 C 21.98823165893555 7.978302001953125 17.85807037353516 10.76312255859375 14.31060791015625 14.31060791015625 C 10.76313781738281 17.85807037353516 7.978309631347656 21.98823165893555 6.033470153808594 26.58633804321289 C 4.020606994628906 31.34528732299805 3.000007629394531 36.40227127075195 3.000007629394531 41.6168327331543 C 3.000007629394531 46.83139419555664 4.020606994628906 51.88838195800781 6.033470153808594 56.64732360839844 C 7.978309631347656 61.24542999267578 10.76313781738281 65.37557983398438 14.31060791015625 68.92304992675781 C 17.85807037353516 72.47052764892578 21.98823165893555 75.25535583496094 26.58633804321289 77.2001953125 C 31.34527206420898 79.21304321289062 36.40225601196289 80.23365783691406 41.61681747436523 80.23365783691406 C 46.83137893676758 80.23365783691406 51.88836669921875 79.21304321289062 56.64729690551758 77.2001953125 C 61.24540328979492 75.25535583496094 65.37556457519531 72.47052764892578 68.92303466796875 68.92304992675781 C 72.47049713134766 65.37557983398438 75.25532531738281 61.24542999267578 77.20016479492188 56.64732360839844 C 79.21302795410156 51.88838195800781 80.23362731933594 46.83139419555664 80.23362731933594 41.6168327331543 C 80.23362731933594 36.40227127075195 79.21302795410156 31.34528732299805 77.20016479492188 26.58633804321289 C 75.25532531738281 21.98823165893555 72.47049713134766 17.85807037353516 68.92303466796875 14.31060791015625 C 65.37556457519531 10.76312255859375 61.24540328979492 7.978302001953125 56.64729690551758 6.033462524414062 C 51.88836669921875 4.020606994628906 46.83137893676758 2.999992370605469 41.61681747436523 2.999992370605469 M 41.61681747436523 -7.62939453125e-06 C 64.60115051269531 -7.62939453125e-06 83.23362731933594 18.63248443603516 83.23362731933594 41.6168327331543 C 83.23362731933594 64.60116577148438 64.60115051269531 83.23365783691406 41.61681747436523 83.23365783691406 C 18.63248443603516 83.23365783691406 7.62939453125e-06 64.60116577148438 7.62939453125e-06 41.6168327331543 C 7.62939453125e-06 18.63248443603516 18.63248443603516 -7.62939453125e-06 41.61681747436523 -7.62939453125e-06 Z" stroke="none" fill="#866d08"/>
                    </g>
                  </g>
                </g>
              </g>
            </g>
          </g>
        </g>
      </g>
    </g>
    <g id="synchronize_2143805" transform="translate(195.253 7137.049)">
      <path id="Trazado_1055813" data-name="Trazado 1055813" d="M52.667,14.648A2.651,2.651,0,0,0,50.019,12H7.648A2.651,2.651,0,0,0,5,14.648V46.426a.883.883,0,0,0,.883.883H22.446l1.579.79a.885.885,0,0,0,.395.093h8.827a.885.885,0,0,0,.395-.093l1.579-.79H51.784a.883.883,0,0,0,.883-.883Z" transform="translate(-0.586 -0.704)" fill="#c8c6cc"/>
      <path id="Trazado_1055814" data-name="Trazado 1055814" d="M48.722,16H9.883A.883.883,0,0,0,9,16.883V43.364a.883.883,0,0,0,.883.883h38.84a.883.883,0,0,0,.883-.883V16.883A.883.883,0,0,0,48.722,16Z" transform="translate(-1.056 -1.173)" fill="#fff"/>
      <ellipse id="Elipse_13576" data-name="Elipse 13576" cx="3.5" cy="4" rx="3.5" ry="4" transform="translate(13.247 24.951)" fill="#ffb74f"/>
      <path id="Trazado_1055815" data-name="Trazado 1055815" d="M24.71,30.648H21.936a3.531,3.531,0,1,0,0,1.765H24.71a.883.883,0,1,0,0-1.765ZM18.531,33.3A1.765,1.765,0,1,1,20.3,31.531,1.767,1.767,0,0,1,18.531,33.3Z" transform="translate(-1.759 -2.58)" fill="#8b8992"/>
      <path id="Trazado_1055816" data-name="Trazado 1055816" d="M48.722,44.247H9.883A.883.883,0,0,1,9,43.364V16.883A.883.883,0,0,1,9.883,16h38.84a.883.883,0,0,1,.883.883V43.364A.883.883,0,0,1,48.722,44.247ZM10.765,42.482H47.84V17.765H10.765Z" transform="translate(-1.056 -1.173)" fill="#8b8992"/>
      <path id="Trazado_1055817" data-name="Trazado 1055817" d="M46.185,6.883A.883.883,0,0,0,45.3,6H30.3l-.883.883v3.531H25.883L25,11.3V36.9a.883.883,0,0,0,.883.883H45.3a.883.883,0,0,0,.883-.883Z" transform="translate(-2.932)" fill="#f0e7dc"/>
      <path id="Trazado_1055818" data-name="Trazado 1055818" d="M55.611,50H34.426a.885.885,0,0,0-.395.093l-1.579.79H24.042l-1.579-.79A.885.885,0,0,0,22.068,50H.883A.883.883,0,0,0,0,50.883v3.531a2.651,2.651,0,0,0,2.648,2.648h51.2a2.651,2.651,0,0,0,2.648-2.648V50.883A.883.883,0,0,0,55.611,50Z" transform="translate(0 -5.16)" fill="#8b8992"/>
      <circle id="Elipse_13577" data-name="Elipse 13577" cx="1" cy="1" r="1" transform="translate(11.247 17.951)" fill="#ff3c62"/>
      <circle id="Elipse_13578" data-name="Elipse 13578" cx="1" cy="1" r="1" transform="translate(18.247 17.951)" fill="#6dd7a7"/>
      <circle id="Elipse_13579" data-name="Elipse 13579" cx="1" cy="1" r="1" transform="translate(15.247 17.951)" fill="#ffb74f"/>
      <path id="Trazado_1055819" data-name="Trazado 1055819" d="M42.386,25.034a.848.848,0,0,1-.155-.014A.882.882,0,0,1,41.516,24a5.3,5.3,0,0,0-7.392-5.765l1.1.221a.883.883,0,1,1-.347,1.731l-3.121-.624a.882.882,0,0,1-.451-1.489,7.063,7.063,0,0,1,11.947,6.236.883.883,0,0,1-.869.728Z" transform="translate(-3.641 -1.173)" fill="#ffb74f"/>
      <path id="Trazado_1055820" data-name="Trazado 1055820" d="M36.062,30.8a7.063,7.063,0,0,1-6.952-8.306.883.883,0,0,1,1.738.31,5.3,5.3,0,0,0,7.392,5.765l-1.1-.221a.883.883,0,1,1,.347-1.731l3.121.624a.882.882,0,0,1,.451,1.489A7.016,7.016,0,0,1,36.062,30.8Z" transform="translate(-3.401 -1.849)" fill="#ffb74f"/>
      <path id="Trazado_1055821" data-name="Trazado 1055821" d="M39.944,35.765H32.883a.883.883,0,1,1,0-1.765h7.062a.883.883,0,0,1,0,1.765Z" transform="translate(-3.753 -3.284)" fill="#8b8992"/>
      <path id="Trazado_1055822" data-name="Trazado 1055822" d="M30.3,6,25,11.3h4.414a.883.883,0,0,0,.883-.883Z" transform="translate(-2.932)" fill="#c8ad90"/>
      <g id="Grupo_1209340" data-name="Grupo 1209340" transform="translate(0 6)">
        <path id="Trazado_1055823" data-name="Trazado 1055823" d="M55.611,44.84H52.08v-30.9A2.651,2.651,0,0,0,49.432,11.3H43.253V6.883A.883.883,0,0,0,42.37,6H27.364c-.019,0-.034.01-.051.011a.854.854,0,0,0-.24.049c-.026.01-.052.016-.077.027a.866.866,0,0,0-.254.171h0l-4.413,4.413v0a.878.878,0,0,0-.17.252,1.169,1.169,0,0,0-.076.316.407.407,0,0,0-.012.055H7.062a2.651,2.651,0,0,0-2.648,2.648v30.9H.883A.883.883,0,0,0,0,45.722v3.531A2.651,2.651,0,0,0,2.648,51.9h51.2a2.651,2.651,0,0,0,2.648-2.648V45.722A.883.883,0,0,0,55.611,44.84ZM22.068,28.068H20.177a3.531,3.531,0,1,0,0,1.765h1.891V36.9a.883.883,0,0,0,.883.883H42.37a.883.883,0,0,0,.883-.883v-20.3h3.531V41.309H9.71V16.593H22.068Zm-3.531.883a1.765,1.765,0,1,1-1.765-1.765A1.767,1.767,0,0,1,18.537,28.951Zm22.951,7.062H23.833V12.179h3.531a.883.883,0,0,0,.883-.883V7.765H41.488Zm-15.006-27v1.4h-1.4Zm-20.3,4.931a.884.884,0,0,1,.883-.883H22.068v1.765H8.827a.883.883,0,0,0-.883.883V42.191a.883.883,0,0,0,.883.883h38.84a.883.883,0,0,0,.883-.883V15.71a.883.883,0,0,0-.883-.883H43.253V13.062h6.179a.884.884,0,0,1,.883.883v30.9H34.426a.885.885,0,0,0-.395.093l-1.579.79H24.042l-1.579-.79a.885.885,0,0,0-.395-.093H6.179Zm48.55,35.309a.884.884,0,0,1-.883.883H2.648a.884.884,0,0,1-.883-.883V46.605H21.86l1.579.79a.885.885,0,0,0,.395.093h8.827a.885.885,0,0,0,.395-.093l1.579-.79H54.729Z" transform="translate(0 -6)" fill="#16202d"/>
        <path id="Trazado_1055824" data-name="Trazado 1055824" d="M31.309,18.068a.882.882,0,0,0,.451,1.489l3.121.624a.883.883,0,1,0,.347-1.731l-1.1-.221A5.3,5.3,0,0,1,41.516,24a.883.883,0,0,0,.714,1.024.848.848,0,0,0,.155.014.882.882,0,0,0,.868-.728,7.062,7.062,0,0,0-11.945-6.237Z" transform="translate(-3.642 -7.173)" fill="#16202d"/>
        <path id="Trazado_1055825" data-name="Trazado 1055825" d="M40.6,27.241l-3.121-.624a.883.883,0,1,0-.347,1.731l1.1.221A5.3,5.3,0,0,1,30.848,22.8a.883.883,0,0,0-1.738-.31,7.062,7.062,0,0,0,11.946,6.237.883.883,0,0,0-.451-1.49Z" transform="translate(-3.401 -7.849)" fill="#16202d"/>
        <path id="Trazado_1055826" data-name="Trazado 1055826" d="M39.944,34H32.883a.883.883,0,1,0,0,1.765h7.062a.883.883,0,0,0,0-1.765Z" transform="translate(-3.753 -9.284)" fill="#16202d"/>
        <circle id="Elipse_13580" data-name="Elipse 13580" cx="1" cy="1" r="1" transform="translate(11.247 11.951)" fill="#16202d"/>
        <circle id="Elipse_13581" data-name="Elipse 13581" cx="1" cy="1" r="1" transform="translate(18.247 11.951)" fill="#16202d"/>
        <circle id="Elipse_13582" data-name="Elipse 13582" cx="1" cy="1" r="1" transform="translate(15.247 11.951)" fill="#16202d"/>
      </g>
    </g>
  </g>
</svg>
