<svg xmlns="http://www.w3.org/2000/svg" xmlns:xlink="http://www.w3.org/1999/xlink" width="101.234" height="101.233" viewBox="0 0 101.234 101.233">
  <defs>
    <filter id="Trazado_904820" x="0" y="0" width="101.234" height="101.233" filterUnits="userSpaceOnUse">
      <feOffset dy="3" input="SourceAlpha"/>
      <feGaussianBlur stdDeviation="3" result="blur"/>
      <feFlood flood-opacity="0.161"/>
      <feComposite operator="in" in2="blur"/>
      <feComposite in="SourceGraphic"/>
    </filter>
  </defs>
  <g id="Grupo_1209341" data-name="Grupo 1209341" transform="translate(-172.766 -9204.251)">
    <g id="Grupo_1209155" data-name="Grupo 1209155" transform="translate(181.766 9210.251)">
      <g id="Grupo_1174741" data-name="Grupo 1174741" transform="translate(0 0)">
        <g id="Grupo_1173585" data-name="Grupo 1173585">
          <g id="Grupo_1173428" data-name="Grupo 1173428">
            <g id="Grupo_1171958" data-name="Grupo 1171958">
              <g id="Grupo_1167341" data-name="Grupo 1167341">
                <g id="Grupo_1166792" data-name="Grupo 1166792">
                  <g transform="matrix(1, 0, 0, 1, -9, -6)" filter="url(#Trazado_904820)">
                    <g id="Trazado_904820-2" data-name="Trazado 904820" transform="translate(9 6)" fill="#fef9e5">
                      <path d="M 41.61681747436523 81.73366546630859 C 36.20041656494141 81.73366546630859 30.94684028625488 80.67319488525391 26.00200653076172 78.58170318603516 C 21.22509956359863 76.56124114990234 16.93468856811523 73.66845703125 13.24994659423828 69.98371887207031 C 9.565205574035645 66.29897308349609 6.672429084777832 62.00854873657227 4.651970386505127 57.23164367675781 C 2.560476303100586 52.28680801391602 1.500005722045898 47.03323364257812 1.500005722045898 41.6168327331543 C 1.500005722045898 36.20043182373047 2.560476303100586 30.94684410095215 4.651970386505127 26.00200843811035 C 6.672429084777832 21.2251033782959 9.565205574035645 16.9346923828125 13.24994659423828 13.24995040893555 C 16.93468856811523 9.565196990966797 21.22509956359863 6.672420978546143 26.00200653076172 4.651962280273438 C 30.94684028625488 2.560467958450317 36.20041656494141 1.499997496604919 41.61681747436523 1.499997496604919 C 47.03321838378906 1.499997496604919 52.28679275512695 2.560467958450317 57.23162841796875 4.651962280273438 C 62.0085334777832 6.672420978546143 66.2989501953125 9.565196990966797 69.98368835449219 13.24995040893555 C 73.66844177246094 16.9346923828125 76.56121826171875 21.2251033782959 78.58167266845703 26.00200843811035 C 80.67317199707031 30.94684410095215 81.733642578125 36.20043182373047 81.733642578125 41.6168327331543 C 81.733642578125 47.03323364257812 80.67317199707031 52.28680801391602 78.58167266845703 57.23164367675781 C 76.56121826171875 62.00854873657227 73.66844177246094 66.29897308349609 69.98368835449219 69.98371887207031 C 66.2989501953125 73.66845703125 62.0085334777832 76.56124114990234 57.23162841796875 78.58170318603516 C 52.28679275512695 80.67319488525391 47.03321838378906 81.73366546630859 41.61681747436523 81.73366546630859 Z" stroke="none"/>
                      <path d="M 41.61681747436523 2.999992370605469 C 36.40225601196289 2.999992370605469 31.34527206420898 4.020606994628906 26.58633804321289 6.033462524414062 C 21.98823165893555 7.978302001953125 17.85807037353516 10.76312255859375 14.31060791015625 14.31060791015625 C 10.76313781738281 17.85807037353516 7.978309631347656 21.98823165893555 6.033470153808594 26.58633804321289 C 4.020606994628906 31.34528732299805 3.000007629394531 36.40227127075195 3.000007629394531 41.6168327331543 C 3.000007629394531 46.83139419555664 4.020606994628906 51.88838195800781 6.033470153808594 56.64732360839844 C 7.978309631347656 61.24542999267578 10.76313781738281 65.37557983398438 14.31060791015625 68.92304992675781 C 17.85807037353516 72.47052764892578 21.98823165893555 75.25535583496094 26.58633804321289 77.2001953125 C 31.34527206420898 79.21304321289062 36.40225601196289 80.23365783691406 41.61681747436523 80.23365783691406 C 46.83137893676758 80.23365783691406 51.88836669921875 79.21304321289062 56.64729690551758 77.2001953125 C 61.24540328979492 75.25535583496094 65.37556457519531 72.47052764892578 68.92303466796875 68.92304992675781 C 72.47049713134766 65.37557983398438 75.25532531738281 61.24542999267578 77.20016479492188 56.64732360839844 C 79.21302795410156 51.88838195800781 80.23362731933594 46.83139419555664 80.23362731933594 41.6168327331543 C 80.23362731933594 36.40227127075195 79.21302795410156 31.34528732299805 77.20016479492188 26.58633804321289 C 75.25532531738281 21.98823165893555 72.47049713134766 17.85807037353516 68.92303466796875 14.31060791015625 C 65.37556457519531 10.76312255859375 61.24540328979492 7.978302001953125 56.64729690551758 6.033462524414062 C 51.88836669921875 4.020606994628906 46.83137893676758 2.999992370605469 41.61681747436523 2.999992370605469 M 41.61681747436523 -7.62939453125e-06 C 64.60115051269531 -7.62939453125e-06 83.23362731933594 18.63248443603516 83.23362731933594 41.6168327331543 C 83.23362731933594 64.60116577148438 64.60115051269531 83.23365783691406 41.61681747436523 83.23365783691406 C 18.63248443603516 83.23365783691406 7.62939453125e-06 64.60116577148438 7.62939453125e-06 41.6168327331543 C 7.62939453125e-06 18.63248443603516 18.63248443603516 -7.62939453125e-06 41.61681747436523 -7.62939453125e-06 Z" stroke="none" fill="#866d08"/>
                    </g>
                  </g>
                </g>
              </g>
            </g>
          </g>
        </g>
      </g>
    </g>
    <g id="Layer_x0020_1" transform="translate(195.605 9037.388)">
      <path id="Trazado_1055827" data-name="Trazado 1055827" d="M509.9,496.146H485.651A.653.653,0,0,1,485,495.5V478.409a.651.651,0,1,1,1.3,0v16.436h23.6A.651.651,0,0,1,509.9,496.146Z" transform="translate(-469.215 -275.483)" fill-rule="evenodd"/>
      <path id="Trazado_1055828" data-name="Trazado 1055828" d="M440.775,480.864c-.456,0-1.074-.814-1.562-1.3-.716.716-1.4,1.725-2.018,1.107a.629.629,0,0,1,0-.911c2.343-2.343,1.692-2.343,4.036,0A.644.644,0,0,1,440.775,480.864Z" transform="translate(-422.777 -275.724)" fill-rule="evenodd"/>
      <path id="Trazado_1055829" data-name="Trazado 1055829" d="M1180.739,959.426a.659.659,0,0,1-.456-1.107l1.107-1.107c-.716-.716-1.725-1.4-1.107-2.018a.668.668,0,0,1,.944,0c2.311,2.311,2.311,1.692,0,4.036A.662.662,0,0,1,1180.739,959.426Z" transform="translate(-1141.684 -737.2)" fill-rule="evenodd"/>
      <path id="Trazado_1055830" data-name="Trazado 1055830" d="M586.971,679.237h-3.32a.653.653,0,0,1-.651-.651V667.651a.653.653,0,0,1,.651-.651h3.32a.653.653,0,0,1,.651.651v10.935A.653.653,0,0,1,586.971,679.237Zm-2.669-1.3h2.018V668.3H584.3Z" transform="translate(-564.026 -458.573)" fill-rule="evenodd"/>
      <path id="Trazado_1055831" data-name="Trazado 1055831" d="M799.971,723.74h-3.32a.653.653,0,0,1-.651-.651v-9.438a.653.653,0,0,1,.651-.651h3.32a.653.653,0,0,1,.651.651v9.438A.653.653,0,0,1,799.971,723.74Zm-2.669-1.3h2.018V714.3H797.3Z" transform="translate(-770.094 -503.076)" fill-rule="evenodd"/>
      <path id="Trazado_1055832" data-name="Trazado 1055832" d="M1012.971,781.787h-3.32a.653.653,0,0,1-.651-.651v-7.485a.653.653,0,0,1,.651-.651h3.32a.653.653,0,0,1,.651.651v7.485A.653.653,0,0,1,1012.971,781.787Zm-2.669-1.3h2.018V774.3H1010.3Z" transform="translate(-976.161 -561.124)" fill-rule="evenodd"/>
      <path id="Trazado_1055833" data-name="Trazado 1055833" d="M658.677,555.625l-15.687-4.2a.639.639,0,0,1,.325-1.237l15.524,4.133A.665.665,0,0,1,658.677,555.625Z" transform="translate(-621.608 -345.538)" fill-rule="evenodd"/>
      <path id="Trazado_1055834" data-name="Trazado 1055834" d="M643.786,523.184c-.618,0-1.042-1.139-1.562-2.05-.456-.781.846-1.237,1.953-1.888a.656.656,0,0,1,.651,1.139l-1.139.651c.423.781,1.139,1.627.423,2.05A.728.728,0,0,1,643.786,523.184Z" transform="translate(-621.232 -315.538)" fill-rule="evenodd"/>
      <path id="Trazado_1055835" data-name="Trazado 1055835" d="M151.2,227.14a.653.653,0,0,1-.651-.651v-30.1a2.091,2.091,0,0,0-2.05-2.083H106.352a2.07,2.07,0,0,0-2.05,2.083v30.1a.651.651,0,0,1-1.3,0v-30.1A3.375,3.375,0,0,1,106.352,193H148.5a3.4,3.4,0,0,1,3.352,3.385v30.1A.653.653,0,0,1,151.2,227.14Z" transform="translate(-99.648)" fill-rule="evenodd"/>
      <path id="Trazado_1055836" data-name="Trazado 1055836" d="M275.51,356.779a.653.653,0,0,1-.651-.651V328.3H237.3v27.827a.651.651,0,0,1-1.3,0V327.651a.653.653,0,0,1,.651-.651h38.86a.653.653,0,0,1,.651.651v28.477A.653.653,0,0,1,275.51,356.779Z" transform="translate(-228.319 -129.639)" fill-rule="evenodd"/>
      <path id="Trazado_1055837" data-name="Trazado 1055837" d="M52.659,1212.122H2.864A2.868,2.868,0,0,1,0,1209.258v-6.607A.653.653,0,0,1,.651,1202H23.465c.911,0,.651,1.367.651,2.7h7.323c0-1.334-.26-2.7.651-2.7H54.9a.653.653,0,0,1,.651.651v6.607A2.875,2.875,0,0,1,52.659,1212.122ZM1.3,1203.3v5.956a1.584,1.584,0,0,0,1.562,1.562H52.659a1.591,1.591,0,0,0,1.595-1.562V1203.3H32.741c0,1.3.26,2.7-.651,2.7H23.465c-.911,0-.651-1.4-.651-2.7Z" transform="translate(0 -976.161)" fill-rule="evenodd"/>
      <path id="Trazado_1055838" data-name="Trazado 1055838" d="M281.953,1300.938a1.969,1.969,0,0,1,0-3.938A1.969,1.969,0,0,1,281.953,1300.938Zm0-2.636a.667.667,0,0,0,0,1.334A.667.667,0,0,0,281.953,1298.3Z" transform="translate(-270.887 -1068.07)" fill-rule="evenodd"/>
      <path id="Trazado_1055839" data-name="Trazado 1055839" d="M101.678,1300.938a1.969,1.969,0,0,1,0-3.938A1.969,1.969,0,0,1,101.678,1300.938Zm0-2.636a.667.667,0,0,0,0,1.334A.667.667,0,0,0,101.678,1298.3Z" transform="translate(-96.504 -1068.07)" fill-rule="evenodd"/>
      <path id="Trazado_1055840" data-name="Trazado 1055840" d="M462.953,1300.938a1.969,1.969,0,0,1,0-3.938A1.969,1.969,0,0,1,462.953,1300.938Zm0-2.636a.667.667,0,0,0,0,1.334A.667.667,0,0,0,462.953,1298.3Z" transform="translate(-445.996 -1068.07)" fill-rule="evenodd"/>
      <path id="Trazado_1055841" data-name="Trazado 1055841" d="M55.654,1243.79a1.969,1.969,0,0,1,0,3.938A1.969,1.969,0,0,1,55.654,1243.79Zm-14.092,5.728H91.357a1.591,1.591,0,0,0,1.595-1.562V1242H71.439c0,1.3.26,2.7-.651,2.7H62.164c-.911,0-.651-1.4-.651-2.7H40v5.956A1.584,1.584,0,0,0,41.562,1249.518Zm8.2-5.728a1.969,1.969,0,0,1,0,3.938A1.969,1.969,0,0,1,49.764,1243.79Zm-5.891,0a1.969,1.969,0,0,1,0,3.938A1.969,1.969,0,0,1,43.873,1243.79Z" transform="translate(-38.698 -1014.86)" fill="#d3d6db" fill-rule="evenodd"/>
      <path id="Trazado_1055842" data-name="Trazado 1055842" d="M501.409,1338.334a.668.668,0,0,0,0-1.334A.668.668,0,0,0,501.409,1338.334Z" transform="translate(-484.453 -1106.768)" fill="#ffa725" fill-rule="evenodd"/>
      <path id="Trazado_1055843" data-name="Trazado 1055843" d="M320.409,1338.334a.667.667,0,0,0,0-1.334A.667.667,0,0,0,320.409,1338.334Z" transform="translate(-309.344 -1106.768)" fill="#25a753" fill-rule="evenodd"/>
      <path id="Trazado_1055844" data-name="Trazado 1055844" d="M139.409,1338.334a.667.667,0,0,0,0-1.334A.667.667,0,0,0,139.409,1338.334Z" transform="translate(-134.234 -1106.768)" fill="#ff7a1b" fill-rule="evenodd"/>
      <path id="Trazado_1055845" data-name="Trazado 1055845" d="M143,264.537h3.027V236.71a.653.653,0,0,1,.651-.651h38.86a.653.653,0,0,1,.651.651v27.827h3.059V235.083A2.091,2.091,0,0,0,187.2,233H145.05a2.07,2.07,0,0,0-2.05,2.083Z" transform="translate(-138.346 -38.698)" fill="#353f47" fill-rule="evenodd"/>
      <path id="Trazado_1055846" data-name="Trazado 1055846" d="M623,707v9.634h2.018V707Z" transform="translate(-602.724 -497.272)" fill="#25a753" fill-rule="evenodd"/>
      <path id="Trazado_1055847" data-name="Trazado 1055847" d="M836,753v8.136h2.018V753Z" transform="translate(-808.792 -541.774)" fill="#fc0" fill-rule="evenodd"/>
      <path id="Trazado_1055848" data-name="Trazado 1055848" d="M1049,813v6.184h2.018V813Z" transform="translate(-1014.86 -599.822)" fill="#fa3c48" fill-rule="evenodd"/>
      <path id="Trazado_1055849" data-name="Trazado 1055849" d="M296.894,389H283.453a.653.653,0,0,1-.651-.651V372.858c-1.367,1.4-1.855-.033-1.367-.488,2.343-2.343,1.692-2.376,4.036,0,.456.423.033,1.92-1.367.488V387.7h1.888V377.415a.653.653,0,0,1,.651-.651h3.32a.653.653,0,0,1,.651.651V387.7h2.311v-8.787a.653.653,0,0,1,.651-.651h3.32a.653.653,0,0,1,.651.651V387.7h2.311v-6.835a.653.653,0,0,1,.651-.651h3.32a.653.653,0,0,1,.651.651V387.7h1.562c-1.4-1.367.033-1.855.521-1.367,2.408,2.408,2.408,1.627,0,4.036-.618.586-1.562-.325-.944-.911l.456-.456ZM276,367v27.176h14.483c.911,0,.651,1.367.651,2.7h7.323c0-1.334-.26-2.7.651-2.7h14.45V367Zm12.042,7.03c-.683-.879,1.139-1.53,1.92-1.985a.656.656,0,0,1,.651,1.139l-.358.2,13.995,3.743a.665.665,0,0,1-.163,1.3l-14.157-3.775c.488.846.163,1.334-.358,1.334C288.986,375.983,288.563,374.941,288.042,374.03Z" transform="translate(-267.017 -168.337)" fill="#91c3fe" fill-rule="evenodd"/>
    </g>
  </g>
</svg>
