<svg xmlns="http://www.w3.org/2000/svg" xmlns:xlink="http://www.w3.org/1999/xlink" width="108" height="108" viewBox="0 0 108 108">
  <defs>
    <filter id="Trazado_904820" x="0" y="0" width="108" height="108" filterUnits="userSpaceOnUse">
      <feOffset dy="3" input="SourceAlpha"/>
      <feGaussianBlur stdDeviation="3" result="blur"/>
      <feFlood flood-opacity="0.161"/>
      <feComposite operator="in" in2="blur"/>
      <feComposite in="SourceGraphic"/>
    </filter>
  </defs>
  <g id="Grupo_1209357" data-name="Grupo 1209357" transform="translate(-200 -489.452)">
    <g id="Grupo_1208908" data-name="Grupo 1208908" transform="translate(209 495.452)">
      <g id="Grupo_1174741" data-name="Grupo 1174741" transform="translate(0 0)">
        <g id="Grupo_1173585" data-name="Grupo 1173585">
          <g id="Grupo_1173428" data-name="Grupo 1173428">
            <g id="Grupo_1171958" data-name="Grupo 1171958">
              <g id="Grupo_1167341" data-name="Grupo 1167341">
                <g id="Grupo_1166792" data-name="Grupo 1166792">
                  <g transform="matrix(1, 0, 0, 1, -9, -6)" filter="url(#Trazado_904820)">
                    <g id="Trazado_904820-2" data-name="Trazado 904820" transform="translate(9 6)" fill="#fef9e5">
                      <path d="M 44.99999618530273 88.50002288818359 C 39.12687301635742 88.50002288818359 33.43022155761719 87.35009765625 28.06829643249512 85.08218383789062 C 22.88852119445801 82.89133453369141 18.23629570007324 79.75460815429688 14.24084663391113 75.75916290283203 C 10.24540901184082 71.76371002197266 7.108683586120605 67.11148834228516 4.917821407318115 61.93171310424805 C 2.649921178817749 56.56978607177734 1.499996185302734 50.87313461303711 1.499996185302734 45.0000114440918 C 1.499996185302734 39.12688827514648 2.649921178817749 33.43023681640625 4.917821407318115 28.06831169128418 C 7.108683586120605 22.88853645324707 10.24540901184082 18.2363109588623 14.24084663391113 14.2408618927002 C 18.23629570007324 10.24541187286377 22.88852119445801 7.108686447143555 28.06829643249512 4.917836666107178 C 33.43022155761719 2.649924039840698 39.12687301635742 1.499998927116394 44.99999618530273 1.499998927116394 C 50.87311935424805 1.499998927116394 56.56977081298828 2.649924039840698 61.93169784545898 4.917836666107178 C 67.11147308349609 7.108686447143555 71.76369476318359 10.24541187286377 75.75914764404297 14.2408618927002 C 79.75458526611328 18.2363109588623 82.89131164550781 22.88853645324707 85.08216857910156 28.06831169128418 C 87.35007476806641 33.43023681640625 88.5 39.12688827514648 88.5 45.0000114440918 C 88.5 50.87313461303711 87.35007476806641 56.56978607177734 85.08216857910156 61.93171310424805 C 82.89131164550781 67.11148834228516 79.75458526611328 71.76371002197266 75.75914764404297 75.75916290283203 C 71.76369476318359 79.75460815429688 67.11147308349609 82.89133453369141 61.93169784545898 85.08218383789062 C 56.56977081298828 87.35009765625 50.87311935424805 88.50002288818359 44.99999618530273 88.50002288818359 Z" stroke="none"/>
                      <path d="M 44.99999618530273 3 C 39.32870864868164 3 33.82865142822266 4.110054016113281 28.65262603759766 6.299339294433594 C 23.65165710449219 8.414566040039062 19.15968322753906 11.44333648681641 15.301513671875 15.30152893066406 C 11.44333648681641 19.15969848632812 8.414566040039062 23.65165710449219 6.299339294433594 28.65264129638672 C 4.110054016113281 33.82866668701172 2.999992370605469 39.3287239074707 2.999992370605469 45.0000114440918 C 2.999992370605469 50.67129898071289 4.110054016113281 56.17135620117188 6.299339294433594 61.34738159179688 C 8.414566040039062 66.34836578369141 11.44333648681641 70.84032440185547 15.301513671875 74.69849395751953 C 19.15968322753906 78.55668640136719 23.65165710449219 81.58545684814453 28.65262603759766 83.70068359375 C 33.82865142822266 85.88996887207031 39.32870864868164 87.00002288818359 44.99999618530273 87.00002288818359 C 50.67128372192383 87.00002288818359 56.17134094238281 85.88996887207031 61.34736633300781 83.70068359375 C 66.34834289550781 81.58545684814453 70.84030914306641 78.55668640136719 74.69847869873047 74.69849395751953 C 78.55665588378906 70.84032440185547 81.58542633056641 66.34836578369141 83.70065307617188 61.34738159179688 C 85.88993835449219 56.17135620117188 87 50.67129898071289 87 45.0000114440918 C 87 39.3287239074707 85.88993835449219 33.82866668701172 83.70065307617188 28.65264129638672 C 81.58542633056641 23.65165710449219 78.55665588378906 19.15969848632812 74.69847869873047 15.30152893066406 C 70.84030914306641 11.44333648681641 66.34834289550781 8.414566040039062 61.34736633300781 6.299339294433594 C 56.17134094238281 4.110054016113281 50.67128372192383 3 44.99999618530273 3 M 44.99999618530273 0 C 69.85281372070312 0 90 20.14719390869141 90 45.0000114440918 C 90 69.85282897949219 69.85281372070312 90.00002288818359 44.99999618530273 90.00002288818359 C 20.14717864990234 90.00002288818359 -7.62939453125e-06 69.85282897949219 -7.62939453125e-06 45.0000114440918 C -7.62939453125e-06 20.14719390869141 20.14717864990234 0 44.99999618530273 0 Z" stroke="none" fill="#866d08"/>
                    </g>
                  </g>
                </g>
              </g>
            </g>
          </g>
        </g>
      </g>
    </g>
    <g id="presentation_2819503" transform="translate(225.211 511.12)">
      <path id="Trazado_1055850" data-name="Trazado 1055850" d="M12,44.041H57.7V2H12V27.59" transform="translate(-1.033 -0.086)" fill="#c8cded"/>
      <path id="Trazado_1055851" data-name="Trazado 1055851" d="M12,2V38.558H47.644a1.827,1.827,0,0,0,1.828-1.828V2Z" transform="translate(-1.033 -0.086)" fill="#e2e7f6"/>
      <path id="Trazado_1055852" data-name="Trazado 1055852" d="M20.193,50.107h.766a4.009,4.009,0,0,0,3.8-2.742H22.935a1.827,1.827,0,0,1-1.828-1.828V35.484A5.483,5.483,0,0,0,15.623,30H10.139a5.483,5.483,0,0,0-5.484,5.484V45.537a1.827,1.827,0,0,1-1.828,1.828H1a4.009,4.009,0,0,0,3.8,2.742H5.57" transform="translate(-0.086 -2.496)" fill="#4c506e"/>
      <path id="Trazado_1055853" data-name="Trazado 1055853" d="M22.279,60.8V54.826a3.656,3.656,0,0,0-3.138-3.619l-3.259-.465V48H10.4v2.742l-3.259.465A3.657,3.657,0,0,0,4,54.826V60.8" transform="translate(-0.344 -4.045)" fill="#ba4753"/>
      <g id="Grupo_1209342" data-name="Grupo 1209342" transform="translate(3.656 36.644)">
        <path id="Trazado_1055854" data-name="Trazado 1055854" d="M11,50.742l1.247,4.57h2.99l1.247-4.57V48H11Z" transform="translate(-4.602 -40.688)" fill="#f2b9a1"/>
        <path id="Trazado_1055855" data-name="Trazado 1055855" d="M19.914,40h1.828a1.828,1.828,0,0,1,0,3.656H19" transform="translate(-5.291 -40)" fill="#f2b9a1"/>
        <path id="Trazado_1055856" data-name="Trazado 1055856" d="M7.656,40H5.828a1.828,1.828,0,0,0,0,3.656H9.484" transform="translate(-4 -40)" fill="#f2b9a1"/>
      </g>
      <path id="Trazado_1055857" data-name="Trazado 1055857" d="M7,61.484V56H19.8v5.484" transform="translate(-0.602 -4.733)" fill="#4c506e"/>
      <g id="Grupo_1209343" data-name="Grupo 1209343" transform="translate(12.795 3.742)">
        <path id="Trazado_1055858" data-name="Trazado 1055858" d="M25.881,27.762A11.881,11.881,0,0,1,25.881,4V5.828a10.045,10.045,0,1,0,9.142,5.865l1.662-.762a11.887,11.887,0,0,1-10.8,16.832Z" transform="translate(-14 -4)" fill="#546ded"/>
      </g>
      <g id="Grupo_1209344" data-name="Grupo 1209344" transform="translate(15.537 6.484)">
        <path id="Trazado_1055859" data-name="Trazado 1055859" d="M26.139,25.279A9.139,9.139,0,0,1,26.139,7V8.828a7.312,7.312,0,1,0,7.312,7.312h1.828A9.15,9.15,0,0,1,26.139,25.279Z" transform="translate(-17 -7)" fill="#e1656e"/>
      </g>
      <g id="Grupo_1209345" data-name="Grupo 1209345" transform="translate(18.279 12.085)">
        <path id="Trazado_1055860" data-name="Trazado 1055860" d="M26.4,23.064a6.406,6.406,0,0,1-6.4-6.4h1.828a4.57,4.57,0,1,0,8.378-2.526l1.523-1.012A6.4,6.4,0,0,1,26.4,23.064Z" transform="translate(-20 -13.129)" fill="#546ded"/>
      </g>
      <g id="Grupo_1209346" data-name="Grupo 1209346" transform="translate(39.299 39.385)">
        <path id="Trazado_1055861" data-name="Trazado 1055861" d="M43,43H57.623v1.828H43Z" transform="translate(-43 -43)" fill="#4c506e"/>
      </g>
      <g id="Grupo_1209347" data-name="Grupo 1209347" transform="translate(35.644 39.385)">
        <path id="Trazado_1055862" data-name="Trazado 1055862" d="M39,43h1.828v1.828H39Z" transform="translate(-39 -43)" fill="#4c506e"/>
      </g>
      <g id="Grupo_1209348" data-name="Grupo 1209348" transform="translate(39.299 35.73)">
        <path id="Trazado_1055863" data-name="Trazado 1055863" d="M43,39H57.623v1.828H43Z" transform="translate(-43 -39)" fill="#4c506e"/>
      </g>
      <g id="Grupo_1209349" data-name="Grupo 1209349" transform="translate(35.644 35.73)">
        <path id="Trazado_1055864" data-name="Trazado 1055864" d="M39,39h1.828v1.828H39Z" transform="translate(-39 -39)" fill="#4c506e"/>
      </g>
      <g id="Grupo_1209350" data-name="Grupo 1209350" transform="translate(39.299 32.074)">
        <path id="Trazado_1055865" data-name="Trazado 1055865" d="M43,35H57.623v1.828H43Z" transform="translate(-43 -35)" fill="#4c506e"/>
      </g>
      <g id="Grupo_1209351" data-name="Grupo 1209351" transform="translate(35.644 32.074)">
        <path id="Trazado_1055866" data-name="Trazado 1055866" d="M39,35h1.828v1.828H39Z" transform="translate(-39 -35)" fill="#4c506e"/>
      </g>
      <g id="Grupo_1209352" data-name="Grupo 1209352" transform="translate(39.299 28.418)">
        <path id="Trazado_1055867" data-name="Trazado 1055867" d="M43,31H57.623v1.828H43Z" transform="translate(-43 -31)" fill="#4c506e"/>
      </g>
      <g id="Grupo_1209353" data-name="Grupo 1209353" transform="translate(35.644 28.418)">
        <path id="Trazado_1055868" data-name="Trazado 1055868" d="M39,31h1.828v1.828H39Z" transform="translate(-39 -31)" fill="#4c506e"/>
      </g>
      <g id="Grupo_1209354" data-name="Grupo 1209354" transform="translate(36.825 4.656)">
        <path id="Trazado_1055869" data-name="Trazado 1055869" d="M41.585,13.872l-1.292-1.292L47.6,5.268A.91.91,0,0,1,48.251,5H57.39V6.828H48.629Z" transform="translate(-40.293 -5)" fill="#e1656e"/>
      </g>
      <g id="Grupo_1209355" data-name="Grupo 1209355" transform="translate(44.783 8.312)">
        <path id="Trazado_1055870" data-name="Trazado 1055870" d="M49,9h9.139v1.828H49Z" transform="translate(-49 -9)" fill="#546ded"/>
      </g>
      <path id="Trazado_1055871" data-name="Trazado 1055871" d="M11,48v2.742l.5,1.828h3.158a.914.914,0,0,0,.914-.914V48Z" transform="translate(-0.947 -4.045)" fill="#fbe1ca"/>
      <path id="Trazado_1055872" data-name="Trazado 1055872" d="M15.312,35a2.742,2.742,0,0,0,2.742,2.742h.914v4.57A5.484,5.484,0,1,1,8,42.312v-4.57h4.57A2.742,2.742,0,0,0,15.312,35Z" transform="translate(-0.689 -2.926)" fill="#fbe1ca"/>
      <path id="Trazado_1055873" data-name="Trazado 1055873" d="M7,56v3.656H17.053a.914.914,0,0,0,.914-.914V56Z" transform="translate(-0.602 -4.733)" fill="#787faa"/>
      <g id="Grupo_1209356" data-name="Grupo 1209356" transform="translate(0.914 55.836)">
        <path id="Trazado_1055874" data-name="Trazado 1055874" d="M1,61H24.762v1.828H1Z" transform="translate(-1 -61)" fill="#787faa"/>
      </g>
      <path id="Trazado_1055875" data-name="Trazado 1055875" d="M56.664,1h-45.7a.913.913,0,0,0-.914.914V26.59a6.406,6.406,0,0,0-6.4,6.4v3.455a2.709,2.709,0,0,0,0,4.058v2.541a.914.914,0,0,1-.914.914H.914a.913.913,0,0,0-.867,1.2,4.9,4.9,0,0,0,3.414,3.19,4.542,4.542,0,0,0-.718,2.434v5.055H.914v1.828H24.676V55.836H22.848V50.781a4.532,4.532,0,0,0-.719-2.433,4.9,4.9,0,0,0,3.414-3.19.914.914,0,0,0-.866-1.2H22.848a.914.914,0,0,1-.914-.914V40.5a2.709,2.709,0,0,0,0-4.058V32.988a6.406,6.406,0,0,0-6.4-6.4H11.881V2.828H55.75V43.041H27.418v1.828H56.664a.913.913,0,0,0,.914-.914V1.914A.913.913,0,0,0,56.664,1ZM5.484,37.558H6.4v1.828H5.484a.914.914,0,1,1,0-1.828ZM2.521,45.783h.221a2.745,2.745,0,0,0,2.742-2.742V41.213H6.667a6.416,6.416,0,0,0,2.472,3.414V45.9l-2.474.354A4.5,4.5,0,0,0,5.3,46.7H4.718a3.093,3.093,0,0,1-2.2-.914ZM12.8,43.955a4.575,4.575,0,0,1-4.57-4.57V35.73h3.656a3.647,3.647,0,0,0,2.742-1.24,3.647,3.647,0,0,0,2.742,1.24v3.656A4.575,4.575,0,0,1,12.8,43.955Zm1.828,1.558v1.061l-1.03,3.778H12l-1.03-3.778V45.513a6.331,6.331,0,0,0,3.656,0ZM5.484,51.267v4.57H4.57V50.781a2.754,2.754,0,0,1,2.354-2.713l2.459-.352.719,2.637H6.4A.913.913,0,0,0,5.484,51.267Zm12.8,4.57H7.311V52.181H18.279Zm2.742,0h-.914v-4.57a.913.913,0,0,0-.914-.914H15.488l.719-2.637,2.459.352a2.753,2.753,0,0,1,2.354,2.713Zm1.828-10.053h.221a3.093,3.093,0,0,1-2.2.914H20.29a4.493,4.493,0,0,0-1.365-.439L16.451,45.9V44.628a6.419,6.419,0,0,0,2.472-3.414h1.184v1.828A2.745,2.745,0,0,0,22.848,45.783Zm-1.828-7.312a.914.914,0,0,1-.914.914h-.914V37.558h.914A.914.914,0,0,1,21.021,38.471ZM15.537,28.418a4.575,4.575,0,0,1,4.57,4.57V35.73h-.914v-.914a.913.913,0,0,0-.914-.914h-.914a1.83,1.83,0,0,1-1.828-1.828.914.914,0,0,0-1.828,0A1.83,1.83,0,0,1,11.881,33.9H7.311a.913.913,0,0,0-.914.914v.914H5.484V32.988a4.575,4.575,0,0,1,4.57-4.57Z" transform="translate(0)"/>
      <path id="Trazado_1055876" data-name="Trazado 1055876" d="M14,15.881A11.881,11.881,0,1,0,36.685,10.93l-1.662.762a10.055,10.055,0,1,1-9.142-5.865V4A11.9,11.9,0,0,0,14,15.881Z" transform="translate(-1.205 -0.258)"/>
      <path id="Trazado_1055877" data-name="Trazado 1055877" d="M18.828,16.139a7.32,7.32,0,0,1,7.312-7.312V7a9.139,9.139,0,1,0,9.139,9.139H33.451a7.312,7.312,0,1,1-14.623,0Z" transform="translate(-1.463 -0.516)"/>
      <path id="Trazado_1055878" data-name="Trazado 1055878" d="M26.4,21.237a4.575,4.575,0,0,1-4.57-4.57H20a6.4,6.4,0,1,0,11.729-3.538l-1.523,1.012a4.57,4.57,0,0,1-3.808,7.1Z" transform="translate(-1.721 -1.044)"/>
      <path id="Trazado_1055879" data-name="Trazado 1055879" d="M43,43H57.623v1.828H43Z" transform="translate(-3.701 -3.615)"/>
      <path id="Trazado_1055880" data-name="Trazado 1055880" d="M39,43h1.828v1.828H39Z" transform="translate(-3.356 -3.615)"/>
      <path id="Trazado_1055881" data-name="Trazado 1055881" d="M43,39H57.623v1.828H43Z" transform="translate(-3.701 -3.27)"/>
      <path id="Trazado_1055882" data-name="Trazado 1055882" d="M39,39h1.828v1.828H39Z" transform="translate(-3.356 -3.27)"/>
      <path id="Trazado_1055883" data-name="Trazado 1055883" d="M43,35H57.623v1.828H43Z" transform="translate(-3.701 -2.926)"/>
      <path id="Trazado_1055884" data-name="Trazado 1055884" d="M39,35h1.828v1.828H39Z" transform="translate(-3.356 -2.926)"/>
      <path id="Trazado_1055885" data-name="Trazado 1055885" d="M43,31H57.623v1.828H43Z" transform="translate(-3.701 -2.582)"/>
      <path id="Trazado_1055886" data-name="Trazado 1055886" d="M39,31h1.828v1.828H39Z" transform="translate(-3.356 -2.582)"/>
      <path id="Trazado_1055887" data-name="Trazado 1055887" d="M57.39,5H48.251a.91.91,0,0,0-.646.268l-7.312,7.312,1.292,1.292,7.044-7.044H57.39Z" transform="translate(-3.468 -0.344)"/>
      <path id="Trazado_1055888" data-name="Trazado 1055888" d="M49,9h9.139v1.828H49Z" transform="translate(-4.217 -0.688)"/>
    </g>
  </g>
</svg>
