<svg xmlns="http://www.w3.org/2000/svg" xmlns:xlink="http://www.w3.org/1999/xlink" width="108" height="108" viewBox="0 0 108 108">
  <defs>
    <filter id="Trazado_904820" x="0" y="0" width="108" height="108" filterUnits="userSpaceOnUse">
      <feOffset dy="3" input="SourceAlpha"/>
      <feGaussianBlur stdDeviation="3" result="blur"/>
      <feFlood flood-opacity="0.161"/>
      <feComposite operator="in" in2="blur"/>
      <feComposite in="SourceGraphic"/>
    </filter>
  </defs>
  <g id="Grupo_1209364" data-name="Grupo 1209364" transform="translate(-200 -2274.346)">
    <g id="Grupo_1209176" data-name="Grupo 1209176" transform="translate(209 2280.346)">
      <g id="Grupo_1174741" data-name="Grupo 1174741" transform="translate(0 0)">
        <g id="Grupo_1173585" data-name="Grupo 1173585">
          <g id="Grupo_1173428" data-name="Grupo 1173428">
            <g id="Grupo_1171958" data-name="Grupo 1171958">
              <g id="Grupo_1167341" data-name="Grupo 1167341">
                <g id="Grupo_1166792" data-name="Grupo 1166792">
                  <g transform="matrix(1, 0, 0, 1, -9, -6)" filter="url(#Trazado_904820)">
                    <g id="Trazado_904820-2" data-name="Trazado 904820" transform="translate(9 6)" fill="#e5fdfa">
                      <path d="M 44.99999618530273 88.50002288818359 C 39.12687301635742 88.50002288818359 33.43022155761719 87.35009765625 28.06829643249512 85.08218383789062 C 22.88852119445801 82.89133453369141 18.23629570007324 79.75460815429688 14.24084663391113 75.75916290283203 C 10.24540901184082 71.76371002197266 7.108683586120605 67.11148834228516 4.917821407318115 61.93171310424805 C 2.649921178817749 56.56978607177734 1.499996185302734 50.87313461303711 1.499996185302734 45.0000114440918 C 1.499996185302734 39.12688827514648 2.649921178817749 33.43023681640625 4.917821407318115 28.06831169128418 C 7.108683586120605 22.88853645324707 10.24540901184082 18.2363109588623 14.24084663391113 14.2408618927002 C 18.23629570007324 10.24541187286377 22.88852119445801 7.108686447143555 28.06829643249512 4.917836666107178 C 33.43022155761719 2.649924039840698 39.12687301635742 1.499998927116394 44.99999618530273 1.499998927116394 C 50.87311935424805 1.499998927116394 56.56977081298828 2.649924039840698 61.93169784545898 4.917836666107178 C 67.11147308349609 7.108686447143555 71.76369476318359 10.24541187286377 75.75914764404297 14.2408618927002 C 79.75458526611328 18.2363109588623 82.89131164550781 22.88853645324707 85.08216857910156 28.06831169128418 C 87.35007476806641 33.43023681640625 88.5 39.12688827514648 88.5 45.0000114440918 C 88.5 50.87313461303711 87.35007476806641 56.56978607177734 85.08216857910156 61.93171310424805 C 82.89131164550781 67.11148834228516 79.75458526611328 71.76371002197266 75.75914764404297 75.75916290283203 C 71.76369476318359 79.75460815429688 67.11147308349609 82.89133453369141 61.93169784545898 85.08218383789062 C 56.56977081298828 87.35009765625 50.87311935424805 88.50002288818359 44.99999618530273 88.50002288818359 Z" stroke="none"/>
                      <path d="M 44.99999618530273 3 C 39.32870864868164 3 33.82865142822266 4.110054016113281 28.65262603759766 6.299339294433594 C 23.65165710449219 8.414566040039062 19.15968322753906 11.44333648681641 15.301513671875 15.30152893066406 C 11.44333648681641 19.15969848632812 8.414566040039062 23.65165710449219 6.299339294433594 28.65264129638672 C 4.110054016113281 33.82866668701172 2.999992370605469 39.3287239074707 2.999992370605469 45.0000114440918 C 2.999992370605469 50.67129898071289 4.110054016113281 56.17135620117188 6.299339294433594 61.34738159179688 C 8.414566040039062 66.34836578369141 11.44333648681641 70.84032440185547 15.301513671875 74.69849395751953 C 19.15968322753906 78.55668640136719 23.65165710449219 81.58545684814453 28.65262603759766 83.70068359375 C 33.82865142822266 85.88996887207031 39.32870864868164 87.00002288818359 44.99999618530273 87.00002288818359 C 50.67128372192383 87.00002288818359 56.17134094238281 85.88996887207031 61.34736633300781 83.70068359375 C 66.34834289550781 81.58545684814453 70.84030914306641 78.55668640136719 74.69847869873047 74.69849395751953 C 78.55665588378906 70.84032440185547 81.58542633056641 66.34836578369141 83.70065307617188 61.34738159179688 C 85.88993835449219 56.17135620117188 87 50.67129898071289 87 45.0000114440918 C 87 39.3287239074707 85.88993835449219 33.82866668701172 83.70065307617188 28.65264129638672 C 81.58542633056641 23.65165710449219 78.55665588378906 19.15969848632812 74.69847869873047 15.30152893066406 C 70.84030914306641 11.44333648681641 66.34834289550781 8.414566040039062 61.34736633300781 6.299339294433594 C 56.17134094238281 4.110054016113281 50.67128372192383 3 44.99999618530273 3 M 44.99999618530273 0 C 69.85281372070312 0 90 20.14719390869141 90 45.0000114440918 C 90 69.85282897949219 69.85281372070312 90.00002288818359 44.99999618530273 90.00002288818359 C 20.14717864990234 90.00002288818359 -7.62939453125e-06 69.85282897949219 -7.62939453125e-06 45.0000114440918 C -7.62939453125e-06 20.14719390869141 20.14717864990234 0 44.99999618530273 0 Z" stroke="none" fill="#098576"/>
                    </g>
                  </g>
                </g>
              </g>
            </g>
          </g>
        </g>
      </g>
    </g>
    <g id="goal-setting_18250770" transform="translate(221.052 2289.898)">
      <g id="Grupo_1209363" data-name="Grupo 1209363" transform="translate(7.918 7.918)">
        <g id="Grupo_1209360" data-name="Grupo 1209360" transform="translate(0 0)">
          <path id="Trazado_1055929" data-name="Trazado 1055929" d="M15.929,15H44.241a.894.894,0,0,1,.652.271l5.186,5.186a.894.894,0,0,1,.271.652V59.892a.925.925,0,0,1-.923.923h-33.5A.926.926,0,0,1,15,59.892V15.928A.927.927,0,0,1,15.929,15Z" transform="translate(-15.003 -15.002)" fill="#b1b1b5" fill-rule="evenodd"/>
          <g id="Grupo_1209359" data-name="Grupo 1209359" transform="translate(4.625 3.529)">
            <path id="Trazado_1055930" data-name="Trazado 1055930" d="M56.394,45.766H84.5a1.036,1.036,0,0,1,.758.314l5.1,5.1a1.036,1.036,0,0,1,.314.758V90.516a1.071,1.071,0,0,1-1.069,1.069H56.394a1.072,1.072,0,0,1-1.072-1.069V46.837a1.074,1.074,0,0,1,1.072-1.072Z" transform="translate(-55.322 -45.766)" fill="#eceff1" fill-rule="evenodd"/>
            <path id="Trazado_1055931" data-name="Trazado 1055931" d="M313.577,46.568v5.1a.537.537,0,0,0,.536.536h5.1a1.074,1.074,0,0,0-.222-.314l-5.1-5.1A1.129,1.129,0,0,0,313.577,46.568Z" transform="translate(-283.953 -46.476)" fill="#a79ba7" fill-rule="evenodd"/>
            <path id="Trazado_1055932" data-name="Trazado 1055932" d="M56.394,45.766h1.069V91.585H56.394a1.072,1.072,0,0,1-1.072-1.069V46.837a1.074,1.074,0,0,1,1.072-1.072Z" transform="translate(-55.322 -45.766)" fill="#d1d1d6" fill-rule="evenodd"/>
            <circle id="Elipse_13585" data-name="Elipse 13585" cx="4.104" cy="4.104" r="4.104" transform="translate(4.468 6.583)" fill="#8ac9fe"/>
            <path id="Trazado_1055933" data-name="Trazado 1055933" d="M125.044,103.2a4.1,4.1,0,1,1,0,8.128,4.1,4.1,0,0,0,0-8.128Z" transform="translate(-117.046 -96.575)" fill="#60b7ff" fill-rule="evenodd"/>
            <circle id="Elipse_13586" data-name="Elipse 13586" cx="4.104" cy="4.104" r="4.104" transform="translate(4.468 19.249)" fill="#ffe177"/>
            <path id="Trazado_1055934" data-name="Trazado 1055934" d="M125.044,213.61a4.1,4.1,0,1,1,0,8.128,4.1,4.1,0,0,0,0-8.128Z" transform="translate(-117.046 -194.321)" fill="#ffd064" fill-rule="evenodd"/>
            <circle id="Elipse_13587" data-name="Elipse 13587" cx="4.104" cy="4.104" r="4.104" transform="translate(4.468 31.914)" fill="#6cf5c2"/>
            <path id="Trazado_1055935" data-name="Trazado 1055935" d="M125.044,324.022a4.1,4.1,0,1,1,0,8.128,4.1,4.1,0,0,0,0-8.128Z" transform="translate(-117.046 -292.068)" fill="#00e499" fill-rule="evenodd"/>
          </g>
        </g>
        <g id="Grupo_1209361" data-name="Grupo 1209361" transform="translate(32.577 32.577)">
          <path id="Trazado_1055936" data-name="Trazado 1055936" d="M312.477,300.861a9.58,9.58,0,0,1,2.81,1.164l1.826-.81,2.151,2.151-.81,1.826A9.584,9.584,0,0,1,319.617,308l1.863.717v3.043l-1.863.717a9.592,9.592,0,0,1-1.165,2.808l.81,1.826-2.151,2.152-1.826-.811a9.586,9.586,0,0,1-2.81,1.166l-.717,1.862h-3.043L308,319.618a9.588,9.588,0,0,1-2.808-1.164l-1.826.811-2.152-2.152.811-1.824a9.616,9.616,0,0,1-1.166-2.81L299,311.762v-3.043l1.862-.717a9.587,9.587,0,0,1,1.166-2.809l-.811-1.826,2.152-2.151,1.824.81a9.611,9.611,0,0,1,2.81-1.164l.717-1.863h3.043Z" transform="translate(-298.997 -298.998)" fill="#ffe177" fill-rule="evenodd"/>
          <path id="Trazado_1055937" data-name="Trazado 1055937" d="M348.111,301.488l.613-.272,2.151,2.151-.81,1.826A9.584,9.584,0,0,1,351.23,308l1.863.717v3.043l-1.863.717a9.592,9.592,0,0,1-1.165,2.808l.81,1.826-2.151,2.152-.613-.272,1.88-1.88-.811-1.826a9.591,9.591,0,0,0,1.164-2.808l1.863-.717v-3.043L350.344,308a9.583,9.583,0,0,0-1.164-2.809l.811-1.826Zm-13.405,0,.272-.272,1.824.81c-.129.072-.256.146-.381.224Zm9.383-.627a9.581,9.581,0,0,1,2.81,1.164l-.5.224a12.538,12.538,0,0,0-3.192-1.389L342.487,299h.886ZM336.8,318.454l-1.826.811-.272-.272,1.716-.762Q336.609,318.346,336.8,318.454Zm10.1,0a9.586,9.586,0,0,1-2.81,1.166l-.717,1.862h-.886l.717-1.862a12.563,12.563,0,0,0,3.193-1.389Z" transform="translate(-330.61 -298.998)" fill="#ffd064" fill-rule="evenodd"/>
          <path id="Trazado_1055938" data-name="Trazado 1055938" d="M356.055,350.751a5.3,5.3,0,1,1-5.3,5.306A5.305,5.305,0,0,1,356.055,350.751Z" transform="translate(-344.813 -344.814)" fill="#eceff1" fill-rule="evenodd"/>
          <path id="Trazado_1055939" data-name="Trazado 1055939" d="M356.055,350.751c.121,0,.24,0,.36.013a5.3,5.3,0,0,0,0,10.585c-.12.008-.239.012-.36.012a5.3,5.3,0,0,1,0-10.61Z" transform="translate(-344.813 -344.814)" fill="#d1d1d6" fill-rule="evenodd"/>
        </g>
        <g id="Grupo_1209362" data-name="Grupo 1209362" transform="translate(43.818 19.829)">
          <path id="Trazado_1055940" data-name="Trazado 1055940" d="M397,187.866h9.427v5.871H397Z" transform="translate(-396.997 -187.866)" fill="#fe646f" fill-rule="evenodd"/>
        </g>
      </g>
      <path id="Trazado_1055941" data-name="Trazado 1055941" d="M11.628,54.649H8.844A1.845,1.845,0,0,1,7,52.809V8.844A1.845,1.845,0,0,1,8.844,7H37.157a1.783,1.783,0,0,1,1.3.54l2.993,2.992h.335a1.783,1.783,0,0,1,1.294.533l5.193,5.193a1.783,1.783,0,0,1,.54,1.3V41.583l.548-1.421a.918.918,0,0,1,.856-.587h.6V27.746a.918.918,0,0,1,.918-.918h9.427a.918.918,0,0,1,.918.918v5.871a.918.918,0,0,1-.918.918H52.653v5.04h.6a.918.918,0,0,1,.857.589l.548,1.427a10.48,10.48,0,0,1,2.178.9l1.4-.621a.918.918,0,0,1,1.022.19l2.151,2.151a.918.918,0,0,1,.19,1.021l-.619,1.4a10.457,10.457,0,0,1,.9,2.182l1.424.548a.918.918,0,0,1,.588.856v3.042a.918.918,0,0,1-.588.856l-1.424.548a10.564,10.564,0,0,1-.9,2.178l.619,1.4a.918.918,0,0,1-.19,1.02l-2.151,2.151a.918.918,0,0,1-1.02.19l-1.4-.619a10.455,10.455,0,0,1-2.179.9l-.548,1.424a.918.918,0,0,1-.856.588H50.216a.918.918,0,0,1-.856-.588l-.548-1.424a10.547,10.547,0,0,1-2.181-.9l-1.4.619a.918.918,0,0,1-1.021-.19l-2.151-2.151a.918.918,0,0,1-.19-1.022l.025-.056H13.472a1.845,1.845,0,0,1-1.844-1.84ZM38.854,10.532,37.16,8.838l0,0H8.844a.008.008,0,0,0-.008.008V52.809s0,.005.008.005h2.784V12.376a1.845,1.845,0,0,1,1.844-1.844Zm6.824,5.728-2.6-2.6v2.6Zm1.3,26.049V18.1H42.628a1.388,1.388,0,0,1-1.381-1.381V12.368H13.472a.008.008,0,0,0-.008.008V56.341s0,.005.008.005H42.235a10.576,10.576,0,0,1-.647-1.683l-1.425-.549a.918.918,0,0,1-.588-.856V50.216c0-.019,0-.038,0-.057H29.086a.918.918,0,0,1,0-1.835H41.742a10.531,10.531,0,0,1,.751-1.693l-.621-1.4a.918.918,0,0,1,.19-1.022l2.151-2.151a.918.918,0,0,1,1.022-.19l1.4.621Q46.8,42.4,46.976,42.309Zm3.842-.828-.466,1.207a.918.918,0,0,1-.644.562,8.647,8.647,0,0,0-2.54,1.053.918.918,0,0,1-.854.057l-1.25-.556L43.8,45.064l.556,1.25a.918.918,0,0,1-.057.854,8.709,8.709,0,0,0-.928,2.071v0a.913.913,0,0,1-.126.464l0,.008a.918.918,0,0,1-.563.642l-1.275.491v1.782l1.275.491a.918.918,0,0,1,.563.642A8.7,8.7,0,0,0,44.3,56.3a.918.918,0,0,1,.058.856l-.556,1.25,1.26,1.26,1.25-.554a.918.918,0,0,1,.851.057,8.716,8.716,0,0,0,2.544,1.054.918.918,0,0,1,.645.563l.49,1.275h1.782l.491-1.275a.918.918,0,0,1,.644-.563A8.615,8.615,0,0,0,56.3,59.171a.918.918,0,0,1,.854-.059l1.25.554,1.26-1.26-.554-1.25a.918.918,0,0,1,.057-.851,8.729,8.729,0,0,0,1.054-2.542.918.918,0,0,1,.563-.644l1.275-.491V50.846l-1.275-.491a.918.918,0,0,1-.563-.645,8.634,8.634,0,0,0-1.052-2.542.918.918,0,0,1-.058-.853l.554-1.25-1.26-1.26-1.25.556A.918.918,0,0,1,56.3,44.3a8.648,8.648,0,0,0-2.54-1.053.918.918,0,0,1-.644-.564l-.465-1.211v4.1a6.224,6.224,0,1,1-1.835,0Zm1.835-12.818V32.7h7.591V28.664ZM50.818,47.443a4.391,4.391,0,1,0,1.835,0v4.292a.918.918,0,0,1-1.835,0ZM25.86,33.154a5.03,5.03,0,1,1-.952-1.644l2.349-2.349a.918.918,0,1,1,1.3,1.3ZM23.6,32.813a3.185,3.185,0,1,0,.7,1.986c0-.028,0-.057,0-.085l-1.838,1.838a.918.918,0,0,1-1.3,0l-1.5-1.5a.918.918,0,0,1,1.3-1.3l.851.851ZM25.86,20.489a5.03,5.03,0,1,1-.952-1.644L27.257,16.5a.918.918,0,0,1,1.3,1.3ZM23.6,20.148a3.185,3.185,0,1,0,.7,1.986c0-.028,0-.057,0-.085l-1.838,1.838a.918.918,0,0,1-1.3,0l-1.5-1.5a.918.918,0,0,1,1.3-1.3l.851.851ZM25.86,45.82a5.03,5.03,0,1,1-.952-1.644l2.349-2.349a.918.918,0,0,1,1.3,1.3ZM23.6,45.479a3.185,3.185,0,1,0,.7,1.986c0-.028,0-.057,0-.085l-1.838,1.838a.918.918,0,0,1-1.3,0l-1.5-1.5a.918.918,0,1,1,1.3-1.3l.851.851Zm5.481-24.2a.918.918,0,0,1,0-1.835h8.645a.918.918,0,1,1,0,1.835Zm0,3.552a.918.918,0,0,1,0-1.835H42.457a.918.918,0,1,1,0,1.835Zm0,12.666a.918.918,0,1,1,0-1.835H42.457a.918.918,0,1,1,0,1.835Zm0,9.114a.918.918,0,0,1,0-1.835h8.645a.918.918,0,1,1,0,1.835Zm0-12.666a.918.918,0,1,1,0-1.835h8.645a.918.918,0,1,1,0,1.835Z" fill-rule="evenodd"/>
    </g>
  </g>
</svg>
