<svg xmlns="http://www.w3.org/2000/svg" xmlns:xlink="http://www.w3.org/1999/xlink" width="108" height="108" viewBox="0 0 108 108">
  <defs>
    <filter id="Trazado_904820" x="0" y="0" width="108" height="108" filterUnits="userSpaceOnUse">
      <feOffset dy="3" input="SourceAlpha"/>
      <feGaussianBlur stdDeviation="3" result="blur"/>
      <feFlood flood-opacity="0.161"/>
      <feComposite operator="in" in2="blur"/>
      <feComposite in="SourceGraphic"/>
    </filter>
  </defs>
  <g id="Grupo_1209371" data-name="Grupo 1209371" transform="translate(-620 -4104.506)">
    <g id="Grupo_1209179" data-name="Grupo 1209179" transform="translate(629 4110.506)">
      <g id="Grupo_1174741" data-name="Grupo 1174741" transform="translate(0 0)">
        <g id="Grupo_1173585" data-name="Grupo 1173585">
          <g id="Grupo_1173428" data-name="Grupo 1173428">
            <g id="Grupo_1171958" data-name="Grupo 1171958">
              <g id="Grupo_1167341" data-name="Grupo 1167341">
                <g id="Grupo_1166792" data-name="Grupo 1166792">
                  <g transform="matrix(1, 0, 0, 1, -9, -6)" filter="url(#Trazado_904820)">
                    <g id="Trazado_904820-2" data-name="Trazado 904820" transform="translate(9 6)" fill="#e5fdfa">
                      <path d="M 44.99999618530273 88.50002288818359 C 39.12687301635742 88.50002288818359 33.43022155761719 87.35009765625 28.06829643249512 85.08218383789062 C 22.88852119445801 82.89133453369141 18.23629570007324 79.75460815429688 14.24084663391113 75.75916290283203 C 10.24540901184082 71.76371002197266 7.108683586120605 67.11148834228516 4.917821407318115 61.93171310424805 C 2.649921178817749 56.56978607177734 1.499996185302734 50.87313461303711 1.499996185302734 45.0000114440918 C 1.499996185302734 39.12688827514648 2.649921178817749 33.43023681640625 4.917821407318115 28.06831169128418 C 7.108683586120605 22.88853645324707 10.24540901184082 18.2363109588623 14.24084663391113 14.2408618927002 C 18.23629570007324 10.24541187286377 22.88852119445801 7.108686447143555 28.06829643249512 4.917836666107178 C 33.43022155761719 2.649924039840698 39.12687301635742 1.499998927116394 44.99999618530273 1.499998927116394 C 50.87311935424805 1.499998927116394 56.56977081298828 2.649924039840698 61.93169784545898 4.917836666107178 C 67.11147308349609 7.108686447143555 71.76369476318359 10.24541187286377 75.75914764404297 14.2408618927002 C 79.75458526611328 18.2363109588623 82.89131164550781 22.88853645324707 85.08216857910156 28.06831169128418 C 87.35007476806641 33.43023681640625 88.5 39.12688827514648 88.5 45.0000114440918 C 88.5 50.87313461303711 87.35007476806641 56.56978607177734 85.08216857910156 61.93171310424805 C 82.89131164550781 67.11148834228516 79.75458526611328 71.76371002197266 75.75914764404297 75.75916290283203 C 71.76369476318359 79.75460815429688 67.11147308349609 82.89133453369141 61.93169784545898 85.08218383789062 C 56.56977081298828 87.35009765625 50.87311935424805 88.50002288818359 44.99999618530273 88.50002288818359 Z" stroke="none"/>
                      <path d="M 44.99999618530273 3 C 39.32870864868164 3 33.82865142822266 4.110054016113281 28.65262603759766 6.299339294433594 C 23.65165710449219 8.414566040039062 19.15968322753906 11.44333648681641 15.301513671875 15.30152893066406 C 11.44333648681641 19.15969848632812 8.414566040039062 23.65165710449219 6.299339294433594 28.65264129638672 C 4.110054016113281 33.82866668701172 2.999992370605469 39.3287239074707 2.999992370605469 45.0000114440918 C 2.999992370605469 50.67129898071289 4.110054016113281 56.17135620117188 6.299339294433594 61.34738159179688 C 8.414566040039062 66.34836578369141 11.44333648681641 70.84032440185547 15.301513671875 74.69849395751953 C 19.15968322753906 78.55668640136719 23.65165710449219 81.58545684814453 28.65262603759766 83.70068359375 C 33.82865142822266 85.88996887207031 39.32870864868164 87.00002288818359 44.99999618530273 87.00002288818359 C 50.67128372192383 87.00002288818359 56.17134094238281 85.88996887207031 61.34736633300781 83.70068359375 C 66.34834289550781 81.58545684814453 70.84030914306641 78.55668640136719 74.69847869873047 74.69849395751953 C 78.55665588378906 70.84032440185547 81.58542633056641 66.34836578369141 83.70065307617188 61.34738159179688 C 85.88993835449219 56.17135620117188 87 50.67129898071289 87 45.0000114440918 C 87 39.3287239074707 85.88993835449219 33.82866668701172 83.70065307617188 28.65264129638672 C 81.58542633056641 23.65165710449219 78.55665588378906 19.15969848632812 74.69847869873047 15.30152893066406 C 70.84030914306641 11.44333648681641 66.34834289550781 8.414566040039062 61.34736633300781 6.299339294433594 C 56.17134094238281 4.110054016113281 50.67128372192383 3 44.99999618530273 3 M 44.99999618530273 0 C 69.85281372070312 0 90 20.14719390869141 90 45.0000114440918 C 90 69.85282897949219 69.85281372070312 90.00002288818359 44.99999618530273 90.00002288818359 C 20.14717864990234 90.00002288818359 -7.62939453125e-06 69.85282897949219 -7.62939453125e-06 45.0000114440918 C -7.62939453125e-06 20.14719390869141 20.14717864990234 0 44.99999618530273 0 Z" stroke="none" fill="#098576"/>
                    </g>
                  </g>
                </g>
              </g>
            </g>
          </g>
        </g>
      </g>
    </g>
    <g id="employee_12650229" transform="translate(621.933 4110.763)">
      <path id="Trazado_1056012" data-name="Trazado 1056012" d="M231.392,105.3a4.035,4.035,0,1,0,4.035,4.035A4.037,4.037,0,0,0,231.392,105.3Z" transform="translate(-179.235 -80.737)" fill="#fff"/>
      <path id="Trazado_1056013" data-name="Trazado 1056013" d="M191.3,474.23h17.593v1.117H191.3Z" transform="translate(-148.03 -400.029)" fill="#635463"/>
      <path id="Trazado_1056014" data-name="Trazado 1056014" d="M408.1,361.751a.566.566,0,1,0,.564.564A.569.569,0,0,0,408.1,361.751Z" transform="translate(-335.165 -302.684)" fill="#faefe8"/>
      <path id="Trazado_1056015" data-name="Trazado 1056015" d="M346.355,411.953h17.593v1.133H346.355Z" transform="translate(-282.223 -346.131)" fill="#635463"/>
      <path id="Trazado_1056016" data-name="Trazado 1056016" d="M364.281,342.709A2.719,2.719,0,1,1,367,339.99,2.724,2.724,0,0,1,364.281,342.709Zm7.376-6.754H356.9v8.07h14.755Z" transform="translate(-291.35 -280.358)" fill="#a79ba7"/>
      <path id="Trazado_1056017" data-name="Trazado 1056017" d="M373.975,295.2a1.077,1.077,0,0,1,2.155,0v1.709h4.66V295.2a1.076,1.076,0,0,1,2.151,0v1.709h.69V294.18a1.944,1.944,0,0,0-.084-.778,1.376,1.376,0,0,0-.587-.08h-9a1.379,1.379,0,0,0-.587.08,1.946,1.946,0,0,0-.084.778v2.727h.69V295.2Z" transform="translate(-305.53 -243.461)" fill="#23ad7f"/>
      <path id="Trazado_1056018" data-name="Trazado 1056018" d="M84.516,223.273a2.662,2.662,0,1,0-2.662-2.662A2.664,2.664,0,0,0,84.516,223.273Z" transform="translate(-53.309 -178.229)" fill="#faefe8"/>
      <path id="Trazado_1056019" data-name="Trazado 1056019" d="M164.489,48.621a6.188,6.188,0,1,1,6.186-6.186A6.2,6.2,0,0,1,164.489,48.621Zm14.431-4.9V41.154a.753.753,0,0,0-.412-.195l-2.788-.637a1.078,1.078,0,0,1-.8-.763,10.735,10.735,0,0,0-1.022-2.468,1.076,1.076,0,0,1,.023-1.106l1.526-2.422a.742.742,0,0,0,.153-.431l-1.812-1.808a.763.763,0,0,0-.431.149L170.935,33a1.076,1.076,0,0,1-1.106.027A10.787,10.787,0,0,0,167.365,32a1.071,1.071,0,0,1-.767-.8l-.633-2.792a.814.814,0,0,0-.195-.412l-2.563,0a.718.718,0,0,0-.195.408l-.637,2.792a1.072,1.072,0,0,1-.763.8,10.819,10.819,0,0,0-2.467,1.026A1.076,1.076,0,0,1,158.04,33l-2.422-1.526a.774.774,0,0,0-.431-.153l-1.808,1.812a.723.723,0,0,0,.149.431l1.526,2.422a1.076,1.076,0,0,1,.027,1.106,10.745,10.745,0,0,0-1.026,2.468,1.072,1.072,0,0,1-.8.763l-2.792.637a.753.753,0,0,0-.412.195l0,2.559a.737.737,0,0,0,.408.2l2.792.633a1.073,1.073,0,0,1,.8.763,10.675,10.675,0,0,0,1.026,2.467,1.076,1.076,0,0,1-.027,1.106L153.528,51.3a.782.782,0,0,0-.153.431l1.811,1.812a.742.742,0,0,0,.431-.153l2.422-1.526a1.069,1.069,0,0,1,.572-.164,1.055,1.055,0,0,1,.534.141,10.738,10.738,0,0,0,2.467,1.022,1.072,1.072,0,0,1,.763.8l.637,2.792a.752.752,0,0,0,.195.412h2.559a.773.773,0,0,0,.2-.412l.633-2.788a1.07,1.07,0,0,1,.767-.8,10.807,10.807,0,0,0,2.467-1.022,1.069,1.069,0,0,1,1.1.023l2.422,1.526a.749.749,0,0,0,.431.153l1.808-1.812a.7.7,0,0,0-.149-.431l-1.526-2.422a1.076,1.076,0,0,1-.023-1.106,10.81,10.81,0,0,0,1.022-2.467,1.072,1.072,0,0,1,.8-.763l2.792-.633a.815.815,0,0,0,.412-.195Z" transform="translate(-112.333 -13.836)" fill="#635463"/>
      <path id="Trazado_1056020" data-name="Trazado 1056020" d="M239.572,280.4a2.662,2.662,0,1,0,2.662,2.662A2.665,2.665,0,0,0,239.572,280.4Z" transform="translate(-187.503 -232.275)" fill="#faefe8"/>
      <path id="Trazado_1056021" data-name="Trazado 1056021" d="M253.04,424.057a.564.564,0,1,0,.564.564A.566.566,0,0,0,253.04,424.057Z" transform="translate(-200.971 -356.607)" fill="#faefe8"/>
      <path id="Trazado_1056022" data-name="Trazado 1056022" d="M394.6,223.273a2.662,2.662,0,1,0-2.666-2.662A2.667,2.667,0,0,0,394.6,223.273Z" transform="translate(-321.673 -178.229)" fill="#faefe8"/>
      <path id="Trazado_1056023" data-name="Trazado 1056023" d="M54.17,342.729a2.719,2.719,0,1,1,2.719-2.719A2.723,2.723,0,0,1,54.17,342.729Zm7.38-6.773H46.79v8.07H61.549Z" transform="translate(-22.962 -280.359)" fill="#a79ba7"/>
      <path id="Trazado_1056024" data-name="Trazado 1056024" d="M218.949,357.48a1.076,1.076,0,0,1,2.151,0v1.709h4.66V357.48a1.076,1.076,0,0,1,2.151,0v1.709h.69v-2.727a2.132,2.132,0,0,0-.08-.782,1.4,1.4,0,0,0-.591-.08h-9a1.389,1.389,0,0,0-.591.08,2.034,2.034,0,0,0-.08.782v2.727h.69V357.48Z" transform="translate(-171.361 -297.36)" fill="#f7cb7f"/>
      <path id="Trazado_1056025" data-name="Trazado 1056025" d="M209.225,405.015a2.719,2.719,0,1,1,2.719-2.719A2.723,2.723,0,0,1,209.225,405.015Zm7.38-6.754H201.845v8.07H216.6Z" transform="translate(-157.156 -334.281)" fill="#a79ba7"/>
      <path id="Trazado_1056026" data-name="Trazado 1056026" d="M36.273,411.953H53.862v1.117H36.273Z" transform="translate(-13.86 -346.131)" fill="#635463"/>
      <path id="Trazado_1056027" data-name="Trazado 1056027" d="M63.893,295.2a1.076,1.076,0,0,1,2.151,0v1.709H70.7V295.2a1.077,1.077,0,0,1,2.155,0v1.709h.69V294.18a1.943,1.943,0,0,0-.084-.778,1.376,1.376,0,0,0-.587-.08h-9a1.407,1.407,0,0,0-.591.08,2.1,2.1,0,0,0-.08.778v2.727h.69Z" transform="translate(-37.167 -243.461)" fill="#ff7577"/>
      <path id="Trazado_1056028" data-name="Trazado 1056028" d="M98.009,361.864a.566.566,0,1,0,.568.568A.566.566,0,0,0,98.009,361.864Z" transform="translate(-66.802 -302.781)" fill="#faefe8"/>
      <g id="Grupo_1209370" data-name="Grupo 1209370" transform="translate(20.258 12.013)">
        <path id="Trazado_1056029" data-name="Trazado 1056029" d="M239.2,411.325a.564.564,0,1,1,.564-.564A.567.567,0,0,1,239.2,411.325Zm0-3.284a2.719,2.719,0,1,0,2.719,2.719A2.723,2.723,0,0,0,239.2,408.041Z" transform="translate(-207.393 -354.759)" fill="#030403"/>
        <path id="Trazado_1056030" data-name="Trazado 1056030" d="M161.885,30.708a1.073,1.073,0,0,0-.8.763,10.8,10.8,0,0,1-1.022,2.467,1.076,1.076,0,0,0,.023,1.106l1.526,2.422a.7.7,0,0,1,.149.431l-1.808,1.812a.749.749,0,0,1-.431-.153L157.1,38.03a1.069,1.069,0,0,0-1.1-.023,10.81,10.81,0,0,1-2.468,1.022,1.07,1.07,0,0,0-.767.8l-.633,2.788a.774.774,0,0,1-.2.412h-2.559a.753.753,0,0,1-.195-.412l-.637-2.792a1.072,1.072,0,0,0-.763-.8,10.738,10.738,0,0,1-2.467-1.022,1.055,1.055,0,0,0-.534-.141,1.069,1.069,0,0,0-.572.164l-2.422,1.526a.742.742,0,0,1-.431.153L139.543,37.9a.782.782,0,0,1,.153-.431l1.526-2.422a1.076,1.076,0,0,0,.027-1.106,10.674,10.674,0,0,1-1.026-2.467,1.072,1.072,0,0,0-.8-.763l-2.792-.633a.736.736,0,0,1-.408-.2l0-2.559a.753.753,0,0,1,.412-.195l2.792-.637a1.073,1.073,0,0,0,.8-.763,10.746,10.746,0,0,1,1.026-2.468,1.076,1.076,0,0,0-.027-1.106L139.7,19.728a.722.722,0,0,1-.149-.431l1.808-1.812a.774.774,0,0,1,.431.153l2.422,1.526a1.076,1.076,0,0,0,1.106.027,10.813,10.813,0,0,1,2.467-1.026,1.072,1.072,0,0,0,.763-.8l.637-2.792a.717.717,0,0,1,.195-.408l2.563,0a.816.816,0,0,1,.195.412l.633,2.792a1.071,1.071,0,0,0,.767.8A10.794,10.794,0,0,1,156,19.19a1.076,1.076,0,0,0,1.106-.027l2.422-1.526a.761.761,0,0,1,.431-.149l1.812,1.808a.742.742,0,0,1-.153.431l-1.526,2.422a1.076,1.076,0,0,0-.023,1.106,10.74,10.74,0,0,1,1.022,2.468,1.078,1.078,0,0,0,.8.763l2.788.637a.754.754,0,0,1,.412.195V29.88a.816.816,0,0,1-.412.195l-2.792.633Zm3.272,1.464a2.4,2.4,0,0,0,2.082-2.3V27.318a2.4,2.4,0,0,0-2.086-2.3l-2.178-.5a13.351,13.351,0,0,0-.732-1.758l1.194-1.9a2.4,2.4,0,0,0-.149-3.1l-1.812-1.808a2.4,2.4,0,0,0-3.1-.149l-1.9,1.19a12.836,12.836,0,0,0-1.758-.728l-.5-2.181a2.4,2.4,0,0,0-2.3-2.086h-2.559a2.4,2.4,0,0,0-2.3,2.086l-.5,2.181a12.836,12.836,0,0,0-1.758.728l-1.9-1.19a2.392,2.392,0,0,0-3.1.149l-1.808,1.808a2.391,2.391,0,0,0-.149,3.1l1.19,1.9a12.835,12.835,0,0,0-.728,1.758l-2.181.5a2.4,2.4,0,0,0-2.086,2.3v2.559a2.4,2.4,0,0,0,2.086,2.3l2.181.5a12.875,12.875,0,0,0,.728,1.762l-1.19,1.892a2.392,2.392,0,0,0,.149,3.1l1.808,1.812a2.4,2.4,0,0,0,3.1.149l1.9-1.194a12.837,12.837,0,0,0,1.758.728l.5,2.181a2.4,2.4,0,0,0,2.3,2.086h2.559a2.4,2.4,0,0,0,2.3-2.086l.5-2.178a13.4,13.4,0,0,0,1.762-.732l1.892,1.194a2.4,2.4,0,0,0,3.1-.149l1.812-1.812a2.4,2.4,0,0,0,.149-3.1l-1.194-1.9a12.835,12.835,0,0,0,.728-1.758l2.185-.5Z" transform="translate(-118.758 -12.013)" fill="#030403"/>
        <path id="Trazado_1056031" data-name="Trazado 1056031" d="M195.059,358.84H177.466v-1.117h17.593v1.117ZM178.885,347.5h14.759v8.07H178.885Zm2.208-4.878a2.034,2.034,0,0,1,.08-.782,1.387,1.387,0,0,1,.591-.08h9a1.408,1.408,0,0,1,.591.08,2.133,2.133,0,0,1,.08.782v2.727h-.69v-1.709a1.076,1.076,0,1,0-2.151,0v1.709h-4.66v-1.709a1.076,1.076,0,1,0-2.151,0v1.709h-.69v-2.727Zm14.7,13.047v-8.253a2.094,2.094,0,0,0-2.117-2.067h-.091v-2.727c0-.824,0-3.013-2.822-3.013h-9c-2.826,0-2.826,2.189-2.826,3.013v2.727h-.088a2.094,2.094,0,0,0-2.117,2.067v8.253a2.048,2.048,0,0,0-1.419,1.945v1.24A2.14,2.14,0,0,0,177.451,361h17.624a2.144,2.144,0,0,0,2.14-2.139v-1.24a2.053,2.053,0,0,0-1.419-1.945Z" transform="translate(-154.453 -295.535)" fill="#030403"/>
        <path id="Trazado_1056032" data-name="Trazado 1056032" d="M394.234,349.023a.566.566,0,1,1,.564-.568A.57.57,0,0,1,394.234,349.023Zm0-3.288a2.719,2.719,0,1,0,2.719,2.719A2.726,2.726,0,0,0,394.234,345.735Z" transform="translate(-341.562 -300.835)" fill="#030403"/>
        <path id="Trazado_1056033" data-name="Trazado 1056033" d="M225.736,271.884a2.662,2.662,0,1,1,2.662-2.662A2.665,2.665,0,0,1,225.736,271.884Zm0-7.475a4.813,4.813,0,1,0,4.813,4.813A4.818,4.818,0,0,0,225.736,264.409Z" transform="translate(-193.925 -230.451)" fill="#030403"/>
        <path id="Trazado_1056034" data-name="Trazado 1056034" d="M84.148,349.161a.566.566,0,0,1,0-1.133.566.566,0,1,1,0,1.133Zm0-3.284a2.719,2.719,0,1,0,2.719,2.719A2.721,2.721,0,0,0,84.148,345.877Z" transform="translate(-73.199 -300.958)" fill="#030403"/>
        <path id="Trazado_1056035" data-name="Trazado 1056035" d="M40,296.564H22.413v-1.117H40ZM23.828,285.222H38.587v8.07H23.828Zm2.208-4.878a2.1,2.1,0,0,1,.08-.778,1.4,1.4,0,0,1,.591-.08h9a1.379,1.379,0,0,1,.587.08,1.946,1.946,0,0,1,.084.778v2.727h-.69v-1.709a1.077,1.077,0,0,0-2.155,0v1.709h-4.66v-1.709a1.076,1.076,0,1,0-2.151,0v1.709h-.69v-2.727Zm16.121,16.235v-1.24a2.049,2.049,0,0,0-1.415-1.945v-8.253a2.1,2.1,0,0,0-2.12-2.071h-.088v-2.727c0-.824,0-3.009-2.822-3.009h-9c-2.826,0-2.826,2.185-2.826,3.009v2.727H23.8a2.1,2.1,0,0,0-2.12,2.071v8.249a2.054,2.054,0,0,0-1.419,1.949v1.24a2.137,2.137,0,0,0,2.136,2.136H40.021a2.137,2.137,0,0,0,2.136-2.136Z" transform="translate(-20.258 -241.638)" fill="#030403"/>
        <path id="Trazado_1056036" data-name="Trazado 1056036" d="M70.68,204.088a2.662,2.662,0,1,1-2.662,2.662A2.664,2.664,0,0,1,70.68,204.088Zm0,7.475a4.815,4.815,0,1,0-4.813-4.813A4.821,4.821,0,0,0,70.68,211.563Z" transform="translate(-59.731 -176.381)" fill="#030403"/>
        <path id="Trazado_1056037" data-name="Trazado 1056037" d="M380.766,204.088a2.662,2.662,0,1,1-2.666,2.662A2.667,2.667,0,0,1,380.766,204.088Zm0,7.475a4.815,4.815,0,1,0-4.817-4.813A4.82,4.82,0,0,0,380.766,211.563Z" transform="translate(-328.094 -176.381)" fill="#030403"/>
        <path id="Trazado_1056038" data-name="Trazado 1056038" d="M350.089,296.579H332.5v-1.133h17.593Zm-16.174-11.357H348.67v8.07H333.914Zm2.2-4.878a1.942,1.942,0,0,1,.084-.778,1.375,1.375,0,0,1,.587-.08h9a1.378,1.378,0,0,1,.587.08,1.945,1.945,0,0,1,.084.778v2.727h-.69v-1.709a1.076,1.076,0,1,0-2.151,0v1.709h-4.66v-1.709a1.077,1.077,0,0,0-2.155,0v1.709h-.69v-2.727Zm14.706,13.051v-8.253a2.1,2.1,0,0,0-2.12-2.071h-.088v-2.727c0-.824,0-3.009-2.822-3.009h-9c-2.822,0-2.822,2.185-2.822,3.009v2.727h-.088a2.1,2.1,0,0,0-2.121,2.071v8.253a2.054,2.054,0,0,0-1.419,1.949v1.247a2.142,2.142,0,0,0,2.143,2.139H350.1a2.141,2.141,0,0,0,2.139-2.139v-1.247A2.054,2.054,0,0,0,350.825,293.395Z" transform="translate(-288.622 -241.638)" fill="#030403"/>
        <path id="Trazado_1056039" data-name="Trazado 1056039" d="M217.532,99.51a4.035,4.035,0,1,1,4.035-4.035A4.039,4.039,0,0,1,217.532,99.51Zm0-10.225a6.188,6.188,0,1,0,6.186,6.19A6.2,6.2,0,0,0,217.532,89.285Z" transform="translate(-185.633 -78.889)" fill="#030403"/>
      </g>
    </g>
  </g>
</svg>
