<svg xmlns="http://www.w3.org/2000/svg" xmlns:xlink="http://www.w3.org/1999/xlink" width="113" height="113" viewBox="0 0 113 113">
  <defs>
    <filter id="Trazado_982547" x="0" y="0" width="113" height="113" filterUnits="userSpaceOnUse">
      <feOffset dy="3" input="SourceAlpha"/>
      <feGaussianBlur stdDeviation="3" result="blur"/>
      <feFlood flood-opacity="0.161"/>
      <feComposite operator="in" in2="blur"/>
      <feComposite in="SourceGraphic"/>
    </filter>
  </defs>
  <g id="Grupo_1209373" data-name="Grupo 1209373" transform="translate(-586.127 -4979.24)">
    <g id="Grupo_1209180" data-name="Grupo 1209180" transform="translate(0.127 3001.324)">
      <g id="Grupo_1208146" data-name="Grupo 1208146" transform="translate(0 -3923.371)">
        <g id="Grupo_1202433" data-name="Grupo 1202433" transform="translate(-0.56 1255.773)">
          <g id="Grupo_1202054" data-name="Grupo 1202054" transform="translate(0 3240.511)">
            <g id="Grupo_1177897" data-name="Grupo 1177897" transform="translate(595.561 1411.003)">
              <g id="Grupo_1172010" data-name="Grupo 1172010" transform="translate(0)">
                <g id="Grupo_1171046" data-name="Grupo 1171046">
                  <g id="Grupo_1148525" data-name="Grupo 1148525">
                    <g transform="matrix(1, 0, 0, 1, -9, -6)" filter="url(#Trazado_982547)">
                      <g id="Trazado_982547-2" data-name="Trazado 982547" transform="translate(9 6)" fill="#fdf4ce">
                        <path d="M 47.5 93.5 C 41.28937149047852 93.5 35.26533508300781 92.28397369384766 29.59518623352051 89.88570404052734 C 24.11771965026855 87.56893157958984 19.19813346862793 84.25196075439453 14.97309303283691 80.02691650390625 C 10.74804019927979 75.80186462402344 7.431066513061523 70.88229370117188 5.114293098449707 65.40481567382812 C 2.716026782989502 59.73468017578125 1.5 53.71062850952148 1.5 47.5 C 1.5 41.28937149047852 2.716026782989502 35.26533508300781 5.114293098449707 29.59518623352051 C 7.431066513061523 24.11771965026855 10.74804019927979 19.19813346862793 14.97309303283691 14.97309303283691 C 19.19813346862793 10.74804019927979 24.11771965026855 7.431066513061523 29.59518623352051 5.114293098449707 C 35.26533508300781 2.716026782989502 41.28937149047852 1.5 47.5 1.5 C 53.71062850952148 1.5 59.73468017578125 2.716026782989502 65.40481567382812 5.114293098449707 C 70.88229370117188 7.431066513061523 75.80186462402344 10.74804019927979 80.02691650390625 14.97309303283691 C 84.25196075439453 19.19813346862793 87.56893157958984 24.11771965026855 89.88570404052734 29.59518623352051 C 92.28397369384766 35.26533508300781 93.5 41.28937149047852 93.5 47.5 C 93.5 53.71062850952148 92.28397369384766 59.73468017578125 89.88570404052734 65.40481567382812 C 87.56893157958984 70.88229370117188 84.25196075439453 75.80186462402344 80.02691650390625 80.02691650390625 C 75.80186462402344 84.25196075439453 70.88229370117188 87.56893157958984 65.40481567382812 89.88570404052734 C 59.73468017578125 92.28397369384766 53.71062850952148 93.5 47.5 93.5 Z" stroke="none"/>
                        <path d="M 47.5 3 C 41.49121475219727 3 35.66376876831055 4.176155090332031 30.17950439453125 6.495796203613281 C 24.88084411621094 8.736953735351562 20.12152099609375 11.94598388671875 16.03375244140625 16.03375244140625 C 11.94598388671875 20.12152099609375 8.736953735351562 24.88084411621094 6.495796203613281 30.17950439453125 C 4.176155090332031 35.66376876831055 3 41.49121475219727 3 47.5 C 3 53.50878524780273 4.176155090332031 59.33623123168945 6.495796203613281 64.82049560546875 C 8.736953735351562 70.11915588378906 11.94598388671875 74.87847900390625 16.03375244140625 78.96624755859375 C 20.12152099609375 83.05401611328125 24.88084411621094 86.26304626464844 30.17950439453125 88.50419616699219 C 35.66376876831055 90.82384490966797 41.49121475219727 92 47.5 92 C 53.50878524780273 92 59.33623123168945 90.82384490966797 64.82049560546875 88.50419616699219 C 70.11915588378906 86.26304626464844 74.87847900390625 83.05401611328125 78.96624755859375 78.96624755859375 C 83.05401611328125 74.87847900390625 86.26304626464844 70.11915588378906 88.50419616699219 64.82049560546875 C 90.82384490966797 59.33623123168945 92 53.50878524780273 92 47.5 C 92 41.49121475219727 90.82384490966797 35.66376876831055 88.50419616699219 30.17950439453125 C 86.26304626464844 24.88084411621094 83.05401611328125 20.12152099609375 78.96624755859375 16.03375244140625 C 74.87847900390625 11.94598388671875 70.11915588378906 8.736953735351562 64.82049560546875 6.495796203613281 C 59.33623123168945 4.176155090332031 53.50878524780273 3 47.5 3 M 47.5 0 C 73.7335205078125 0 95 21.2664794921875 95 47.5 C 95 73.7335205078125 73.7335205078125 95 47.5 95 C 21.2664794921875 95 0 73.7335205078125 0 47.5 C 0 21.2664794921875 21.2664794921875 0 47.5 0 Z" stroke="none" fill="#866d08"/>
                      </g>
                    </g>
                  </g>
                </g>
              </g>
            </g>
          </g>
        </g>
      </g>
    </g>
    <g id="tax_9483853" transform="translate(549.496 4993.899)">
      <path id="Trazado_1056057" data-name="Trazado 1056057" d="M116.637,68.291a1.892,1.892,0,0,1-1.892,1.892H71.517a1.892,1.892,0,0,1-1.892-1.892V9.392A1.892,1.892,0,0,1,71.517,7.5H96.4c4.181,0,7.212,2.64,10.168,5.6l4.477,4.477c2.957,2.957,5.6,5.987,5.6,10.168Z" fill="#dff6fd"/>
      <path id="Trazado_1056058" data-name="Trazado 1056058" d="M247.674,103.338H241.1a.631.631,0,0,1-.631-.631V99.456a2.522,2.522,0,0,1,2.522-2.522h2.79a2.522,2.522,0,0,1,2.522,2.522v3.251A.631.631,0,0,1,247.674,103.338Zm-3.287-9.794a1.959,1.959,0,1,0-1.959-1.959A1.959,1.959,0,0,0,244.387,93.544Zm-1.959,15.671a1.959,1.959,0,1,0,1.959-1.959A1.959,1.959,0,0,0,242.428,109.214Zm11.189,5.349h-2.79a2.522,2.522,0,0,0-2.522,2.522,2.522,2.522,0,0,0-2.522-2.522h-2.79a2.522,2.522,0,0,0-2.522,2.522v3.251a.631.631,0,0,0,.631.631h14.409a.631.631,0,0,0,.631-.631v-3.251A2.522,2.522,0,0,0,253.617,114.563Zm-1.4-3.39a1.959,1.959,0,1,0-1.959-1.959A1.959,1.959,0,0,0,252.222,111.173ZM244.387,128.8a1.959,1.959,0,1,0-1.959-1.959A1.959,1.959,0,0,0,244.387,128.8Zm9.231,3.39H250.79a2.486,2.486,0,0,0-2.486,2.486,2.486,2.486,0,0,0-2.486-2.486h-2.827a2.522,2.522,0,0,0-2.522,2.522v3.251a.631.631,0,0,0,.631.631h14.409a.631.631,0,0,0,.631-.631v-3.251A2.523,2.523,0,0,0,253.617,132.193Zm-1.4-3.39a1.959,1.959,0,1,0-1.959-1.959A1.959,1.959,0,0,0,252.222,128.8Z" transform="translate(-149.297 -71.768)" fill="#c8effe"/>
      <path id="Trazado_1056059" data-name="Trazado 1056059" d="M111.04,18.975,106.563,14.5c-2.472-2.472-5-4.724-8.2-5.395a35.464,35.464,0,0,1,3.157,2.872L106,16.453c2.957,2.957,5.6,5.987,5.6,10.168V56.351A12.711,12.711,0,0,1,98.881,69.062H69.625v.631a1.892,1.892,0,0,0,1.892,1.892h43.228a1.892,1.892,0,0,0,1.892-1.892V29.144C116.637,24.962,114,21.932,111.04,18.975Z" transform="translate(0 -1.402)" fill="#c8effe"/>
      <path id="Trazado_1056060" data-name="Trazado 1056060" d="M270.412,12.118A15.765,15.765,0,0,0,259.264,7.5H257.6a8.2,8.2,0,0,1,8.2,8.2V19.32a1.892,1.892,0,0,0,1.892,1.892h3.622a8.2,8.2,0,0,1,8.2,8.2V27.742a15.765,15.765,0,0,0-4.618-11.148Z" transform="translate(-162.869)" fill="#f2fbff"/>
      <path id="Trazado_1056061" data-name="Trazado 1056061" d="M248.3,133.974h-7.835v-3.881a2.522,2.522,0,0,1,2.522-2.522h2.79a2.522,2.522,0,0,1,2.522,2.522Z" transform="translate(-149.297 -104.927)" fill="#0055a3"/>
      <circle id="Elipse_13594" data-name="Elipse 13594" cx="1.959" cy="1.959" r="1.959" transform="translate(93.131 15.335)" fill="#0055a3"/>
      <path id="Trazado_1056062" data-name="Trazado 1056062" d="M248.3,273.755h-7.835v-3.881a2.522,2.522,0,0,1,2.522-2.522h2.79a2.522,2.522,0,0,1,2.522,2.522Z" transform="translate(-149.297 -227.078)" fill="#0055a3"/>
      <circle id="Elipse_13595" data-name="Elipse 13595" cx="1.959" cy="1.959" r="1.959" transform="translate(93.131 32.965)" fill="#0055a3"/>
      <path id="Trazado_1056063" data-name="Trazado 1056063" d="M310.429,273.755h-7.835v-3.881a2.522,2.522,0,0,1,2.522-2.522h2.79a2.522,2.522,0,0,1,2.522,2.522Z" transform="translate(-203.586 -227.078)" fill="#f58a97"/>
      <circle id="Elipse_13596" data-name="Elipse 13596" cx="1.959" cy="1.959" r="1.959" transform="translate(100.966 32.965)" fill="#f58a97"/>
      <path id="Trazado_1056064" data-name="Trazado 1056064" d="M248.3,413.536h-7.835v-3.881a2.522,2.522,0,0,1,2.522-2.522h2.827a2.486,2.486,0,0,1,2.486,2.486Z" transform="translate(-149.297 -349.23)" fill="#0055a3"/>
      <circle id="Elipse_13597" data-name="Elipse 13597" cx="1.959" cy="1.959" r="1.959" transform="translate(93.131 50.594)" fill="#0055a3"/>
      <path id="Trazado_1056065" data-name="Trazado 1056065" d="M310.429,413.537h-7.835v-3.918a2.486,2.486,0,0,1,2.486-2.486h2.827a2.522,2.522,0,0,1,2.522,2.522Z" transform="translate(-203.586 -349.23)" fill="#f58a97"/>
      <path id="Trazado_1056066" data-name="Trazado 1056066" d="M279.366,430.762h-7.835v-2.026a1.892,1.892,0,0,1,1.892-1.892h4.052a1.892,1.892,0,0,1,1.892,1.892Z" transform="translate(-176.441 -366.456)" fill="#01c0fa"/>
      <circle id="Elipse_13598" data-name="Elipse 13598" cx="1.959" cy="1.959" r="1.959" transform="translate(100.966 50.594)" fill="#f58a97"/>
      <circle id="Elipse_13599" data-name="Elipse 13599" cx="1.959" cy="1.959" r="1.959" transform="translate(97.049 54.512)" fill="#01c0fa"/>
      <path id="Trazado_1056067" data-name="Trazado 1056067" d="M124.121,234.732h-6.01a1.892,1.892,0,0,1-1.892-1.892v-6.01a1.892,1.892,0,0,1,1.892-1.892h6.01a1.892,1.892,0,0,1,1.892,1.892v6.01A1.892,1.892,0,0,1,124.121,234.732Z" transform="translate(-40.717 -190.014)" fill="#80d261"/>
      <path id="Trazado_1056068" data-name="Trazado 1056068" d="M124.121,94.95h-6.01a1.892,1.892,0,0,1-1.892-1.892v-6.01a1.892,1.892,0,0,1,1.892-1.892h6.01a1.892,1.892,0,0,1,1.892,1.892v6.01A1.892,1.892,0,0,1,124.121,94.95Z" transform="translate(-40.717 -67.862)" fill="#62dbfb"/>
      <path id="Trazado_1056069" data-name="Trazado 1056069" d="M124.121,374.513h-6.01a1.892,1.892,0,0,1-1.892-1.892v-6.01a1.892,1.892,0,0,1,1.892-1.892h6.01a1.892,1.892,0,0,1,1.892,1.892v6.01A1.892,1.892,0,0,1,124.121,374.513Z" transform="translate(-40.717 -312.166)" fill="#62dbfb"/>
      <path id="Trazado_1056070" data-name="Trazado 1056070" d="M124.12,224.938h-3.153v3.43a3.842,3.842,0,0,1-3.842,3.842h-.907v.631a1.892,1.892,0,0,0,1.892,1.892h6.01a1.892,1.892,0,0,0,1.892-1.892v-6.01A1.892,1.892,0,0,0,124.12,224.938Z" transform="translate(-40.717 -190.014)" fill="#68ca44"/>
      <path id="Trazado_1056071" data-name="Trazado 1056071" d="M124.12,85.156h-3.153v3.43a3.842,3.842,0,0,1-3.842,3.842h-.907v.631a1.892,1.892,0,0,0,1.892,1.892h6.01a1.892,1.892,0,0,0,1.892-1.892v-6.01A1.892,1.892,0,0,0,124.12,85.156Z" transform="translate(-40.717 -67.862)" fill="#01d0fb"/>
      <path id="Trazado_1056072" data-name="Trazado 1056072" d="M124.12,364.719h-3.153v3.43a3.842,3.842,0,0,1-3.842,3.842h-.907v.631a1.892,1.892,0,0,0,1.892,1.892h6.01a1.892,1.892,0,0,0,1.892-1.892v-6.01A1.892,1.892,0,0,0,124.12,364.719Z" transform="translate(-40.717 -312.166)" fill="#01d0fb"/>
      <path id="Trazado_1056073" data-name="Trazado 1056073" d="M116.637,36.883V68.291a1.892,1.892,0,0,1-1.892,1.892H71.517a1.892,1.892,0,0,1-1.892-1.892V9.392A1.892,1.892,0,0,1,71.517,7.5H96.4" fill="none" stroke="#000" stroke-linecap="round" stroke-linejoin="round" stroke-miterlimit="10" stroke-width="1"/>
      <line id="Línea_2085" data-name="Línea 2085" y2="4.726" transform="translate(116.637 27.742)" fill="none" stroke="#000" stroke-linecap="round" stroke-linejoin="round" stroke-miterlimit="10" stroke-width="1"/>
      <path id="Trazado_1056074" data-name="Trazado 1056074" d="M270.412,12.118A15.765,15.765,0,0,0,259.264,7.5H257.6a8.2,8.2,0,0,1,8.2,8.2V19.32a1.892,1.892,0,0,0,1.892,1.892h3.622a8.2,8.2,0,0,1,8.2,8.2V27.742a15.765,15.765,0,0,0-4.618-11.148Z" transform="translate(-162.869)" fill="none" stroke="#000" stroke-linecap="round" stroke-linejoin="round" stroke-miterlimit="10" stroke-width="1"/>
      <path id="Trazado_1056075" data-name="Trazado 1056075" d="M248.3,133.974h-7.835v-3.881a2.522,2.522,0,0,1,2.522-2.522h2.79a2.522,2.522,0,0,1,2.522,2.522Z" transform="translate(-149.297 -104.927)" fill="none" stroke="#000" stroke-linecap="round" stroke-linejoin="round" stroke-miterlimit="10" stroke-width="1"/>
      <circle id="Elipse_13600" data-name="Elipse 13600" cx="1.959" cy="1.959" r="1.959" transform="translate(93.131 15.335)" fill="none" stroke="#000" stroke-linecap="round" stroke-linejoin="round" stroke-miterlimit="10" stroke-width="1"/>
      <path id="Trazado_1056076" data-name="Trazado 1056076" d="M241.211,273.755h-.742v-3.881a2.522,2.522,0,0,1,2.522-2.522h2.79a2.522,2.522,0,0,1,2.522,2.522v3.881h-2.679" transform="translate(-149.297 -227.078)" fill="none" stroke="#000" stroke-linecap="round" stroke-linejoin="round" stroke-miterlimit="10" stroke-width="1"/>
      <circle id="Elipse_13601" data-name="Elipse 13601" cx="1.959" cy="1.959" r="1.959" transform="translate(93.131 32.965)" fill="none" stroke="#000" stroke-linecap="round" stroke-linejoin="round" stroke-miterlimit="10" stroke-width="1"/>
      <path id="Trazado_1056077" data-name="Trazado 1056077" d="M310.429,273.755h-7.835v-3.881a2.522,2.522,0,0,1,2.522-2.522h2.79a2.522,2.522,0,0,1,2.522,2.522Z" transform="translate(-203.586 -227.078)" fill="none" stroke="#000" stroke-linecap="round" stroke-linejoin="round" stroke-miterlimit="10" stroke-width="1"/>
      <circle id="Elipse_13602" data-name="Elipse 13602" cx="1.959" cy="1.959" r="1.959" transform="translate(100.966 32.965)" fill="none" stroke="#000" stroke-linecap="round" stroke-linejoin="round" stroke-miterlimit="10" stroke-width="1"/>
      <circle id="Elipse_13603" data-name="Elipse 13603" cx="1.959" cy="1.959" r="1.959" transform="translate(93.131 50.594)" fill="none" stroke="#000" stroke-linecap="round" stroke-linejoin="round" stroke-miterlimit="10" stroke-width="1"/>
      <path id="Trazado_1056078" data-name="Trazado 1056078" d="M279.366,430.762h-7.835v-2.026a1.892,1.892,0,0,1,1.892-1.892h4.052a1.892,1.892,0,0,1,1.892,1.892Z" transform="translate(-176.441 -366.456)" fill="none" stroke="#000" stroke-linecap="round" stroke-linejoin="round" stroke-miterlimit="10" stroke-width="1"/>
      <circle id="Elipse_13604" data-name="Elipse 13604" cx="1.959" cy="1.959" r="1.959" transform="translate(100.966 50.594)" fill="none" stroke="#000" stroke-linecap="round" stroke-linejoin="round" stroke-miterlimit="10" stroke-width="1"/>
      <circle id="Elipse_13605" data-name="Elipse 13605" cx="1.959" cy="1.959" r="1.959" transform="translate(97.049 54.512)" fill="none" stroke="#000" stroke-linecap="round" stroke-linejoin="round" stroke-miterlimit="10" stroke-width="1"/>
      <path id="Trazado_1056079" data-name="Trazado 1056079" d="M124.121,234.732h-6.01a1.892,1.892,0,0,1-1.892-1.892v-6.01a1.892,1.892,0,0,1,1.892-1.892h6.01a1.892,1.892,0,0,1,1.892,1.892v6.01A1.892,1.892,0,0,1,124.121,234.732Z" transform="translate(-40.717 -190.014)" fill="none" stroke="#000" stroke-linecap="round" stroke-linejoin="round" stroke-miterlimit="10" stroke-width="1"/>
      <path id="Trazado_1056080" data-name="Trazado 1056080" d="M116.219,86.989v.059a1.892,1.892,0,0,1,1.892-1.892h6.01a1.892,1.892,0,0,1,1.892,1.892v6.01a1.892,1.892,0,0,1-1.892,1.892h-6.01a1.892,1.892,0,0,1-1.892-1.892V91.4" transform="translate(-40.717 -67.862)" fill="none" stroke="#000" stroke-linecap="round" stroke-linejoin="round" stroke-miterlimit="10" stroke-width="1"/>
      <path id="Trazado_1056081" data-name="Trazado 1056081" d="M124.121,374.513h-6.01a1.892,1.892,0,0,1-1.892-1.892v-6.01a1.892,1.892,0,0,1,1.892-1.892h6.01a1.892,1.892,0,0,1,1.892,1.892v6.01A1.892,1.892,0,0,1,124.121,374.513Z" transform="translate(-40.717 -312.166)" fill="none" stroke="#000" stroke-linecap="round" stroke-linejoin="round" stroke-miterlimit="10" stroke-width="1"/>
      <path id="Trazado_1056082" data-name="Trazado 1056082" d="M147.281,228.856l1.959,1.959,5.877-5.876" transform="translate(-67.862 -190.014)" fill="none" stroke="#000" stroke-linecap="round" stroke-linejoin="round" stroke-miterlimit="10" stroke-width="1"/>
      <path id="Trazado_1056083" data-name="Trazado 1056083" d="M306.511,413.536h3.918v-3.881a2.522,2.522,0,0,0-2.522-2.522h-2.827a2.486,2.486,0,0,0-2.486,2.486" transform="translate(-203.586 -349.23)" fill="none" stroke="#000" stroke-linecap="round" stroke-linejoin="round" stroke-miterlimit="10" stroke-width="1"/>
      <path id="Trazado_1056084" data-name="Trazado 1056084" d="M248.3,409.619a2.486,2.486,0,0,0-2.486-2.486h-2.827a2.522,2.522,0,0,0-2.522,2.522v3.881h3.918" transform="translate(-149.297 -349.23)" fill="none" stroke="#000" stroke-linecap="round" stroke-linejoin="round" stroke-miterlimit="10" stroke-width="1"/>
    </g>
  </g>
</svg>
