<svg xmlns="http://www.w3.org/2000/svg" xmlns:xlink="http://www.w3.org/1999/xlink" width="113" height="113" viewBox="0 0 113 113">
  <defs>
    <filter id="Trazado_982547" x="0" y="0" width="113" height="113" filterUnits="userSpaceOnUse">
      <feOffset dy="3" input="SourceAlpha"/>
      <feGaussianBlur stdDeviation="3" result="blur"/>
      <feFlood flood-opacity="0.161"/>
      <feComposite operator="in" in2="blur"/>
      <feComposite in="SourceGraphic"/>
    </filter>
  </defs>
  <g id="Grupo_1209377" data-name="Grupo 1209377" transform="translate(-1216.127 -4978.953)">
    <g id="Grupo_1209376" data-name="Grupo 1209376">
      <g id="Grupo_1209182" data-name="Grupo 1209182" transform="translate(0.127 3741.446)">
        <g id="Grupo_1208680" data-name="Grupo 1208680" transform="translate(0 -740.122)">
          <g id="Grupo_1208145" data-name="Grupo 1208145" transform="translate(0 -3923.371)">
            <g id="Grupo_1202435" data-name="Grupo 1202435" transform="translate(-0.56 1255.486)">
              <g id="Grupo_1202052" data-name="Grupo 1202052" transform="translate(1225.561 4651.514)">
                <g id="Grupo_1172010" data-name="Grupo 1172010" transform="translate(0)">
                  <g id="Grupo_1171046" data-name="Grupo 1171046">
                    <g id="Grupo_1148525" data-name="Grupo 1148525">
                      <g transform="matrix(1, 0, 0, 1, -9, -6)" filter="url(#Trazado_982547)">
                        <g id="Trazado_982547-2" data-name="Trazado 982547" transform="translate(9 6)" fill="#fdf4ce">
                          <path d="M 47.5 93.5 C 41.28937149047852 93.5 35.26533508300781 92.28397369384766 29.59518623352051 89.88570404052734 C 24.11771965026855 87.56893157958984 19.19813346862793 84.25196075439453 14.97309303283691 80.02691650390625 C 10.74804019927979 75.80186462402344 7.431066513061523 70.88229370117188 5.114293098449707 65.40481567382812 C 2.716026782989502 59.73468017578125 1.5 53.71062850952148 1.5 47.5 C 1.5 41.28937149047852 2.716026782989502 35.26533508300781 5.114293098449707 29.59518623352051 C 7.431066513061523 24.11771965026855 10.74804019927979 19.19813346862793 14.97309303283691 14.97309303283691 C 19.19813346862793 10.74804019927979 24.11771965026855 7.431066513061523 29.59518623352051 5.114293098449707 C 35.26533508300781 2.716026782989502 41.28937149047852 1.5 47.5 1.5 C 53.71062850952148 1.5 59.73468017578125 2.716026782989502 65.40481567382812 5.114293098449707 C 70.88229370117188 7.431066513061523 75.80186462402344 10.74804019927979 80.02691650390625 14.97309303283691 C 84.25196075439453 19.19813346862793 87.56893157958984 24.11771965026855 89.88570404052734 29.59518623352051 C 92.28397369384766 35.26533508300781 93.5 41.28937149047852 93.5 47.5 C 93.5 53.71062850952148 92.28397369384766 59.73468017578125 89.88570404052734 65.40481567382812 C 87.56893157958984 70.88229370117188 84.25196075439453 75.80186462402344 80.02691650390625 80.02691650390625 C 75.80186462402344 84.25196075439453 70.88229370117188 87.56893157958984 65.40481567382812 89.88570404052734 C 59.73468017578125 92.28397369384766 53.71062850952148 93.5 47.5 93.5 Z" stroke="none"/>
                          <path d="M 47.5 3 C 41.49121475219727 3 35.66376876831055 4.176155090332031 30.17950439453125 6.495796203613281 C 24.88084411621094 8.736953735351562 20.12152099609375 11.94598388671875 16.03375244140625 16.03375244140625 C 11.94598388671875 20.12152099609375 8.736953735351562 24.88084411621094 6.495796203613281 30.17950439453125 C 4.176155090332031 35.66376876831055 3 41.49121475219727 3 47.5 C 3 53.50878524780273 4.176155090332031 59.33623123168945 6.495796203613281 64.82049560546875 C 8.736953735351562 70.11915588378906 11.94598388671875 74.87847900390625 16.03375244140625 78.96624755859375 C 20.12152099609375 83.05401611328125 24.88084411621094 86.26304626464844 30.17950439453125 88.50419616699219 C 35.66376876831055 90.82384490966797 41.49121475219727 92 47.5 92 C 53.50878524780273 92 59.33623123168945 90.82384490966797 64.82049560546875 88.50419616699219 C 70.11915588378906 86.26304626464844 74.87847900390625 83.05401611328125 78.96624755859375 78.96624755859375 C 83.05401611328125 74.87847900390625 86.26304626464844 70.11915588378906 88.50419616699219 64.82049560546875 C 90.82384490966797 59.33623123168945 92 53.50878524780273 92 47.5 C 92 41.49121475219727 90.82384490966797 35.66376876831055 88.50419616699219 30.17950439453125 C 86.26304626464844 24.88084411621094 83.05401611328125 20.12152099609375 78.96624755859375 16.03375244140625 C 74.87847900390625 11.94598388671875 70.11915588378906 8.736953735351562 64.82049560546875 6.495796203613281 C 59.33623123168945 4.176155090332031 53.50878524780273 3 47.5 3 M 47.5 0 C 73.7335205078125 0 95 21.2664794921875 95 47.5 C 95 73.7335205078125 73.7335205078125 95 47.5 95 C 21.2664794921875 95 0 73.7335205078125 0 47.5 C 0 21.2664794921875 21.2664794921875 0 47.5 0 Z" stroke="none" fill="#866d08"/>
                        </g>
                      </g>
                    </g>
                  </g>
                </g>
              </g>
            </g>
          </g>
        </g>
      </g>
    </g>
    <g id="incident_11518998" transform="translate(1213.401 4956.423)">
      <g id="Grupo_1209375" data-name="Grupo 1209375" transform="translate(25.811 48.711)">
        <path id="Trazado_1056101" data-name="Trazado 1056101" d="M177.966,53.9H130.6v54.638h47.366Z" transform="translate(-117.136 -53.9)" fill="#fcb13b" fill-rule="evenodd"/>
        <path id="Trazado_1056102" data-name="Trazado 1056102" d="M391.1,102.8h5.934v6.218H391.1Zm0,37.66h5.934v6.218H391.1Z" transform="translate(-342.423 -96.19)" fill="#b5b682" fill-rule="evenodd"/>
        <path id="Trazado_1056103" data-name="Trazado 1056103" d="M391.1,242.1h5.934v6.218H391.1Z" transform="translate(-342.423 -216.66)" fill="#b5b682" fill-rule="evenodd"/>
        <path id="Trazado_1056104" data-name="Trazado 1056104" d="M42.814,177.7A11.814,11.814,0,1,1,31,189.514,11.809,11.809,0,0,1,42.814,177.7Z" transform="translate(-31 -160.965)" fill="#6abdc8" fill-rule="evenodd"/>
        <path id="Trazado_1056105" data-name="Trazado 1056105" d="M80.7,291.3H90.892v3.406H80.7Z" transform="translate(-73.982 -259.209)" fill="#fff" fill-rule="evenodd"/>
        <path id="Trazado_1056106" data-name="Trazado 1056106" d="M92.4,245.4h1.676a3.118,3.118,0,0,1,3.109,3.109v3.109H89.3v-3.109A3.107,3.107,0,0,1,92.4,245.4Z" transform="translate(-81.419 -219.514)" fill="#cc4342" fill-rule="evenodd"/>
      </g>
      <path id="Trazado_1056107" data-name="Trazado 1056107" d="M30.056,74.259a.812.812,0,0,1,.811-1.406l1.69.973a.8.8,0,0,1,.3,1.108.812.812,0,0,1-1.108.3Zm2.731-3.325a.812.812,0,1,1,1.406-.811l.973,1.69a.812.812,0,1,1-1.406.811ZM44.4,72.854a.812.812,0,1,1,.811,1.406l-1.69.973a.812.812,0,1,1-.811-1.406Zm-3.339-2.731a.812.812,0,1,1,1.406.811l-.973,1.69a.8.8,0,0,1-1.108.3.824.824,0,0,1-.3-1.108Zm-4.245-.7a.811.811,0,0,1,1.622,0v1.947a.811.811,0,0,1-1.622,0Zm-.027,4.366h1.676a3.923,3.923,0,0,1,3.92,3.92V80h.338a.813.813,0,0,1,.811.811v3.406a.813.813,0,0,1-.811.811H32.529a.813.813,0,0,1-.811-.811V80.815A.813.813,0,0,1,32.529,80h.338v-2.3A3.932,3.932,0,0,1,36.787,73.786Zm1.676,1.622H36.787a2.314,2.314,0,0,0-2.3,2.3V80h6.259v-2.3A2.285,2.285,0,0,0,38.464,75.408ZM33.34,83.4h8.57V81.613H33.34Zm4.285-18.762c.284,0,.568.014.838.027V48.711a.813.813,0,0,1,.811-.811H86.64a.813.813,0,0,1,.811.811v54.638a.813.813,0,0,1-.811.811H39.275a.813.813,0,0,1-.811-.811V89.859a12.626,12.626,0,1,1-.838-25.224Zm2.46.243A12.626,12.626,0,0,1,50.224,76.449h2.758l14.1-17.167-.838.135a.807.807,0,1,1-.243-1.6l3.312-.514a.809.809,0,0,1,.96.865l-.284,2.879a.808.808,0,1,1-1.609-.149l.068-.73L55.077,76.449H66.743l-.473-.311a.835.835,0,0,1-.243-1.122.822.822,0,0,1,1.122-.243l2.744,1.784a.815.815,0,0,1,.014,1.365l-2.758,1.8a.812.812,0,0,1-.879-1.365l.473-.311H55.077L68.446,94.32l-.068-.73a.808.808,0,1,1,1.609-.149l.284,2.879a.8.8,0,0,1-.96.865L66,96.672a.807.807,0,0,1,.243-1.6l.838.135-14.1-17.14H50.224A12.626,12.626,0,0,1,40.086,89.642v12.882H85.829v-53H40.086Zm5.326,4.61a10.992,10.992,0,1,0,3.231,7.773A11,11,0,0,0,45.412,69.488ZM74.488,73.34h5.934a.813.813,0,0,1,.811.811v6.218a.813.813,0,0,1-.811.811H74.488a.813.813,0,0,1-.811-.811V74.151A.813.813,0,0,1,74.488,73.34Zm5.123,1.622H75.3v4.6h4.312ZM74.488,54.51h5.934a.813.813,0,0,1,.811.811v6.218a.813.813,0,0,1-.811.811H74.488a.813.813,0,0,1-.811-.811V55.321A.813.813,0,0,1,74.488,54.51Zm5.123,1.636H75.3v4.6h4.312ZM74.488,92.17h5.934a.813.813,0,0,1,.811.811V99.2a.813.813,0,0,1-.811.811H74.488a.813.813,0,0,1-.811-.811V92.981A.813.813,0,0,1,74.488,92.17Zm5.123,1.622H75.3v4.6h4.312ZM45.222,55.051a.811.811,0,0,1,0-1.622H55.739a.811.811,0,1,1,0,1.622ZM50.467,88.7a.811.811,0,1,1,0-1.622h5.258a.811.811,0,1,1,0,1.622Zm-5.245,4.569a.811.811,0,1,1,0-1.622H55.739a.811.811,0,1,1,0,1.622Zm0,4.569a.811.811,0,0,1,0-1.622H55.739a.811.811,0,0,1,0,1.622Zm5.245-33.645a.811.811,0,0,1,0-1.622h5.258a.811.811,0,1,1,0,1.622ZM45.222,59.62a.811.811,0,0,1,0-1.622H55.739a.811.811,0,0,1,0,1.622Z" transform="translate(0 0)"/>
    </g>
  </g>
</svg>
