<svg xmlns="http://www.w3.org/2000/svg" xmlns:xlink="http://www.w3.org/1999/xlink" width="108" height="108" viewBox="0 0 108 108">
  <defs>
    <filter id="Trazado_904820" x="0" y="0" width="108" height="108" filterUnits="userSpaceOnUse">
      <feOffset dy="3" input="SourceAlpha"/>
      <feGaussianBlur stdDeviation="3" result="blur"/>
      <feFlood flood-opacity="0.161"/>
      <feComposite operator="in" in2="blur"/>
      <feComposite in="SourceGraphic"/>
    </filter>
  </defs>
  <g id="Grupo_1209262" data-name="Grupo 1209262" transform="translate(-620 -489.452)">
    <g id="Grupo_1208908" data-name="Grupo 1208908" transform="translate(629 495.452)">
      <g id="Grupo_1174741" data-name="Grupo 1174741" transform="translate(0 0)">
        <g id="Grupo_1173585" data-name="Grupo 1173585">
          <g id="Grupo_1173428" data-name="Grupo 1173428">
            <g id="Grupo_1171958" data-name="Grupo 1171958">
              <g id="Grupo_1167341" data-name="Grupo 1167341">
                <g id="Grupo_1166792" data-name="Grupo 1166792">
                  <g transform="matrix(1, 0, 0, 1, -9, -6)" filter="url(#Trazado_904820)">
                    <g id="Trazado_904820-2" data-name="Trazado 904820" transform="translate(9 6)" fill="#e5fdfa">
                      <path d="M 44.99999618530273 88.50002288818359 C 39.12687301635742 88.50002288818359 33.43022155761719 87.35009765625 28.06829643249512 85.08218383789062 C 22.88852119445801 82.89133453369141 18.23629570007324 79.75460815429688 14.24084663391113 75.75916290283203 C 10.24540901184082 71.76371002197266 7.108683586120605 67.11148834228516 4.917821407318115 61.93171310424805 C 2.649921178817749 56.56978607177734 1.499996185302734 50.87313461303711 1.499996185302734 45.0000114440918 C 1.499996185302734 39.12688827514648 2.649921178817749 33.43023681640625 4.917821407318115 28.06831169128418 C 7.108683586120605 22.88853645324707 10.24540901184082 18.2363109588623 14.24084663391113 14.2408618927002 C 18.23629570007324 10.24541187286377 22.88852119445801 7.108686447143555 28.06829643249512 4.917836666107178 C 33.43022155761719 2.649924039840698 39.12687301635742 1.499998927116394 44.99999618530273 1.499998927116394 C 50.87311935424805 1.499998927116394 56.56977081298828 2.649924039840698 61.93169784545898 4.917836666107178 C 67.11147308349609 7.108686447143555 71.76369476318359 10.24541187286377 75.75914764404297 14.2408618927002 C 79.75458526611328 18.2363109588623 82.89131164550781 22.88853645324707 85.08216857910156 28.06831169128418 C 87.35007476806641 33.43023681640625 88.5 39.12688827514648 88.5 45.0000114440918 C 88.5 50.87313461303711 87.35007476806641 56.56978607177734 85.08216857910156 61.93171310424805 C 82.89131164550781 67.11148834228516 79.75458526611328 71.76371002197266 75.75914764404297 75.75916290283203 C 71.76369476318359 79.75460815429688 67.11147308349609 82.89133453369141 61.93169784545898 85.08218383789062 C 56.56977081298828 87.35009765625 50.87311935424805 88.50002288818359 44.99999618530273 88.50002288818359 Z" stroke="none"/>
                      <path d="M 44.99999618530273 3 C 39.32870864868164 3 33.82865142822266 4.110054016113281 28.65262603759766 6.299339294433594 C 23.65165710449219 8.414566040039062 19.15968322753906 11.44333648681641 15.301513671875 15.30152893066406 C 11.44333648681641 19.15969848632812 8.414566040039062 23.65165710449219 6.299339294433594 28.65264129638672 C 4.110054016113281 33.82866668701172 2.999992370605469 39.3287239074707 2.999992370605469 45.0000114440918 C 2.999992370605469 50.67129898071289 4.110054016113281 56.17135620117188 6.299339294433594 61.34738159179688 C 8.414566040039062 66.34836578369141 11.44333648681641 70.84032440185547 15.301513671875 74.69849395751953 C 19.15968322753906 78.55668640136719 23.65165710449219 81.58545684814453 28.65262603759766 83.70068359375 C 33.82865142822266 85.88996887207031 39.32870864868164 87.00002288818359 44.99999618530273 87.00002288818359 C 50.67128372192383 87.00002288818359 56.17134094238281 85.88996887207031 61.34736633300781 83.70068359375 C 66.34834289550781 81.58545684814453 70.84030914306641 78.55668640136719 74.69847869873047 74.69849395751953 C 78.55665588378906 70.84032440185547 81.58542633056641 66.34836578369141 83.70065307617188 61.34738159179688 C 85.88993835449219 56.17135620117188 87 50.67129898071289 87 45.0000114440918 C 87 39.3287239074707 85.88993835449219 33.82866668701172 83.70065307617188 28.65264129638672 C 81.58542633056641 23.65165710449219 78.55665588378906 19.15969848632812 74.69847869873047 15.30152893066406 C 70.84030914306641 11.44333648681641 66.34834289550781 8.414566040039062 61.34736633300781 6.299339294433594 C 56.17134094238281 4.110054016113281 50.67128372192383 3 44.99999618530273 3 M 44.99999618530273 0 C 69.85281372070312 0 90 20.14719390869141 90 45.0000114440918 C 90 69.85282897949219 69.85281372070312 90.00002288818359 44.99999618530273 90.00002288818359 C 20.14717864990234 90.00002288818359 -7.62939453125e-06 69.85282897949219 -7.62939453125e-06 45.0000114440918 C -7.62939453125e-06 20.14719390869141 20.14717864990234 0 44.99999618530273 0 Z" stroke="none" fill="#098576"/>
                    </g>
                  </g>
                </g>
              </g>
            </g>
          </g>
        </g>
      </g>
    </g>
    <g id="data_8916436" transform="translate(600.873 510.783)">
      <g id="Grupo_1209261" data-name="Grupo 1209261" transform="translate(50.917 1.955)">
        <g id="Grupo_1209259" data-name="Grupo 1209259" transform="translate(0)">
          <path id="Trazado_1055579" data-name="Trazado 1055579" d="M148.259,103.432H112.651a1.443,1.443,0,0,1-1.441-1.441V65.838a1.392,1.392,0,0,1,.422-1.019L123.15,53.3a1.391,1.391,0,0,1,1.019-.422h24.09A1.443,1.443,0,0,1,149.7,54.32v47.672A1.443,1.443,0,0,1,148.259,103.432Z" transform="translate(-105.279 -48.002)" fill="#d8d8d8" fill-rule="evenodd"/>
          <path id="Trazado_1055580" data-name="Trazado 1055580" d="M95.509,60.054H59.9a1.443,1.443,0,0,1-1.441-1.441V22.46a1.392,1.392,0,0,1,.422-1.019L70.4,9.923A1.392,1.392,0,0,1,71.419,9.5H95.509a1.443,1.443,0,0,1,1.441,1.441V58.613a1.444,1.444,0,0,1-1.441,1.441Z" transform="translate(-58.46 -9.501)" fill="#eff4f7" fill-rule="evenodd"/>
          <path id="Trazado_1055581" data-name="Trazado 1055581" d="M59.572,22.847H69.656a2.138,2.138,0,0,0,.725-.126,2.167,2.167,0,0,0,1.3-1.3,2.138,2.138,0,0,0,.126-.725V10.61a1.451,1.451,0,0,0-.422.3L59.869,22.425A1.442,1.442,0,0,0,59.572,22.847Z" transform="translate(-59.447 -10.485)" fill="#d8d8d8" fill-rule="evenodd"/>
        </g>
        <g id="Grupo_1209260" data-name="Grupo 1209260" transform="translate(3.984 26.499)">
          <path id="Trazado_1055582" data-name="Trazado 1055582" d="M113.554,340.342h4.494a.676.676,0,0,1,.675.674v8.093h-5.844v-8.093A.676.676,0,0,1,113.554,340.342Z" transform="translate(-110.745 -329.643)" fill="#e03" fill-rule="evenodd"/>
          <path id="Trazado_1055583" data-name="Trazado 1055583" d="M204.314,292.766h4.495a.676.676,0,0,1,.674.675v13.442h-5.844V293.441A.676.676,0,0,1,204.314,292.766Z" transform="translate(-191.3 -287.416)" fill="#fad808" fill-rule="evenodd"/>
          <path id="Trazado_1055584" data-name="Trazado 1055584" d="M295.074,245.186h4.495a.676.676,0,0,1,.675.675v18.792H294.4V245.861A.676.676,0,0,1,295.074,245.186Z" transform="translate(-271.856 -245.186)" fill="#22c269" fill-rule="evenodd"/>
          <path id="Trazado_1055585" data-name="Trazado 1055585" d="M94.345,401.252h29.622a.451.451,0,0,1,.45.45v2.234a.451.451,0,0,1-.45.45H94.345a.451.451,0,0,1-.45-.45V401.7a.451.451,0,0,1,.45-.45Z" transform="translate(-93.895 -383.705)" fill="#4d5c7d" fill-rule="evenodd"/>
        </g>
        <path id="Trazado_1055586" data-name="Trazado 1055586" d="M200.931,69.792a8.21,8.21,0,0,0,5.824-2.412l-5.824-5.824,4.119-7.134a8.237,8.237,0,1,0-4.119,15.37Z" transform="translate(-177.602 -48.393)" fill="#1980f2" fill-rule="evenodd"/>
        <path id="Trazado_1055587" data-name="Trazado 1055587" d="M303.97,68.033a8.237,8.237,0,0,0-1.705-12.957l-4.119,7.133Z" transform="translate(-271.197 -49.952)" fill="#fad808" fill-rule="evenodd"/>
      </g>
      <path id="Trazado_1055588" data-name="Trazado 1055588" d="M53.946,31.941a.955.955,0,0,1,.955-.956h8.308a.956.956,0,1,1,0,1.911H54.9A.956.956,0,0,1,53.946,31.941Zm0-4.216a.955.955,0,0,1,.955-.956H66.02a.956.956,0,1,1,0,1.911H54.9A.956.956,0,0,1,53.946,27.725Zm0-4.216a.955.955,0,0,1,.955-.955H66.02a.956.956,0,1,1,0,1.911H54.9A.956.956,0,0,1,53.946,23.509Zm29.7-4.867L79.06,14.056,82.3,8.44a7.313,7.313,0,0,1,2.844,5.773,7.232,7.232,0,0,1-1.5,4.429ZM82.463,6.252a.957.957,0,0,0-1.307.35l-4.118,7.133a.955.955,0,0,0,.152,1.153l5.823,5.824a.956.956,0,0,0,1.352,0,9.13,9.13,0,0,0,2.692-6.5A9.226,9.226,0,0,0,82.463,6.252ZM74.245,7.838a7.3,7.3,0,0,1,2.782.551L73.418,14.64a.953.953,0,0,0,.152,1.153l5.1,5.1a7.281,7.281,0,1,1-4.429-13.06Zm0,16.473a9.136,9.136,0,0,0,6.5-2.693.956.956,0,0,0,0-1.352L75.44,14.96l3.752-6.5a.956.956,0,0,0-.348-1.305,9.192,9.192,0,1,0-4.6,17.153ZM84.467,48.179H55.857V46.957h28.61Zm-26.476-8.07h3.932v4.937H57.991ZM68.2,34.76h3.931V45.045H68.2Zm10.2-5.35h3.932V45.045H78.4Zm7.023,15.635h-1.18V28.455a.955.955,0,0,0-.956-.955H77.444a.956.956,0,0,0-.955.955V45.045h-2.45V33.8a.955.955,0,0,0-.955-.956H67.24a.955.955,0,0,0-.955.956V45.045h-2.45V39.153a.956.956,0,0,0-.956-.956H57.035a.956.956,0,0,0-.956.956v5.893H54.9a.956.956,0,0,0-.955.956v3.133a.955.955,0,0,0,.955.956H85.423a.956.956,0,0,0,.955-.956V46A.956.956,0,0,0,85.423,45.045Zm8.959,11.384V7.788h-4.02V52.508a.955.955,0,0,1-.956.956H57.8v2.966ZM51.872,15.273V51.552H88.45V2.911H64.234v9.253a3.112,3.112,0,0,1-3.109,3.109ZM62.323,4.262v7.9a1.2,1.2,0,0,1-1.2,1.2h-7.9ZM95.337,5.877H90.362V1.955A.956.956,0,0,0,89.406,1H63.279a.954.954,0,0,0-.676.281L50.241,13.642a.957.957,0,0,0-.28.676v38.19a.956.956,0,0,0,.955.956h4.975v3.921a.956.956,0,0,0,.956.956h38.49a.955.955,0,0,0,.955-.956V6.832a.956.956,0,0,0-.955-.955Z" fill-rule="evenodd"/>
    </g>
  </g>
</svg>
