<svg xmlns="http://www.w3.org/2000/svg" xmlns:xlink="http://www.w3.org/1999/xlink" width="101.234" height="101.234" viewBox="0 0 101.234 101.234">
  <defs>
    <filter id="Trazado_904820" x="0" y="0" width="101.234" height="101.234" filterUnits="userSpaceOnUse">
      <feOffset dy="3" input="SourceAlpha"/>
      <feGaussianBlur stdDeviation="3" result="blur"/>
      <feFlood flood-opacity="0.161"/>
      <feComposite operator="in" in2="blur"/>
      <feComposite in="SourceGraphic"/>
    </filter>
  </defs>
  <g id="Grupo_1209383" data-name="Grupo 1209383" transform="translate(-172.767 -8047.118)">
    <g id="Grupo_1209245" data-name="Grupo 1209245" transform="translate(181.767 8053.118)">
      <g id="Grupo_1174741" data-name="Grupo 1174741" transform="translate(0 0)">
        <g id="Grupo_1173585" data-name="Grupo 1173585">
          <g id="Grupo_1173428" data-name="Grupo 1173428">
            <g id="Grupo_1171958" data-name="Grupo 1171958">
              <g id="Grupo_1167341" data-name="Grupo 1167341">
                <g id="Grupo_1166792" data-name="Grupo 1166792">
                  <g transform="matrix(1, 0, 0, 1, -9, -6)" filter="url(#Trazado_904820)">
                    <g id="Trazado_904820-2" data-name="Trazado 904820" transform="translate(9 6)" fill="#fef9e5">
                      <path d="M 41.61681747436523 81.73366546630859 C 36.20041656494141 81.73366546630859 30.94684028625488 80.67319488525391 26.00200653076172 78.58170318603516 C 21.22509956359863 76.56124114990234 16.93468856811523 73.66845703125 13.24994659423828 69.98371887207031 C 9.565205574035645 66.29897308349609 6.672429084777832 62.00854873657227 4.651970386505127 57.23164367675781 C 2.560476303100586 52.28680801391602 1.500005722045898 47.03323364257812 1.500005722045898 41.6168327331543 C 1.500005722045898 36.20043182373047 2.560476303100586 30.94684410095215 4.651970386505127 26.00200843811035 C 6.672429084777832 21.2251033782959 9.565205574035645 16.9346923828125 13.24994659423828 13.24995040893555 C 16.93468856811523 9.565196990966797 21.22509956359863 6.672420978546143 26.00200653076172 4.651962280273438 C 30.94684028625488 2.560467958450317 36.20041656494141 1.499997496604919 41.61681747436523 1.499997496604919 C 47.03321838378906 1.499997496604919 52.28679275512695 2.560467958450317 57.23162841796875 4.651962280273438 C 62.0085334777832 6.672420978546143 66.2989501953125 9.565196990966797 69.98368835449219 13.24995040893555 C 73.66844177246094 16.9346923828125 76.56121826171875 21.2251033782959 78.58167266845703 26.00200843811035 C 80.67317199707031 30.94684410095215 81.733642578125 36.20043182373047 81.733642578125 41.6168327331543 C 81.733642578125 47.03323364257812 80.67317199707031 52.28680801391602 78.58167266845703 57.23164367675781 C 76.56121826171875 62.00854873657227 73.66844177246094 66.29897308349609 69.98368835449219 69.98371887207031 C 66.2989501953125 73.66845703125 62.0085334777832 76.56124114990234 57.23162841796875 78.58170318603516 C 52.28679275512695 80.67319488525391 47.03321838378906 81.73366546630859 41.61681747436523 81.73366546630859 Z" stroke="none"/>
                      <path d="M 41.61681747436523 2.999992370605469 C 36.40225601196289 2.999992370605469 31.34527206420898 4.020606994628906 26.58633804321289 6.033462524414062 C 21.98823165893555 7.978302001953125 17.85807037353516 10.76312255859375 14.31060791015625 14.31060791015625 C 10.76313781738281 17.85807037353516 7.978309631347656 21.98823165893555 6.033470153808594 26.58633804321289 C 4.020606994628906 31.34528732299805 3.000007629394531 36.40227127075195 3.000007629394531 41.6168327331543 C 3.000007629394531 46.83139419555664 4.020606994628906 51.88838195800781 6.033470153808594 56.64732360839844 C 7.978309631347656 61.24542999267578 10.76313781738281 65.37557983398438 14.31060791015625 68.92304992675781 C 17.85807037353516 72.47052764892578 21.98823165893555 75.25535583496094 26.58633804321289 77.2001953125 C 31.34527206420898 79.21304321289062 36.40225601196289 80.23365783691406 41.61681747436523 80.23365783691406 C 46.83137893676758 80.23365783691406 51.88836669921875 79.21304321289062 56.64729690551758 77.2001953125 C 61.24540328979492 75.25535583496094 65.37556457519531 72.47052764892578 68.92303466796875 68.92304992675781 C 72.47049713134766 65.37557983398438 75.25532531738281 61.24542999267578 77.20016479492188 56.64732360839844 C 79.21302795410156 51.88838195800781 80.23362731933594 46.83139419555664 80.23362731933594 41.6168327331543 C 80.23362731933594 36.40227127075195 79.21302795410156 31.34528732299805 77.20016479492188 26.58633804321289 C 75.25532531738281 21.98823165893555 72.47049713134766 17.85807037353516 68.92303466796875 14.31060791015625 C 65.37556457519531 10.76312255859375 61.24540328979492 7.978302001953125 56.64729690551758 6.033462524414062 C 51.88836669921875 4.020606994628906 46.83137893676758 2.999992370605469 41.61681747436523 2.999992370605469 M 41.61681747436523 -7.62939453125e-06 C 64.60115051269531 -7.62939453125e-06 83.23362731933594 18.63248443603516 83.23362731933594 41.6168327331543 C 83.23362731933594 64.60116577148438 64.60115051269531 83.23365783691406 41.61681747436523 83.23365783691406 C 18.63248443603516 83.23365783691406 7.62939453125e-06 64.60116577148438 7.62939453125e-06 41.6168327331543 C 7.62939453125e-06 18.63248443603516 18.63248443603516 -7.62939453125e-06 41.61681747436523 -7.62939453125e-06 Z" stroke="none" fill="#866d08"/>
                    </g>
                  </g>
                </g>
              </g>
            </g>
          </g>
        </g>
      </g>
    </g>
    <g id="_13-ecommerce" data-name="13-ecommerce" transform="translate(197.522 8067.066)">
      <rect id="Rectángulo_419760" data-name="Rectángulo 419760" width="46" height="32" transform="translate(2.978 13.978)" fill="#dfe6e9"/>
      <rect id="Rectángulo_419761" data-name="Rectángulo 419761" width="38" height="26" transform="translate(6.978 16.978)" fill="#74b9ff"/>
      <path id="Trazado_1056118" data-name="Trazado 1056118" d="M43.849,1H21.118L13,9.118v34.1H43.849Z" transform="translate(-2.446 -0.188)" fill="#edf1f2"/>
      <path id="Trazado_1056119" data-name="Trazado 1056119" d="M21.118,1V9.118H13Z" transform="translate(-2.446 -0.188)" fill="#a1aaad"/>
      <path id="Trazado_1056120" data-name="Trazado 1056120" d="M1,57H51.332v4.059a.812.812,0,0,1-.812.812H1.812A.812.812,0,0,1,1,61.059Z" transform="translate(-0.188 -10.727)" fill="#b2bec3"/>
      <path id="Trazado_1056121" data-name="Trazado 1056121" d="M25,57H36.365v1.624a.812.812,0,0,1-.812.812H25.812A.812.812,0,0,1,25,58.624Z" transform="translate(-4.705 -10.727)" fill="#6e7a7c"/>
      <ellipse id="Elipse_13609" data-name="Elipse 13609" cx="1.5" cy="2" rx="1.5" ry="2" transform="translate(31.978 32.978)" fill="#ff7675"/>
      <ellipse id="Elipse_13610" data-name="Elipse 13610" cx="2" cy="1.5" rx="2" ry="1.5" transform="translate(23.978 29.978)" fill="#ff7675"/>
      <path id="Trazado_1056122" data-name="Trazado 1056122" d="M24.247,42.624A1.624,1.624,0,1,1,22.624,41a1.624,1.624,0,0,1,1.624,1.624Z" transform="translate(-3.952 -7.716)" fill="#ff7675"/>
      <path id="Trazado_1056123" data-name="Trazado 1056123" d="M29.177,39.495a1.624,1.624,0,1,0-1.624-1.624A1.624,1.624,0,0,0,29.177,39.495Zm7.306,0a1.624,1.624,0,1,0,1.624,1.624,1.624,1.624,0,0,0-1.624-1.624Zm-13.362.593a1.62,1.62,0,1,0,.373,1.031A1.608,1.608,0,0,0,23.121,40.087ZM41.354,33V45.989H17V33Z" transform="translate(-3.199 -6.21)" fill="#81ecec"/>
      <path id="Trazado_1056124" data-name="Trazado 1056124" d="M32.177,17l-2.435,2.435v1.624H20V19.435L22.435,17h9.742Z" transform="translate(-3.764 -3.199)" fill="#ffeaa7"/>
      <path id="Trazado_1056125" data-name="Trazado 1056125" d="M42.306,19.435v1.624H37.435V19.435L35,17h4.871Z" transform="translate(-6.587 -3.199)" fill="#ffeaa7"/>
      <path id="Trazado_1056126" data-name="Trazado 1056126" d="M32.742,17v9.742H23V21.059h7.306V19.435Z" transform="translate(-4.328 -3.199)" fill="#fdcb6e"/>
      <path id="Trazado_1056127" data-name="Trazado 1056127" d="M37.435,21.059h2.435v5.683H35V17l2.435,2.435Z" transform="translate(-6.587 -3.199)" fill="#fdcb6e"/>
      <path id="Trazado_1056128" data-name="Trazado 1056128" d="M51.144,45.462H49.521V13.8a.812.812,0,0,0-.812-.812H42.214V.812A.812.812,0,0,0,41.4,0H18.672A.812.812,0,0,0,18.1.238L9.98,8.356a.812.812,0,0,0-.238.574v4.059H3.247a.812.812,0,0,0-.812.812V45.462H.812A.812.812,0,0,0,0,46.273v4.059a1.624,1.624,0,0,0,1.624,1.624H50.332a1.624,1.624,0,0,0,1.624-1.624V46.273A.812.812,0,0,0,51.144,45.462Zm-8.93-27.6H44.65V42.214H42.214ZM11.365,9.742h7.306a.812.812,0,0,0,.812-.812V1.624H40.591V42.214H11.365Zm1.148-1.624L17.86,2.772V8.118Zm-2.772,34.1H7.306V17.86H9.742Zm-5.683-27.6H9.742v1.624H6.495a.812.812,0,0,0-.812.812V43.026a.812.812,0,0,0,.812.812H45.462a.812.812,0,0,0,.812-.812V17.048a.812.812,0,0,0-.812-.812H42.214V14.613H47.9V45.462H4.059ZM21.107,47.085h9.742V47.9H21.107Zm29.225,3.247H1.624V47.085h17.86V47.9a1.624,1.624,0,0,0,1.624,1.624h9.742A1.624,1.624,0,0,0,32.473,47.9v-.812h17.86Z"/>
      <path id="Trazado_1056129" data-name="Trazado 1056129" d="M19.812,21.683h1.624v4.871a.812.812,0,0,0,.812.812H36.86a.812.812,0,0,0,.812-.812V21.683H39.3a.812.812,0,0,0,.812-.812V19.247a.812.812,0,0,0-.238-.574l-2.436-2.436A.812.812,0,0,0,36.86,16H22.247a.812.812,0,0,0-.574.238l-2.436,2.436a.812.812,0,0,0-.238.574v1.624A.812.812,0,0,0,19.812,21.683Zm16.712-4.059,1.96,1.96v.476H35.236v-.812A.812.812,0,0,0,35,18.673l-1.05-1.05ZM32.8,18.772l.812.812v1.288a.812.812,0,0,0,.812.812h1.624v4.059H32.8Zm-2.435,2.1V19.583l.812-.812v6.97H23.059V21.683h6.495A.812.812,0,0,0,30.365,20.871Zm-9.742-1.288,1.96-1.96h7.446l-1.05,1.05a.812.812,0,0,0-.238.574v.812H20.624Z" transform="translate(-3.576 -3.011)"/>
      <path id="Trazado_1056130" data-name="Trazado 1056130" d="M41.166,32H16.812a.812.812,0,0,0-.812.812V45.8a.812.812,0,0,0,.812.812H41.166a.812.812,0,0,0,.812-.812V32.812A.812.812,0,0,0,41.166,32Zm-.812,12.989H17.624V33.624H40.354Z" transform="translate(-3.011 -6.022)"/>
      <path id="Trazado_1056131" data-name="Trazado 1056131" d="M22.435,44.121a2.411,2.411,0,0,0,2.335-3.1L27.612,39.6a2.414,2.414,0,0,0,4.221.067l2.813,1.688a2.485,2.485,0,0,0-.033.332,2.453,2.453,0,1,0,.781-1.777l-3.266-1.957a2.435,2.435,0,0,0-4.758-.044L23.8,39.693a2.428,2.428,0,1,0-1.37,4.428Zm14.613-3.247a.812.812,0,1,1-.812.812A.812.812,0,0,1,37.048,40.874Zm-7.306-3.247a.812.812,0,1,1-.812.812A.812.812,0,0,1,29.742,37.626Zm-7.306,3.247a.812.812,0,1,1-.812.812.819.819,0,0,1,.812-.812Z" transform="translate(-3.764 -6.777)"/>
      <rect id="Rectángulo_419762" data-name="Rectángulo 419762" width="11" height="2" transform="translate(27.978 2.978)"/>
      <rect id="Rectángulo_419763" data-name="Rectángulo 419763" width="18" height="1" transform="translate(20.978 6.978)"/>
      <rect id="Rectángulo_419764" data-name="Rectángulo 419764" width="18" height="1" transform="translate(20.978 9.978)"/>
      <rect id="Rectángulo_419765" data-name="Rectángulo 419765" width="5" height="2" transform="translate(20.978 2.978)"/>
    </g>
  </g>
</svg>
