<svg xmlns="http://www.w3.org/2000/svg" xmlns:xlink="http://www.w3.org/1999/xlink" width="108" height="108" viewBox="0 0 108 108">
  <defs>
    <filter id="Trazado_904820" x="0" y="0" width="108" height="108" filterUnits="userSpaceOnUse">
      <feOffset dy="3" input="SourceAlpha"/>
      <feGaussianBlur stdDeviation="3" result="blur"/>
      <feFlood flood-opacity="0.161"/>
      <feComposite operator="in" in2="blur"/>
      <feComposite in="SourceGraphic"/>
    </filter>
  </defs>
  <g id="Grupo_1209396" data-name="Grupo 1209396" transform="translate(-620 -435.782)">
    <g id="Grupo_1208925" data-name="Grupo 1208925" transform="translate(629 441.782)">
      <g id="Grupo_1174741" data-name="Grupo 1174741" transform="translate(0 0)">
        <g id="Grupo_1173585" data-name="Grupo 1173585">
          <g id="Grupo_1173428" data-name="Grupo 1173428">
            <g id="Grupo_1171958" data-name="Grupo 1171958">
              <g id="Grupo_1167341" data-name="Grupo 1167341">
                <g id="Grupo_1166792" data-name="Grupo 1166792">
                  <g transform="matrix(1, 0, 0, 1, -9, -6)" filter="url(#Trazado_904820)">
                    <g id="Trazado_904820-2" data-name="Trazado 904820" transform="translate(9 6)" fill="#e5ebfb">
                      <path d="M 44.99996948242188 88.50002288818359 C 39.12684631347656 88.50002288818359 33.43020629882812 87.35009765625 28.06828117370605 85.08218383789062 C 22.88851928710938 82.89133453369141 18.23629379272461 79.75460815429688 14.2408447265625 75.7591552734375 C 10.24540710449219 71.76371002197266 7.108694553375244 67.11148071289062 4.917831897735596 61.93170928955078 C 2.649931907653809 56.56978225708008 1.500007033348083 50.87313079833984 1.500007033348083 45.00000762939453 C 1.500007033348083 39.12688446044922 2.649931907653809 33.43023300170898 4.917831897735596 28.06830787658691 C 7.108694553375244 22.8885326385498 10.24540710449219 18.23630714416504 14.2408447265625 14.24085807800293 C 18.23629379272461 10.24542045593262 22.88850784301758 7.108695030212402 28.06828117370605 4.917832851409912 C 33.43020629882812 2.649932622909546 39.12684631347656 1.500007629394531 44.99996948242188 1.500007629394531 C 50.87309265136719 1.500007629394531 56.56973266601562 2.649932622909546 61.93165588378906 4.917832851409912 C 67.11143493652344 7.108695030212402 71.76364135742188 10.24542045593262 75.75909423828125 14.24085807800293 C 79.75454711914062 18.23630714416504 82.89125823974609 22.8885326385498 85.08212280273438 28.06830787658691 C 87.35002136230469 33.43023300170898 88.49994659423828 39.12688446044922 88.49994659423828 45.00000762939453 C 88.49994659423828 50.87313079833984 87.35002136230469 56.56978225708008 85.08212280273438 61.93170928955078 C 82.89125823974609 67.11148071289062 79.75454711914062 71.76371002197266 75.75909423828125 75.7591552734375 C 71.76364135742188 79.75460815429688 67.11143493652344 82.89133453369141 61.93165588378906 85.08218383789062 C 56.56973266601562 87.35009765625 50.87309265136719 88.50002288818359 44.99996948242188 88.50002288818359 Z" stroke="none"/>
                      <path d="M 44.99996948242188 2.999992370605469 C 39.32868194580078 2.999992370605469 33.82863998413086 4.110054016113281 28.65261077880859 6.299339294433594 C 23.65164184570312 8.414566040039062 19.15968322753906 11.44333648681641 15.301513671875 15.30150604248047 C 11.44332885742188 19.15969085693359 8.414566040039062 23.65164947509766 6.299324035644531 28.65263748168945 C 4.110054016113281 33.82866287231445 3 39.32872009277344 3 45.00000762939453 C 3 50.67129516601562 4.110054016113281 56.17133712768555 6.299324035644531 61.34738159179688 C 8.414566040039062 66.34835052490234 11.44332885742188 70.84030914306641 15.30149841308594 74.69849395751953 C 19.15968322753906 78.55666351318359 23.65164184570312 81.58543395996094 28.65261077880859 83.70066833496094 C 33.82863998413086 85.88995361328125 39.32868194580078 87.00000762939453 44.99996948242188 87.00000762939453 C 50.67125701904297 87.00000762939453 56.17129898071289 85.88995361328125 61.34732818603516 83.70066833496094 C 66.34829711914062 81.58543395996094 70.84025573730469 78.55666351318359 74.69844055175781 74.69849395751953 C 78.55661010742188 70.84030914306641 81.58537292480469 66.34835052490234 83.70061492919922 61.34738159179688 C 85.88988494873047 56.17133712768555 86.99993896484375 50.67129516601562 86.99993896484375 45.00000762939453 C 86.99993896484375 39.32872009277344 85.88988494873047 33.82866287231445 83.70061492919922 28.65263748168945 C 81.58537292480469 23.65164947509766 78.55661010742188 19.15969085693359 74.69842529296875 15.30150604248047 C 70.84025573730469 11.44333648681641 66.34829711914062 8.414566040039062 61.34732818603516 6.299339294433594 C 56.17129898071289 4.110054016113281 50.67125701904297 2.999992370605469 44.99996948242188 2.999992370605469 M 44.99996948242188 -7.62939453125e-06 C 69.85276794433594 -7.62939453125e-06 89.99993896484375 20.14719390869141 89.99993896484375 45.00000762939453 C 89.99993896484375 69.85280609130859 69.85276794433594 90.00000762939453 44.99996948242188 90.00000762939453 C 20.14717102050781 90.00000762939453 0 69.85280609130859 0 45.00000762939453 C 0 20.14719390869141 20.14717102050781 -7.62939453125e-06 44.99996948242188 -7.62939453125e-06 Z" stroke="none" fill="#0b47db"/>
                    </g>
                  </g>
                </g>
              </g>
            </g>
          </g>
        </g>
      </g>
    </g>
    <g id="documentation_3205938" transform="translate(642.99 457.99)">
      <g id="Grupo_1209394" data-name="Grupo 1209394" transform="translate(1.936 1.936)">
        <g id="Grupo_1209384" data-name="Grupo 1209384" transform="translate(14.973 5.615)">
          <path id="Trazado_1056132" data-name="Trazado 1056132" d="M57.3,8H18V56.662a1.877,1.877,0,0,0,1.872,1.872H49.041a1.842,1.842,0,0,0,.777-.168V51.048a1.877,1.877,0,0,1,1.872-1.872h7.318a1.842,1.842,0,0,0,.168-.777V9.872A1.877,1.877,0,0,0,57.3,8Z" transform="translate(-18 -8)" fill="#f0d0b4"/>
        </g>
        <g id="Grupo_1209385" data-name="Grupo 1209385" transform="translate(26.203 9.358)">
          <path id="Trazado_1056133" data-name="Trazado 1056133" d="M30,12H56.2V30.716H30Z" transform="translate(-30 -12)" fill="#e6e9ed"/>
        </g>
        <g id="Grupo_1209386" data-name="Grupo 1209386" transform="translate(0 39.304)">
          <circle id="Elipse_13611" data-name="Elipse 13611" cx="2" cy="2" r="2" transform="translate(0.075 -0.23)" fill="#ff826e"/>
        </g>
        <g id="Grupo_1209387" data-name="Grupo 1209387" transform="translate(7.487 34.625)">
          <ellipse id="Elipse_13612" data-name="Elipse 13612" cx="2" cy="1.5" rx="2" ry="1.5" transform="translate(-0.413 0.449)" fill="#ff826e"/>
        </g>
        <g id="Grupo_1209388" data-name="Grupo 1209388" transform="translate(18.716 46.791)">
          <path id="Trazado_1056134" data-name="Trazado 1056134" d="M22,52H44.46v5.615H22Z" transform="translate(-22 -52)" fill="#ff826e"/>
        </g>
        <g id="Grupo_1209389" data-name="Grupo 1209389" transform="translate(46.791 46.791)">
          <path id="Trazado_1056135" data-name="Trazado 1056135" d="M53.872,52H61.19a1.887,1.887,0,0,1-.384.552l-8.254,8.254A1.887,1.887,0,0,1,52,61.19V53.872A1.877,1.877,0,0,1,53.872,52Z" transform="translate(-52 -52)" fill="#5cd6b3"/>
        </g>
        <g id="Grupo_1209390" data-name="Grupo 1209390" transform="translate(31.818 20.588)">
          <path id="Trazado_1056136" data-name="Trazado 1056136" d="M50.655,29.877l.318,1.61H36l.318-1.61a7.31,7.31,0,0,1,14.337,0Z" transform="translate(-36 -24)" fill="#5cd6b3"/>
        </g>
        <g id="Grupo_1209391" data-name="Grupo 1209391" transform="translate(35.561 13.101)">
          <circle id="Elipse_13613" data-name="Elipse 13613" cx="4" cy="4" r="4" transform="translate(-0.487 -0.027)" fill="#f0d0b4"/>
        </g>
        <g id="Grupo_1209392" data-name="Grupo 1209392">
          <path id="Trazado_1056137" data-name="Trazado 1056137" d="M21.961,7.615c-.028.084-.066.168-.1.253a1.9,1.9,0,0,0-.056,1.61l.14.337a1.915,1.915,0,0,0,1.179,1.1,1.95,1.95,0,0,1,1.338,1.844V13.7a1.95,1.95,0,0,1-1.338,1.844,1.915,1.915,0,0,0-1.179,1.1l-.14.337a1.833,1.833,0,0,0-.15.739,1.89,1.89,0,0,0,.206.87,1.933,1.933,0,0,1-.356,2.246l-.664.664a1.936,1.936,0,0,1-1.366.571,1.968,1.968,0,0,1-.88-.215,1.9,1.9,0,0,0-1.61-.056h-.009c-.112.047-.215.094-.328.14a1.915,1.915,0,0,0-1.1,1.179A1.95,1.95,0,0,1,13.7,24.46h-.936a1.95,1.95,0,0,1-1.844-1.338,1.915,1.915,0,0,0-1.1-1.179l-.337-.14a1.833,1.833,0,0,0-.739-.15,1.89,1.89,0,0,0-.87.206A1.933,1.933,0,0,1,5.622,21.5l-.664-.664a1.936,1.936,0,0,1-.571-1.366,1.968,1.968,0,0,1,.215-.88,1.9,1.9,0,0,0,.056-1.61l-.14-.337a1.915,1.915,0,0,0-1.179-1.1A1.95,1.95,0,0,1,2,13.7v-.936a1.95,1.95,0,0,1,1.338-1.844,1.915,1.915,0,0,0,1.179-1.1l.14-.337a1.833,1.833,0,0,0,.15-.739,1.89,1.89,0,0,0-.206-.87,1.933,1.933,0,0,1,.356-2.246l.664-.664a1.936,1.936,0,0,1,1.366-.571,1.968,1.968,0,0,1,.88.215,1.9,1.9,0,0,0,1.61.056l.337-.14a1.915,1.915,0,0,0,1.1-1.179A1.95,1.95,0,0,1,12.762,2H13.7a1.95,1.95,0,0,1,1.844,1.338,1.915,1.915,0,0,0,1.1,1.179l.337.14a1.833,1.833,0,0,0,.739.15,1.89,1.89,0,0,0,.87-.206,1.933,1.933,0,0,1,2.246.356l.664.664a1.936,1.936,0,0,1,.571,1.366,1.809,1.809,0,0,1-.112.627ZM18.845,13.23a5.615,5.615,0,1,0-5.615,5.615A5.619,5.619,0,0,0,18.845,13.23Z" transform="translate(-2 -2)" fill="#ffc729"/>
        </g>
        <g id="Grupo_1209393" data-name="Grupo 1209393" transform="translate(5.615 5.615)">
          <path id="Trazado_1056138" data-name="Trazado 1056138" d="M13.615,8A5.615,5.615,0,1,1,8,13.615,5.619,5.619,0,0,1,13.615,8Zm1.872,5.615a1.872,1.872,0,1,0-1.872,1.872A1.877,1.877,0,0,0,15.487,13.615Z" transform="translate(-8 -8)" fill="#fcd770"/>
        </g>
      </g>
      <g id="Grupo_1209395" data-name="Grupo 1209395" transform="translate(1 1)">
        <path id="Trazado_1056139" data-name="Trazado 1056139" d="M20.1,13.551A6.551,6.551,0,1,0,13.551,20.1,6.558,6.558,0,0,0,20.1,13.551ZM13.551,18.23a4.679,4.679,0,1,1,4.679-4.679A4.684,4.684,0,0,1,13.551,18.23Z" transform="translate(-1.385 -1.385)"/>
        <path id="Trazado_1056140" data-name="Trazado 1056140" d="M13.807,11a2.807,2.807,0,1,0,2.807,2.807A2.811,2.811,0,0,0,13.807,11Zm0,3.743a.936.936,0,1,1,.936-.936A.937.937,0,0,1,13.807,14.743Z" transform="translate(-1.642 -1.642)"/>
        <path id="Trazado_1056141" data-name="Trazado 1056141" d="M56.213,6.615h-33.3a2.86,2.86,0,0,0-.82-1.722l-.659-.659A2.871,2.871,0,0,0,18.106,3.7a.956.956,0,0,1-.818.036c-.12-.052-.242-.1-.365-.151a.96.96,0,0,1-.558-.606A2.872,2.872,0,0,0,13.632,1H12.7A2.872,2.872,0,0,0,9.966,2.98a.957.957,0,0,1-.558.6c-.123.048-.245.1-.366.151A.957.957,0,0,1,8.225,3.7a2.871,2.871,0,0,0-3.332.534l-.659.659A2.87,2.87,0,0,0,3.7,8.225a.962.962,0,0,1,.036.818c-.052.121-.1.243-.151.365a.958.958,0,0,1-.606.558A2.872,2.872,0,0,0,1,12.7v.932a2.872,2.872,0,0,0,1.98,2.734.959.959,0,0,1,.6.556c.048.124.1.246.151.368a.964.964,0,0,1-.036.817,2.87,2.87,0,0,0,.533,3.332l.659.66a2.872,2.872,0,0,0,3.332.533.959.959,0,0,1,.818-.036c.121.052.243.1.365.151a.958.958,0,0,1,.558.606A2.875,2.875,0,0,0,12.7,25.331h.932a2.867,2.867,0,0,0,2.341-1.21V56.213a2.811,2.811,0,0,0,2.807,2.807h29.17a2.794,2.794,0,0,0,1.986-.823L58.2,49.937a2.787,2.787,0,0,0,.823-1.985V9.422A2.811,2.811,0,0,0,56.213,6.615ZM14.587,22.768a1,1,0,0,1-.955.692H12.7a1,1,0,0,1-.955-.693A2.823,2.823,0,0,0,10.086,21c-.1-.039-.2-.08-.3-.123a2.77,2.77,0,0,0-1.11-.231,2.883,2.883,0,0,0-1.3.312,1,1,0,0,1-1.164-.186l-.66-.66a1,1,0,0,1-.186-1.164,2.824,2.824,0,0,0,.081-2.406q-.063-.147-.124-.3a2.825,2.825,0,0,0-1.766-1.657,1,1,0,0,1-.692-.955V12.7a1,1,0,0,1,.692-.955,2.822,2.822,0,0,0,1.766-1.658c.039-.1.08-.2.123-.3A2.826,2.826,0,0,0,5.37,7.381a1,1,0,0,1,.187-1.165l.659-.659A1,1,0,0,1,7.38,5.37a2.82,2.82,0,0,0,2.406.081c.1-.043.2-.084.3-.123a2.831,2.831,0,0,0,1.658-1.766,1,1,0,0,1,.955-.692h.932a1,1,0,0,1,.955.693,2.826,2.826,0,0,0,1.657,1.765c.1.039.2.08.3.123A2.829,2.829,0,0,0,18.95,5.37a1,1,0,0,1,1.165.186l.659.659A1,1,0,0,1,20.96,7.38a2.824,2.824,0,0,0-.081,2.406q.063.147.124.3a2.825,2.825,0,0,0,1.766,1.657,1,1,0,0,1,.692.955v.932a1,1,0,0,1-.693.955A2.823,2.823,0,0,0,21,16.245c-.039.1-.08.2-.123.3a2.826,2.826,0,0,0,.081,2.407,1,1,0,0,1-.186,1.164l-.66.66a1,1,0,0,1-1.164.186,2.83,2.83,0,0,0-2.406-.081q-.147.063-.3.124a2.823,2.823,0,0,0-1.657,1.766Zm3.258,33.445V22.562a.989.989,0,0,1,.261.069,2.872,2.872,0,0,0,3.332-.533l.66-.659a2.87,2.87,0,0,0,.533-3.332.962.962,0,0,1-.036-.818c.052-.121.1-.243.151-.365a.958.958,0,0,1,.606-.558,2.875,2.875,0,0,0,1.978-2.734V12.7a2.872,2.872,0,0,0-1.98-2.734.959.959,0,0,1-.6-.556c-.048-.124-.1-.246-.151-.368a.914.914,0,0,1-.034-.556H56.213a.937.937,0,0,1,.936.936V47.791H50.6A2.811,2.811,0,0,0,47.791,50.6v6.551H18.781A.937.937,0,0,1,17.845,56.213Zm31.818-.387V50.6a.937.937,0,0,1,.936-.936h5.227Z" transform="translate(-1 -1)"/>
        <path id="Trazado_1056142" data-name="Trazado 1056142" d="M57.074,11H29V31.588H57.074ZM40.23,19.422a2.807,2.807,0,1,1,2.807,2.807A2.811,2.811,0,0,1,40.23,19.422ZM36.692,29.716l.1-.494a6.37,6.37,0,0,1,12.492,0l.1.494Zm18.51,0H51.291l-.172-.861a8.258,8.258,0,0,0-4.938-5.99,4.68,4.68,0,1,0-6.287,0,8.258,8.258,0,0,0-4.938,5.99l-.172.862H30.872V12.872H55.2Z" transform="translate(-2.797 -1.642)"/>
        <path id="Trazado_1056143" data-name="Trazado 1056143" d="M21,51v7.487H45.331V51Zm13.1,1.872h3.743v3.743H34.1ZM32.23,56.615H28.487V52.872H32.23Zm-9.358-3.743h3.743v3.743H22.872ZM43.46,56.615H39.716V52.872H43.46Z" transform="translate(-2.284 -4.209)"/>
        <path id="Trazado_1056144" data-name="Trazado 1056144" d="M21,39h3.743v1.872H21Z" transform="translate(-2.284 -3.439)"/>
        <path id="Trazado_1056145" data-name="Trazado 1056145" d="M27,39H56.946v1.872H27Z" transform="translate(-2.669 -3.439)"/>
        <path id="Trazado_1056146" data-name="Trazado 1056146" d="M55,43h3.743v1.872H55Z" transform="translate(-4.466 -3.696)"/>
        <path id="Trazado_1056147" data-name="Trazado 1056147" d="M33,43H51.716v1.872H33Z" transform="translate(-3.054 -3.696)"/>
        <path id="Trazado_1056148" data-name="Trazado 1056148" d="M21,43h9.358v1.872H21Z" transform="translate(-2.284 -3.696)"/>
        <path id="Trazado_1056149" data-name="Trazado 1056149" d="M21,47H56.561v1.872H21Z" transform="translate(-2.284 -3.952)"/>
        <path id="Trazado_1056150" data-name="Trazado 1056150" d="M21,35H56.561v1.872H21Z" transform="translate(-2.284 -3.182)"/>
        <path id="Trazado_1056151" data-name="Trazado 1056151" d="M4.743,42.081V38.553L8.487,34.81V26H6.615v8.035L2.872,37.778v4.3a2.807,2.807,0,1,0,1.872,0Zm-.936,3.571a.936.936,0,1,1,.936-.936A.937.937,0,0,1,3.807,45.652Z" transform="translate(-1 -2.605)"/>
        <path id="Trazado_1056152" data-name="Trazado 1056152" d="M12.743,32.356l-1.872,1.872v3.367a2.807,2.807,0,1,0,1.872,0V35l1.872-1.872V29H12.743Zm-.936,8.81a.936.936,0,1,1,.936-.936A.937.937,0,0,1,11.807,41.166Z" transform="translate(-1.513 -2.797)"/>
      </g>
    </g>
  </g>
</svg>
