<svg xmlns="http://www.w3.org/2000/svg" xmlns:xlink="http://www.w3.org/1999/xlink" width="113" height="113" viewBox="0 0 113 113">
  <defs>
    <filter id="Trazado_982547" x="0" y="0" width="113" height="113" filterUnits="userSpaceOnUse">
      <feOffset dy="3" input="SourceAlpha"/>
      <feGaussianBlur stdDeviation="3" result="blur"/>
      <feFlood flood-opacity="0.161"/>
      <feComposite operator="in" in2="blur"/>
      <feComposite in="SourceGraphic"/>
    </filter>
  </defs>
  <g id="Grupo_1209398" data-name="Grupo 1209398" transform="translate(-272.127 -2451.198)">
    <g id="Grupo_1209249" data-name="Grupo 1209249" transform="translate(0.127 473.569)">
      <g id="Grupo_1208147" data-name="Grupo 1208147" transform="translate(0 -3923.371)">
        <g id="Grupo_1202432" data-name="Grupo 1202432" transform="translate(0 1255.486)">
          <g id="Grupo_1202055" data-name="Grupo 1202055" transform="translate(0 3240.511)">
            <g id="Grupo_1177900" data-name="Grupo 1177900" transform="translate(281 1411.003)">
              <g id="Grupo_1172010" data-name="Grupo 1172010" transform="translate(0)">
                <g id="Grupo_1171046" data-name="Grupo 1171046">
                  <g id="Grupo_1148525" data-name="Grupo 1148525">
                    <g transform="matrix(1, 0, 0, 1, -9, -6)" filter="url(#Trazado_982547)">
                      <g id="Trazado_982547-2" data-name="Trazado 982547" transform="translate(9 6)" fill="#fdf4ce">
                        <path d="M 47.5 93.5 C 41.28937149047852 93.5 35.26533508300781 92.28397369384766 29.59518623352051 89.88570404052734 C 24.11771965026855 87.56893157958984 19.19813346862793 84.25196075439453 14.97309303283691 80.02691650390625 C 10.74804019927979 75.80186462402344 7.431066513061523 70.88229370117188 5.114293098449707 65.40481567382812 C 2.716026782989502 59.73468017578125 1.5 53.71062850952148 1.5 47.5 C 1.5 41.28937149047852 2.716026782989502 35.26533508300781 5.114293098449707 29.59518623352051 C 7.431066513061523 24.11771965026855 10.74804019927979 19.19813346862793 14.97309303283691 14.97309303283691 C 19.19813346862793 10.74804019927979 24.11771965026855 7.431066513061523 29.59518623352051 5.114293098449707 C 35.26533508300781 2.716026782989502 41.28937149047852 1.5 47.5 1.5 C 53.71062850952148 1.5 59.73468017578125 2.716026782989502 65.40481567382812 5.114293098449707 C 70.88229370117188 7.431066513061523 75.80186462402344 10.74804019927979 80.02691650390625 14.97309303283691 C 84.25196075439453 19.19813346862793 87.56893157958984 24.11771965026855 89.88570404052734 29.59518623352051 C 92.28397369384766 35.26533508300781 93.5 41.28937149047852 93.5 47.5 C 93.5 53.71062850952148 92.28397369384766 59.73468017578125 89.88570404052734 65.40481567382812 C 87.56893157958984 70.88229370117188 84.25196075439453 75.80186462402344 80.02691650390625 80.02691650390625 C 75.80186462402344 84.25196075439453 70.88229370117188 87.56893157958984 65.40481567382812 89.88570404052734 C 59.73468017578125 92.28397369384766 53.71062850952148 93.5 47.5 93.5 Z" stroke="none"/>
                        <path d="M 47.5 3 C 41.49121475219727 3 35.66376876831055 4.176155090332031 30.17950439453125 6.495796203613281 C 24.88084411621094 8.736953735351562 20.12152099609375 11.94598388671875 16.03375244140625 16.03375244140625 C 11.94598388671875 20.12152099609375 8.736953735351562 24.88084411621094 6.495796203613281 30.17950439453125 C 4.176155090332031 35.66376876831055 3 41.49121475219727 3 47.5 C 3 53.50878524780273 4.176155090332031 59.33623123168945 6.495796203613281 64.82049560546875 C 8.736953735351562 70.11915588378906 11.94598388671875 74.87847900390625 16.03375244140625 78.96624755859375 C 20.12152099609375 83.05401611328125 24.88084411621094 86.26304626464844 30.17950439453125 88.50419616699219 C 35.66376876831055 90.82384490966797 41.49121475219727 92 47.5 92 C 53.50878524780273 92 59.33623123168945 90.82384490966797 64.82049560546875 88.50419616699219 C 70.11915588378906 86.26304626464844 74.87847900390625 83.05401611328125 78.96624755859375 78.96624755859375 C 83.05401611328125 74.87847900390625 86.26304626464844 70.11915588378906 88.50419616699219 64.82049560546875 C 90.82384490966797 59.33623123168945 92 53.50878524780273 92 47.5 C 92 41.49121475219727 90.82384490966797 35.66376876831055 88.50419616699219 30.17950439453125 C 86.26304626464844 24.88084411621094 83.05401611328125 20.12152099609375 78.96624755859375 16.03375244140625 C 74.87847900390625 11.94598388671875 70.11915588378906 8.736953735351562 64.82049560546875 6.495796203613281 C 59.33623123168945 4.176155090332031 53.50878524780273 3 47.5 3 M 47.5 0 C 73.7335205078125 0 95 21.2664794921875 95 47.5 C 95 73.7335205078125 73.7335205078125 95 47.5 95 C 21.2664794921875 95 0 73.7335205078125 0 47.5 C 0 21.2664794921875 21.2664794921875 0 47.5 0 Z" stroke="none" fill="#866d08"/>
                      </g>
                    </g>
                  </g>
                </g>
              </g>
            </g>
          </g>
        </g>
      </g>
    </g>
    <g id="_FILLED_OUTLINE" data-name="/ FILLED_OUTLINE" transform="translate(279.612 2454.509)">
      <path id="Trazado_1056153" data-name="Trazado 1056153" d="M86.073,53.517l4.58-2.424L88,43l-5.138.7L78.33,37.542l2.288-4.672-6.956-5-3.785,3.593-7.324-2.354L61.626,24h-8.6L52.1,29.108l-7.324,2.354L40.993,27.87l-6.956,5,2.288,4.672L31.8,43.705,26.658,43,24,51.093l4.58,2.424v7.619L24,63.56l2.658,8.089,5.138-.7,4.528,6.163-2.288,4.672,6.956,5,3.785-3.593L52.1,85.546l.926,5.108h8.6l.926-5.108,7.324-2.354,3.785,3.593,6.956-5L78.33,77.111l4.528-6.163,5.138.7,2.658-8.089-4.58-2.424c0-3.451,0-4.168,0-7.619ZM57.327,80.311A22.984,22.984,0,1,1,80.311,57.327,22.984,22.984,0,0,1,57.327,80.311Z" transform="translate(-8.313 -6.851)" fill="#0071af"/>
      <path id="Trazado_1056154" data-name="Trazado 1056154" d="M152,336h29.879v2.3H152Z" transform="translate(-117.925 -274.032)" fill="#00a16c"/>
      <path id="Trazado_1056155" data-name="Trazado 1056155" d="M195.765,88.69l-7.473,12.7a2.3,2.3,0,0,0,1.981,3.464H205.22a2.3,2.3,0,0,0,1.981-3.464l-7.473-12.7a2.3,2.3,0,0,0-3.962,0Z" transform="translate(-148.732 -61.278)" fill="#d178a1"/>
      <path id="Trazado_1056156" data-name="Trazado 1056156" d="M248,120h2.3v5.746H248Z" transform="translate(-200.135 -89.06)" fill="#f9d7ed"/>
      <path id="Trazado_1056157" data-name="Trazado 1056157" d="M248,168h2.3v2.3H248Z" transform="translate(-200.135 -130.165)" fill="#f9d7ed"/>
      <g id="Grupo_1209397" data-name="Grupo 1209397" transform="translate(35.426 48.178)">
        <path id="Trazado_1056158" data-name="Trazado 1056158" d="M0,0H13.79V4.6H0Z" transform="translate(0 12.66) rotate(-66.666)" fill="#00b378"/>
        <path id="Trazado_1056159" data-name="Trazado 1056159" d="M240,248h4.6v13.79H240Z" transform="translate(-228.71 -246.851)" fill="#00b378"/>
        <path id="Trazado_1056160" data-name="Trazado 1056160" d="M304,248h4.6v13.79H304Z" transform="translate(-283.517 -246.851)" fill="#00b378"/>
      </g>
      <path id="Trazado_1056161" data-name="Trazado 1056161" d="M78.91,47.359,83.736,44.8l-3.259-9.92-5.409.738-3.712-5.052,2.408-4.919-8.516-6.122-3.981,3.778-6.019-1.935L54.273,16H43.755l-.975,5.374-6.019,1.935-3.981-3.778-8.516,6.122,2.408,4.919-3.712,5.052-5.409-.738L14.293,44.8l4.825,2.554v6.235l-4.826,2.554,3.259,9.92,5.409-.738,3.712,5.052L24.265,75.3l8.516,6.122,3.981-3.778,6.019,1.935.975,5.374H54.273l.975-5.374,6.019-1.935,3.981,3.778L73.764,75.3,71.355,70.38l3.712-5.052,5.409.738,3.259-9.92L78.91,53.593Zm-.02,16.172-4.866-.664-5.345,7.274,2.167,4.425-5.4,3.879-3.589-3.407-8.629,2.774-.878,4.842h-6.68L44.8,77.812l-8.629-2.774-3.589,3.407-5.4-3.879,2.167-4.425L24,62.866l-4.866.664-2.056-6.259,4.335-2.294v-9L17.082,43.68l2.056-6.259,4.867.664,5.345-7.274-2.167-4.425,5.4-3.879,3.589,3.407L44.8,23.14l.878-4.842h6.68l.878,4.842,8.629,2.774,3.589-3.407,5.4,3.879-2.167,4.426,5.345,7.275,4.866-.664,2.056,6.259-4.335,2.294v9l4.335,2.294Z"/>
      <path id="Trazado_1056162" data-name="Trazado 1056162" d="M114.884,80.926a3.446,3.446,0,0,0-5.5,0,24.133,24.133,0,1,0,5.5,0Zm-2.75.929a1.13,1.13,0,0,1,.991.566l7.473,12.7a1.149,1.149,0,0,1-.991,1.732H104.66a1.149,1.149,0,0,1-.991-1.732l7.473-12.705h0a1.13,1.13,0,0,1,.991-.567Zm0,44.882a21.836,21.836,0,0,1-4.288-43.248l-6.158,10.471a3.448,3.448,0,0,0,2.972,5.2h14.947a3.448,3.448,0,0,0,2.972-5.2l-6.16-10.472a21.836,21.836,0,0,1-4.285,43.248Z" transform="translate(-63.119 -54.427)"/>
      <path id="Trazado_1056163" data-name="Trazado 1056163" d="M178.7,231h-6.9v13.79h-2.3V231h-6.9v.762l-5.267-2.272-6.374,14.772,1.225.528h-1.076v2.3h29.879v-2.3h-2.3Zm-4.6,2.3h2.3v11.492h-2.3Zm-6.9,0v11.492h-2.3V233.294Zm-8.664-.788,2.11.91L156.1,243.968l-2.11-.91Zm4.067,2.177v10.1h-4.359Z" transform="translate(-117.04 -182.818)"/>
      <path id="Trazado_1056164" data-name="Trazado 1056164" d="M248,120h2.3v5.746H248Z" transform="translate(-200.135 -89.06)"/>
      <path id="Trazado_1056165" data-name="Trazado 1056165" d="M248,168h2.3v2.3H248Z" transform="translate(-200.135 -130.165)"/>
    </g>
  </g>
</svg>
