<svg xmlns="http://www.w3.org/2000/svg" xmlns:xlink="http://www.w3.org/1999/xlink" width="113" height="113" viewBox="0 0 113 113">
  <defs>
    <filter id="Trazado_982547" x="0" y="0" width="113" height="113" filterUnits="userSpaceOnUse">
      <feOffset dy="3" input="SourceAlpha"/>
      <feGaussianBlur stdDeviation="3" result="blur"/>
      <feFlood flood-opacity="0.161"/>
      <feComposite operator="in" in2="blur"/>
      <feComposite in="SourceGraphic"/>
    </filter>
  </defs>
  <g id="Grupo_1209400" data-name="Grupo 1209400" transform="translate(-586.127 -2451.485)">
    <g id="Grupo_1209248" data-name="Grupo 1209248" transform="translate(0.127 473.569)">
      <g id="Grupo_1208146" data-name="Grupo 1208146" transform="translate(0 -3923.371)">
        <g id="Grupo_1202433" data-name="Grupo 1202433" transform="translate(-0.56 1255.773)">
          <g id="Grupo_1202054" data-name="Grupo 1202054" transform="translate(0 3240.511)">
            <g id="Grupo_1177897" data-name="Grupo 1177897" transform="translate(595.561 1411.003)">
              <g id="Grupo_1172010" data-name="Grupo 1172010" transform="translate(0)">
                <g id="Grupo_1171046" data-name="Grupo 1171046">
                  <g id="Grupo_1148525" data-name="Grupo 1148525">
                    <g transform="matrix(1, 0, 0, 1, -9, -6)" filter="url(#Trazado_982547)">
                      <g id="Trazado_982547-2" data-name="Trazado 982547" transform="translate(9 6)" fill="#fdf4ce">
                        <path d="M 47.5 93.5 C 41.28937149047852 93.5 35.26533508300781 92.28397369384766 29.59518623352051 89.88570404052734 C 24.11771965026855 87.56893157958984 19.19813346862793 84.25196075439453 14.97309303283691 80.02691650390625 C 10.74804019927979 75.80186462402344 7.431066513061523 70.88229370117188 5.114293098449707 65.40481567382812 C 2.716026782989502 59.73468017578125 1.5 53.71062850952148 1.5 47.5 C 1.5 41.28937149047852 2.716026782989502 35.26533508300781 5.114293098449707 29.59518623352051 C 7.431066513061523 24.11771965026855 10.74804019927979 19.19813346862793 14.97309303283691 14.97309303283691 C 19.19813346862793 10.74804019927979 24.11771965026855 7.431066513061523 29.59518623352051 5.114293098449707 C 35.26533508300781 2.716026782989502 41.28937149047852 1.5 47.5 1.5 C 53.71062850952148 1.5 59.73468017578125 2.716026782989502 65.40481567382812 5.114293098449707 C 70.88229370117188 7.431066513061523 75.80186462402344 10.74804019927979 80.02691650390625 14.97309303283691 C 84.25196075439453 19.19813346862793 87.56893157958984 24.11771965026855 89.88570404052734 29.59518623352051 C 92.28397369384766 35.26533508300781 93.5 41.28937149047852 93.5 47.5 C 93.5 53.71062850952148 92.28397369384766 59.73468017578125 89.88570404052734 65.40481567382812 C 87.56893157958984 70.88229370117188 84.25196075439453 75.80186462402344 80.02691650390625 80.02691650390625 C 75.80186462402344 84.25196075439453 70.88229370117188 87.56893157958984 65.40481567382812 89.88570404052734 C 59.73468017578125 92.28397369384766 53.71062850952148 93.5 47.5 93.5 Z" stroke="none"/>
                        <path d="M 47.5 3 C 41.49121475219727 3 35.66376876831055 4.176155090332031 30.17950439453125 6.495796203613281 C 24.88084411621094 8.736953735351562 20.12152099609375 11.94598388671875 16.03375244140625 16.03375244140625 C 11.94598388671875 20.12152099609375 8.736953735351562 24.88084411621094 6.495796203613281 30.17950439453125 C 4.176155090332031 35.66376876831055 3 41.49121475219727 3 47.5 C 3 53.50878524780273 4.176155090332031 59.33623123168945 6.495796203613281 64.82049560546875 C 8.736953735351562 70.11915588378906 11.94598388671875 74.87847900390625 16.03375244140625 78.96624755859375 C 20.12152099609375 83.05401611328125 24.88084411621094 86.26304626464844 30.17950439453125 88.50419616699219 C 35.66376876831055 90.82384490966797 41.49121475219727 92 47.5 92 C 53.50878524780273 92 59.33623123168945 90.82384490966797 64.82049560546875 88.50419616699219 C 70.11915588378906 86.26304626464844 74.87847900390625 83.05401611328125 78.96624755859375 78.96624755859375 C 83.05401611328125 74.87847900390625 86.26304626464844 70.11915588378906 88.50419616699219 64.82049560546875 C 90.82384490966797 59.33623123168945 92 53.50878524780273 92 47.5 C 92 41.49121475219727 90.82384490966797 35.66376876831055 88.50419616699219 30.17950439453125 C 86.26304626464844 24.88084411621094 83.05401611328125 20.12152099609375 78.96624755859375 16.03375244140625 C 74.87847900390625 11.94598388671875 70.11915588378906 8.736953735351562 64.82049560546875 6.495796203613281 C 59.33623123168945 4.176155090332031 53.50878524780273 3 47.5 3 M 47.5 0 C 73.7335205078125 0 95 21.2664794921875 95 47.5 C 95 73.7335205078125 73.7335205078125 95 47.5 95 C 21.2664794921875 95 0 73.7335205078125 0 47.5 C 0 21.2664794921875 21.2664794921875 0 47.5 0 Z" stroke="none" fill="#866d08"/>
                      </g>
                    </g>
                  </g>
                </g>
              </g>
            </g>
          </g>
        </g>
      </g>
    </g>
    <g id="page-speed_9621970" transform="translate(604.433 2458.962)">
      <g id="Grupo_1209399" data-name="Grupo 1209399" transform="translate(9.803 21.177)">
        <path id="Trazado_1056166" data-name="Trazado 1056166" d="M58.088,77.118H16V32.149H39.207l2.763-4.785H68.114V67.092Z" transform="translate(-16 -27.364)" fill="#ffa564" fill-rule="evenodd"/>
        <path id="Trazado_1056167" data-name="Trazado 1056167" d="M58.088,111.718H16V70.659H41.257l2.4-4.15H68.114v35.184Z" transform="translate(-16 -61.964)" fill="#ffd064" fill-rule="evenodd"/>
        <path id="Trazado_1056168" data-name="Trazado 1056168" d="M279.4,114.766h16.416v8.469H279.4Z" transform="translate(-248.822 -104.619)" fill="#dbebff"/>
        <circle id="Elipse_13614" data-name="Elipse 13614" cx="14.157" cy="14.157" r="14.157" transform="translate(27.414 24.775)" fill="#057aff"/>
        <circle id="Elipse_13615" data-name="Elipse 13615" cx="11.339" cy="11.339" r="11.339" transform="translate(25.529 38.933) rotate(-45)" fill="#dbebff"/>
        <circle id="Elipse_13616" data-name="Elipse 13616" cx="1.78" cy="1.78" r="1.78" transform="translate(39.045 38.933) rotate(-45)" fill="#057aff"/>
        <path id="Trazado_1056169" data-name="Trazado 1056169" d="M60.378,287.89a6.461,6.461,0,0,1,1.678.7l1.343-.9,1.856,1.856-.9,1.343a6.467,6.467,0,0,1,.7,1.678l1.585.313V295.5l-1.585.313a6.462,6.462,0,0,1-.7,1.678l.9,1.343L63.4,300.69l-1.343-.9a6.465,6.465,0,0,1-1.678.7l-.313,1.585H57.44l-.313-1.585a6.463,6.463,0,0,1-1.678-.7l-1.343.9-1.856-1.856.9-1.343a6.467,6.467,0,0,1-.7-1.678L50.87,295.5v-2.625l1.585-.313a6.463,6.463,0,0,1,.7-1.678l-.9-1.343,1.856-1.856,1.343.9a6.462,6.462,0,0,1,1.678-.7l.313-1.585h2.625Z" transform="translate(-46.822 -256.242)" fill="#057aff" fill-rule="evenodd"/>
        <circle id="Elipse_13617" data-name="Elipse 13617" cx="3.428" cy="3.428" r="3.428" transform="translate(8.503 34.518)" fill="#dbebff"/>
      </g>
      <path id="Trazado_1056170" data-name="Trazado 1056170" d="M14.3,46.087a.81.81,0,0,1,.809-.812H28.361a.813.813,0,1,1,0,1.625H15.108A.81.81,0,0,1,14.3,46.087ZM66.346,60.2v-.27a14.912,14.912,0,0,0-3.615-9.562V21.176a.811.811,0,0,0-.814-.812H35.775a.818.818,0,0,0-.7.406l-2.529,4.379H9.8a.814.814,0,0,0-.814.812v44.97a.814.814,0,0,0,.814.812H41.965A14.963,14.963,0,0,0,66.345,60.2ZM14.3,42.1a.81.81,0,0,1,.809-.813H28.361a.813.813,0,1,1,0,1.625H15.108A.81.81,0,0,1,14.3,42.1Zm0-3.99a.81.81,0,0,1,.809-.812H28.361a.813.813,0,1,1,0,1.625H15.108A.81.81,0,0,1,14.3,38.107Zm0-3.99a.81.81,0,0,1,.809-.813H28.361a.813.813,0,1,1,0,1.625H15.108A.81.81,0,0,1,14.3,34.118ZM52.345,60.109a.967.967,0,1,1-.967-.967A.97.97,0,0,1,52.345,60.109Zm-3.283-1.165-1.218-1.218A.814.814,0,1,1,49,56.577l1.213,1.218a2.592,2.592,0,1,1-1.426,2.315,2.606,2.606,0,0,1,.279-1.165Zm-8.178,1.978h1.972a.813.813,0,1,0,0-1.626H40.883a10.465,10.465,0,0,1,2.5-6.03l1.393,1.393a.812.812,0,1,0,1.147-1.149l-1.393-1.393a10.481,10.481,0,0,1,6.031-2.5v1.975a.811.811,0,1,0,1.623,0V49.614a10.481,10.481,0,0,1,6.031,2.5L56.824,53.51A.813.813,0,0,0,57.4,54.9a.829.829,0,0,0,.579-.238l1.393-1.393a10.536,10.536,0,0,1,2.5,6.03H59.895a.813.813,0,1,0,0,1.626h1.978a10.535,10.535,0,0,1-2.5,6.03l-1.393-1.393a.814.814,0,0,0-1.153,1.149L58.217,68.1a10.489,10.489,0,0,1-6.031,2.5V68.629a.811.811,0,1,0-1.623,0V70.6a10.489,10.489,0,0,1-6.031-2.5l1.393-1.393a.812.812,0,1,0-1.147-1.149l-1.393,1.393a10.464,10.464,0,0,1-2.5-6.03ZM51.378,47.957A12.152,12.152,0,1,1,39.222,60.109,12.166,12.166,0,0,1,51.378,47.957Zm0,25.5A13.344,13.344,0,1,1,64.719,60.109,13.361,13.361,0,0,1,51.378,73.454ZM10.617,30.684V70.118H40.255A14.962,14.962,0,0,1,61.107,48.742V26.534H37.927l-2.163,3.743a.811.811,0,0,1-.7.406ZM33.01,26.774a.818.818,0,0,0,.7-.406l2.529-4.379H61.107v2.919H37.457a.818.818,0,0,0-.7.406l-2.163,3.744H10.617V26.774ZM41.2,32.137H55.989V38.98H41.2ZM40.386,40.6a.814.814,0,0,1-.814-.812V31.324a.814.814,0,0,1,.814-.813H56.8a.814.814,0,0,1,.814.813v8.468a.814.814,0,0,1-.814.812ZM21.734,61.738a2.615,2.615,0,1,1,2.617-2.615A2.619,2.619,0,0,1,21.734,61.738Zm0-6.855a4.24,4.24,0,1,1-4.239,4.24A4.244,4.244,0,0,1,21.734,54.882ZM28.8,59.767l-.929.183a.81.81,0,0,0-.628.6,5.759,5.759,0,0,1-.606,1.467.8.8,0,0,0,.022.866l.53.788-.912.911-.787-.528a.818.818,0,0,0-.869-.025,5.63,5.63,0,0,1-1.464.609.809.809,0,0,0-.6.63l-.186.93H21.09l-.18-.93a.817.817,0,0,0-.6-.63,5.626,5.626,0,0,1-1.47-.609.807.807,0,0,0-.863.025l-.792.528-.907-.911.524-.788a.813.813,0,0,0,.027-.866,5.752,5.752,0,0,1-.612-1.467.81.81,0,0,0-.628-.595l-.929-.183V58.478l.929-.184a.81.81,0,0,0,.628-.594,5.761,5.761,0,0,1,.612-1.467.813.813,0,0,0-.027-.866l-.524-.788.907-.911.792.529a.808.808,0,0,0,.863.025,5.65,5.65,0,0,1,1.47-.609.817.817,0,0,0,.6-.63l.18-.93h1.289l.186.93a.809.809,0,0,0,.6.63,5.59,5.59,0,0,1,1.464.609.818.818,0,0,0,.869-.025l.787-.529.912.911-.53.788a.8.8,0,0,0-.022.866,5.737,5.737,0,0,1,.606,1.467.81.81,0,0,0,.628.594l.929.184Zm.972-2.754a.811.811,0,0,1,.656.8v2.625a.811.811,0,0,1-.656.8l-1.1.217a7.214,7.214,0,0,1-.388.931l.628.935a.818.818,0,0,1-.1,1.027L26.957,66.2a.812.812,0,0,1-1.027.1L25,65.673a7.007,7.007,0,0,1-.934.387l-.219,1.1a.81.81,0,0,1-.8.656H20.423a.815.815,0,0,1-.8-.656l-.219-1.1a7.232,7.232,0,0,1-.929-.387l-.934.627a.812.812,0,0,1-1.027-.1L14.66,64.343a.819.819,0,0,1-.1-1.027l.628-.935a8.053,8.053,0,0,1-.388-.931l-1.1-.217a.816.816,0,0,1-.656-.8V57.81a.816.816,0,0,1,.656-.8l1.1-.218a8.111,8.111,0,0,1,.388-.931l-.628-.934a.819.819,0,0,1,.1-1.028l1.858-1.856a.812.812,0,0,1,1.027-.1l.934.627a7.33,7.33,0,0,1,.929-.386l.219-1.1a.814.814,0,0,1,.8-.655h2.622a.81.81,0,0,1,.8.655l.219,1.1a7.067,7.067,0,0,1,.934.386l.934-.627a.812.812,0,0,1,1.027.1L28.815,53.9a.819.819,0,0,1,.1,1.028l-.628.934a7.235,7.235,0,0,1,.388.931Z" transform="translate(0 0)" fill-rule="evenodd"/>
    </g>
  </g>
</svg>
