<svg xmlns="http://www.w3.org/2000/svg" xmlns:xlink="http://www.w3.org/1999/xlink" width="113" height="113" viewBox="0 0 113 113">
  <defs>
    <filter id="Trazado_982547" x="0" y="0" width="113" height="113" filterUnits="userSpaceOnUse">
      <feOffset dy="3" input="SourceAlpha"/>
      <feGaussianBlur stdDeviation="3" result="blur"/>
      <feFlood flood-opacity="0.161"/>
      <feComposite operator="in" in2="blur"/>
      <feComposite in="SourceGraphic"/>
    </filter>
  </defs>
  <g id="Grupo_1209402" data-name="Grupo 1209402" transform="translate(-901.127 -2451.485)">
    <g id="Grupo_1209246" data-name="Grupo 1209246" transform="translate(0.127 1213.691)">
      <g id="Grupo_1208679" data-name="Grupo 1208679" transform="translate(0 -740.122)">
        <g id="Grupo_1208144" data-name="Grupo 1208144" transform="translate(0 -3923.371)">
          <g id="Grupo_1202434" data-name="Grupo 1202434" transform="translate(-0.56 1255.773)">
            <g id="Grupo_1202053" data-name="Grupo 1202053" transform="translate(0 3240.511)">
              <g id="Grupo_1177898" data-name="Grupo 1177898" transform="translate(910.561 1411.003)">
                <g id="Grupo_1172010" data-name="Grupo 1172010" transform="translate(0)">
                  <g id="Grupo_1171046" data-name="Grupo 1171046">
                    <g id="Grupo_1148525" data-name="Grupo 1148525">
                      <g transform="matrix(1, 0, 0, 1, -9, -6)" filter="url(#Trazado_982547)">
                        <g id="Trazado_982547-2" data-name="Trazado 982547" transform="translate(9 6)" fill="#fdf4ce">
                          <path d="M 47.5 93.5 C 41.28937149047852 93.5 35.26533508300781 92.28397369384766 29.59518623352051 89.88570404052734 C 24.11771965026855 87.56893157958984 19.19813346862793 84.25196075439453 14.97309303283691 80.02691650390625 C 10.74804019927979 75.80186462402344 7.431066513061523 70.88229370117188 5.114293098449707 65.40481567382812 C 2.716026782989502 59.73468017578125 1.5 53.71062850952148 1.5 47.5 C 1.5 41.28937149047852 2.716026782989502 35.26533508300781 5.114293098449707 29.59518623352051 C 7.431066513061523 24.11771965026855 10.74804019927979 19.19813346862793 14.97309303283691 14.97309303283691 C 19.19813346862793 10.74804019927979 24.11771965026855 7.431066513061523 29.59518623352051 5.114293098449707 C 35.26533508300781 2.716026782989502 41.28937149047852 1.5 47.5 1.5 C 53.71062850952148 1.5 59.73468017578125 2.716026782989502 65.40481567382812 5.114293098449707 C 70.88229370117188 7.431066513061523 75.80186462402344 10.74804019927979 80.02691650390625 14.97309303283691 C 84.25196075439453 19.19813346862793 87.56893157958984 24.11771965026855 89.88570404052734 29.59518623352051 C 92.28397369384766 35.26533508300781 93.5 41.28937149047852 93.5 47.5 C 93.5 53.71062850952148 92.28397369384766 59.73468017578125 89.88570404052734 65.40481567382812 C 87.56893157958984 70.88229370117188 84.25196075439453 75.80186462402344 80.02691650390625 80.02691650390625 C 75.80186462402344 84.25196075439453 70.88229370117188 87.56893157958984 65.40481567382812 89.88570404052734 C 59.73468017578125 92.28397369384766 53.71062850952148 93.5 47.5 93.5 Z" stroke="none"/>
                          <path d="M 47.5 3 C 41.49121475219727 3 35.66376876831055 4.176155090332031 30.17950439453125 6.495796203613281 C 24.88084411621094 8.736953735351562 20.12152099609375 11.94598388671875 16.03375244140625 16.03375244140625 C 11.94598388671875 20.12152099609375 8.736953735351562 24.88084411621094 6.495796203613281 30.17950439453125 C 4.176155090332031 35.66376876831055 3 41.49121475219727 3 47.5 C 3 53.50878524780273 4.176155090332031 59.33623123168945 6.495796203613281 64.82049560546875 C 8.736953735351562 70.11915588378906 11.94598388671875 74.87847900390625 16.03375244140625 78.96624755859375 C 20.12152099609375 83.05401611328125 24.88084411621094 86.26304626464844 30.17950439453125 88.50419616699219 C 35.66376876831055 90.82384490966797 41.49121475219727 92 47.5 92 C 53.50878524780273 92 59.33623123168945 90.82384490966797 64.82049560546875 88.50419616699219 C 70.11915588378906 86.26304626464844 74.87847900390625 83.05401611328125 78.96624755859375 78.96624755859375 C 83.05401611328125 74.87847900390625 86.26304626464844 70.11915588378906 88.50419616699219 64.82049560546875 C 90.82384490966797 59.33623123168945 92 53.50878524780273 92 47.5 C 92 41.49121475219727 90.82384490966797 35.66376876831055 88.50419616699219 30.17950439453125 C 86.26304626464844 24.88084411621094 83.05401611328125 20.12152099609375 78.96624755859375 16.03375244140625 C 74.87847900390625 11.94598388671875 70.11915588378906 8.736953735351562 64.82049560546875 6.495796203613281 C 59.33623123168945 4.176155090332031 53.50878524780273 3 47.5 3 M 47.5 0 C 73.7335205078125 0 95 21.2664794921875 95 47.5 C 95 73.7335205078125 73.7335205078125 95 47.5 95 C 21.2664794921875 95 0 73.7335205078125 0 47.5 C 0 21.2664794921875 21.2664794921875 0 47.5 0 Z" stroke="none" fill="#866d08"/>
                        </g>
                      </g>
                    </g>
                  </g>
                </g>
              </g>
            </g>
          </g>
        </g>
      </g>
    </g>
    <g id="file_network-data-computer-network-currency" data-name="file network-data-computer-network-currency" transform="translate(925.5 2473)">
      <circle id="Elipse_13618" data-name="Elipse 13618" cx="29" cy="29" r="29" transform="translate(3 3)" fill="#46f8ff"/>
      <path id="Trazado_1056171" data-name="Trazado 1056171" d="M61,32A29,29,0,0,1,9.59,50.41,29,29,0,0,0,50.41,9.59,28.93,28.93,0,0,1,61,32Z" fill="#00d7df"/>
      <path id="Trazado_1056172" data-name="Trazado 1056172" d="M41,23v2H34V23a2.006,2.006,0,0,0-2-2h7A2.006,2.006,0,0,1,41,23Z" fill="#ffde55"/>
      <path id="Trazado_1056173" data-name="Trazado 1056173" d="M34,23v2H25V21h7A2.006,2.006,0,0,1,34,23Z" fill="#ffde55"/>
      <path id="Trazado_1056174" data-name="Trazado 1056174" d="M47,25V45H17V19h8v6Z" fill="#c0ab91"/>
      <path id="Trazado_1056175" data-name="Trazado 1056175" d="M47,25V45H17V41H43V25Z" fill="#a78966"/>
      <g id="Grupo_1209401" data-name="Grupo 1209401">
        <path id="Trazado_1056176" data-name="Trazado 1056176" d="M51,51H61v6H51Z" fill="#46f8ff"/>
        <path id="Trazado_1056177" data-name="Trazado 1056177" d="M51,3H61V9H51Z" fill="#46f8ff"/>
        <path id="Trazado_1056178" data-name="Trazado 1056178" d="M3,51H13v6H3Z" fill="#46f8ff"/>
        <path id="Trazado_1056179" data-name="Trazado 1056179" d="M3,3H13V9H3Z" fill="#46f8ff"/>
      </g>
      <path id="Trazado_1056180" data-name="Trazado 1056180" d="M13,3V9H3V7h8V3Z" fill="#00d7df"/>
      <path id="Trazado_1056181" data-name="Trazado 1056181" d="M61,3V9H51V7h8V3Z" fill="#00d7df"/>
      <path id="Trazado_1056182" data-name="Trazado 1056182" d="M61,51v6H51V55h8V51Z" fill="#00d7df"/>
      <path id="Trazado_1056183" data-name="Trazado 1056183" d="M13,51v6H3V55h8V51Z" fill="#00d7df"/>
      <path id="Trazado_1056184" data-name="Trazado 1056184" d="M13,2H3A1,1,0,0,0,2,3V9a1,1,0,0,0,1,1H7v2H4v2h8V12H9V10h4a1,1,0,0,0,1-1V3A1,1,0,0,0,13,2ZM12,8H4V4h8Z"/>
      <path id="Trazado_1056185" data-name="Trazado 1056185" d="M61,2H51a1,1,0,0,0-1,1V9a1,1,0,0,0,1,1h4v2H52v2h8V12H57V10h4a1,1,0,0,0,1-1V3A1,1,0,0,0,61,2ZM60,8H52V4h8Z"/>
      <path id="Trazado_1056186" data-name="Trazado 1056186" d="M13,50H3a1,1,0,0,0-1,1v6a1,1,0,0,0,1,1H7v2H4v2h8V60H9V58h4a1,1,0,0,0,1-1V51A1,1,0,0,0,13,50Zm-1,6H4V52h8Z"/>
      <path id="Trazado_1056187" data-name="Trazado 1056187" d="M61,50H51a1,1,0,0,0-1,1v6a1,1,0,0,0,1,1h4v2H52v2h8V60H57V58h4a1,1,0,0,0,1-1V51A1,1,0,0,0,61,50Zm-1,6H52V52h8Z"/>
      <path id="Trazado_1056188" data-name="Trazado 1056188" d="M47,24H42V23a3.009,3.009,0,0,0-3-3H26V19a1,1,0,0,0-1-1H17a1,1,0,0,0-1,1V45a1,1,0,0,0,1,1H47a1,1,0,0,0,1-1V25A1,1,0,0,0,47,24Zm-8-2a1,1,0,0,1,1,1v1H35V23a3,3,0,0,0-.18-1ZM26,22h6a1,1,0,0,1,1,1v1H26ZM46,44H18V20h6v5a1,1,0,0,0,1,1H46Z"/>
      <path id="Trazado_1056189" data-name="Trazado 1056189" d="M24,30H44v2H24Z"/>
      <path id="Trazado_1056190" data-name="Trazado 1056190" d="M24,34H44v2H24Z"/>
      <path id="Trazado_1056191" data-name="Trazado 1056191" d="M24,38H44v2H24Z"/>
      <path id="Trazado_1056192" data-name="Trazado 1056192" d="M20,30h2v2H20Z"/>
      <path id="Trazado_1056193" data-name="Trazado 1056193" d="M20,34h2v2H20Z"/>
      <path id="Trazado_1056194" data-name="Trazado 1056194" d="M20,38h2v2H20Z"/>
      <path id="Trazado_1056195" data-name="Trazado 1056195" d="M6.976,15.447a30.02,30.02,0,0,0,0,33.106l1.668-1.106a28.012,28.012,0,0,1,0-30.894Z"/>
      <path id="Trazado_1056196" data-name="Trazado 1056196" d="M32,60a27.863,27.863,0,0,1-15.447-4.644l-1.106,1.668a30.02,30.02,0,0,0,33.106,0l-1.106-1.668A27.863,27.863,0,0,1,32,60Z"/>
      <path id="Trazado_1056197" data-name="Trazado 1056197" d="M55.356,16.553a28.012,28.012,0,0,1,0,30.894l1.668,1.106a30.02,30.02,0,0,0,0-33.106Z"/>
      <path id="Trazado_1056198" data-name="Trazado 1056198" d="M15.447,6.976l1.106,1.668a28.012,28.012,0,0,1,30.894,0l1.106-1.668a30.02,30.02,0,0,0-33.106,0Z"/>
    </g>
  </g>
</svg>
