<svg xmlns="http://www.w3.org/2000/svg" xmlns:xlink="http://www.w3.org/1999/xlink" width="113" height="113" viewBox="0 0 113 113">
  <defs>
    <filter id="Trazado_982547" x="0" y="0" width="113" height="113" filterUnits="userSpaceOnUse">
      <feOffset dy="3" input="SourceAlpha"/>
      <feGaussianBlur stdDeviation="3" result="blur"/>
      <feFlood flood-opacity="0.161"/>
      <feComposite operator="in" in2="blur"/>
      <feComposite in="SourceGraphic"/>
    </filter>
  </defs>
  <g id="Grupo_1209417" data-name="Grupo 1209417" transform="translate(-1216.5 -2451.198)">
    <g id="Grupo_1209247" data-name="Grupo 1209247" transform="translate(0.5 1213.691)">
      <g id="Grupo_1208680" data-name="Grupo 1208680" transform="translate(0 -740.122)">
        <g id="Grupo_1208145" data-name="Grupo 1208145" transform="translate(0 -3923.371)">
          <g id="Grupo_1202435" data-name="Grupo 1202435" transform="translate(-0.56 1255.486)">
            <g id="Grupo_1202052" data-name="Grupo 1202052" transform="translate(1225.561 4651.514)">
              <g id="Grupo_1172010" data-name="Grupo 1172010" transform="translate(0)">
                <g id="Grupo_1171046" data-name="Grupo 1171046">
                  <g id="Grupo_1148525" data-name="Grupo 1148525">
                    <g transform="matrix(1, 0, 0, 1, -9, -6)" filter="url(#Trazado_982547)">
                      <g id="Trazado_982547-2" data-name="Trazado 982547" transform="translate(9 6)" fill="#fdf4ce">
                        <path d="M 47.5 93.5 C 41.28937149047852 93.5 35.26533508300781 92.28397369384766 29.59518623352051 89.88570404052734 C 24.11771965026855 87.56893157958984 19.19813346862793 84.25196075439453 14.97309303283691 80.02691650390625 C 10.74804019927979 75.80186462402344 7.431066513061523 70.88229370117188 5.114293098449707 65.40481567382812 C 2.716026782989502 59.73468017578125 1.5 53.71062850952148 1.5 47.5 C 1.5 41.28937149047852 2.716026782989502 35.26533508300781 5.114293098449707 29.59518623352051 C 7.431066513061523 24.11771965026855 10.74804019927979 19.19813346862793 14.97309303283691 14.97309303283691 C 19.19813346862793 10.74804019927979 24.11771965026855 7.431066513061523 29.59518623352051 5.114293098449707 C 35.26533508300781 2.716026782989502 41.28937149047852 1.5 47.5 1.5 C 53.71062850952148 1.5 59.73468017578125 2.716026782989502 65.40481567382812 5.114293098449707 C 70.88229370117188 7.431066513061523 75.80186462402344 10.74804019927979 80.02691650390625 14.97309303283691 C 84.25196075439453 19.19813346862793 87.56893157958984 24.11771965026855 89.88570404052734 29.59518623352051 C 92.28397369384766 35.26533508300781 93.5 41.28937149047852 93.5 47.5 C 93.5 53.71062850952148 92.28397369384766 59.73468017578125 89.88570404052734 65.40481567382812 C 87.56893157958984 70.88229370117188 84.25196075439453 75.80186462402344 80.02691650390625 80.02691650390625 C 75.80186462402344 84.25196075439453 70.88229370117188 87.56893157958984 65.40481567382812 89.88570404052734 C 59.73468017578125 92.28397369384766 53.71062850952148 93.5 47.5 93.5 Z" stroke="none"/>
                        <path d="M 47.5 3 C 41.49121475219727 3 35.66376876831055 4.176155090332031 30.17950439453125 6.495796203613281 C 24.88084411621094 8.736953735351562 20.12152099609375 11.94598388671875 16.03375244140625 16.03375244140625 C 11.94598388671875 20.12152099609375 8.736953735351562 24.88084411621094 6.495796203613281 30.17950439453125 C 4.176155090332031 35.66376876831055 3 41.49121475219727 3 47.5 C 3 53.50878524780273 4.176155090332031 59.33623123168945 6.495796203613281 64.82049560546875 C 8.736953735351562 70.11915588378906 11.94598388671875 74.87847900390625 16.03375244140625 78.96624755859375 C 20.12152099609375 83.05401611328125 24.88084411621094 86.26304626464844 30.17950439453125 88.50419616699219 C 35.66376876831055 90.82384490966797 41.49121475219727 92 47.5 92 C 53.50878524780273 92 59.33623123168945 90.82384490966797 64.82049560546875 88.50419616699219 C 70.11915588378906 86.26304626464844 74.87847900390625 83.05401611328125 78.96624755859375 78.96624755859375 C 83.05401611328125 74.87847900390625 86.26304626464844 70.11915588378906 88.50419616699219 64.82049560546875 C 90.82384490966797 59.33623123168945 92 53.50878524780273 92 47.5 C 92 41.49121475219727 90.82384490966797 35.66376876831055 88.50419616699219 30.17950439453125 C 86.26304626464844 24.88084411621094 83.05401611328125 20.12152099609375 78.96624755859375 16.03375244140625 C 74.87847900390625 11.94598388671875 70.11915588378906 8.736953735351562 64.82049560546875 6.495796203613281 C 59.33623123168945 4.176155090332031 53.50878524780273 3 47.5 3 M 47.5 0 C 73.7335205078125 0 95 21.2664794921875 95 47.5 C 95 73.7335205078125 73.7335205078125 95 47.5 95 C 21.2664794921875 95 0 73.7335205078125 0 47.5 C 0 21.2664794921875 21.2664794921875 0 47.5 0 Z" stroke="none" fill="#866d08"/>
                      </g>
                    </g>
                  </g>
                </g>
              </g>
            </g>
          </g>
        </g>
      </g>
    </g>
    <g id="document_2980313" transform="translate(1240.5 2472.682)">
      <g id="Grupo_1209415" data-name="Grupo 1209415">
        <g id="Grupo_1209403" data-name="Grupo 1209403">
          <path id="Trazado_1056199" data-name="Trazado 1056199" d="M50,54a4,4,0,0,1-4,4H42a4,4,0,0,0,4-4V48l4-4Z" fill="#ff826e"/>
        </g>
        <g id="Grupo_1209404" data-name="Grupo 1209404">
          <path id="Trazado_1056200" data-name="Trazado 1056200" d="M54,40V54a4,4,0,0,1-4,4H46a4,4,0,0,0,4-4V44Z" fill="#ffeaa7"/>
        </g>
        <g id="Grupo_1209405" data-name="Grupo 1209405">
          <path id="Trazado_1056201" data-name="Trazado 1056201" d="M54,8V22l-4-4V14a4,4,0,0,0-4-4H42L35.25,4H50A4,4,0,0,1,54,8Z" fill="#ffeaa7"/>
        </g>
        <g id="Grupo_1209406" data-name="Grupo 1209406">
          <path id="Trazado_1056202" data-name="Trazado 1056202" d="M29,4l-6,6H11a3,3,0,0,1,0-6Z" fill="#ffeaa7"/>
        </g>
        <g id="Grupo_1209407" data-name="Grupo 1209407">
          <path id="Trazado_1056203" data-name="Trazado 1056203" d="M46,54a4,4,0,0,1-4,4H38a4,4,0,0,0,4-4V38l4-2V54Z" fill="#b4dd7f"/>
        </g>
        <g id="Grupo_1209408" data-name="Grupo 1209408">
          <path id="Trazado_1056204" data-name="Trazado 1056204" d="M61.29,29.29a2.414,2.414,0,0,1,0,3.42L54,40l-4,4-4,4V36l1.79-.89A4.02,4.02,0,0,0,50,31.53V18l4,4Z" fill="#e6e9ed"/>
        </g>
        <g id="Grupo_1209409" data-name="Grupo 1209409">
          <path id="Trazado_1056205" data-name="Trazado 1056205" d="M42,10H23l6-6,1.26-1.26a2.518,2.518,0,0,1,3.46-.1L35.25,4Z" fill="#e6e9ed"/>
        </g>
        <g id="Grupo_1209410" data-name="Grupo 1209410">
          <path id="Trazado_1056206" data-name="Trazado 1056206" d="M8,37.76V7a3,3,0,0,0,3,3h3V36H12v1.06a1.922,1.922,0,0,1-1.2,1.78c-.01,0-.01.01-.02.01a1.923,1.923,0,0,1-2.1-.41Z" fill="#d3a06c"/>
        </g>
        <g id="Grupo_1209411" data-name="Grupo 1209411">
          <path id="Trazado_1056207" data-name="Trazado 1056207" d="M28,50V46H26.94a1.922,1.922,0,0,1-1.78-1.2c0-.01-.01-.01-.01-.02a1.923,1.923,0,0,1,.41-2.1l.75-.75-4.24-4.24-.75.75a1.923,1.923,0,0,1-2.1.41c-.01,0-.01-.01-.02-.01A1.922,1.922,0,0,1,18,37.06V36H14V10H46a4,4,0,0,1,4,4V31.53a4.02,4.02,0,0,1-2.21,3.58L46,36l-4,2V54a4,4,0,0,1-4,4H24.38l1.93-1.93-.75-.75a1.923,1.923,0,0,1-.41-2.1c0-.01.01-.01.01-.02A1.922,1.922,0,0,1,26.94,52H28Z" fill="#cf9e76"/>
        </g>
        <g id="Grupo_1209412" data-name="Grupo 1209412">
          <path id="Trazado_1056208" data-name="Trazado 1056208" d="M18,16H38V28H18Z" fill="#e6e9ed"/>
        </g>
        <g id="Grupo_1209413" data-name="Grupo 1209413">
          <path id="Trazado_1056209" data-name="Trazado 1056209" d="M25.56,55.32l.75.75L24.38,58l-2.31,2.31-.75-.75a1.923,1.923,0,0,0-2.1-.41c-.01,0-.01.01-.02.01A1.922,1.922,0,0,0,18,60.94V62H12V60.94a1.922,1.922,0,0,0-1.2-1.78c-.01,0-.01-.01-.02-.01a1.923,1.923,0,0,0-2.1.41l-.75.75L3.69,56.07l.75-.75a1.923,1.923,0,0,0,.41-2.1c0-.01-.01-.01-.01-.02A1.922,1.922,0,0,0,3.06,52H2V46H3.06a1.922,1.922,0,0,0,1.78-1.2c0-.01.01-.01.01-.02a1.923,1.923,0,0,0-.41-2.1l-.75-.75,4.24-4.24.07.07.68.68a1.923,1.923,0,0,0,2.1.41c.01,0,.01-.01.02-.01A1.922,1.922,0,0,0,12,37.06V36h6v1.06a1.922,1.922,0,0,0,1.2,1.78c.01,0,.01.01.02.01a1.923,1.923,0,0,0,2.1-.41l.75-.75,4.24,4.24-.75.75a1.923,1.923,0,0,0-.41,2.1c0,.01.01.01.01.02A1.922,1.922,0,0,0,26.94,46H28v6H26.94a1.922,1.922,0,0,0-1.78,1.2c0,.01-.01.01-.01.02a1.923,1.923,0,0,0,.41,2.1ZM22,49a7,7,0,1,0-7,7A7.008,7.008,0,0,0,22,49Z" fill="#ffc729"/>
        </g>
        <g id="Grupo_1209414" data-name="Grupo 1209414">
          <path id="Trazado_1056210" data-name="Trazado 1056210" d="M15,42a7,7,0,1,1-7,7A7.008,7.008,0,0,1,15,42Zm3,7a3,3,0,1,0-3,3A3.009,3.009,0,0,0,18,49Z" fill="#fcd770"/>
        </g>
      </g>
      <g id="Grupo_1209416" data-name="Grupo 1209416">
        <path id="Trazado_1056211" data-name="Trazado 1056211" d="M17,29H39V15H17Zm2-12H37V27H19Z"/>
        <path id="Trazado_1056212" data-name="Trazado 1056212" d="M23,21h2v2H23Z"/>
        <path id="Trazado_1056213" data-name="Trazado 1056213" d="M27,21h2v2H27Z"/>
        <path id="Trazado_1056214" data-name="Trazado 1056214" d="M31,21h2v2H31Z"/>
        <path id="Trazado_1056215" data-name="Trazado 1056215" d="M63,31a3.393,3.393,0,0,0-1-2.414l-7-7V8a5.006,5.006,0,0,0-5-5H35.631L34.38,1.888a3.605,3.605,0,0,0-4.824.143L28.586,3H11A4,4,0,0,0,7,7V37.2L2.272,41.929,3.73,43.388a.934.934,0,0,1,.184,1.035A.919.919,0,0,1,3.063,45H1v8H3.063a.932.932,0,0,1,.863.6.923.923,0,0,1-.195,1.009L2.273,56.072,7.93,61.728,9.388,60.27a.934.934,0,0,1,1.035-.185.921.921,0,0,1,.577.852V63h8V60.937a.932.932,0,0,1,.6-.862.921.921,0,0,1,1.009.2l1.459,1.457L24.8,59H50a5.006,5.006,0,0,0,5-5V40.414l7-7A3.393,3.393,0,0,0,63,31ZM50,5a3,3,0,0,1,3,3V19.586l-2-2V14a5.006,5.006,0,0,0-5-5H42.38l-4.5-4ZM30.969,3.444a1.557,1.557,0,0,1,2.082-.062L39.37,9H25.414ZM11,5H26.586l-4,4H11a2,2,0,0,1,0-4Zm0,30v2.063a.932.932,0,0,1-.6.862.921.921,0,0,1-1.008-.195L9,37.343v-26.9A3.959,3.959,0,0,0,11,11h2V35ZM22.071,58.9l-.044-.044A2.955,2.955,0,0,0,17,60.937V61H13v-.063a2.954,2.954,0,0,0-5.026-2.081L7.93,58.9,5.1,56.072l.044-.045A2.955,2.955,0,0,0,3.063,51H3V47h.063a2.956,2.956,0,0,0,2.083-5.027L5.1,41.928,7.93,39.1l.044.044A2.955,2.955,0,0,0,13,37.063V37h4v.063a2.955,2.955,0,0,0,5.026,2.082l.045-.045L24.9,41.928l-.045.045A2.955,2.955,0,0,0,26.937,47H27v4h-.063a2.955,2.955,0,0,0-2.082,5.027l.045.045ZM26.8,57l.929-.929-1.459-1.459a.934.934,0,0,1-.184-1.035A.921.921,0,0,1,26.937,53H29V51H39V49H29V47H39V45H26.937a.956.956,0,0,1-.668-1.613l1.459-1.459-5.656-5.656L20.613,37.73a.935.935,0,0,1-1.035.185A.921.921,0,0,1,19,37.063V35H15V11H41V34h2V11h3a3,3,0,0,1,3,3V31.528a2.983,2.983,0,0,1-1.658,2.683L41,37.382V54a3,3,0,0,1-3,3Zm15.175,0A4.948,4.948,0,0,0,43,54V38.618l2-1V54a3,3,0,0,1-3,3Zm4,0A4.948,4.948,0,0,0,47,54V48.414l2-2V54a3,3,0,0,1-3,3ZM53,54a3,3,0,0,1-3,3h-.026A4.948,4.948,0,0,0,51,54V44.414l2-2Zm7.586-22L47,45.586V36.618L48.236,36A4.973,4.973,0,0,0,51,31.528V20.414L60.585,30a1.414,1.414,0,0,1,0,2Z"/>
        <path id="Trazado_1056216" data-name="Trazado 1056216" d="M15,41a8,8,0,1,0,8,8A8.009,8.009,0,0,0,15,41Zm0,14a6,6,0,1,1,6-6A6.006,6.006,0,0,1,15,55Z"/>
        <path id="Trazado_1056217" data-name="Trazado 1056217" d="M15,45a4,4,0,1,0,4,4A4,4,0,0,0,15,45Zm0,6a2,2,0,1,1,2-2A2,2,0,0,1,15,51Z"/>
        <path id="Trazado_1056218" data-name="Trazado 1056218" d="M37,53h2v2H37Z"/>
        <path id="Trazado_1056219" data-name="Trazado 1056219" d="M33,53h2v2H33Z"/>
      </g>
    </g>
  </g>
</svg>
