<svg xmlns="http://www.w3.org/2000/svg" xmlns:xlink="http://www.w3.org/1999/xlink" width="101.234" height="101.234" viewBox="0 0 101.234 101.234">
  <defs>
    <filter id="Trazado_904820" x="0" y="0" width="101.234" height="101.234" filterUnits="userSpaceOnUse">
      <feOffset dy="3" input="SourceAlpha"/>
      <feGaussianBlur stdDeviation="3" result="blur"/>
      <feFlood flood-opacity="0.161"/>
      <feComposite operator="in" in2="blur"/>
      <feComposite in="SourceGraphic"/>
    </filter>
  </defs>
  <g id="Grupo_1209427" data-name="Grupo 1209427" transform="translate(-172.767 -2861.102)">
    <g id="Grupo_1209250" data-name="Grupo 1209250" transform="translate(181.767 2867.102)">
      <g id="Grupo_1174741" data-name="Grupo 1174741" transform="translate(0 0)">
        <g id="Grupo_1173585" data-name="Grupo 1173585">
          <g id="Grupo_1173428" data-name="Grupo 1173428">
            <g id="Grupo_1171958" data-name="Grupo 1171958">
              <g id="Grupo_1167341" data-name="Grupo 1167341">
                <g id="Grupo_1166792" data-name="Grupo 1166792">
                  <g transform="matrix(1, 0, 0, 1, -9, -6)" filter="url(#Trazado_904820)">
                    <g id="Trazado_904820-2" data-name="Trazado 904820" transform="translate(9 6)" fill="#fef9e5">
                      <path d="M 41.61681747436523 81.73366546630859 C 36.20041656494141 81.73366546630859 30.94684028625488 80.67319488525391 26.00200653076172 78.58170318603516 C 21.22509956359863 76.56124114990234 16.93468856811523 73.66845703125 13.24994659423828 69.98371887207031 C 9.565205574035645 66.29897308349609 6.672429084777832 62.00854873657227 4.651970386505127 57.23164367675781 C 2.560476303100586 52.28680801391602 1.500005722045898 47.03323364257812 1.500005722045898 41.6168327331543 C 1.500005722045898 36.20043182373047 2.560476303100586 30.94684410095215 4.651970386505127 26.00200843811035 C 6.672429084777832 21.2251033782959 9.565205574035645 16.9346923828125 13.24994659423828 13.24995040893555 C 16.93468856811523 9.565196990966797 21.22509956359863 6.672420978546143 26.00200653076172 4.651962280273438 C 30.94684028625488 2.560467958450317 36.20041656494141 1.499997496604919 41.61681747436523 1.499997496604919 C 47.03321838378906 1.499997496604919 52.28679275512695 2.560467958450317 57.23162841796875 4.651962280273438 C 62.0085334777832 6.672420978546143 66.2989501953125 9.565196990966797 69.98368835449219 13.24995040893555 C 73.66844177246094 16.9346923828125 76.56121826171875 21.2251033782959 78.58167266845703 26.00200843811035 C 80.67317199707031 30.94684410095215 81.733642578125 36.20043182373047 81.733642578125 41.6168327331543 C 81.733642578125 47.03323364257812 80.67317199707031 52.28680801391602 78.58167266845703 57.23164367675781 C 76.56121826171875 62.00854873657227 73.66844177246094 66.29897308349609 69.98368835449219 69.98371887207031 C 66.2989501953125 73.66845703125 62.0085334777832 76.56124114990234 57.23162841796875 78.58170318603516 C 52.28679275512695 80.67319488525391 47.03321838378906 81.73366546630859 41.61681747436523 81.73366546630859 Z" stroke="none"/>
                      <path d="M 41.61681747436523 2.999992370605469 C 36.40225601196289 2.999992370605469 31.34527206420898 4.020606994628906 26.58633804321289 6.033462524414062 C 21.98823165893555 7.978302001953125 17.85807037353516 10.76312255859375 14.31060791015625 14.31060791015625 C 10.76313781738281 17.85807037353516 7.978309631347656 21.98823165893555 6.033470153808594 26.58633804321289 C 4.020606994628906 31.34528732299805 3.000007629394531 36.40227127075195 3.000007629394531 41.6168327331543 C 3.000007629394531 46.83139419555664 4.020606994628906 51.88838195800781 6.033470153808594 56.64732360839844 C 7.978309631347656 61.24542999267578 10.76313781738281 65.37557983398438 14.31060791015625 68.92304992675781 C 17.85807037353516 72.47052764892578 21.98823165893555 75.25535583496094 26.58633804321289 77.2001953125 C 31.34527206420898 79.21304321289062 36.40225601196289 80.23365783691406 41.61681747436523 80.23365783691406 C 46.83137893676758 80.23365783691406 51.88836669921875 79.21304321289062 56.64729690551758 77.2001953125 C 61.24540328979492 75.25535583496094 65.37556457519531 72.47052764892578 68.92303466796875 68.92304992675781 C 72.47049713134766 65.37557983398438 75.25532531738281 61.24542999267578 77.20016479492188 56.64732360839844 C 79.21302795410156 51.88838195800781 80.23362731933594 46.83139419555664 80.23362731933594 41.6168327331543 C 80.23362731933594 36.40227127075195 79.21302795410156 31.34528732299805 77.20016479492188 26.58633804321289 C 75.25532531738281 21.98823165893555 72.47049713134766 17.85807037353516 68.92303466796875 14.31060791015625 C 65.37556457519531 10.76312255859375 61.24540328979492 7.978302001953125 56.64729690551758 6.033462524414062 C 51.88836669921875 4.020606994628906 46.83137893676758 2.999992370605469 41.61681747436523 2.999992370605469 M 41.61681747436523 -7.62939453125e-06 C 64.60115051269531 -7.62939453125e-06 83.23362731933594 18.63248443603516 83.23362731933594 41.6168327331543 C 83.23362731933594 64.60116577148438 64.60115051269531 83.23365783691406 41.61681747436523 83.23365783691406 C 18.63248443603516 83.23365783691406 7.62939453125e-06 64.60116577148438 7.62939453125e-06 41.6168327331543 C 7.62939453125e-06 18.63248443603516 18.63248443603516 -7.62939453125e-06 41.61681747436523 -7.62939453125e-06 Z" stroke="none" fill="#866d08"/>
                    </g>
                  </g>
                </g>
              </g>
            </g>
          </g>
        </g>
      </g>
    </g>
    <g id="measurement_11670183" transform="translate(135.56 2871.891)">
      <g id="Grupo_1209426" data-name="Grupo 1209426" transform="translate(67.342 13.622)">
        <g id="Grupo_1209418" data-name="Grupo 1209418" transform="translate(12.547)">
          <path id="Trazado_1056220" data-name="Trazado 1056220" d="M195.629,58.923a6.841,6.841,0,0,1,2,.831l1.3-.578,1.535,1.535-.578,1.3a6.844,6.844,0,0,1,.831,2l1.328.511V66.7l-1.329.512a6.842,6.842,0,0,1-.831,2l.578,1.3-1.535,1.535-1.3-.578a6.846,6.846,0,0,1-2,.831l-.511,1.328h-2.17l-.511-1.329a6.844,6.844,0,0,1-2-.831l-1.3.578L187.6,70.515l.578-1.3a6.846,6.846,0,0,1-.831-2l-1.328-.511v-2.17l1.329-.511a6.843,6.843,0,0,1,.831-2l-.578-1.3,1.535-1.535,1.3.578a6.845,6.845,0,0,1,2-.831l.511-1.329h2.17Z" transform="translate(-186.015 -57.595)" fill="#ffe177" fill-rule="evenodd"/>
          <path id="Trazado_1056221" data-name="Trazado 1056221" d="M213.222,71.468l-1.3.578-.2-.2,1.22-.542Q213.078,71.389,213.222,71.468Zm5.2-12.548a6.844,6.844,0,0,1,1.979.815l.025.015-.372.165a9.036,9.036,0,0,0-2.287-1l-.511-1.329h.655Zm-6.7.454.2-.2,1.3.578q-.144.079-.283.165Zm9.552,0,.454-.2,1.535,1.535-.578,1.3a6.845,6.845,0,0,1,.831,2l1.328.511v2.17l-1.329.512a6.843,6.843,0,0,1-.831,2l.578,1.3-1.535,1.535-.454-.2,1.333-1.333-.578-1.3a6.846,6.846,0,0,0,.831-2l1.329-.512v-2.17l-1.328-.511a6.846,6.846,0,0,0-.831-2l.578-1.3Zm-.873,12.11a6.843,6.843,0,0,1-1.979.815l-.511,1.328h-.655l.511-1.328a9.035,9.035,0,0,0,2.288-1l.372.165-.025.016Z" transform="translate(-208.804 -57.591)" fill="#ffd064" fill-rule="evenodd"/>
          <ellipse id="Elipse_13619" data-name="Elipse 13619" cx="4.294" cy="4.294" rx="4.294" ry="4.294" transform="translate(2.835 11.16) rotate(-76.297)" fill="#eceff1"/>
          <path id="Trazado_1056222" data-name="Trazado 1056222" d="M223.16,90.444c.1,0,.2,0,.3.011a4.293,4.293,0,0,0,0,8.566c-.1.007-.2.011-.3.011a4.294,4.294,0,0,1,0-8.587Z" transform="translate(-215.142 -86.72)" fill="#d1d1d6" fill-rule="evenodd"/>
        </g>
        <g id="Grupo_1209425" data-name="Grupo 1209425" transform="translate(0 12.856)">
          <g id="Grupo_1209419" data-name="Grupo 1209419">
            <path id="Trazado_1056223" data-name="Trazado 1056223" d="M79.325,204.8h35.42a1.117,1.117,0,0,1,1.115,1.115v.64a1.117,1.117,0,0,1-1.115,1.115H76.454a1.117,1.117,0,0,1-1.115-1.115V172.108a1.117,1.117,0,0,1,1.115-1.115h.64a1.117,1.117,0,0,1,1.115,1.115v31.576a1.117,1.117,0,0,0,1.115,1.115Z" transform="translate(-75.339 -170.993)" fill="#837683" fill-rule="evenodd"/>
            <path id="Trazado_1056224" data-name="Trazado 1056224" d="M120.494,204.8h1.115a1.117,1.117,0,0,1,1.115,1.115v.64a1.117,1.117,0,0,1-1.115,1.115h-1.115a1.117,1.117,0,0,0,1.115-1.115v-.64A1.117,1.117,0,0,0,120.494,204.8ZM83.081,171.02a1.108,1.108,0,0,1,.238-.026h.64a1.117,1.117,0,0,1,1.115,1.115v31.576a1.117,1.117,0,0,0,1.115,1.115H85.074a1.117,1.117,0,0,1-1.115-1.115V172.109a1.118,1.118,0,0,0-.878-1.089Z" transform="translate(-82.203 -170.994)" fill="#685e68" fill-rule="evenodd"/>
          </g>
          <g id="Grupo_1209424" data-name="Grupo 1209424" transform="translate(6.253 11.109)">
            <g id="Grupo_1209420" data-name="Grupo 1209420" transform="translate(9.088 6.421)">
              <path id="Trazado_1056225" data-name="Trazado 1056225" d="M211.775,325.623h2.664a1.117,1.117,0,0,1,1.115,1.115v13.392a1.117,1.117,0,0,1-1.115,1.115h-2.664a1.117,1.117,0,0,1-1.115-1.115V326.738A1.117,1.117,0,0,1,211.775,325.623Z" transform="translate(-210.66 -325.623)" fill="#6cf5c2" fill-rule="evenodd"/>
              <path id="Trazado_1056226" data-name="Trazado 1056226" d="M234.162,325.623h1.115a1.117,1.117,0,0,1,1.115,1.115v13.392a1.117,1.117,0,0,1-1.115,1.115h-1.115a1.117,1.117,0,0,0,1.115-1.115V326.738A1.117,1.117,0,0,0,234.162,325.623Z" transform="translate(-231.498 -325.623)" fill="#00e499" fill-rule="evenodd"/>
            </g>
            <g id="Grupo_1209421" data-name="Grupo 1209421" transform="translate(18.177 8.46)">
              <path id="Trazado_1056227" data-name="Trazado 1056227" d="M291.945,343.617h2.664a1.117,1.117,0,0,1,1.115,1.115v11.352a1.117,1.117,0,0,1-1.115,1.115h-2.664a1.117,1.117,0,0,1-1.115-1.115V344.732A1.117,1.117,0,0,1,291.945,343.617Z" transform="translate(-290.83 -343.617)" fill="#ffe177" fill-rule="evenodd"/>
              <path id="Trazado_1056228" data-name="Trazado 1056228" d="M314.33,343.617h1.115a1.117,1.117,0,0,1,1.115,1.115v11.352a1.117,1.117,0,0,1-1.115,1.115H314.33a1.117,1.117,0,0,0,1.115-1.115V344.732A1.117,1.117,0,0,0,314.33,343.617Z" transform="translate(-311.666 -343.617)" fill="#ffd064" fill-rule="evenodd"/>
            </g>
            <g id="Grupo_1209422" data-name="Grupo 1209422" transform="translate(27.265)">
              <path id="Trazado_1056229" data-name="Trazado 1056229" d="M372.112,268.988h2.664a1.117,1.117,0,0,1,1.115,1.115v19.813a1.117,1.117,0,0,1-1.115,1.115h-2.664A1.117,1.117,0,0,1,371,289.916V270.1A1.117,1.117,0,0,1,372.112,268.988Z" transform="translate(-370.997 -268.988)" fill="#8ac9fe" fill-rule="evenodd"/>
              <path id="Trazado_1056230" data-name="Trazado 1056230" d="M394.5,268.988h1.115a1.117,1.117,0,0,1,1.115,1.115v19.813a1.117,1.117,0,0,1-1.115,1.115H394.5a1.117,1.117,0,0,0,1.115-1.115V270.1A1.117,1.117,0,0,0,394.5,268.988Z" transform="translate(-391.834 -268.988)" fill="#60b7ff" fill-rule="evenodd"/>
            </g>
            <g id="Grupo_1209423" data-name="Grupo 1209423" transform="translate(0 12.48)">
              <path id="Trazado_1056231" data-name="Trazado 1056231" d="M131.607,379.077h2.664a1.117,1.117,0,0,1,1.115,1.115v7.332a1.117,1.117,0,0,1-1.115,1.115h-2.664a1.117,1.117,0,0,1-1.115-1.115v-7.332A1.117,1.117,0,0,1,131.607,379.077Z" transform="translate(-130.492 -379.077)" fill="#fe646f" fill-rule="evenodd"/>
              <path id="Trazado_1056232" data-name="Trazado 1056232" d="M153.993,379.077h1.115a1.117,1.117,0,0,1,1.115,1.115v7.332a1.117,1.117,0,0,1-1.115,1.115h-1.115a1.117,1.117,0,0,0,1.115-1.115v-7.332A1.117,1.117,0,0,0,153.993,379.077Z" transform="translate(-151.329 -379.077)" fill="#fd4755" fill-rule="evenodd"/>
            </g>
          </g>
        </g>
      </g>
      <path id="Trazado_1056233" data-name="Trazado 1056233" d="M76.761,28.145A12.762,12.762,0,0,1,91.338,9.518L91.264,9.4a.907.907,0,0,1,1.516-1l1.71,2.6a.907.907,0,0,1-.609,1.393l-3.071.51a.907.907,0,0,1-.4-1.765A10.948,10.948,0,0,0,78.333,27.24a.907.907,0,1,1-1.572.905ZM97.314,16.327A10.948,10.948,0,0,1,85.239,32.42a.906.906,0,0,0-.4-1.765l-3.071.51a.906.906,0,0,0-.609,1.393l1.71,2.6a.907.907,0,1,0,1.516-1l-.074-.113A12.761,12.761,0,0,0,98.886,15.422a.907.907,0,1,0-1.572.905Zm-9.49,8.435a2.978,2.978,0,1,0-2.978-2.978A2.981,2.981,0,0,0,87.823,24.762Zm0-7.771a4.792,4.792,0,1,0,4.792,4.792A4.8,4.8,0,0,0,87.823,16.991ZM94.3,21.007a.91.91,0,0,1-.557-.636,6.032,6.032,0,0,0-.733-1.772.906.906,0,0,1-.057-.844L93.286,17l-.679-.68-.755.335a.907.907,0,0,1-.843-.057,6.035,6.035,0,0,0-1.772-.734.908.908,0,0,1-.636-.557l-.3-.77h-.961l-.3.77a.908.908,0,0,1-.637.556,6.047,6.047,0,0,0-1.771.735.906.906,0,0,1-.843.057l-.755-.335-.679.68.334.754a.905.905,0,0,1-.057.844,6.075,6.075,0,0,0-.735,1.771.906.906,0,0,1-.555.636l-.77.3v.961l.769.3a.9.9,0,0,1,.557.636,6.073,6.073,0,0,0,.735,1.772.905.905,0,0,1,.057.844l-.335.754.679.68.755-.335a.906.906,0,0,1,.843.057,6.052,6.052,0,0,0,1.771.734.908.908,0,0,1,.637.556l.3.77H88.3l.3-.769a.908.908,0,0,1,.636-.557,6.029,6.029,0,0,0,1.772-.735.909.909,0,0,1,.845-.057l.754.335.679-.68-.336-.754a.909.909,0,0,1,.057-.844,6.01,6.01,0,0,0,.735-1.771.908.908,0,0,1,.557-.637l.77-.3V21.3Zm-1.859-6.6-.9.4a7.841,7.841,0,0,0-1.407-.583l-.355-.922a.908.908,0,0,0-.847-.581H86.721a.908.908,0,0,0-.847.581l-.355.922a7.82,7.82,0,0,0-1.407.583l-.9-.4a.908.908,0,0,0-1.01.188l-1.56,1.56a.906.906,0,0,0-.187,1.009l.4.9a7.845,7.845,0,0,0-.584,1.408l-.923.355a.908.908,0,0,0-.581.847v2.206a.907.907,0,0,0,.581.847l.922.355a7.83,7.83,0,0,0,.583,1.408l-.4.9a.906.906,0,0,0,.187,1.01l1.56,1.56a.908.908,0,0,0,1.01.188l.9-.4a7.833,7.833,0,0,0,1.407.584l.355.922a.908.908,0,0,0,.847.581h2.206a.907.907,0,0,0,.847-.581l.355-.922a7.883,7.883,0,0,0,1.408-.584l.9.4a.908.908,0,0,0,1.01-.188l1.56-1.56A.905.905,0,0,0,95.2,26.4l-.4-.9a7.825,7.825,0,0,0,.584-1.407l.922-.355a.906.906,0,0,0,.582-.846V20.681a.907.907,0,0,0-.582-.846l-.922-.355a7.82,7.82,0,0,0-.584-1.408l.4-.9a.906.906,0,0,0-.187-1.009l-1.56-1.56a.908.908,0,0,0-1.01-.188ZM75.046,46.085a.907.907,0,0,1,.159-1.273l9.239-7.194a.907.907,0,0,1,.837-.147l8.709,2.822,7.1-7.164-.541.047a.907.907,0,1,1-.159-1.807l3.008-.264a.908.908,0,0,1,.981,1l-.335,3a.907.907,0,1,1-1.8-.2l.045-.411-7.4,7.467a.905.905,0,0,1-.924.225l-8.781-2.846-8.859,6.9a.906.906,0,0,1-1.273-.159Zm32.467,16.33v-1.1H70.145a.907.907,0,0,1-.907-.907V26.944h-1.1V62.416ZM74.181,51.59h3.162V59.5H74.181Zm9.24-6.16V59.5h3.162V45.43ZM92.66,47.5h3.162V59.5H92.66Zm9.238-8.6V59.5h3.162V38.9Zm6.522,20.6h-1.546V38a.907.907,0,0,0-.907-.907h-4.976a.908.908,0,0,0-.907.907V59.5H97.635V46.6a.907.907,0,0,0-.907-.907H91.753a.907.907,0,0,0-.907.907V59.5H88.4V44.523a.907.907,0,0,0-.907-.907H82.513a.907.907,0,0,0-.907.907V59.5h-2.45V50.683a.907.907,0,0,0-.907-.907H73.274a.907.907,0,0,0-.907.907V59.5H71.052V26.037a.907.907,0,0,0-.907-.907H67.227a.907.907,0,0,0-.907.907V63.323a.907.907,0,0,0,.907.907H108.42a.907.907,0,0,0,.907-.907V60.4A.907.907,0,0,0,108.42,59.5Z" transform="translate(0 0)" fill="#242222" fill-rule="evenodd"/>
    </g>
  </g>
</svg>
