<svg xmlns="http://www.w3.org/2000/svg" xmlns:xlink="http://www.w3.org/1999/xlink" width="101.234" height="101.234" viewBox="0 0 101.234 101.234">
  <defs>
    <filter id="Trazado_904820" x="0" y="0" width="101.234" height="101.234" filterUnits="userSpaceOnUse">
      <feOffset dy="3" input="SourceAlpha"/>
      <feGaussianBlur stdDeviation="3" result="blur"/>
      <feFlood flood-opacity="0.161"/>
      <feComposite operator="in" in2="blur"/>
      <feComposite in="SourceGraphic"/>
    </filter>
  </defs>
  <g id="Grupo_1209429" data-name="Grupo 1209429" transform="translate(-172.767 -5325.755)">
    <g id="Grupo_1209251" data-name="Grupo 1209251" transform="translate(181.767 5331.755)">
      <g id="Grupo_1174741" data-name="Grupo 1174741" transform="translate(0 0)">
        <g id="Grupo_1173585" data-name="Grupo 1173585">
          <g id="Grupo_1173428" data-name="Grupo 1173428">
            <g id="Grupo_1171958" data-name="Grupo 1171958">
              <g id="Grupo_1167341" data-name="Grupo 1167341">
                <g id="Grupo_1166792" data-name="Grupo 1166792">
                  <g transform="matrix(1, 0, 0, 1, -9, -6)" filter="url(#Trazado_904820)">
                    <g id="Trazado_904820-2" data-name="Trazado 904820" transform="translate(9 6)" fill="#fef9e5">
                      <path d="M 41.61681747436523 81.73366546630859 C 36.20041656494141 81.73366546630859 30.94684028625488 80.67319488525391 26.00200653076172 78.58170318603516 C 21.22509956359863 76.56124114990234 16.93468856811523 73.66845703125 13.24994659423828 69.98371887207031 C 9.565205574035645 66.29897308349609 6.672429084777832 62.00854873657227 4.651970386505127 57.23164367675781 C 2.560476303100586 52.28680801391602 1.500005722045898 47.03323364257812 1.500005722045898 41.6168327331543 C 1.500005722045898 36.20043182373047 2.560476303100586 30.94684410095215 4.651970386505127 26.00200843811035 C 6.672429084777832 21.2251033782959 9.565205574035645 16.9346923828125 13.24994659423828 13.24995040893555 C 16.93468856811523 9.565196990966797 21.22509956359863 6.672420978546143 26.00200653076172 4.651962280273438 C 30.94684028625488 2.560467958450317 36.20041656494141 1.499997496604919 41.61681747436523 1.499997496604919 C 47.03321838378906 1.499997496604919 52.28679275512695 2.560467958450317 57.23162841796875 4.651962280273438 C 62.0085334777832 6.672420978546143 66.2989501953125 9.565196990966797 69.98368835449219 13.24995040893555 C 73.66844177246094 16.9346923828125 76.56121826171875 21.2251033782959 78.58167266845703 26.00200843811035 C 80.67317199707031 30.94684410095215 81.733642578125 36.20043182373047 81.733642578125 41.6168327331543 C 81.733642578125 47.03323364257812 80.67317199707031 52.28680801391602 78.58167266845703 57.23164367675781 C 76.56121826171875 62.00854873657227 73.66844177246094 66.29897308349609 69.98368835449219 69.98371887207031 C 66.2989501953125 73.66845703125 62.0085334777832 76.56124114990234 57.23162841796875 78.58170318603516 C 52.28679275512695 80.67319488525391 47.03321838378906 81.73366546630859 41.61681747436523 81.73366546630859 Z" stroke="none"/>
                      <path d="M 41.61681747436523 2.999992370605469 C 36.40225601196289 2.999992370605469 31.34527206420898 4.020606994628906 26.58633804321289 6.033462524414062 C 21.98823165893555 7.978302001953125 17.85807037353516 10.76312255859375 14.31060791015625 14.31060791015625 C 10.76313781738281 17.85807037353516 7.978309631347656 21.98823165893555 6.033470153808594 26.58633804321289 C 4.020606994628906 31.34528732299805 3.000007629394531 36.40227127075195 3.000007629394531 41.6168327331543 C 3.000007629394531 46.83139419555664 4.020606994628906 51.88838195800781 6.033470153808594 56.64732360839844 C 7.978309631347656 61.24542999267578 10.76313781738281 65.37557983398438 14.31060791015625 68.92304992675781 C 17.85807037353516 72.47052764892578 21.98823165893555 75.25535583496094 26.58633804321289 77.2001953125 C 31.34527206420898 79.21304321289062 36.40225601196289 80.23365783691406 41.61681747436523 80.23365783691406 C 46.83137893676758 80.23365783691406 51.88836669921875 79.21304321289062 56.64729690551758 77.2001953125 C 61.24540328979492 75.25535583496094 65.37556457519531 72.47052764892578 68.92303466796875 68.92304992675781 C 72.47049713134766 65.37557983398438 75.25532531738281 61.24542999267578 77.20016479492188 56.64732360839844 C 79.21302795410156 51.88838195800781 80.23362731933594 46.83139419555664 80.23362731933594 41.6168327331543 C 80.23362731933594 36.40227127075195 79.21302795410156 31.34528732299805 77.20016479492188 26.58633804321289 C 75.25532531738281 21.98823165893555 72.47049713134766 17.85807037353516 68.92303466796875 14.31060791015625 C 65.37556457519531 10.76312255859375 61.24540328979492 7.978302001953125 56.64729690551758 6.033462524414062 C 51.88836669921875 4.020606994628906 46.83137893676758 2.999992370605469 41.61681747436523 2.999992370605469 M 41.61681747436523 -7.62939453125e-06 C 64.60115051269531 -7.62939453125e-06 83.23362731933594 18.63248443603516 83.23362731933594 41.6168327331543 C 83.23362731933594 64.60116577148438 64.60115051269531 83.23365783691406 41.61681747436523 83.23365783691406 C 18.63248443603516 83.23365783691406 7.62939453125e-06 64.60116577148438 7.62939453125e-06 41.6168327331543 C 7.62939453125e-06 18.63248443603516 18.63248443603516 -7.62939453125e-06 41.61681747436523 -7.62939453125e-06 Z" stroke="none" fill="#866d08"/>
                    </g>
                  </g>
                </g>
              </g>
            </g>
          </g>
        </g>
      </g>
    </g>
    <g id="standard_9503436" transform="translate(184.646 5334.158)">
      <g id="Grupo_1209428" data-name="Grupo 1209428" transform="translate(15.644 14.212)">
        <path id="Trazado_1056234" data-name="Trazado 1056234" d="M44.2,20.1H80.8V71H44.2Z" transform="translate(-41.784 -20.1)" fill="#fcb13b" fill-rule="evenodd"/>
        <path id="Trazado_1056235" data-name="Trazado 1056235" d="M139.6,62.3h15.146V83.617H139.6Z" transform="translate(-126.892 -57.748)" fill="#d71b5a" fill-rule="evenodd"/>
        <path id="Trazado_1056236" data-name="Trazado 1056236" d="M211.852,112.252a5.454,5.454,0,1,1,0,7.713A5.443,5.443,0,0,1,211.852,112.252Z" transform="translate(-189.92 -100.882)" fill="#e6e6e6" fill-rule="evenodd"/>
        <path id="Trazado_1056237" data-name="Trazado 1056237" d="M22.987,80.3h2.665a1.229,1.229,0,0,1,1.187,1.262V83.04A1.229,1.229,0,0,1,25.651,84.3H22.987A1.229,1.229,0,0,1,21.8,83.04V81.562A1.243,1.243,0,0,1,22.987,80.3Zm0,33.906h2.665a1.229,1.229,0,0,1,1.187,1.262v1.478a1.229,1.229,0,0,1-1.187,1.262H22.987a1.229,1.229,0,0,1-1.187-1.262v-1.478A1.243,1.243,0,0,1,22.987,114.206Zm0-11.295h2.665a1.229,1.229,0,0,1,1.187,1.262v1.478a1.229,1.229,0,0,1-1.187,1.262H22.987a1.229,1.229,0,0,1-1.187-1.262v-1.478A1.236,1.236,0,0,1,22.987,102.911Zm0-11.306h2.665a1.229,1.229,0,0,1,1.187,1.262v1.478a1.229,1.229,0,0,1-1.187,1.262H22.987A1.229,1.229,0,0,1,21.8,94.346V92.868A1.236,1.236,0,0,1,22.987,91.606Z" transform="translate(-21.8 -73.806)" fill="#00b2ca" fill-rule="evenodd"/>
        <path id="Trazado_1056238" data-name="Trazado 1056238" d="M289.189,253.3A11.489,11.489,0,1,1,277.7,264.789,11.492,11.492,0,0,1,289.189,253.3Z" transform="translate(-250.094 -228.143)" fill="#00b2ca" fill-rule="evenodd"/>
        <path id="Trazado_1056239" data-name="Trazado 1056239" d="M306.6,313.421l2.449-1.931,3.463,4.563,7.929-7.854,2.093,2.309L312.091,320.6Z" transform="translate(-275.876 -277.12)" fill="#e6e6e6" fill-rule="evenodd"/>
      </g>
      <path id="Trazado_1056240" data-name="Trazado 1056240" d="M26.486,55.637a.712.712,0,0,1,0-1.424H40.575a.712.712,0,0,1,0,1.424Zm0-5.049a.712.712,0,0,1,0-1.424H40.575a.712.712,0,0,1,0,1.424Zm19.45-.658,2.406-1.909a.705.705,0,0,1,.992.119l2.988,3.938L59.67,44.8a.7.7,0,0,1,1.025.032l2.093,2.309a.709.709,0,0,1-.054,1.014L52.3,58.216a.715.715,0,0,1-1.057-.076l-5.491-7.174a.761.761,0,0,1,.183-1.036Zm2.719-.345-1.327,1.046,4.585,5.987,9.375-9.051-1.133-1.251-7.4,7.325a.711.711,0,0,1-1.068-.076Zm6.688-10.917a12.207,12.207,0,0,1,0,24.381v2.06a.7.7,0,0,1-.712.712h-36.6a.7.7,0,0,1-.712-.712V59.327H16.8a1.939,1.939,0,0,1-1.9-1.974V55.875A1.946,1.946,0,0,1,16.8,53.9h.518V48.021H16.8a1.939,1.939,0,0,1-1.9-1.974V44.569a1.946,1.946,0,0,1,1.9-1.974h.518V36.715H16.8a1.939,1.939,0,0,1-1.9-1.974V33.263a1.946,1.946,0,0,1,1.9-1.974h.518V25.421H16.8a1.939,1.939,0,0,1-1.9-1.974V21.968a1.946,1.946,0,0,1,1.9-1.974h.518V14.212a.7.7,0,0,1,.712-.712h36.6a.7.7,0,0,1,.712.712ZM53.92,63.038a12.205,12.205,0,0,1,0-24.359V14.924H18.74v5.07h.723a1.939,1.939,0,0,1,1.9,1.974v1.478a1.946,1.946,0,0,1-1.9,1.974H18.74V31.3h.723a1.939,1.939,0,0,1,1.9,1.974v1.478a1.946,1.946,0,0,1-1.9,1.974H18.74v5.879h.723a1.939,1.939,0,0,1,1.9,1.974v1.478a1.946,1.946,0,0,1-1.9,1.974H18.74V53.9h.723a1.939,1.939,0,0,1,1.9,1.974v1.478a1.946,1.946,0,0,1-1.9,1.974H18.74V64.4H53.92Zm8.415-19.8a10.779,10.779,0,1,0,0,15.243,10.782,10.782,0,0,0,0-15.243ZM19.463,21.418H16.809a.512.512,0,0,0-.475.55v1.478a.519.519,0,0,0,.475.55h2.654a.512.512,0,0,0,.475-.55V21.968A.526.526,0,0,0,19.463,21.418Zm0,33.906H16.809a.512.512,0,0,0-.475.55v1.478a.519.519,0,0,0,.475.55h2.654a.512.512,0,0,0,.475-.55V55.875A.526.526,0,0,0,19.463,55.324Zm0-11.295H16.809a.512.512,0,0,0-.475.55v1.478a.519.519,0,0,0,.475.55h2.654a.512.512,0,0,0,.475-.55V44.58A.519.519,0,0,0,19.463,44.03Zm0-11.306H16.809a.512.512,0,0,0-.475.55v1.478a.519.519,0,0,0,.475.55h2.654a.512.512,0,0,0,.475-.55V33.274A.519.519,0,0,0,19.463,32.724Zm26.765.539L49.96,37a.716.716,0,0,1,0,1.014.7.7,0,0,1-1,0l-3.733-3.743a6.357,6.357,0,0,1-1.046.669V40.07a.711.711,0,0,1-.712.712H28.32a.718.718,0,0,1-.712-.712V18.764a.711.711,0,0,1,.712-.712H43.466a.7.7,0,0,1,.712.712v5.167A6.162,6.162,0,0,1,46.228,33.263Zm-9.191-8.188a6.137,6.137,0,0,1,5.718-1.651V19.476H29.032V39.369H42.754V35.453a6.17,6.17,0,0,1-5.718-10.378Zm4.358-.388a4.741,4.741,0,1,0,4.747,4.747,4.738,4.738,0,0,0-4.747-4.747Z"/>
    </g>
  </g>
</svg>
