<svg xmlns="http://www.w3.org/2000/svg" xmlns:xlink="http://www.w3.org/1999/xlink" width="113" height="113" viewBox="0 0 113 113">
  <defs>
    <filter id="Trazado_982547" x="0" y="0" width="113" height="113" filterUnits="userSpaceOnUse">
      <feOffset dy="3" input="SourceAlpha"/>
      <feGaussianBlur stdDeviation="3" result="blur"/>
      <feFlood flood-opacity="0.161"/>
      <feComposite operator="in" in2="blur"/>
      <feComposite in="SourceGraphic"/>
    </filter>
  </defs>
  <g id="Grupo_1209431" data-name="Grupo 1209431" transform="translate(-272.127 -6277.114)">
    <g id="Grupo_1209252" data-name="Grupo 1209252" transform="translate(0.127 4299.485)">
      <g id="Grupo_1208147" data-name="Grupo 1208147" transform="translate(0 -3923.371)">
        <g id="Grupo_1202432" data-name="Grupo 1202432" transform="translate(0 1255.486)">
          <g id="Grupo_1202055" data-name="Grupo 1202055" transform="translate(0 3240.511)">
            <g id="Grupo_1177900" data-name="Grupo 1177900" transform="translate(281 1411.003)">
              <g id="Grupo_1172010" data-name="Grupo 1172010" transform="translate(0)">
                <g id="Grupo_1171046" data-name="Grupo 1171046">
                  <g id="Grupo_1148525" data-name="Grupo 1148525">
                    <g transform="matrix(1, 0, 0, 1, -9, -6)" filter="url(#Trazado_982547)">
                      <g id="Trazado_982547-2" data-name="Trazado 982547" transform="translate(9 6)" fill="#f6ecfe">
                        <path d="M 47.5 93.5 C 41.28937149047852 93.5 35.26533508300781 92.28397369384766 29.59518623352051 89.88570404052734 C 24.11771965026855 87.56893157958984 19.19813346862793 84.25196075439453 14.97309303283691 80.02691650390625 C 10.74804019927979 75.80186462402344 7.431066513061523 70.88229370117188 5.114293098449707 65.40481567382812 C 2.716026782989502 59.73468017578125 1.5 53.71062850952148 1.5 47.5 C 1.5 41.28937149047852 2.716026782989502 35.26533508300781 5.114293098449707 29.59518623352051 C 7.431066513061523 24.11771965026855 10.74804019927979 19.19813346862793 14.97309303283691 14.97309303283691 C 19.19813346862793 10.74804019927979 24.11771965026855 7.431066513061523 29.59518623352051 5.114293098449707 C 35.26533508300781 2.716026782989502 41.28937149047852 1.5 47.5 1.5 C 53.71062850952148 1.5 59.73468017578125 2.716026782989502 65.40481567382812 5.114293098449707 C 70.88229370117188 7.431066513061523 75.80186462402344 10.74804019927979 80.02691650390625 14.97309303283691 C 84.25196075439453 19.19813346862793 87.56893157958984 24.11771965026855 89.88570404052734 29.59518623352051 C 92.28397369384766 35.26533508300781 93.5 41.28937149047852 93.5 47.5 C 93.5 53.71062850952148 92.28397369384766 59.73468017578125 89.88570404052734 65.40481567382812 C 87.56893157958984 70.88229370117188 84.25196075439453 75.80186462402344 80.02691650390625 80.02691650390625 C 75.80186462402344 84.25196075439453 70.88229370117188 87.56893157958984 65.40481567382812 89.88570404052734 C 59.73468017578125 92.28397369384766 53.71062850952148 93.5 47.5 93.5 Z" stroke="none"/>
                        <path d="M 47.5 3 C 41.49121475219727 3 35.66376876831055 4.176155090332031 30.17950439453125 6.495796203613281 C 24.88084411621094 8.736953735351562 20.12152099609375 11.94598388671875 16.03375244140625 16.03375244140625 C 11.94598388671875 20.12152099609375 8.736953735351562 24.88084411621094 6.495796203613281 30.17950439453125 C 4.176155090332031 35.66376876831055 3 41.49121475219727 3 47.5 C 3 53.50878524780273 4.176155090332031 59.33623123168945 6.495796203613281 64.82049560546875 C 8.736953735351562 70.11915588378906 11.94598388671875 74.87847900390625 16.03375244140625 78.96624755859375 C 20.12152099609375 83.05401611328125 24.88084411621094 86.26304626464844 30.17950439453125 88.50419616699219 C 35.66376876831055 90.82384490966797 41.49121475219727 92 47.5 92 C 53.50878524780273 92 59.33623123168945 90.82384490966797 64.82049560546875 88.50419616699219 C 70.11915588378906 86.26304626464844 74.87847900390625 83.05401611328125 78.96624755859375 78.96624755859375 C 83.05401611328125 74.87847900390625 86.26304626464844 70.11915588378906 88.50419616699219 64.82049560546875 C 90.82384490966797 59.33623123168945 92 53.50878524780273 92 47.5 C 92 41.49121475219727 90.82384490966797 35.66376876831055 88.50419616699219 30.17950439453125 C 86.26304626464844 24.88084411621094 83.05401611328125 20.12152099609375 78.96624755859375 16.03375244140625 C 74.87847900390625 11.94598388671875 70.11915588378906 8.736953735351562 64.82049560546875 6.495796203613281 C 59.33623123168945 4.176155090332031 53.50878524780273 3 47.5 3 M 47.5 0 C 73.7335205078125 0 95 21.2664794921875 95 47.5 C 95 73.7335205078125 73.7335205078125 95 47.5 95 C 21.2664794921875 95 0 73.7335205078125 0 47.5 C 0 21.2664794921875 21.2664794921875 0 47.5 0 Z" stroke="none" fill="#aa52f9"/>
                      </g>
                    </g>
                  </g>
                </g>
              </g>
            </g>
          </g>
        </g>
      </g>
    </g>
    <g id="list_9405368" transform="translate(268.185 6289.712)">
      <path id="Trazado_1056241" data-name="Trazado 1056241" d="M286.511,320.545a13.057,13.057,0,0,1-15.034-19.789l-.565-5.558,5.535,1.3h0a13.058,13.058,0,1,1,10.065,24.049Z" transform="translate(-203.644 -249.15)" fill="#e0e7ef"/>
      <path id="Trazado_1056242" data-name="Trazado 1056242" d="M286.511,320.545a13.057,13.057,0,0,1-15.034-19.789l-.565-5.558,5.535,1.3h0a13.058,13.058,0,1,1,10.065,24.049Z" transform="translate(-203.644 -249.15)" fill="none" stroke="#000" stroke-linecap="round" stroke-linejoin="round" stroke-miterlimit="10" stroke-width="1"/>
      <g id="Grupo_1209430" data-name="Grupo 1209430" transform="translate(70.753 53.867)">
        <line id="Línea_2086" data-name="Línea 2086" x2="10.031" transform="translate(5.684 6.87)" fill="none" stroke="#000" stroke-linecap="round" stroke-linejoin="round" stroke-miterlimit="10" stroke-width="1"/>
        <path id="Trazado_1056243" data-name="Trazado 1056243" d="M310.871,364.209h5.762a3.435,3.435,0,0,0,3.435-3.435h0a3.435,3.435,0,0,0-3.435-3.435h-.078a3.437,3.437,0,0,0-3.322,2.559" transform="translate(-310.871 -357.339)" fill="none" stroke="#000" stroke-linecap="round" stroke-linejoin="round" stroke-miterlimit="10" stroke-width="1"/>
        <path id="Trazado_1056244" data-name="Trazado 1056244" d="M417.57,394.006l2.239,2.239-2.239,2.239" transform="translate(-404.095 -389.375)" fill="none" stroke="#000" stroke-linecap="round" stroke-linejoin="round" stroke-miterlimit="10" stroke-width="1"/>
      </g>
      <path id="Trazado_1056245" data-name="Trazado 1056245" d="M78.212,57.287V46.252H68.73V51.36h-23.2V46.252H36.044V98.367h31.89a13.055,13.055,0,0,1-.1-15.088l-.565-5.557,5.518,1.295.016,0a13.093,13.093,0,0,1,5.41-1.328V57.287Z" transform="translate(0 -31.674)" fill="#ffce62"/>
      <path id="Trazado_1056246" data-name="Trazado 1056246" d="M129.766,12.02h0a2.02,2.02,0,0,0-2.02-2.02H117.7a2.02,2.02,0,0,0-2.02,2.02h0a2.559,2.559,0,0,1-2.559,2.559h-2v5.108h23.2V14.578h-2A2.559,2.559,0,0,1,129.766,12.02Z" transform="translate(-65.597)" fill="#5c90ae"/>
      <path id="Trazado_1056247" data-name="Trazado 1056247" d="M112.051,114.356l-5.518-1.295.565,5.557a13.053,13.053,0,0,0-2.117,9.931h-24V86.7h31.065Z" transform="translate(-39.266 -67.012)" fill="#e0e7ef"/>
      <path id="Trazado_1056248" data-name="Trazado 1056248" d="M78.212,57.287V46.252H68.73V51.36h-23.2V46.252H36.044V98.367h31.89a13.055,13.055,0,0,1-.1-15.088l-.565-5.557,5.518,1.295.016,0a13.093,13.093,0,0,1,5.41-1.328V68.412" transform="translate(0 -31.674)" fill="none" stroke="#000" stroke-linecap="round" stroke-linejoin="round" stroke-miterlimit="10" stroke-width="1"/>
      <path id="Trazado_1056249" data-name="Trazado 1056249" d="M129.766,12.02h0a2.02,2.02,0,0,0-2.02-2.02H117.7a2.02,2.02,0,0,0-2.02,2.02h0a2.559,2.559,0,0,1-2.559,2.559h-2v5.108h23.2V14.578h-2A2.559,2.559,0,0,1,129.766,12.02Z" transform="translate(-65.597)" fill="none" stroke="#000" stroke-linecap="round" stroke-linejoin="round" stroke-miterlimit="10" stroke-width="1"/>
      <path id="Trazado_1056250" data-name="Trazado 1056250" d="M112.051,114.356l-5.518-1.295.565,5.557a13.053,13.053,0,0,0-2.117,9.931h-24V86.7h31.065Z" transform="translate(-39.266 -67.012)" fill="none" stroke="#000" stroke-linecap="round" stroke-linejoin="round" stroke-miterlimit="10" stroke-width="1"/>
      <line id="Línea_2087" data-name="Línea 2087" x2="3.765" y2="3.765" transform="translate(47.67 39.253)" fill="none" stroke="#000" stroke-linecap="round" stroke-linejoin="round" stroke-miterlimit="10" stroke-width="1"/>
      <line id="Línea_2088" data-name="Línea 2088" x1="3.765" y2="3.765" transform="translate(47.67 39.253)" fill="none" stroke="#000" stroke-linecap="round" stroke-linejoin="round" stroke-miterlimit="10" stroke-width="1"/>
      <line id="Línea_2089" data-name="Línea 2089" x2="10.516" transform="translate(56.382 41.136)" fill="none" stroke="#000" stroke-linecap="round" stroke-linejoin="round" stroke-miterlimit="10" stroke-width="1"/>
      <line id="Línea_2090" data-name="Línea 2090" x2="3.765" y2="3.765" transform="translate(47.67 48.098)" fill="none" stroke="#000" stroke-linecap="round" stroke-linejoin="round" stroke-miterlimit="10" stroke-width="1"/>
      <line id="Línea_2091" data-name="Línea 2091" x1="3.765" y2="3.765" transform="translate(47.67 48.098)" fill="none" stroke="#000" stroke-linecap="round" stroke-linejoin="round" stroke-miterlimit="10" stroke-width="1"/>
      <line id="Línea_2092" data-name="Línea 2092" x2="5.934" transform="translate(56.382 49.98)" fill="none" stroke="#000" stroke-linecap="round" stroke-linejoin="round" stroke-miterlimit="10" stroke-width="1"/>
      <path id="Trazado_1056251" data-name="Trazado 1056251" d="M146.046,140.931H129.738a1.639,1.639,0,0,1-1.639-1.639v-3.562a1.639,1.639,0,0,1,1.639-1.639h16.308a1.639,1.639,0,0,1,1.639,1.639v3.562A1.639,1.639,0,0,1,146.046,140.931Z" transform="translate(-80.429 -108.42)" fill="#ff7b7b"/>
      <path id="Trazado_1056252" data-name="Trazado 1056252" d="M146.046,140.931H129.738a1.639,1.639,0,0,1-1.639-1.639v-3.562a1.639,1.639,0,0,1,1.639-1.639h16.308a1.639,1.639,0,0,1,1.639,1.639v3.562A1.639,1.639,0,0,1,146.046,140.931Z" transform="translate(-80.429 -108.42)" fill="none" stroke="#000" stroke-linecap="round" stroke-linejoin="round" stroke-miterlimit="10" stroke-width="1"/>
      <line id="Línea_2093" data-name="Línea 2093" transform="translate(78.212 31.267)" fill="none" stroke="#000" stroke-linecap="round" stroke-linejoin="round" stroke-miterlimit="10" stroke-width="1"/>
    </g>
  </g>
</svg>
