<svg xmlns="http://www.w3.org/2000/svg" xmlns:xlink="http://www.w3.org/1999/xlink" width="113" height="113" viewBox="0 0 113 113">
  <defs>
    <filter id="Trazado_982547" x="0" y="0" width="113" height="113" filterUnits="userSpaceOnUse">
      <feOffset dy="3" input="SourceAlpha"/>
      <feGaussianBlur stdDeviation="3" result="blur"/>
      <feFlood flood-opacity="0.161"/>
      <feComposite operator="in" in2="blur"/>
      <feComposite in="SourceGraphic"/>
    </filter>
  </defs>
  <g id="Grupo_1209453" data-name="Grupo 1209453" transform="translate(-586.127 -6286.401)">
    <g id="Grupo_1209253" data-name="Grupo 1209253" transform="translate(0.127 4308.485)">
      <g id="Grupo_1208146" data-name="Grupo 1208146" transform="translate(0 -3923.371)">
        <g id="Grupo_1202433" data-name="Grupo 1202433" transform="translate(-0.56 1255.773)">
          <g id="Grupo_1202054" data-name="Grupo 1202054" transform="translate(0 3240.511)">
            <g id="Grupo_1177897" data-name="Grupo 1177897" transform="translate(595.561 1411.003)">
              <g id="Grupo_1172010" data-name="Grupo 1172010" transform="translate(0)">
                <g id="Grupo_1171046" data-name="Grupo 1171046">
                  <g id="Grupo_1148525" data-name="Grupo 1148525">
                    <g transform="matrix(1, 0, 0, 1, -9, -6)" filter="url(#Trazado_982547)">
                      <g id="Trazado_982547-2" data-name="Trazado 982547" transform="translate(9 6)" fill="#f6ecfe">
                        <path d="M 47.5 93.5 C 41.28937149047852 93.5 35.26533508300781 92.28397369384766 29.59518623352051 89.88570404052734 C 24.11771965026855 87.56893157958984 19.19813346862793 84.25196075439453 14.97309303283691 80.02691650390625 C 10.74804019927979 75.80186462402344 7.431066513061523 70.88229370117188 5.114293098449707 65.40481567382812 C 2.716026782989502 59.73468017578125 1.5 53.71062850952148 1.5 47.5 C 1.5 41.28937149047852 2.716026782989502 35.26533508300781 5.114293098449707 29.59518623352051 C 7.431066513061523 24.11771965026855 10.74804019927979 19.19813346862793 14.97309303283691 14.97309303283691 C 19.19813346862793 10.74804019927979 24.11771965026855 7.431066513061523 29.59518623352051 5.114293098449707 C 35.26533508300781 2.716026782989502 41.28937149047852 1.5 47.5 1.5 C 53.71062850952148 1.5 59.73468017578125 2.716026782989502 65.40481567382812 5.114293098449707 C 70.88229370117188 7.431066513061523 75.80186462402344 10.74804019927979 80.02691650390625 14.97309303283691 C 84.25196075439453 19.19813346862793 87.56893157958984 24.11771965026855 89.88570404052734 29.59518623352051 C 92.28397369384766 35.26533508300781 93.5 41.28937149047852 93.5 47.5 C 93.5 53.71062850952148 92.28397369384766 59.73468017578125 89.88570404052734 65.40481567382812 C 87.56893157958984 70.88229370117188 84.25196075439453 75.80186462402344 80.02691650390625 80.02691650390625 C 75.80186462402344 84.25196075439453 70.88229370117188 87.56893157958984 65.40481567382812 89.88570404052734 C 59.73468017578125 92.28397369384766 53.71062850952148 93.5 47.5 93.5 Z" stroke="none"/>
                        <path d="M 47.5 3 C 41.49121475219727 3 35.66376876831055 4.176155090332031 30.17950439453125 6.495796203613281 C 24.88084411621094 8.736953735351562 20.12152099609375 11.94598388671875 16.03375244140625 16.03375244140625 C 11.94598388671875 20.12152099609375 8.736953735351562 24.88084411621094 6.495796203613281 30.17950439453125 C 4.176155090332031 35.66376876831055 3 41.49121475219727 3 47.5 C 3 53.50878524780273 4.176155090332031 59.33623123168945 6.495796203613281 64.82049560546875 C 8.736953735351562 70.11915588378906 11.94598388671875 74.87847900390625 16.03375244140625 78.96624755859375 C 20.12152099609375 83.05401611328125 24.88084411621094 86.26304626464844 30.17950439453125 88.50419616699219 C 35.66376876831055 90.82384490966797 41.49121475219727 92 47.5 92 C 53.50878524780273 92 59.33623123168945 90.82384490966797 64.82049560546875 88.50419616699219 C 70.11915588378906 86.26304626464844 74.87847900390625 83.05401611328125 78.96624755859375 78.96624755859375 C 83.05401611328125 74.87847900390625 86.26304626464844 70.11915588378906 88.50419616699219 64.82049560546875 C 90.82384490966797 59.33623123168945 92 53.50878524780273 92 47.5 C 92 41.49121475219727 90.82384490966797 35.66376876831055 88.50419616699219 30.17950439453125 C 86.26304626464844 24.88084411621094 83.05401611328125 20.12152099609375 78.96624755859375 16.03375244140625 C 74.87847900390625 11.94598388671875 70.11915588378906 8.736953735351562 64.82049560546875 6.495796203613281 C 59.33623123168945 4.176155090332031 53.50878524780273 3 47.5 3 M 47.5 0 C 73.7335205078125 0 95 21.2664794921875 95 47.5 C 95 73.7335205078125 73.7335205078125 95 47.5 95 C 21.2664794921875 95 0 73.7335205078125 0 47.5 C 0 21.2664794921875 21.2664794921875 0 47.5 0 Z" stroke="none" fill="#aa52f9"/>
                      </g>
                    </g>
                  </g>
                </g>
              </g>
            </g>
          </g>
        </g>
      </g>
    </g>
    <g id="graphic-design_4325555" transform="translate(612.116 6309.616)">
      <g id="Grupo_1209451" data-name="Grupo 1209451" transform="translate(0.98 0.98)">
        <g id="Grupo_1209432" data-name="Grupo 1209432" transform="translate(5.881 15.682)">
          <path id="Trazado_1056253" data-name="Trazado 1056253" d="M50.125,52.284H7.98A.98.98,0,0,1,7,51.3V17.98A.98.98,0,0,1,7.98,17H50.125Z" transform="translate(-7 -17)" fill="#69d6f4"/>
        </g>
        <g id="Grupo_1209433" data-name="Grupo 1209433" transform="translate(49.006 15.829)">
          <path id="Trazado_1056254" data-name="Trazado 1056254" d="M58.841,17.15V52.287H51V20.923h1.96V20.59A1.959,1.959,0,0,1,56.3,19.2l.245.245Z" transform="translate(-51 -17.15)" fill="#969faa"/>
        </g>
        <g id="Grupo_1209434" data-name="Grupo 1209434" transform="translate(0 11.761)">
          <path id="Trazado_1056255" data-name="Trazado 1056255" d="M6.881,17.9a.983.983,0,0,1,.98-.98H42.018l-.333-.333.245-.245A1.959,1.959,0,0,0,40.538,13H2.96A1.966,1.966,0,0,0,1,14.96v39.2a1.966,1.966,0,0,0,1.96,1.96H26.483v-.3a.974.974,0,0,1,.637-.912l6.871-2.578a1.3,1.3,0,0,1,.333-.1V52.2H7.861a.983.983,0,0,1-.98-.98Z" transform="translate(-1 -13)" fill="#969faa"/>
        </g>
        <g id="Grupo_1209435" data-name="Grupo 1209435" transform="translate(54.887 50.966)">
          <path id="Trazado_1056256" data-name="Trazado 1056256" d="M58.96,53a1.966,1.966,0,0,1,1.96,1.96v3.92a1.966,1.966,0,0,1-1.96,1.96H57V53Z" transform="translate(-57 -53)" fill="#cf9e76"/>
        </g>
        <g id="Grupo_1209436" data-name="Grupo 1209436" transform="translate(25.483 50.996)">
          <path id="Trazado_1056257" data-name="Trazado 1056257" d="M34.841,53.03v7.782a1.3,1.3,0,0,1-.333-.1l-6.871-2.578A.974.974,0,0,1,27,57.225v-.608a.974.974,0,0,1,.637-.912l6.871-2.578a1.3,1.3,0,0,1,.333-.1Z" transform="translate(-27 -53.03)" fill="#cf9e76"/>
        </g>
        <g id="Grupo_1209437" data-name="Grupo 1209437" transform="translate(33.324 50.966)">
          <path id="Trazado_1056258" data-name="Trazado 1056258" d="M56.563,53v7.841H35.353A2.143,2.143,0,0,1,35,60.812V53.029A2.143,2.143,0,0,1,35.353,53H38.92v2.94a.983.983,0,0,0,.98.98h1.96a.983.983,0,0,0,.98-.98V53h3.92v2.94a.983.983,0,0,0,.98.98h3.92a.983.983,0,0,0,.98-.98V53Z" transform="translate(-35 -53)" fill="#ffeaa7"/>
        </g>
        <g id="Grupo_1209438" data-name="Grupo 1209438" transform="translate(45.086 50.966)">
          <path id="Trazado_1056259" data-name="Trazado 1056259" d="M52.881,53v2.94a.983.983,0,0,1-.98.98H47.98a.983.983,0,0,1-.98-.98V53h5.881Z" transform="translate(-47 -53)" fill="#fcd770"/>
        </g>
        <g id="Grupo_1209439" data-name="Grupo 1209439" transform="translate(37.245 50.966)">
          <path id="Trazado_1056260" data-name="Trazado 1056260" d="M42.92,53v2.94a.983.983,0,0,1-.98.98H39.98a.983.983,0,0,1-.98-.98V53Z" transform="translate(-39 -53)" fill="#fcd770"/>
        </g>
        <g id="Grupo_1209440" data-name="Grupo 1209440" transform="translate(37.245 27.443)">
          <path id="Trazado_1056261" data-name="Trazado 1056261" d="M46.841,29.98v5.881a.983.983,0,0,1-.98.98H39.98a.983.983,0,0,1-.98-.98V29.98a.983.983,0,0,1,.98-.98h5.881A.983.983,0,0,1,46.841,29.98Z" transform="translate(-39 -29)" fill="#e6e9ed"/>
        </g>
        <g id="Grupo_1209441" data-name="Grupo 1209441" transform="translate(17.642 41.165)">
          <path id="Trazado_1056262" data-name="Trazado 1056262" d="M22.92,44.96v.98a.983.983,0,0,1-.98.98H19.98a.983.983,0,0,1-.98-.98V43.98a.983.983,0,0,1,.98-.98h1.96a.983.983,0,0,1,.98.98Z" transform="translate(-19 -43)" fill="#ff826e"/>
        </g>
        <g id="Grupo_1209442" data-name="Grupo 1209442" transform="translate(31.364 41.165)">
          <path id="Trazado_1056263" data-name="Trazado 1056263" d="M36.92,43.98v1.96a.983.983,0,0,1-.98.98H33.98a.983.983,0,0,1-.98-.98V43.98a.983.983,0,0,1,.98-.98h1.96A.983.983,0,0,1,36.92,43.98Z" transform="translate(-33 -43)" fill="#ff826e"/>
        </g>
        <g id="Grupo_1209443" data-name="Grupo 1209443" transform="translate(31.364 21.563)">
          <path id="Trazado_1056264" data-name="Trazado 1056264" d="M36.92,23.98v1.96a.983.983,0,0,1-.98.98H33.98a.983.983,0,0,1-.98-.98V23.98a.983.983,0,0,1,.98-.98h1.96A.983.983,0,0,1,36.92,23.98Z" transform="translate(-33 -23)" fill="#ff826e"/>
        </g>
        <g id="Grupo_1209444" data-name="Grupo 1209444" transform="translate(17.642 21.563)">
          <path id="Trazado_1056265" data-name="Trazado 1056265" d="M22.92,24.96v.98a.983.983,0,0,1-.98.98H19.98a.983.983,0,0,1-.98-.98V23.98a.983.983,0,0,1,.98-.98h1.96a.983.983,0,0,1,.98.98Z" transform="translate(-19 -23)" fill="#ff826e"/>
        </g>
        <g id="Grupo_1209445" data-name="Grupo 1209445" transform="translate(9.801 21.563)">
          <path id="Trazado_1056266" data-name="Trazado 1056266" d="M14.92,23.98V45.543a.983.983,0,0,1-.98.98H11.98a.983.983,0,0,1-.98-.98V23.98a.983.983,0,0,1,.98-.98h1.96A.983.983,0,0,1,14.92,23.98Z" transform="translate(-11 -23)" fill="#ff826e"/>
        </g>
        <g id="Grupo_1209446" data-name="Grupo 1209446" transform="translate(1.96 1.96)">
          <circle id="Elipse_13620" data-name="Elipse 13620" cx="1.5" cy="1.5" r="1.5" transform="translate(0.443 0.443)" fill="#ff826e"/>
        </g>
        <g id="Grupo_1209447" data-name="Grupo 1209447" transform="translate(17.642 1.96)">
          <ellipse id="Elipse_13621" data-name="Elipse 13621" cx="2" cy="1.5" rx="2" ry="1.5" transform="translate(-0.238 0.443)" fill="#ff826e"/>
        </g>
        <g id="Grupo_1209448" data-name="Grupo 1209448" transform="translate(9.801 1.96)">
          <ellipse id="Elipse_13622" data-name="Elipse 13622" cx="2" cy="1.5" rx="2" ry="1.5" transform="translate(-0.397 0.443)" fill="#ff826e"/>
        </g>
        <g id="Grupo_1209449" data-name="Grupo 1209449" transform="translate(39.205)">
          <path id="Trazado_1056267" data-name="Trazado 1056267" d="M45.5,2.725a1.959,1.959,0,0,0,3.342-1.392V1h3.92v.333A1.959,1.959,0,0,0,56.1,2.725l.245-.245,2.774,2.774-.245.245a1.959,1.959,0,0,0,1.392,3.342H60.6v3.92h-.333A1.959,1.959,0,0,0,58.877,16.1l.245.245-.48.48-2.293,2.293-.245-.245a1.959,1.959,0,0,0-3.342,1.392V20.6h-3.92v-.333A1.959,1.959,0,0,0,45.5,18.877l-.245.245-2.441-2.441-.333-.333.245-.245a1.959,1.959,0,0,0-1.392-3.342H41V8.841h.333A1.959,1.959,0,0,0,42.725,5.5l-.245-.245L45.254,2.48ZM44.92,10.8A5.881,5.881,0,1,0,50.8,4.92,5.885,5.885,0,0,0,44.92,10.8Z" transform="translate(-41 -1)" fill="#ffc729"/>
        </g>
        <g id="Grupo_1209450" data-name="Grupo 1209450" transform="translate(43.125 3.92)">
          <path id="Trazado_1056268" data-name="Trazado 1056268" d="M50.881,5A5.881,5.881,0,1,1,45,10.881,5.885,5.885,0,0,1,50.881,5Zm1.96,5.881a1.96,1.96,0,1,0-1.96,1.96A1.966,1.966,0,0,0,52.841,10.881Z" transform="translate(-45 -5)" fill="#fcd770"/>
        </g>
      </g>
      <g id="Grupo_1209452" data-name="Grupo 1209452" transform="translate(0 0)">
        <path id="Trazado_1056269" data-name="Trazado 1056269" d="M50.94,8a2.94,2.94,0,1,0,2.94,2.94A2.944,2.944,0,0,0,50.94,8Zm0,3.92a.98.98,0,1,1,.98-.98A.981.981,0,0,1,50.94,11.92Z" transform="translate(-0.954 -0.159)"/>
        <path id="Trazado_1056270" data-name="Trazado 1056270" d="M59.451,13.722h1.316V7.841H59.451a.98.98,0,0,1-.692-1.674l.929-.931L55.53,1.078l-.93.932a.98.98,0,0,1-1.673-.694V0H47.046V1.316a.98.98,0,0,1-1.672.695l-.931-.933L40.284,5.236l.93.932a.98.98,0,0,1-.693,1.673H39.2v3.92H2.94A2.944,2.944,0,0,0,0,14.7v39.2a2.944,2.944,0,0,0,2.94,2.94H21.563v-1.96H2.94a.981.981,0,0,1-.98-.98V14.7a.981.981,0,0,1,.98-.98H40.521a.98.98,0,0,1,.692,1.674l-.285.286H7.841a1.962,1.962,0,0,0-1.96,1.96V19.6H3.92v1.96h1.96v1.96H3.92v1.96h1.96V50.966a1.962,1.962,0,0,0,1.96,1.96H28.9l-2.144.8a1.958,1.958,0,0,0-1.135,1.157h-2.1v1.96h2.1A1.965,1.965,0,0,0,26.755,58l6.873,2.578a2.94,2.94,0,0,0,1.032.186H57.827a2.944,2.944,0,0,0,2.94-2.94v-3.92a2.936,2.936,0,0,0-1.96-2.76V17.208l.881-.881-.93-.932a.98.98,0,0,1,.693-1.673Zm-51.61,3.92H41.6l2.843,2.842.93-.932a.98.98,0,0,1,1.673.694v1.316h1.96v29.4H7.841ZM35.284,52.927h1.96v1.96a1.962,1.962,0,0,0,1.96,1.96h1.96a1.962,1.962,0,0,0,1.96-1.96v-1.96h1.96v1.96a1.962,1.962,0,0,0,1.96,1.96h3.92a1.962,1.962,0,0,0,1.96-1.96v-1.96h1.96v5.881h-19.6Zm3.92,0h1.96v1.96H39.2Zm7.841,0h3.92v1.96h-3.92Zm-19.6,2.639,5.881-2.205v5.012l-5.881-2.205Zm31.364,2.261a.981.981,0,0,1-.98.98h-.98V52.927h.98a.981.981,0,0,1,.98.98Zm-1.96-6.861H50.966v-29.4h1.96V20.246a.98.98,0,0,1,1.672-.695l.931.933,1.317-1.317Zm-.113-37.39a2.888,2.888,0,0,0,.23,2.7l-1.482,1.482A2.949,2.949,0,0,0,51.034,19.6h-2.1a2.949,2.949,0,0,0-4.449-1.843l-1.482-1.482a2.948,2.948,0,0,0-1.843-4.449v-2.1a2.948,2.948,0,0,0,1.843-4.449L44.489,3.8a2.888,2.888,0,0,0,2.7.23A2.886,2.886,0,0,0,48.938,1.96h2.1a2.887,2.887,0,0,0,1.748,2.073,2.889,2.889,0,0,0,2.7-.23l1.482,1.482a2.948,2.948,0,0,0,1.842,4.449v2.1a2.885,2.885,0,0,0-2.073,1.747Z" transform="translate(0 0)"/>
        <path id="Trazado_1056271" data-name="Trazado 1056271" d="M50.861,4a6.861,6.861,0,1,0,6.861,6.861A6.869,6.869,0,0,0,50.861,4Zm0,11.761a4.9,4.9,0,1,1,4.9-4.9A4.906,4.906,0,0,1,50.861,15.761Z" transform="translate(-0.875 -0.08)"/>
        <path id="Trazado_1056272" data-name="Trazado 1056272" d="M54,32h1.96v7.841H54Z" transform="translate(-1.073 -0.636)"/>
        <path id="Trazado_1056273" data-name="Trazado 1056273" d="M13.92,22H11.96A1.962,1.962,0,0,0,10,23.96V45.523a1.962,1.962,0,0,0,1.96,1.96h1.96a1.962,1.962,0,0,0,1.96-1.96V23.96A1.962,1.962,0,0,0,13.92,22Zm0,1.96v1.96H11.96V23.96ZM11.96,37.682v-1.96h1.961v1.96Zm1.961,1.96V41.6H11.96v-1.96ZM11.96,33.761V31.8h1.961v1.96Zm0-3.92v-1.96h1.96v1.96Zm0,15.682v-1.96h1.961v1.96Z" transform="translate(-0.199 -0.437)"/>
        <path id="Trazado_1056274" data-name="Trazado 1056274" d="M4.94,7.881A2.94,2.94,0,1,0,2,4.94,2.944,2.944,0,0,0,4.94,7.881Zm0-3.92a.98.98,0,1,1-.98.98A.981.981,0,0,1,4.94,3.96Z" transform="translate(-0.04 -0.04)"/>
        <path id="Trazado_1056275" data-name="Trazado 1056275" d="M12.94,7.881A2.94,2.94,0,1,0,10,4.94,2.944,2.944,0,0,0,12.94,7.881Zm0-3.92a.98.98,0,1,1-.98.98A.981.981,0,0,1,12.94,3.96Z" transform="translate(-0.199 -0.04)"/>
        <path id="Trazado_1056276" data-name="Trazado 1056276" d="M20.94,7.881A2.94,2.94,0,1,0,18,4.94,2.944,2.944,0,0,0,20.94,7.881Zm0-3.92a.98.98,0,1,1-.98.98A.981.981,0,0,1,20.94,3.96Z" transform="translate(-0.358 -0.04)"/>
        <path id="Trazado_1056277" data-name="Trazado 1056277" d="M37.6,45.523v-1.96a1.962,1.962,0,0,0-1.96-1.96V27.881a1.962,1.962,0,0,0,1.96-1.96V23.96A1.962,1.962,0,0,0,35.642,22h-1.96a1.962,1.962,0,0,0-1.96,1.96H23.881A1.962,1.962,0,0,0,21.92,22H19.96A1.962,1.962,0,0,0,18,23.96v1.96a1.962,1.962,0,0,0,1.96,1.96V41.6A1.962,1.962,0,0,0,18,43.563v1.96a1.962,1.962,0,0,0,1.96,1.96h1.96a1.962,1.962,0,0,0,1.96-1.96h7.841a1.962,1.962,0,0,0,1.96,1.96h1.96A1.962,1.962,0,0,0,37.6,45.523ZM33.682,23.96h1.96v1.96H33.682Zm-13.722,0h1.96v1.96H19.96Zm0,21.563v-1.96h1.96v1.96Zm11.761-1.96H23.881a1.962,1.962,0,0,0-1.96-1.96V27.881a1.962,1.962,0,0,0,1.96-1.96h7.841a1.962,1.962,0,0,0,1.96,1.96V41.6A1.962,1.962,0,0,0,31.722,43.563Zm1.96,0h1.96v1.96H33.682Z" transform="translate(-0.358 -0.437)"/>
        <path id="Trazado_1056278" data-name="Trazado 1056278" d="M38,35.841a1.962,1.962,0,0,0,1.96,1.96h5.881a1.962,1.962,0,0,0,1.96-1.96V29.96A1.962,1.962,0,0,0,45.841,28H39.96A1.962,1.962,0,0,0,38,29.96Zm1.96-5.881h5.881v5.881H39.96Z" transform="translate(-0.755 -0.557)"/>
        <path id="Trazado_1056279" data-name="Trazado 1056279" d="M40,40h1.96v1.96H40Z" transform="translate(-0.795 -0.795)"/>
        <path id="Trazado_1056280" data-name="Trazado 1056280" d="M44,40h1.96v1.96H44Z" transform="translate(-0.875 -0.795)"/>
      </g>
    </g>
  </g>
</svg>
