<svg xmlns="http://www.w3.org/2000/svg" xmlns:xlink="http://www.w3.org/1999/xlink" width="113" height="113" viewBox="0 0 113 113">
  <defs>
    <filter id="Trazado_982547" x="0" y="0" width="113" height="113" filterUnits="userSpaceOnUse">
      <feOffset dy="3" input="SourceAlpha"/>
      <feGaussianBlur stdDeviation="3" result="blur"/>
      <feFlood flood-opacity="0.161"/>
      <feComposite operator="in" in2="blur"/>
      <feComposite in="SourceGraphic"/>
    </filter>
  </defs>
  <g id="Grupo_1209454" data-name="Grupo 1209454" transform="translate(-901.127 -6286.401)">
    <g id="Grupo_1209254" data-name="Grupo 1209254" transform="translate(0.127 5048.607)">
      <g id="Grupo_1208679" data-name="Grupo 1208679" transform="translate(0 -740.122)">
        <g id="Grupo_1208144" data-name="Grupo 1208144" transform="translate(0 -3923.371)">
          <g id="Grupo_1202434" data-name="Grupo 1202434" transform="translate(-0.56 1255.773)">
            <g id="Grupo_1202053" data-name="Grupo 1202053" transform="translate(0 3240.511)">
              <g id="Grupo_1177898" data-name="Grupo 1177898" transform="translate(910.561 1411.003)">
                <g id="Grupo_1172010" data-name="Grupo 1172010" transform="translate(0)">
                  <g id="Grupo_1171046" data-name="Grupo 1171046">
                    <g id="Grupo_1148525" data-name="Grupo 1148525">
                      <g transform="matrix(1, 0, 0, 1, -9, -6)" filter="url(#Trazado_982547)">
                        <g id="Trazado_982547-2" data-name="Trazado 982547" transform="translate(9 6)" fill="#f6ecfe">
                          <path d="M 47.5 93.5 C 41.28937149047852 93.5 35.26533508300781 92.28397369384766 29.59518623352051 89.88570404052734 C 24.11771965026855 87.56893157958984 19.19813346862793 84.25196075439453 14.97309303283691 80.02691650390625 C 10.74804019927979 75.80186462402344 7.431066513061523 70.88229370117188 5.114293098449707 65.40481567382812 C 2.716026782989502 59.73468017578125 1.5 53.71062850952148 1.5 47.5 C 1.5 41.28937149047852 2.716026782989502 35.26533508300781 5.114293098449707 29.59518623352051 C 7.431066513061523 24.11771965026855 10.74804019927979 19.19813346862793 14.97309303283691 14.97309303283691 C 19.19813346862793 10.74804019927979 24.11771965026855 7.431066513061523 29.59518623352051 5.114293098449707 C 35.26533508300781 2.716026782989502 41.28937149047852 1.5 47.5 1.5 C 53.71062850952148 1.5 59.73468017578125 2.716026782989502 65.40481567382812 5.114293098449707 C 70.88229370117188 7.431066513061523 75.80186462402344 10.74804019927979 80.02691650390625 14.97309303283691 C 84.25196075439453 19.19813346862793 87.56893157958984 24.11771965026855 89.88570404052734 29.59518623352051 C 92.28397369384766 35.26533508300781 93.5 41.28937149047852 93.5 47.5 C 93.5 53.71062850952148 92.28397369384766 59.73468017578125 89.88570404052734 65.40481567382812 C 87.56893157958984 70.88229370117188 84.25196075439453 75.80186462402344 80.02691650390625 80.02691650390625 C 75.80186462402344 84.25196075439453 70.88229370117188 87.56893157958984 65.40481567382812 89.88570404052734 C 59.73468017578125 92.28397369384766 53.71062850952148 93.5 47.5 93.5 Z" stroke="none"/>
                          <path d="M 47.5 3 C 41.49121475219727 3 35.66376876831055 4.176155090332031 30.17950439453125 6.495796203613281 C 24.88084411621094 8.736953735351562 20.12152099609375 11.94598388671875 16.03375244140625 16.03375244140625 C 11.94598388671875 20.12152099609375 8.736953735351562 24.88084411621094 6.495796203613281 30.17950439453125 C 4.176155090332031 35.66376876831055 3 41.49121475219727 3 47.5 C 3 53.50878524780273 4.176155090332031 59.33623123168945 6.495796203613281 64.82049560546875 C 8.736953735351562 70.11915588378906 11.94598388671875 74.87847900390625 16.03375244140625 78.96624755859375 C 20.12152099609375 83.05401611328125 24.88084411621094 86.26304626464844 30.17950439453125 88.50419616699219 C 35.66376876831055 90.82384490966797 41.49121475219727 92 47.5 92 C 53.50878524780273 92 59.33623123168945 90.82384490966797 64.82049560546875 88.50419616699219 C 70.11915588378906 86.26304626464844 74.87847900390625 83.05401611328125 78.96624755859375 78.96624755859375 C 83.05401611328125 74.87847900390625 86.26304626464844 70.11915588378906 88.50419616699219 64.82049560546875 C 90.82384490966797 59.33623123168945 92 53.50878524780273 92 47.5 C 92 41.49121475219727 90.82384490966797 35.66376876831055 88.50419616699219 30.17950439453125 C 86.26304626464844 24.88084411621094 83.05401611328125 20.12152099609375 78.96624755859375 16.03375244140625 C 74.87847900390625 11.94598388671875 70.11915588378906 8.736953735351562 64.82049560546875 6.495796203613281 C 59.33623123168945 4.176155090332031 53.50878524780273 3 47.5 3 M 47.5 0 C 73.7335205078125 0 95 21.2664794921875 95 47.5 C 95 73.7335205078125 73.7335205078125 95 47.5 95 C 21.2664794921875 95 0 73.7335205078125 0 47.5 C 0 21.2664794921875 21.2664794921875 0 47.5 0 Z" stroke="none" fill="#aa52f9"/>
                        </g>
                      </g>
                    </g>
                  </g>
                </g>
              </g>
            </g>
          </g>
        </g>
      </g>
    </g>
    <g id="_11-Api" data-name="11-Api" transform="translate(925.336 6308.835)">
      <rect id="Rectángulo_419766" data-name="Rectángulo 419766" width="52" height="50" rx="4" transform="translate(3.165 3.165)" fill="#eee"/>
      <path id="Trazado_1056281" data-name="Trazado 1056281" d="M54.936,7.155V48.708a4.154,4.154,0,0,1-4.155,4.155H7.15a4.147,4.147,0,0,1-4.02-3.116H45.587a4.154,4.154,0,0,0,4.155-4.155V4.039A3.8,3.8,0,0,0,49.607,3h1.174a4.154,4.154,0,0,1,4.155,4.155Z" transform="translate(0.044 0.039)" fill="#e0e0e0"/>
      <path id="Trazado_1056282" data-name="Trazado 1056282" d="M54.941,7.155v6.233H3V7.155A4.154,4.154,0,0,1,7.155,3h43.63a4.154,4.154,0,0,1,4.155,4.155Z" transform="translate(0.039 0.039)" fill="#64b5f6"/>
      <path id="Trazado_1056283" data-name="Trazado 1056283" d="M62.165,47.957V45.208a1.039,1.039,0,0,0-.653-.965l-2.978-1.191a12.385,12.385,0,0,0-1-2.431l1.261-2.942a1.039,1.039,0,0,0-.22-1.144l-1.944-1.944a1.039,1.039,0,0,0-1.144-.22l-2.942,1.261a12.385,12.385,0,0,0-2.431-1l-1.191-2.978A1.039,1.039,0,0,0,47.957,31H45.208a1.039,1.039,0,0,0-.964.653l-1.191,2.978a12.39,12.39,0,0,0-2.431,1L37.68,34.372a1.039,1.039,0,0,0-1.144.22l-1.944,1.944a1.039,1.039,0,0,0-.22,1.144l1.261,2.942a12.393,12.393,0,0,0-1,2.431l-2.978,1.191a1.039,1.039,0,0,0-.654.964v2.749a1.039,1.039,0,0,0,.653.964l2.978,1.191a12.385,12.385,0,0,0,1,2.431l-1.261,2.942a1.039,1.039,0,0,0,.22,1.144l1.944,1.944a1.039,1.039,0,0,0,1.144.22l2.942-1.261a12.4,12.4,0,0,0,2.431,1l1.191,2.978a1.039,1.039,0,0,0,.964.653h2.749a1.039,1.039,0,0,0,.964-.653l1.191-2.978a12.4,12.4,0,0,0,2.431-1l2.942,1.261a1.039,1.039,0,0,0,1.144-.22l1.944-1.944a1.039,1.039,0,0,0,.22-1.144l-1.261-2.942a12.387,12.387,0,0,0,1-2.431l2.978-1.191A1.039,1.039,0,0,0,62.165,47.957Z" transform="translate(1.126 1.126)" fill="#ffb74d"/>
      <path id="Trazado_1056284" data-name="Trazado 1056284" d="M61.706,45.211v2.742a1.039,1.039,0,0,1-.654.966l-2.981,1.195a12.452,12.452,0,0,1-1,2.431l1.257,2.94a1.018,1.018,0,0,1-.218,1.143L56.17,58.57a1.018,1.018,0,0,1-1.143.218l-2.94-1.257a12.452,12.452,0,0,1-2.431,1L48.462,61.51a1.039,1.039,0,0,1-.966.654H44.753a1.039,1.039,0,0,1-.966-.654L42.8,59.038a1.392,1.392,0,0,0,.208.01,12.466,12.466,0,0,0,0-24.932,1.391,1.391,0,0,0-.208.01l.987-2.472A1.039,1.039,0,0,1,44.753,31H47.5a1.039,1.039,0,0,1,.966.654l1.195,2.981a12.452,12.452,0,0,1,2.431,1l2.94-1.257a1.018,1.018,0,0,1,1.143.218l1.943,1.943a1.018,1.018,0,0,1,.218,1.143l-1.257,2.94a12.452,12.452,0,0,1,1,2.431l2.981,1.195A1.039,1.039,0,0,1,61.706,45.211Z" transform="translate(1.584 1.126)" fill="#ffa726"/>
      <circle id="Elipse_13623" data-name="Elipse 13623" cx="7.5" cy="7.5" r="7.5" transform="translate(40.165 40.165)" fill="#eee"/>
      <path id="Trazado_1056285" data-name="Trazado 1056285" d="M42.117,46.272a7.272,7.272,0,0,1,5.714-7.1,7.272,7.272,0,1,0,0,14.2,7.272,7.272,0,0,1-5.713-7.1Z" transform="translate(1.436 1.436)" fill="#e0e0e0"/>
      <path id="Trazado_1056286" data-name="Trazado 1056286" d="M53.2,7.155v6.233H48.005V4.039A3.8,3.8,0,0,0,47.87,3h1.174A4.154,4.154,0,0,1,53.2,7.155Z" transform="translate(1.781 0.039)" fill="#42a5f5"/>
      <path id="Trazado_1056287" data-name="Trazado 1056287" d="M32.126,8.233a1.039,1.039,0,0,1,1.039-1.039H48.747a1.039,1.039,0,0,1,0,2.078H33.165A1.039,1.039,0,0,1,32.126,8.233ZM9.272,9.272A1.039,1.039,0,1,0,8.233,8.233,1.039,1.039,0,0,0,9.272,9.272Zm5.194,0a1.039,1.039,0,1,0-1.039-1.039A1.039,1.039,0,0,0,14.466,9.272Zm5.194,0a1.039,1.039,0,1,0-1.039-1.039A1.039,1.039,0,0,0,19.66,9.272ZM8.3,27.606,11.415,19.3a1.039,1.039,0,0,1,1.946,0l3.116,8.311a1.039,1.039,0,1,1-1.946.729l-.526-1.4H10.771l-.526,1.4A1.039,1.039,0,0,1,8.3,27.606Zm3.251-2.752h1.676l-.838-2.235Zm8.11,4.155a1.039,1.039,0,0,1-1.039-1.039V19.66a1.039,1.039,0,0,1,1.039-1.039h2.6a3.636,3.636,0,1,1,0,7.272H20.7V27.97A1.039,1.039,0,0,1,19.66,29.009ZM20.7,23.815h1.558a1.558,1.558,0,0,0,0-3.116H20.7Zm9.349,4.155V19.66a1.039,1.039,0,0,0-2.078,0V27.97a1.039,1.039,0,0,0,2.078,0ZM31.086,52.9a1.039,1.039,0,0,1-1.039,1.039H7.194A5.2,5.2,0,0,1,2,48.747V7.194A5.2,5.2,0,0,1,7.194,2h43.63a5.2,5.2,0,0,1,5.194,5.194V32.126a1.039,1.039,0,0,1-2.078,0V14.466H4.078V48.747a3.12,3.12,0,0,0,3.116,3.116H30.047A1.039,1.039,0,0,1,31.086,52.9ZM4.078,7.194v5.194H53.941V7.194a3.12,3.12,0,0,0-3.116-3.116H7.194A3.12,3.12,0,0,0,4.078,7.194ZM64.329,46.333v2.749a2.069,2.069,0,0,1-1.307,1.929L60.5,52.02a13.5,13.5,0,0,1-.695,1.692L60.873,56.2a2.065,2.065,0,0,1-.44,2.287l-1.944,1.944a2.071,2.071,0,0,1-2.287.44l-2.491-1.067a13.527,13.527,0,0,1-1.692.7l-1.008,2.521a2.066,2.066,0,0,1-1.929,1.306H46.333A2.065,2.065,0,0,1,44.4,63.022L43.4,60.5a13.528,13.528,0,0,1-1.692-.7l-2.491,1.067a2.07,2.07,0,0,1-2.287-.44l-1.944-1.944a2.067,2.067,0,0,1-.44-2.288l1.066-2.49a13.5,13.5,0,0,1-.695-1.692l-2.521-1.009a2.068,2.068,0,0,1-1.307-1.929V46.334A2.069,2.069,0,0,1,32.394,44.4L34.915,43.4a13.444,13.444,0,0,1,.7-1.692l-1.067-2.49a2.068,2.068,0,0,1,.439-2.287l1.945-1.944a2.065,2.065,0,0,1,2.287-.44L41.7,35.61a13.528,13.528,0,0,1,1.692-.7L44.4,32.393a2.066,2.066,0,0,1,1.928-1.306h2.749a2.065,2.065,0,0,1,1.929,1.307l1.008,2.52a13.527,13.527,0,0,1,1.692.7L56.2,34.543a2.066,2.066,0,0,1,2.287.44l1.944,1.944a2.067,2.067,0,0,1,.44,2.288L59.806,41.7a13.444,13.444,0,0,1,.7,1.692L63.023,44.4A2.067,2.067,0,0,1,64.329,46.333Zm-2.078,0-2.979-1.191a1.037,1.037,0,0,1-.611-.671,11.343,11.343,0,0,0-.916-2.226,1.039,1.039,0,0,1-.044-.908L58.964,38.4,57.02,36.452l-2.942,1.261a1.039,1.039,0,0,1-.906-.043,11.43,11.43,0,0,0-2.228-.917,1.039,1.039,0,0,1-.671-.61l-1.192-2.979H46.333l-1.191,2.979a1.039,1.039,0,0,1-.671.61,11.431,11.431,0,0,0-2.228.917,1.039,1.039,0,0,1-.906.043L38.4,36.452,36.452,38.4l1.261,2.942a1.039,1.039,0,0,1-.044.908,11.344,11.344,0,0,0-.916,2.226,1.037,1.037,0,0,1-.611.671l-2.979,1.191v2.749l2.979,1.192a1.037,1.037,0,0,1,.611.671,11.339,11.339,0,0,0,.916,2.227,1.039,1.039,0,0,1,.043.906l-1.26,2.942L38.4,58.964,41.338,57.7a1.036,1.036,0,0,1,.906.043,11.43,11.43,0,0,0,2.228.917,1.039,1.039,0,0,1,.671.61l1.192,2.979h2.748l1.191-2.979a1.039,1.039,0,0,1,.671-.61,11.43,11.43,0,0,0,2.228-.917,1.036,1.036,0,0,1,.906-.043l2.942,1.261,1.944-1.944L57.7,54.078a1.039,1.039,0,0,1,.043-.906,11.339,11.339,0,0,0,.916-2.227,1.037,1.037,0,0,1,.611-.671l2.978-1.191Zm-6.233,1.375A8.311,8.311,0,1,1,47.708,39.4a8.311,8.311,0,0,1,8.311,8.311Zm-2.078,0a6.233,6.233,0,1,0-6.233,6.233,6.233,6.233,0,0,0,6.233-6.233ZM9.272,35.242H21.738a1.039,1.039,0,0,0,0-2.078H9.272a1.039,1.039,0,0,0,0,2.078Zm20.776,5.194A1.039,1.039,0,0,0,29.009,39.4H9.272a1.039,1.039,0,0,0,0,2.078H29.009A1.039,1.039,0,0,0,30.048,40.436ZM9.272,45.63a1.039,1.039,0,0,0,0,2.078H21.738a1.039,1.039,0,0,0,0-2.078ZM33.165,34.2a1.039,1.039,0,0,0-1.039-1.039H25.893a1.039,1.039,0,0,0,0,2.078h6.233A1.039,1.039,0,0,0,33.165,34.2Z"/>
    </g>
  </g>
</svg>
