<svg xmlns="http://www.w3.org/2000/svg" xmlns:xlink="http://www.w3.org/1999/xlink" width="113" height="113" viewBox="0 0 113 113">
  <defs>
    <filter id="Trazado_982547" x="0" y="0" width="113" height="113" filterUnits="userSpaceOnUse">
      <feOffset dy="3" input="SourceAlpha"/>
      <feGaussianBlur stdDeviation="3" result="blur"/>
      <feFlood flood-opacity="0.161"/>
      <feComposite operator="in" in2="blur"/>
      <feComposite in="SourceGraphic"/>
    </filter>
  </defs>
  <g id="Grupo_1209465" data-name="Grupo 1209465" transform="translate(-1216.127 -6277.114)">
    <g id="Grupo_1209255" data-name="Grupo 1209255" transform="translate(0.127 5039.607)">
      <g id="Grupo_1208680" data-name="Grupo 1208680" transform="translate(0 -740.122)">
        <g id="Grupo_1208145" data-name="Grupo 1208145" transform="translate(0 -3923.371)">
          <g id="Grupo_1202435" data-name="Grupo 1202435" transform="translate(-0.56 1255.486)">
            <g id="Grupo_1202052" data-name="Grupo 1202052" transform="translate(1225.561 4651.514)">
              <g id="Grupo_1172010" data-name="Grupo 1172010" transform="translate(0)">
                <g id="Grupo_1171046" data-name="Grupo 1171046">
                  <g id="Grupo_1148525" data-name="Grupo 1148525">
                    <g transform="matrix(1, 0, 0, 1, -9, -6)" filter="url(#Trazado_982547)">
                      <g id="Trazado_982547-2" data-name="Trazado 982547" transform="translate(9 6)" fill="#f6ecfe">
                        <path d="M 47.5 93.5 C 41.28937149047852 93.5 35.26533508300781 92.28397369384766 29.59518623352051 89.88570404052734 C 24.11771965026855 87.56893157958984 19.19813346862793 84.25196075439453 14.97309303283691 80.02691650390625 C 10.74804019927979 75.80186462402344 7.431066513061523 70.88229370117188 5.114293098449707 65.40481567382812 C 2.716026782989502 59.73468017578125 1.5 53.71062850952148 1.5 47.5 C 1.5 41.28937149047852 2.716026782989502 35.26533508300781 5.114293098449707 29.59518623352051 C 7.431066513061523 24.11771965026855 10.74804019927979 19.19813346862793 14.97309303283691 14.97309303283691 C 19.19813346862793 10.74804019927979 24.11771965026855 7.431066513061523 29.59518623352051 5.114293098449707 C 35.26533508300781 2.716026782989502 41.28937149047852 1.5 47.5 1.5 C 53.71062850952148 1.5 59.73468017578125 2.716026782989502 65.40481567382812 5.114293098449707 C 70.88229370117188 7.431066513061523 75.80186462402344 10.74804019927979 80.02691650390625 14.97309303283691 C 84.25196075439453 19.19813346862793 87.56893157958984 24.11771965026855 89.88570404052734 29.59518623352051 C 92.28397369384766 35.26533508300781 93.5 41.28937149047852 93.5 47.5 C 93.5 53.71062850952148 92.28397369384766 59.73468017578125 89.88570404052734 65.40481567382812 C 87.56893157958984 70.88229370117188 84.25196075439453 75.80186462402344 80.02691650390625 80.02691650390625 C 75.80186462402344 84.25196075439453 70.88229370117188 87.56893157958984 65.40481567382812 89.88570404052734 C 59.73468017578125 92.28397369384766 53.71062850952148 93.5 47.5 93.5 Z" stroke="none"/>
                        <path d="M 47.5 3 C 41.49121475219727 3 35.66376876831055 4.176155090332031 30.17950439453125 6.495796203613281 C 24.88084411621094 8.736953735351562 20.12152099609375 11.94598388671875 16.03375244140625 16.03375244140625 C 11.94598388671875 20.12152099609375 8.736953735351562 24.88084411621094 6.495796203613281 30.17950439453125 C 4.176155090332031 35.66376876831055 3 41.49121475219727 3 47.5 C 3 53.50878524780273 4.176155090332031 59.33623123168945 6.495796203613281 64.82049560546875 C 8.736953735351562 70.11915588378906 11.94598388671875 74.87847900390625 16.03375244140625 78.96624755859375 C 20.12152099609375 83.05401611328125 24.88084411621094 86.26304626464844 30.17950439453125 88.50419616699219 C 35.66376876831055 90.82384490966797 41.49121475219727 92 47.5 92 C 53.50878524780273 92 59.33623123168945 90.82384490966797 64.82049560546875 88.50419616699219 C 70.11915588378906 86.26304626464844 74.87847900390625 83.05401611328125 78.96624755859375 78.96624755859375 C 83.05401611328125 74.87847900390625 86.26304626464844 70.11915588378906 88.50419616699219 64.82049560546875 C 90.82384490966797 59.33623123168945 92 53.50878524780273 92 47.5 C 92 41.49121475219727 90.82384490966797 35.66376876831055 88.50419616699219 30.17950439453125 C 86.26304626464844 24.88084411621094 83.05401611328125 20.12152099609375 78.96624755859375 16.03375244140625 C 74.87847900390625 11.94598388671875 70.11915588378906 8.736953735351562 64.82049560546875 6.495796203613281 C 59.33623123168945 4.176155090332031 53.50878524780273 3 47.5 3 M 47.5 0 C 73.7335205078125 0 95 21.2664794921875 95 47.5 C 95 73.7335205078125 73.7335205078125 95 47.5 95 C 21.2664794921875 95 0 73.7335205078125 0 47.5 C 0 21.2664794921875 21.2664794921875 0 47.5 0 Z" stroke="none" fill="#aa52f9"/>
                      </g>
                    </g>
                  </g>
                </g>
              </g>
            </g>
          </g>
        </g>
      </g>
    </g>
    <g id="issue_3958240_1_" data-name="issue_3958240 (1)" transform="translate(1246.983 6297.734)">
      <g id="Grupo_1209463" data-name="Grupo 1209463" transform="translate(1.061 1.061)">
        <g id="Grupo_1209455" data-name="Grupo 1209455" transform="translate(42.426 55.154)">
          <path id="Trazado_1056288" data-name="Trazado 1056288" d="M41,53h8.379a.862.862,0,0,1-.2.308l-7.87,7.87a.861.861,0,0,1-.308.2Z" transform="translate(-41 -53)" fill="#fcd770"/>
        </g>
        <g id="Grupo_1209456" data-name="Grupo 1209456" transform="translate(0 12.728)">
          <path id="Trazado_1056289" data-name="Trazado 1056289" d="M45.548,41.638a1.064,1.064,0,0,0-1.061-1.061H38.123a1.064,1.064,0,0,0-1.061,1.061V48a1.064,1.064,0,0,0,1.061,1.061h6.364A1.064,1.064,0,0,0,45.548,48ZM11.607,40.577H8.425a1.064,1.064,0,0,0-1.061,1.061V48a1.064,1.064,0,0,0,1.061,1.061h6.364A1.064,1.064,0,0,0,15.849,48V41.638a1.064,1.064,0,0,0-1.061-1.061Zm14.849,8.485H23.274a1.064,1.064,0,0,0-1.061,1.061v6.364a1.064,1.064,0,0,0,1.061,1.061h6.364A1.064,1.064,0,0,0,30.7,56.487V50.123a1.064,1.064,0,0,0-1.061-1.061Zm0-19.092h3.182A2.961,2.961,0,0,1,32.629,27a1.153,1.153,0,0,1,.191.011,2.9,2.9,0,0,1,1.888.859l4.5-4.5a2.9,2.9,0,0,1-.87-2.079A2.961,2.961,0,0,1,41.3,18.3V13h9.546a1.064,1.064,0,0,1,1.061,1.061V54.991a1.038,1.038,0,0,1-.1.435h-8.39v8.39a1.038,1.038,0,0,1-.435.1H2.061A1.064,1.064,0,0,1,1,62.851V14.061A1.064,1.064,0,0,1,2.061,13h9.546v5.3a2.961,2.961,0,0,1,2.97,2.991,2.9,2.9,0,0,1-.87,2.079l4.5,4.5a2.9,2.9,0,0,1,1.888-.859A1.153,1.153,0,0,1,20.283,27a2.961,2.961,0,0,1,2.991,2.97Z" transform="translate(-1 -13)" fill="#e6e9ed"/>
        </g>
        <g id="Grupo_1209457" data-name="Grupo 1209457" transform="translate(36.062 40.305)">
          <path id="Trazado_1056290" data-name="Trazado 1056290" d="M43.485,40.061v6.364a1.064,1.064,0,0,1-1.061,1.061H36.061A1.064,1.064,0,0,1,35,46.425V40.061A1.064,1.064,0,0,1,36.061,39h6.364A1.064,1.064,0,0,1,43.485,40.061Z" transform="translate(-35 -39)" fill="#b4dd7f"/>
        </g>
        <g id="Grupo_1209458" data-name="Grupo 1209458" transform="translate(21.213 48.79)">
          <path id="Trazado_1056291" data-name="Trazado 1056291" d="M25.243,47h3.182a1.064,1.064,0,0,1,1.061,1.061v6.364a1.064,1.064,0,0,1-1.061,1.061H22.061A1.064,1.064,0,0,1,21,54.425V48.061A1.064,1.064,0,0,1,22.061,47Z" transform="translate(-21 -47)" fill="#ef7385"/>
        </g>
        <g id="Grupo_1209459" data-name="Grupo 1209459" transform="translate(6.364 40.305)">
          <path id="Trazado_1056292" data-name="Trazado 1056292" d="M14.425,47.485H8.061A1.064,1.064,0,0,1,7,46.425V40.061A1.064,1.064,0,0,1,8.061,39h6.364a1.064,1.064,0,0,1,1.061,1.061v6.364A1.064,1.064,0,0,1,14.425,47.485Z" transform="translate(-7 -39)" fill="#ef7385"/>
        </g>
        <g id="Grupo_1209460" data-name="Grupo 1209460" transform="translate(10.607)">
          <path id="Trazado_1056293" data-name="Trazado 1056293" d="M19.485,27.739A2.9,2.9,0,0,0,17.6,28.6l-4.5-4.5a2.9,2.9,0,0,0,.87-2.079A2.961,2.961,0,0,0,11,19.031V12.667a2.961,2.961,0,0,0,2.97-2.991A2.9,2.9,0,0,0,13.1,7.6l4.5-4.5a2.9,2.9,0,0,0,2.079.87A2.961,2.961,0,0,0,22.667,1h6.364a2.961,2.961,0,0,0,2.991,2.97A2.9,2.9,0,0,0,34.1,3.1l4.5,4.5a2.971,2.971,0,0,0,2.1,5.07v6.364a2.961,2.961,0,0,0-2.97,2.991A2.9,2.9,0,0,0,38.6,24.1l-4.5,4.5a2.9,2.9,0,0,0-1.888-.859,1.153,1.153,0,0,0-.191-.011,2.961,2.961,0,0,0-2.991,2.97H22.667a2.961,2.961,0,0,0-2.991-2.97,1.153,1.153,0,0,0-.191.011Zm4.243-3.4a2.121,2.121,0,0,0,4.243,0,2.066,2.066,0,0,0-.021-.265,8.487,8.487,0,0,0,.021-16.44V6.3A1.064,1.064,0,0,0,26.91,5.243H24.789A1.064,1.064,0,0,0,23.728,6.3V7.629a8.491,8.491,0,0,0,0,16.44h.021A2.066,2.066,0,0,0,23.728,24.334Z" transform="translate(-11 -1)" fill="#fcd770"/>
        </g>
        <g id="Grupo_1209461" data-name="Grupo 1209461" transform="translate(23.334 21.213)">
          <path id="Trazado_1056294" data-name="Trazado 1056294" d="M27.221,22.856a2.066,2.066,0,0,1,.021.265,2.121,2.121,0,0,1-4.243,0,2.066,2.066,0,0,1,.021-.265,2.116,2.116,0,0,1,4.2,0Z" transform="translate(-23 -21)" fill="#ef7385"/>
        </g>
        <g id="Grupo_1209462" data-name="Grupo 1209462" transform="translate(23.334 4.243)">
          <path id="Trazado_1056295" data-name="Trazado 1056295" d="M27.243,7.386v9.281a1.064,1.064,0,0,1-1.061,1.061H24.061A1.064,1.064,0,0,1,23,16.667V6.061A1.064,1.064,0,0,1,24.061,5h2.121a1.064,1.064,0,0,1,1.061,1.061Z" transform="translate(-23 -5)" fill="#ef7385"/>
        </g>
      </g>
      <g id="Grupo_1209464" data-name="Grupo 1209464" transform="translate(0 0)">
        <path id="Trazado_1056296" data-name="Trazado 1056296" d="M22.418,24.688a3.172,3.172,0,0,0,6.256,0,9.55,9.55,0,0,0,.054-18.025V6.121A2.123,2.123,0,0,0,26.607,4H24.485a2.123,2.123,0,0,0-2.121,2.121v.544a9.549,9.549,0,0,0,.054,18.023Zm3.128.525a1.061,1.061,0,1,1,1.061-1.061A1.062,1.062,0,0,1,25.546,25.213ZM24.485,6.121h2.121V16.728H24.485ZM22.364,8.969v7.759a2.123,2.123,0,0,0,2.121,2.121h2.121a2.123,2.123,0,0,0,2.121-2.121V8.968a7.4,7.4,0,0,1-.448,13.585,3.154,3.154,0,0,0-5.469,0,7.4,7.4,0,0,1-.448-13.583Z" transform="translate(0.971 0.243)"/>
        <path id="Trazado_1056297" data-name="Trazado 1056297" d="M50.912,12.728H42.426V11.667H41.366A1.908,1.908,0,0,1,40.016,8.41l.75-.75-6-6-.75.75a1.858,1.858,0,0,1-2.079.414,1.857,1.857,0,0,1-1.178-1.764V0H22.274V1.061A1.855,1.855,0,0,1,21.1,2.823a1.855,1.855,0,0,1-2.079-.414l-.75-.75-6,6,.75.75a1.909,1.909,0,0,1-1.349,3.258H10.607v1.061H2.121A2.123,2.123,0,0,0,0,14.849v48.79a2.123,2.123,0,0,0,2.121,2.121H43.048a2.107,2.107,0,0,0,1.5-.622l7.864-7.864a2.133,2.133,0,0,0,.622-1.5V14.849A2.123,2.123,0,0,0,50.912,12.728Zm-38.184.925a4.045,4.045,0,0,0,2.443-5.9l3.192-3.193a3.957,3.957,0,0,0,3.546.22A3.961,3.961,0,0,0,24.259,2.12h4.514a3.961,3.961,0,0,0,2.351,2.662,3.957,3.957,0,0,0,3.546-.22l3.192,3.193a4.045,4.045,0,0,0,2.443,5.9v4.514a4.045,4.045,0,0,0-2.443,5.9l-3.192,3.193a4.045,4.045,0,0,0-5.9,2.443H24.259a4.045,4.045,0,0,0-5.9-2.443l-3.192-3.193a4.045,4.045,0,0,0-2.443-5.9Zm-10.607,1.2h8.485v5.3h1.061a1.908,1.908,0,0,1,1.349,3.257l-.75.75,6,6,.75-.75c.023-.023.052-.035.075-.057v4.589H12.728a2.123,2.123,0,0,0-2.121,2.121V40.3H8.485a2.123,2.123,0,0,0-2.121,2.121V48.79a2.123,2.123,0,0,0,2.121,2.121h6.364a2.123,2.123,0,0,0,2.121-2.121V42.426A2.123,2.123,0,0,0,14.849,40.3H12.728V36.062h6.364a2.123,2.123,0,0,0,2.121-2.121V29.065a1.842,1.842,0,0,1,1.061,1.694V31.82h3.182V48.79H23.334a2.123,2.123,0,0,0-2.121,2.121v6.364A2.123,2.123,0,0,0,23.334,59.4H29.7a2.123,2.123,0,0,0,2.121-2.121V50.912A2.123,2.123,0,0,0,29.7,48.79H27.577V31.82h3.182V30.759a1.843,1.843,0,0,1,1.061-1.694v4.876a2.123,2.123,0,0,0,2.121,2.121H40.3V40.3H38.184a2.123,2.123,0,0,0-2.121,2.121V48.79a2.123,2.123,0,0,0,2.121,2.121h6.364a2.123,2.123,0,0,0,2.121-2.121V42.865l1.811-1.811-1.5-1.5-1.173,1.173a2.106,2.106,0,0,0-1.259-.423H42.426V36.062A2.123,2.123,0,0,0,40.3,33.941H33.941V29.353c.024.022.052.034.075.057l.75.75,6-6-.75-.75a1.909,1.909,0,0,1,1.349-3.258h1.061v-5.3h8.485v40.3H42.426v8.485H2.121ZM14.849,42.426V48.79H8.485V42.426ZM29.7,50.912v6.364H23.334V50.912Zm11.667-2.743,3.183-3.183v3.8H38.184V42.426h5.925l-2.743,2.743L39.994,43.8l-1.5,1.5Zm8.046,9.107L44.548,62.14V57.275Z" transform="translate(0 0)"/>
        <path id="Trazado_1056298" data-name="Trazado 1056298" d="M23.793,54.035l1.371-1.371,1.371,1.371,1.5-1.5-1.371-1.371,1.371-1.371-1.5-1.5-1.371,1.371-1.371-1.371-1.5,1.5,1.371,1.371-1.371,1.371Z" transform="translate(1.352 2.929)"/>
        <path id="Trazado_1056299" data-name="Trazado 1056299" d="M9.793,46.035l1.371-1.371,1.371,1.371,1.5-1.5-1.371-1.371,1.371-1.371-1.5-1.5-1.371,1.371L9.793,40.293l-1.5,1.5,1.371,1.371L8.293,44.536Z" transform="translate(0.503 2.444)"/>
        <path id="Trazado_1056300" data-name="Trazado 1056300" d="M6,54H8.121v2.121H6Z" transform="translate(0.364 3.275)"/>
        <path id="Trazado_1056301" data-name="Trazado 1056301" d="M12,54h2.121v2.121H12Z" transform="translate(0.728 3.275)"/>
      </g>
    </g>
  </g>
</svg>
