<svg xmlns="http://www.w3.org/2000/svg" xmlns:xlink="http://www.w3.org/1999/xlink" width="108" height="108" viewBox="0 0 108 108">
  <defs>
    <filter id="Trazado_904820" x="0" y="0" width="108" height="108" filterUnits="userSpaceOnUse">
      <feOffset dy="3" input="SourceAlpha"/>
      <feGaussianBlur stdDeviation="3" result="blur"/>
      <feFlood flood-opacity="0.161"/>
      <feComposite operator="in" in2="blur"/>
      <feComposite in="SourceGraphic"/>
    </filter>
  </defs>
  <g id="Grupo_1209263" data-name="Grupo 1209263" transform="translate(-200 -1957.122)">
    <g id="Grupo_1208961" data-name="Grupo 1208961" transform="translate(209 1963.122)">
      <g id="Grupo_1174741" data-name="Grupo 1174741" transform="translate(0 0)">
        <g id="Grupo_1173585" data-name="Grupo 1173585">
          <g id="Grupo_1173428" data-name="Grupo 1173428">
            <g id="Grupo_1171958" data-name="Grupo 1171958">
              <g id="Grupo_1167341" data-name="Grupo 1167341">
                <g id="Grupo_1166792" data-name="Grupo 1166792">
                  <g transform="matrix(1, 0, 0, 1, -9, -6)" filter="url(#Trazado_904820)">
                    <g id="Trazado_904820-2" data-name="Trazado 904820" transform="translate(9 6)" fill="#e5fdfa">
                      <path d="M 44.99999618530273 88.50002288818359 C 39.12687301635742 88.50002288818359 33.43022155761719 87.35009765625 28.06829643249512 85.08218383789062 C 22.88852119445801 82.89133453369141 18.23629570007324 79.75460815429688 14.24084663391113 75.75916290283203 C 10.24540901184082 71.76371002197266 7.108683586120605 67.11148834228516 4.917821407318115 61.93171310424805 C 2.649921178817749 56.56978607177734 1.499996185302734 50.87313461303711 1.499996185302734 45.0000114440918 C 1.499996185302734 39.12688827514648 2.649921178817749 33.43023681640625 4.917821407318115 28.06831169128418 C 7.108683586120605 22.88853645324707 10.24540901184082 18.2363109588623 14.24084663391113 14.2408618927002 C 18.23629570007324 10.24541187286377 22.88852119445801 7.108686447143555 28.06829643249512 4.917836666107178 C 33.43022155761719 2.649924039840698 39.12687301635742 1.499998927116394 44.99999618530273 1.499998927116394 C 50.87311935424805 1.499998927116394 56.56977081298828 2.649924039840698 61.93169784545898 4.917836666107178 C 67.11147308349609 7.108686447143555 71.76369476318359 10.24541187286377 75.75914764404297 14.2408618927002 C 79.75458526611328 18.2363109588623 82.89131164550781 22.88853645324707 85.08216857910156 28.06831169128418 C 87.35007476806641 33.43023681640625 88.5 39.12688827514648 88.5 45.0000114440918 C 88.5 50.87313461303711 87.35007476806641 56.56978607177734 85.08216857910156 61.93171310424805 C 82.89131164550781 67.11148834228516 79.75458526611328 71.76371002197266 75.75914764404297 75.75916290283203 C 71.76369476318359 79.75460815429688 67.11147308349609 82.89133453369141 61.93169784545898 85.08218383789062 C 56.56977081298828 87.35009765625 50.87311935424805 88.50002288818359 44.99999618530273 88.50002288818359 Z" stroke="none"/>
                      <path d="M 44.99999618530273 3 C 39.32870864868164 3 33.82865142822266 4.110054016113281 28.65262603759766 6.299339294433594 C 23.65165710449219 8.414566040039062 19.15968322753906 11.44333648681641 15.301513671875 15.30152893066406 C 11.44333648681641 19.15969848632812 8.414566040039062 23.65165710449219 6.299339294433594 28.65264129638672 C 4.110054016113281 33.82866668701172 2.999992370605469 39.3287239074707 2.999992370605469 45.0000114440918 C 2.999992370605469 50.67129898071289 4.110054016113281 56.17135620117188 6.299339294433594 61.34738159179688 C 8.414566040039062 66.34836578369141 11.44333648681641 70.84032440185547 15.301513671875 74.69849395751953 C 19.15968322753906 78.55668640136719 23.65165710449219 81.58545684814453 28.65262603759766 83.70068359375 C 33.82865142822266 85.88996887207031 39.32870864868164 87.00002288818359 44.99999618530273 87.00002288818359 C 50.67128372192383 87.00002288818359 56.17134094238281 85.88996887207031 61.34736633300781 83.70068359375 C 66.34834289550781 81.58545684814453 70.84030914306641 78.55668640136719 74.69847869873047 74.69849395751953 C 78.55665588378906 70.84032440185547 81.58542633056641 66.34836578369141 83.70065307617188 61.34738159179688 C 85.88993835449219 56.17135620117188 87 50.67129898071289 87 45.0000114440918 C 87 39.3287239074707 85.88993835449219 33.82866668701172 83.70065307617188 28.65264129638672 C 81.58542633056641 23.65165710449219 78.55665588378906 19.15969848632812 74.69847869873047 15.30152893066406 C 70.84030914306641 11.44333648681641 66.34834289550781 8.414566040039062 61.34736633300781 6.299339294433594 C 56.17134094238281 4.110054016113281 50.67128372192383 3 44.99999618530273 3 M 44.99999618530273 0 C 69.85281372070312 0 90 20.14719390869141 90 45.0000114440918 C 90 69.85282897949219 69.85281372070312 90.00002288818359 44.99999618530273 90.00002288818359 C 20.14717864990234 90.00002288818359 -7.62939453125e-06 69.85282897949219 -7.62939453125e-06 45.0000114440918 C -7.62939453125e-06 20.14719390869141 20.14717864990234 0 44.99999618530273 0 Z" stroke="none" fill="#098576"/>
                    </g>
                  </g>
                </g>
              </g>
            </g>
          </g>
        </g>
      </g>
    </g>
    <g id="Layer_1" data-name="Layer 1" transform="translate(222.082 1975.974)">
      <path id="Trazado_1055589" data-name="Trazado 1055589" d="M35.766,168.479H12.7a1.129,1.129,0,0,1-1.129-1.129V129.129A1.129,1.129,0,0,1,12.7,128H35.766a1.129,1.129,0,0,1,1.128,1.129V167.35A1.129,1.129,0,0,1,35.766,168.479Z" transform="translate(-6.239 -109.774)" fill="#f5f5f5"/>
      <path id="Trazado_1055590" data-name="Trazado 1055590" d="M15.462,168.479H12.7a1.129,1.129,0,0,1-1.129-1.129V129.129A1.129,1.129,0,0,1,12.7,128h2.761a1.129,1.129,0,0,0-1.129,1.128V167.35A1.129,1.129,0,0,0,15.462,168.479Z" transform="translate(-6.24 -109.774)" fill="#e6e6e6"/>
      <path id="Trazado_1055591" data-name="Trazado 1055591" d="M291.795,168.479H268.728a1.129,1.129,0,0,1-1.128-1.128V129.129A1.129,1.129,0,0,1,268.729,128h23.066a1.129,1.129,0,0,1,1.129,1.129V167.35a1.129,1.129,0,0,1-1.129,1.129Z" transform="translate(-234.42 -109.774)" fill="#f5f5f5"/>
      <path id="Trazado_1055592" data-name="Trazado 1055592" d="M271.49,168.479h-2.762a1.129,1.129,0,0,1-1.128-1.128V129.129A1.129,1.129,0,0,1,268.729,128h2.761a1.129,1.129,0,0,0-1.129,1.128V167.35A1.129,1.129,0,0,0,271.49,168.479Z" transform="translate(-234.421 -109.774)" fill="#e6e6e6"/>
      <path id="Trazado_1055593" data-name="Trazado 1055593" d="M72.9,274.524H68.513v-7.063H72.9Z" transform="translate(-56.987 -234.066)" fill="#ff5959"/>
      <path id="Trazado_1055594" data-name="Trazado 1055594" d="M70.709,274.524h-2.2v-7.063h2.2Z" transform="translate(-56.987 -234.066)" fill="#e63a57"/>
      <path id="Trazado_1055595" data-name="Trazado 1055595" d="M113.278,245.275h-4.391V234.642h4.391Z" transform="translate(-92.97 -204.817)" fill="#ffdf40"/>
      <path id="Trazado_1055596" data-name="Trazado 1055596" d="M111.083,245.275h-2.2V234.642h2.2Z" transform="translate(-92.97 -204.817)" fill="#ffbe40"/>
      <path id="Trazado_1055597" data-name="Trazado 1055597" d="M153.651,208.622H149.26V193.516h4.391Z" transform="translate(-128.952 -168.164)" fill="#94e671"/>
      <path id="Trazado_1055598" data-name="Trazado 1055598" d="M151.456,208.622h-2.2V193.516h2.2Z" transform="translate(-128.952 -168.164)" fill="#52cc7b"/>
      <path id="Trazado_1055599" data-name="Trazado 1055599" d="M327.844,274.524h-4.391v-7.063h4.391Z" transform="translate(-284.199 -234.066)" fill="#ff5959"/>
      <path id="Trazado_1055600" data-name="Trazado 1055600" d="M325.649,274.524h-2.2v-7.063h2.2Z" transform="translate(-284.199 -234.066)" fill="#e63a57"/>
      <path id="Trazado_1055601" data-name="Trazado 1055601" d="M408.591,245.275H404.2V234.642h4.391Z" transform="translate(-356.163 -204.817)" fill="#ffdf40"/>
      <path id="Trazado_1055602" data-name="Trazado 1055602" d="M406.4,245.275h-2.2V234.642h2.2Z" transform="translate(-356.163 -204.817)" fill="#ffbe40"/>
      <path id="Trazado_1055603" data-name="Trazado 1055603" d="M368.217,208.622h-4.391V193.516h4.391Z" transform="translate(-320.18 -168.164)" fill="#94e671"/>
      <path id="Trazado_1055604" data-name="Trazado 1055604" d="M366.022,208.622h-2.2V193.516h2.2Z" transform="translate(-320.18 -168.164)" fill="#52cc7b"/>
      <path id="Trazado_1055605" data-name="Trazado 1055605" d="M65.367,20.537a8.7,8.7,0,1,1-8.7-8.7,8.7,8.7,0,0,1,8.7,8.7Z" transform="translate(-38.668 -6.242)" fill="#6cf"/>
      <path id="Trazado_1055606" data-name="Trazado 1055606" d="M57.558,29.2a8.824,8.824,0,0,1-.9.046,8.7,8.7,0,1,1,0-17.409,8.8,8.8,0,0,1,.9.046,8.705,8.705,0,0,0,0,17.318Z" transform="translate(-38.668 -6.241)" fill="#4da6ff"/>
      <path id="Trazado_1055607" data-name="Trazado 1055607" d="M80.518,63.3,77.969,60.75c-1.34-1.338.4-3.076,1.735-1.738l1.914,1.91,4.613-4.491c1.406-1.375,3.123.38,1.717,1.755l-5.255,5.119A1.547,1.547,0,0,1,80.518,63.3Z" transform="translate(-64.985 -45.545)" fill="#f5f5f5"/>
      <path id="Trazado_1055608" data-name="Trazado 1055608" d="M321.393,20.537a8.7,8.7,0,1,1-8.7-8.7,8.7,8.7,0,0,1,8.7,8.7Z" transform="translate(-266.847 -6.242)" fill="#ff5959"/>
      <path id="Trazado_1055609" data-name="Trazado 1055609" d="M313.574,29.2a8.8,8.8,0,0,1-.886.045,8.7,8.7,0,1,1,0-17.409,8.8,8.8,0,0,1,.886.045,8.7,8.7,0,0,0,0,17.319Z" transform="translate(-266.847 -6.241)" fill="#e63a57"/>
      <path id="Trazado_1055610" data-name="Trazado 1055610" d="M353.153,58.95A1.451,1.451,0,1,1,351.1,61l-1.724-1.724L347.653,61A1.451,1.451,0,1,1,345.6,58.95l1.724-1.724L345.6,55.5a1.451,1.451,0,0,1,2.052-2.052l1.724,1.724L351.1,53.45a1.451,1.451,0,1,1,2.052,2.052l-1.724,1.724Z" transform="translate(-303.536 -42.93)" fill="#f5f5f5"/>
      <path id="Trazado_1055611" data-name="Trazado 1055611" d="M29.528,17.465H26.914a9.466,9.466,0,1,0-17.839,0H6.461a1.893,1.893,0,0,0-1.89,1.89V57.577a1.893,1.893,0,0,0,1.89,1.89H29.528a1.893,1.893,0,0,0,1.89-1.89V19.355a1.893,1.893,0,0,0-1.89-1.89ZM17.994,6.353A7.943,7.943,0,1,1,10.051,14.3a7.943,7.943,0,0,1,7.943-7.943Zm11.9,51.224a.368.368,0,0,1-.367.367H6.461a.368.368,0,0,1-.367-.367V19.355a.368.368,0,0,1,.367-.368H9.776a9.462,9.462,0,0,0,16.437,0h3.315a.368.368,0,0,1,.367.367ZM27.269,44.568a.761.761,0,0,1-.761.761H9.481a.761.761,0,1,1,0-1.523H26.507a.761.761,0,0,1,.761.761Zm0,4.615a.761.761,0,0,1-.761.761H9.481a.761.761,0,0,1,0-1.523H26.507a.761.761,0,0,1,.761.761Zm0,4.615a.761.761,0,0,1-.761.761H9.481a.761.761,0,1,1,0-1.523H26.507a.761.761,0,0,1,.761.761ZM57.374,17.465H54.761a9.466,9.466,0,1,0-17.839,0H34.308a1.893,1.893,0,0,0-1.89,1.89V57.577a1.893,1.893,0,0,0,1.89,1.89H57.375a1.893,1.893,0,0,0,1.89-1.89V19.355a1.893,1.893,0,0,0-1.89-1.89ZM45.841,6.353A7.943,7.943,0,1,1,37.9,14.3a7.943,7.943,0,0,1,7.943-7.943Zm11.9,51.224a.368.368,0,0,1-.367.367H34.308a.368.368,0,0,1-.367-.367V19.355a.368.368,0,0,1,.367-.368h3.315a9.462,9.462,0,0,0,16.437,0h3.315a.368.368,0,0,1,.367.367ZM55.116,44.568a.761.761,0,0,1-.761.761H37.328a.761.761,0,1,1,0-1.523H54.354a.761.761,0,0,1,.761.761Zm0,4.615a.761.761,0,0,1-.761.761H37.328a.761.761,0,1,1,0-1.523H54.354a.761.761,0,0,1,.761.761Zm0,4.615a.761.761,0,0,1-.761.761H37.328a.761.761,0,1,1,0-1.523H54.354a.761.761,0,0,1,.761.761ZM11.526,41.219H24.7a.761.761,0,0,0,.761-.761V25.352a.761.761,0,0,0-.761-.761H20.308a.761.761,0,0,0-.761.761v3.712h-3.63a.761.761,0,0,0-.761.761v2.808h-3.63a.761.761,0,0,0-.761.761v7.063a.761.761,0,0,0,.761.761ZM21.07,26.114h2.869V39.7H21.07Zm-4.391,4.473h2.868V39.7H16.678Zm-4.391,3.57h2.869V39.7H12.287Zm26.967,7.063H52.428a.761.761,0,0,0,.761-.761V29.825a.761.761,0,0,0-.761-.761H48.8V25.352a.761.761,0,0,0-.761-.761H43.646a.761.761,0,0,0-.761.761v7.281h-3.63a.761.761,0,0,0-.761.761v7.063A.761.761,0,0,0,39.254,41.219ZM51.667,30.587V39.7H48.8v-9.11Zm-7.26-4.473h2.869V39.7H44.407Zm-4.391,8.043h2.869V39.7H40.016ZM15,18.289a2.316,2.316,0,0,0,3.244.018l5.256-5.12a2.3,2.3,0,0,0,.75-1.559,1.912,1.912,0,0,0-1.958-2,2.3,2.3,0,0,0-1.574.715L16.64,14.31l-1.382-1.38a2.132,2.132,0,0,0-2.08-.638,1.947,1.947,0,0,0-1.372,1.375,2.133,2.133,0,0,0,.641,2.079Zm-1.718-4.231a.426.426,0,0,1,.3-.3.4.4,0,0,1,.1-.014.752.752,0,0,1,.5.259l1.914,1.91a.761.761,0,0,0,1.069.007l4.614-4.492a.848.848,0,0,1,.544-.283.389.389,0,0,1,.4.412.846.846,0,0,1-.294.536l-5.256,5.12a.788.788,0,0,1-1.1-.006l-2.549-2.544a.658.658,0,0,1-.246-.608Zm29.436.237-1.186,1.186a2.212,2.212,0,0,0,3.128,3.128l1.186-1.186,1.186,1.186a2.15,2.15,0,0,0,1.54.669,2.278,2.278,0,0,0,1.588-.669,2.166,2.166,0,0,0,0-3.128L48.97,14.3l1.186-1.186a2.175,2.175,0,0,0,.67-1.673A2.313,2.313,0,0,0,48.7,9.311a2.177,2.177,0,0,0-1.673.671l-1.186,1.186L44.656,9.982a2.175,2.175,0,0,0-1.673-.671,2.313,2.313,0,0,0-2.126,2.126,2.175,2.175,0,0,0,.671,1.673ZM42.6,11.058a.745.745,0,0,1,.468-.227H43.1a.675.675,0,0,1,.476.228L45.3,12.782a.761.761,0,0,0,1.077,0L48.1,11.059a.64.64,0,0,1,.975,0,.745.745,0,0,1,.227.468.661.661,0,0,1-.227.507l-1.724,1.724a.761.761,0,0,0,0,1.077l1.724,1.724a.689.689,0,1,1-.975.975l-1.724-1.724a.761.761,0,0,0-1.077,0l-1.724,1.724a.689.689,0,1,1-.975-.975l1.724-1.724a.761.761,0,0,0,0-1.077L42.6,12.033a.661.661,0,0,1-.227-.507.746.746,0,0,1,.227-.468Z" transform="translate(0)"/>
    </g>
  </g>
</svg>
